# OBJ generated by ONSHAPE BY PTC INC, 1.219 Units = meters
mtllib Assembly 2 - ToF Right.mtl
g ToF Right
v 0.038775 0.0364313 0.0312208 
v 0.038775 0.0367 0.03125 
v 0.045125 0.0367 0.03125 
v 0.038775 0.0361751 0.0311345 
v 0.045125 0.0364313 0.0312208 
v 0.038775 0.0359435 0.0309951 
v 0.045125 0.0361751 0.0311345 
v 0.038775 0.0357473 0.0308092 
v 0.045125 0.0359435 0.0309951 
v 0.038775 0.0355956 0.0305855 
v 0.045125 0.0357473 0.0308092 
v 0.038775 0.0354956 0.0303344 
v 0.045125 0.0355956 0.0305855 
v 0.038775 0.0354518 0.0300677 
v 0.045125 0.0354956 0.0303344 
v 0.038775 0.0354665 0.0297978 
v 0.045125 0.0354518 0.0300677 
v 0.038775 0.0355388 0.0295373 
v 0.045125 0.0354665 0.0297978 
v 0.038775 0.0356654 0.0292985 
v 0.045125 0.0355388 0.0295373 
v 0.038775 0.0358404 0.0290925 
v 0.045125 0.0356654 0.0292985 
v 0.038775 0.0360556 0.0289289 
v 0.045125 0.0358404 0.0290925 
v 0.038775 0.0363009 0.0288154 
v 0.045125 0.0360556 0.0289289 
v 0.038775 0.0365649 0.0287573 
v 0.045125 0.0363009 0.0288154 
v 0.038775 0.0368351 0.0287573 
v 0.038775 0.0367 0.02875 
v 0.045125 0.0367 0.02875 
v 0.045125 0.0365649 0.0287573 
v 0.038775 0.0370991 0.0288154 
v 0.045125 0.0368351 0.0287573 
v 0.038775 0.0373444 0.0289289 
v 0.045125 0.0370991 0.0288154 
v 0.038775 0.0375596 0.0290925 
v 0.045125 0.0373444 0.0289289 
v 0.038775 0.0377346 0.0292985 
v 0.045125 0.0375596 0.0290925 
v 0.038775 0.0378612 0.0295373 
v 0.045125 0.0377346 0.0292985 
v 0.038775 0.0379335 0.0297978 
v 0.045125 0.0378612 0.0295373 
v 0.038775 0.0379482 0.0300677 
v 0.045125 0.0379335 0.0297978 
v 0.038775 0.0379044 0.0303344 
v 0.045125 0.0379482 0.0300677 
v 0.038775 0.0378044 0.0305855 
v 0.045125 0.0379044 0.0303344 
v 0.038775 0.0376527 0.0308092 
v 0.045125 0.0378044 0.0305855 
v 0.038775 0.0374565 0.0309951 
v 0.045125 0.0376527 0.0308092 
v 0.038775 0.0372249 0.0311345 
v 0.045125 0.0374565 0.0309951 
v 0.038775 0.0369687 0.0312208 
v 0.045125 0.0372249 0.0311345 
v 0.045125 0.0369687 0.0312208 
v 0.045125 0.0161751 0.0438345 
v 0.045125 0.0127 0.06096 
v 0.045125 0.0127 0.04572 
v 0.045125 0.0155956 0.0432855 
v 0.045125 0.0157473 0.0435092 
v 0.045125 0.0154518 0.0427677 
v 0.045125 0.0154956 0.0430344 
v 0.045125 0.0127 0.0313 
v 0.045125 0.0155388 0.0422373 
v 0.045125 0.0154665 0.0424978 
v 0.045125 0.0159435 0.0436951 
v 0.045125 0.0156654 0.0419985 
v 0.045125 0.0160556 0.0416289 
v 0.045125 0.0158404 0.0417925 
v 0.045125 0.0174565 0.0436951 
v 0.045125 0.0176527 0.0435092 
v 0.045125 0.0177346 0.0419985 
v 0.045125 0.0175596 0.0417925 
v 0.045125 0.0178044 0.0432855 
v 0.045125 0.0169687 0.0439208 
v 0.045125 0.0172249 0.0438345 
v 0.045125 0.0163009 0.0415154 
v 0.045125 0.0167 0.04145 
v 0.045125 0.0178612 0.0422373 
v 0.045125 0.019825 0.0762 
v 0.045125 0.0179482 0.0427677 
v 0.045125 0.0164313 0.0439208 
v 0.045125 0.0167 0.04395 
v 0.045125 0.0165649 0.0414573 
v 0.045125 0.0173444 0.0416289 
v 0.045125 0.0179335 0.0424978 
v 0.045125 0.0170991 0.0415154 
v 0.045125 0.0168351 0.0414573 
v 0.045125 0.0127 0.0762 
v 0.045125 0.00635 0.04572 
v 0.045125 0.0179044 0.0430344 
v 0.045125 0.00635 0.06096 
v 0.045125 0.019825 0.00635 
v 0.045125 0.0179482 0.0300677 
v 0.045125 0.0179044 0.0303344 
v 0.045125 0.0174565 0.0309951 
v 0.045125 0.0176527 0.0308092 
v 0.045125 0.0178044 0.0305855 
v 0.045125 0.0172249 0.0311345 
v 0.045125 0.0127 0.03048 
v 0.045125 0.0154518 0.0300677 
v 0.045125 0.0154956 0.0303344 
v 0.045125 0.0158404 0.0290925 
v 0.045125 0.0156654 0.0292985 
v 0.045125 0.0167 0.03125 
v 0.045125 0.0169687 0.0312208 
v 0.045125 0.0164313 0.0312208 
v 0.045125 0.0159435 0.0309951 
v 0.045125 0.0161751 0.0311345 
v 0.045125 0.0155956 0.0305855 
v 0.045125 0.0157473 0.0308092 
v 0.045125 0.0155388 0.0295373 
v 0.045125 0.0154665 0.0297978 
v 0.045125 0.0160556 0.0289289 
v 0.045125 0.0167 0.02875 
v 0.045125 0.0180167 -3.46945e-17 
v 0.045125 0.0180167 0.00635 
v 0.045125 0.0179335 0.0297978 
v 0.045125 0.0178612 0.0295373 
v 0.045125 0.00635 0.01524 
v 0.045125 0.0127 0.01524 
v 0.045125 0.0170991 0.0288154 
v 0.045125 0.0168351 0.0287573 
v 0.045125 0.0175596 0.0290925 
v 0.045125 0.0173444 0.0289289 
v 0.045125 0.0163009 0.0288154 
v 0.045125 0.0165649 0.0287573 
v 0.045125 0.0177346 0.0292985 
v 0.045125 0.00635 0.03048 
v 0.045125 0.04135 0.0313 
v 0.045125 0.0296833 0.00635 
v 0.045125 0.04135 2.61984e-17 
v 0.045125 0.0305108 0.0395869 
v 0.045125 0.0311176 0.038692 
v 0.045125 0.0356654 0.0419985 
v 0.045125 0.0267 0.04135 
v 0.045125 0.0354665 0.0424978 
v 0.045125 0.0318 0.06985 
v 0.045125 0.0358404 0.0417925 
v 0.045125 0.0315177 0.0376876 
v 0.045125 0.0316927 0.0366207 
v 0.045125 0.02225 0.06985 
v 0.045125 0.0256251 0.0412331 
v 0.045125 0.0236741 0.0403305 
v 0.045125 0.0246006 0.0408879 
v 0.045125 0.0308384 0.0335441 
v 0.045125 0.0301385 0.03272 
v 0.045125 0.0355388 0.0422373 
v 0.045125 0.0297259 0.0403305 
v 0.045125 0.0277749 0.0412331 
v 0.045125 0.0287994 0.0408879 
v 0.045125 0.0370991 0.0415154 
v 0.045125 0.0368351 0.0414573 
v 0.045125 0.0375596 0.0417925 
v 0.045125 0.0373444 0.0416289 
v 0.045125 0.0228892 0.0395869 
v 0.045125 0.0218823 0.0376876 
v 0.045125 0.0222824 0.038692 
v 0.045125 0.0217073 0.0366207 
v 0.045125 0.0272406 0.0313793 
v 0.045125 0.0267 0.03135 
v 0.045125 0.0292778 0.0320657 
v 0.045125 0.0378612 0.0422373 
v 0.045125 0.0377346 0.0419985 
v 0.045125 0.04135 0.0762 
v 0.045125 0.0374565 0.0436951 
v 0.045125 0.0376527 0.0435092 
v 0.045125 0.0232615 0.03272 
v 0.045125 0.0225616 0.0335441 
v 0.045125 0.0251035 0.0316117 
v 0.045125 0.0241222 0.0320657 
v 0.045125 0.0282965 0.0316117 
v 0.045125 0.0313449 0.0344993 
v 0.045125 0.0316341 0.0355411 
v 0.045125 0.0379044 0.0430344 
v 0.045125 0.0379482 0.0427677 
v 0.045125 0.0378044 0.0432855 
v 0.045125 0.0361751 0.0438345 
v 0.045125 0.0364313 0.0439208 
v 0.045125 0.0355956 0.0432855 
v 0.045125 0.0357473 0.0435092 
v 0.045125 0.0220551 0.0344993 
v 0.045125 0.0217659 0.0355411 
v 0.045125 0.0261594 0.0313793 
v 0.045125 0.0363009 0.0415154 
v 0.045125 0.0360556 0.0416289 
v 0.045125 0.0367 0.04145 
v 0.045125 0.0365649 0.0414573 
v 0.045125 0.0379335 0.0424978 
v 0.045125 0.0372249 0.0438345 
v 0.045125 0.0367 0.04395 
v 0.045125 0.0369687 0.0439208 
v 0.045125 0.0359435 0.0436951 
v 0.045125 0.0354956 0.0430344 
v 0.045125 0.0318 0.0762 
v 0.045125 0.0354518 0.0427677 
v 0.045125 0.02225 0.0762 
v 0.045125 0.0296833 -3.46945e-17 
v 0.045125 0.0127 -3.1225e-17 
v 0.045125 0.019825 0.0313 
v 0.038775 0.04135 0.0313 
v 0.038775 0.0308384 0.0335441 
v 0.038775 0.0365649 0.0414573 
v 0.038775 0.0301385 0.03272 
v 0.038775 0.0367 0.04145 
v 0.038775 0.0363009 0.0415154 
v 0.038775 0.0368351 0.0414573 
v 0.038775 0.0267 0.03135 
v 0.038775 0.0370991 0.0415154 
v 0.038775 0.0261594 0.0313793 
v 0.038775 0.0292778 0.0320657 
v 0.038775 0.0272406 0.0313793 
v 0.038775 0.019825 0.0762 
v 0.038775 0.0246006 0.0408879 
v 0.038775 0.0236741 0.0403305 
v 0.038775 0.0256251 0.0412331 
v 0.038775 0.02225 0.06985 
v 0.038775 0.0282965 0.0316117 
v 0.038775 0.0251035 0.0316117 
v 0.038775 0.0232615 0.03272 
v 0.038775 0.0241222 0.0320657 
v 0.038775 0.0220551 0.0344993 
v 0.038775 0.0225616 0.0335441 
v 0.038775 0.0218823 0.0376876 
v 0.038775 0.0217073 0.0366207 
v 0.038775 0.0228892 0.0395869 
v 0.038775 0.0222824 0.038692 
v 0.038775 0.02225 0.0762 
v 0.038775 0.0267 0.04135 
v 0.038775 0.0358404 0.0417925 
v 0.038775 0.0360556 0.0416289 
v 0.038775 0.0217659 0.0355411 
v 0.038775 0.0375596 0.0417925 
v 0.038775 0.0377346 0.0419985 
v 0.038775 0.0355388 0.0422373 
v 0.038775 0.0356654 0.0419985 
v 0.038775 0.0359435 0.0436951 
v 0.038775 0.0297259 0.0403305 
v 0.038775 0.0287994 0.0408879 
v 0.038775 0.0305108 0.0395869 
v 0.038775 0.0357473 0.0435092 
v 0.038775 0.0373444 0.0416289 
v 0.038775 0.0313449 0.0344993 
v 0.038775 0.0311176 0.038692 
v 0.038775 0.04135 0.0762 
v 0.038775 0.0379044 0.0430344 
v 0.038775 0.0378044 0.0432855 
v 0.038775 0.0379482 0.0427677 
v 0.038775 0.0378612 0.0422373 
v 0.038775 0.0354665 0.0424978 
v 0.038775 0.0277749 0.0412331 
v 0.038775 0.0355956 0.0432855 
v 0.038775 0.0376527 0.0435092 
v 0.038775 0.0379335 0.0424978 
v 0.038775 0.0316927 0.0366207 
v 0.038775 0.0315177 0.0376876 
v 0.038775 0.0354956 0.0430344 
v 0.038775 0.0361751 0.0438345 
v 0.038775 0.0318 0.06985 
v 0.038775 0.0372249 0.0438345 
v 0.038775 0.0369687 0.0439208 
v 0.038775 0.0374565 0.0436951 
v 0.038775 0.0354518 0.0427677 
v 0.038775 0.0316341 0.0355411 
v 0.038775 0.0367 0.04395 
v 0.038775 0.0364313 0.0439208 
v 0.038775 0.0296833 -3.46945e-17 
v 0.038775 0.04135 2.2729e-17 
v 0.038775 0.0296833 0.00635 
v 0.038775 0.0180167 0.00635 
v 0.038775 0.0167 0.02875 
v 0.038775 0.0168351 0.0287573 
v 0.038775 0.0127 0.03048 
v 0.038775 0.0155388 0.0295373 
v 0.038775 0.0156654 0.0292985 
v 0.038775 0.0178044 0.0305855 
v 0.038775 0.0176527 0.0308092 
v 0.038775 0.0165649 0.0287573 
v 0.038775 0.0158404 0.0290925 
v 0.038775 0.0127 0.0313 
v 0.038775 0.0154956 0.0303344 
v 0.038775 0.0174565 0.0309951 
v 0.038775 0.0179482 0.0300677 
v 0.038775 0.0179044 0.0303344 
v 0.038775 0.019825 0.00635 
v 0.038775 0.0178612 0.0295373 
v 0.038775 0.0175596 0.0290925 
v 0.038775 0.0177346 0.0292985 
v 0.038775 0.0160556 0.0289289 
v 0.038775 0.0154518 0.0300677 
v 0.038775 0.0154665 0.0297978 
v 0.038775 0.0155956 0.0305855 
v 0.038775 0.0159435 0.0309951 
v 0.038775 0.0157473 0.0308092 
v 0.038775 0.0172249 0.0311345 
v 0.038775 0.0169687 0.0312208 
v 0.038775 0.0163009 0.0288154 
v 0.038775 0.00635 0.03048 
v 0.038775 0.0164313 0.0312208 
v 0.038775 0.0161751 0.0311345 
v 0.038775 0.0167 0.03125 
v 0.038775 0.0179335 0.0297978 
v 0.038775 0.0170991 0.0288154 
v 0.038775 0.0173444 0.0289289 
v 0.038775 0.0127 -3.46945e-17 
v 0.038775 0.0127 0.01524 
v 0.038775 0.0180167 -3.46945e-17 
v 0.038775 0.0165649 0.0414573 
v 0.038775 0.0167 0.04145 
v 0.038775 0.0127 0.04572 
v 0.038775 0.0154665 0.0424978 
v 0.038775 0.0155956 0.0432855 
v 0.038775 0.0154956 0.0430344 
v 0.038775 0.0159435 0.0436951 
v 0.038775 0.0157473 0.0435092 
v 0.038775 0.0161751 0.0438345 
v 0.038775 0.0156654 0.0419985 
v 0.038775 0.0158404 0.0417925 
v 0.038775 0.0155388 0.0422373 
v 0.038775 0.0164313 0.0439208 
v 0.038775 0.0178044 0.0432855 
v 0.038775 0.0176527 0.0435092 
v 0.038775 0.0179482 0.0427677 
v 0.038775 0.0179044 0.0430344 
v 0.038775 0.0179335 0.0424978 
v 0.038775 0.0173444 0.0416289 
v 0.038775 0.0175596 0.0417925 
v 0.038775 0.0163009 0.0415154 
v 0.038775 0.0174565 0.0436951 
v 0.038775 0.0172249 0.0438345 
v 0.038775 0.0178612 0.0422373 
v 0.038775 0.0177346 0.0419985 
v 0.038775 0.0168351 0.0414573 
v 0.038775 0.0160556 0.0416289 
v 0.038775 0.0154518 0.0427677 
v 0.038775 0.0170991 0.0415154 
v 0.038775 0.0127 0.06096 
v 0.038775 0.00635 0.06096 
v 0.038775 0.0169687 0.0439208 
v 0.038775 0.0167 0.04395 
v 0.038775 0.00635 0.04572 
v 0.038775 0.0127 0.0762 
v 0.038775 0.00635 0.01524 
v 0.038775 0.0318 0.0762 
v 0.038775 0.019825 0.0313 
vn 5.33596e-16 0.21497 -0.976621 
vn 5.4637e-16 2.44929e-16 -1 
vn 4.95872e-16 0.419889 -0.907575 
vn 5.33596e-16 0.21497 -0.976621 
vn 4.34961e-16 0.605174 -0.796093 
vn 4.95872e-16 0.419889 -0.907575 
vn 3.53712e-16 0.762162 -0.647386 
vn 4.34961e-16 0.605174 -0.796093 
vn 2.55924e-16 0.883512 -0.468408 
vn 3.53712e-16 0.762162 -0.647386 
vn 1.46169e-16 0.96355 -0.267528 
vn 2.55924e-16 0.883512 -0.468408 
vn 2.95799e-17 0.998533 -0.0541389 
vn 1.46169e-16 0.96355 -0.267528 
vn -8.83928e-17 0.986827 0.161782 
vn 2.95799e-17 0.998533 -0.0541389 
vn -2.02232e-16 0.928977 0.370138 
vn -8.83928e-17 0.986827 0.161782 
vn -3.06616e-16 0.827689 0.561187 
vn -2.02232e-16 0.928977 0.370138 
vn -3.96662e-16 0.687699 0.725995 
vn -3.06616e-16 0.827689 0.561187 
vn -4.68161e-16 0.515554 0.856857 
vn -3.96662e-16 0.687699 0.725995 
vn -5.17769e-16 0.319302 0.947653 
vn -4.68161e-16 0.515554 0.856857 
vn -5.43167e-16 0.108119 0.994138 
vn -5.17769e-16 0.319302 0.947653 
vn -5.43167e-16 -0.108119 0.994138 
vn -5.4637e-16 -3.67394e-16 1 
vn -5.43167e-16 0.108119 0.994138 
vn -5.17769e-16 -0.319302 0.947653 
vn -5.43167e-16 -0.108119 0.994138 
vn -4.68161e-16 -0.515554 0.856857 
vn -5.17769e-16 -0.319302 0.947653 
vn -3.96662e-16 -0.687699 0.725995 
vn -4.68161e-16 -0.515554 0.856857 
vn -3.06616e-16 -0.827689 0.561187 
vn -3.96662e-16 -0.687699 0.725995 
vn -2.02232e-16 -0.928977 0.370138 
vn -3.06616e-16 -0.827689 0.561187 
vn -8.83928e-17 -0.986827 0.161782 
vn -2.02232e-16 -0.928977 0.370138 
vn 2.95799e-17 -0.998533 -0.0541389 
vn -8.83928e-17 -0.986827 0.161782 
vn 1.46169e-16 -0.96355 -0.267528 
vn 2.95799e-17 -0.998533 -0.0541389 
vn 2.55924e-16 -0.883512 -0.468408 
vn 1.46169e-16 -0.96355 -0.267528 
vn 3.53712e-16 -0.762162 -0.647386 
vn 2.55924e-16 -0.883512 -0.468408 
vn 4.34961e-16 -0.605174 -0.796093 
vn 3.53712e-16 -0.762162 -0.647386 
vn 4.95872e-16 -0.419889 -0.907575 
vn 4.34961e-16 -0.605174 -0.796093 
vn 5.33596e-16 -0.21497 -0.976621 
vn 4.95872e-16 -0.419889 -0.907575 
vn 1 0 5.4637e-16 
vn -1 0 -5.4637e-16 
vn -5.4637e-16 0 1 
vn 0 -1 0 
vn 5.4637e-16 0 -1 
vn 0 1 0 
vn -5.4637e-16 0 1 
vn 0 -1 0 
vn 0 1 0 
vn 5.4637e-16 0 -1 
vn 0 -1 0 
vn -5.4637e-16 0 1 
vn 5.4637e-16 0 -1 
vn 0 -1 0 
vn -5.4637e-16 0 1 
vn 0 1 0 
vn 0 -1 0 
vn -5.4637e-16 0 1 
vn 5.33596e-16 0.21497 -0.976621 
vn 5.4637e-16 2.44929e-16 -1 
vn 4.95872e-16 0.419889 -0.907575 
vn 5.33596e-16 0.21497 -0.976621 
vn 4.34961e-16 0.605174 -0.796093 
vn 4.95872e-16 0.419889 -0.907575 
vn 3.53712e-16 0.762162 -0.647386 
vn 4.34961e-16 0.605174 -0.796093 
vn 2.55924e-16 0.883512 -0.468408 
vn 3.53712e-16 0.762162 -0.647386 
vn 1.46169e-16 0.96355 -0.267528 
vn 2.55924e-16 0.883512 -0.468408 
vn 2.95799e-17 0.998533 -0.0541389 
vn 1.46169e-16 0.96355 -0.267528 
vn -8.83928e-17 0.986827 0.161782 
vn 2.95799e-17 0.998533 -0.0541389 
vn -2.02232e-16 0.928977 0.370138 
vn -8.83928e-17 0.986827 0.161782 
vn -3.06616e-16 0.827689 0.561187 
vn -2.02232e-16 0.928977 0.370138 
vn -3.96662e-16 0.687699 0.725995 
vn -3.06616e-16 0.827689 0.561187 
vn -4.68161e-16 0.515554 0.856857 
vn -3.96662e-16 0.687699 0.725995 
vn -5.17769e-16 0.319302 0.947653 
vn -4.68161e-16 0.515554 0.856857 
vn -5.43167e-16 0.108119 0.994138 
vn -5.17769e-16 0.319302 0.947653 
vn -5.43167e-16 -0.108119 0.994138 
vn -5.4637e-16 -3.67394e-16 1 
vn -5.43167e-16 0.108119 0.994138 
vn -5.17769e-16 -0.319302 0.947653 
vn -5.43167e-16 -0.108119 0.994138 
vn -4.68161e-16 -0.515554 0.856857 
vn -5.17769e-16 -0.319302 0.947653 
vn -3.96662e-16 -0.687699 0.725995 
vn -4.68161e-16 -0.515554 0.856857 
vn -3.06616e-16 -0.827689 0.561187 
vn -3.96662e-16 -0.687699 0.725995 
vn -2.02232e-16 -0.928977 0.370138 
vn -3.06616e-16 -0.827689 0.561187 
vn -8.83928e-17 -0.986827 0.161782 
vn -2.02232e-16 -0.928977 0.370138 
vn 2.95799e-17 -0.998533 -0.0541389 
vn -8.83928e-17 -0.986827 0.161782 
vn 1.46169e-16 -0.96355 -0.267528 
vn 2.95799e-17 -0.998533 -0.0541389 
vn 2.55924e-16 -0.883512 -0.468408 
vn 1.46169e-16 -0.96355 -0.267528 
vn 3.53712e-16 -0.762162 -0.647386 
vn 2.55924e-16 -0.883512 -0.468408 
vn 4.34961e-16 -0.605174 -0.796093 
vn 3.53712e-16 -0.762162 -0.647386 
vn 4.95872e-16 -0.419889 -0.907575 
vn 4.34961e-16 -0.605174 -0.796093 
vn 5.33596e-16 -0.21497 -0.976621 
vn 4.95872e-16 -0.419889 -0.907575 
vn 5.33596e-16 0.21497 -0.976621 
vn 5.4637e-16 2.44929e-16 -1 
vn 4.95872e-16 0.419889 -0.907575 
vn 5.33596e-16 0.21497 -0.976621 
vn 4.34961e-16 0.605174 -0.796093 
vn 4.95872e-16 0.419889 -0.907575 
vn 3.53712e-16 0.762162 -0.647386 
vn 4.34961e-16 0.605174 -0.796093 
vn 2.55924e-16 0.883512 -0.468408 
vn 3.53712e-16 0.762162 -0.647386 
vn 1.46169e-16 0.96355 -0.267528 
vn 2.55924e-16 0.883512 -0.468408 
vn 2.95799e-17 0.998533 -0.0541389 
vn 1.46169e-16 0.96355 -0.267528 
vn -8.83928e-17 0.986827 0.161782 
vn 2.95799e-17 0.998533 -0.0541389 
vn -2.02232e-16 0.928977 0.370138 
vn -8.83928e-17 0.986827 0.161782 
vn -3.06616e-16 0.827689 0.561187 
vn -2.02232e-16 0.928977 0.370138 
vn -3.96662e-16 0.687699 0.725995 
vn -3.06616e-16 0.827689 0.561187 
vn -4.68161e-16 0.515554 0.856857 
vn -3.96662e-16 0.687699 0.725995 
vn -5.17769e-16 0.319302 0.947653 
vn -4.68161e-16 0.515554 0.856857 
vn -5.43167e-16 0.108119 0.994138 
vn -5.17769e-16 0.319302 0.947653 
vn -5.43167e-16 -0.108119 0.994138 
vn -5.4637e-16 -3.67394e-16 1 
vn -5.43167e-16 0.108119 0.994138 
vn -5.17769e-16 -0.319302 0.947653 
vn -5.43167e-16 -0.108119 0.994138 
vn -4.68161e-16 -0.515554 0.856857 
vn -5.17769e-16 -0.319302 0.947653 
vn -3.96662e-16 -0.687699 0.725995 
vn -4.68161e-16 -0.515554 0.856857 
vn -3.06616e-16 -0.827689 0.561187 
vn -3.96662e-16 -0.687699 0.725995 
vn -2.02232e-16 -0.928977 0.370138 
vn -3.06616e-16 -0.827689 0.561187 
vn -8.83928e-17 -0.986827 0.161782 
vn -2.02232e-16 -0.928977 0.370138 
vn 2.95799e-17 -0.998533 -0.0541389 
vn -8.83928e-17 -0.986827 0.161782 
vn 1.46169e-16 -0.96355 -0.267528 
vn 2.95799e-17 -0.998533 -0.0541389 
vn 2.55924e-16 -0.883512 -0.468408 
vn 1.46169e-16 -0.96355 -0.267528 
vn 3.53712e-16 -0.762162 -0.647386 
vn 2.55924e-16 -0.883512 -0.468408 
vn 4.34961e-16 -0.605174 -0.796093 
vn 3.53712e-16 -0.762162 -0.647386 
vn 4.95872e-16 -0.419889 -0.907575 
vn 4.34961e-16 -0.605174 -0.796093 
vn 5.33596e-16 -0.21497 -0.976621 
vn 4.95872e-16 -0.419889 -0.907575 
vn 5.33596e-16 0.21497 -0.976621 
vn 5.4637e-16 2.44929e-16 -1 
vn 4.95872e-16 0.419889 -0.907575 
vn 5.33596e-16 0.21497 -0.976621 
vn 4.34961e-16 0.605174 -0.796093 
vn 4.95872e-16 0.419889 -0.907575 
vn 3.53712e-16 0.762162 -0.647386 
vn 4.34961e-16 0.605174 -0.796093 
vn 2.55924e-16 0.883512 -0.468408 
vn 3.53712e-16 0.762162 -0.647386 
vn 1.46169e-16 0.96355 -0.267528 
vn 2.55924e-16 0.883512 -0.468408 
vn 2.95799e-17 0.998533 -0.0541389 
vn 1.46169e-16 0.96355 -0.267528 
vn -8.83928e-17 0.986827 0.161782 
vn 2.95799e-17 0.998533 -0.0541389 
vn -2.02232e-16 0.928977 0.370138 
vn -8.83928e-17 0.986827 0.161782 
vn -3.06616e-16 0.827689 0.561187 
vn -2.02232e-16 0.928977 0.370138 
vn -3.96662e-16 0.687699 0.725995 
vn -3.06616e-16 0.827689 0.561187 
vn -4.68161e-16 0.515554 0.856857 
vn -3.96662e-16 0.687699 0.725995 
vn -5.17769e-16 0.319302 0.947653 
vn -4.68161e-16 0.515554 0.856857 
vn -5.43167e-16 0.108119 0.994138 
vn -5.17769e-16 0.319302 0.947653 
vn -5.43167e-16 -0.108119 0.994138 
vn -5.4637e-16 -3.67394e-16 1 
vn -5.43167e-16 0.108119 0.994138 
vn -5.17769e-16 -0.319302 0.947653 
vn -5.43167e-16 -0.108119 0.994138 
vn -4.68161e-16 -0.515554 0.856857 
vn -5.17769e-16 -0.319302 0.947653 
vn -3.96662e-16 -0.687699 0.725995 
vn -4.68161e-16 -0.515554 0.856857 
vn -3.06616e-16 -0.827689 0.561187 
vn -3.96662e-16 -0.687699 0.725995 
vn -2.02232e-16 -0.928977 0.370138 
vn -3.06616e-16 -0.827689 0.561187 
vn -8.83928e-17 -0.986827 0.161782 
vn -2.02232e-16 -0.928977 0.370138 
vn 2.95799e-17 -0.998533 -0.0541389 
vn -8.83928e-17 -0.986827 0.161782 
vn 1.46169e-16 -0.96355 -0.267528 
vn 2.95799e-17 -0.998533 -0.0541389 
vn 2.55924e-16 -0.883512 -0.468408 
vn 1.46169e-16 -0.96355 -0.267528 
vn 3.53712e-16 -0.762162 -0.647386 
vn 2.55924e-16 -0.883512 -0.468408 
vn 4.34961e-16 -0.605174 -0.796093 
vn 3.53712e-16 -0.762162 -0.647386 
vn 4.95872e-16 -0.419889 -0.907575 
vn 4.34961e-16 -0.605174 -0.796093 
vn 5.33596e-16 -0.21497 -0.976621 
vn 4.95872e-16 -0.419889 -0.907575 
vn 5.33596e-16 0.21497 -0.976621 
vn 5.4637e-16 2.44929e-16 -1 
vn 4.95872e-16 0.419889 -0.907575 
vn 5.33596e-16 0.21497 -0.976621 
vn 4.34961e-16 0.605174 -0.796093 
vn 4.95872e-16 0.419889 -0.907575 
vn 3.53712e-16 0.762162 -0.647386 
vn 4.34961e-16 0.605174 -0.796093 
vn 2.55924e-16 0.883512 -0.468408 
vn 3.53712e-16 0.762162 -0.647386 
vn 1.46169e-16 0.96355 -0.267528 
vn 2.55924e-16 0.883512 -0.468408 
vn 2.95799e-17 0.998533 -0.0541389 
vn 1.46169e-16 0.96355 -0.267528 
vn -8.83928e-17 0.986827 0.161782 
vn 2.95799e-17 0.998533 -0.0541389 
vn -2.02232e-16 0.928977 0.370138 
vn -8.83928e-17 0.986827 0.161782 
vn -3.06616e-16 0.827689 0.561187 
vn -2.02232e-16 0.928977 0.370138 
vn -3.96662e-16 0.687699 0.725995 
vn -3.06616e-16 0.827689 0.561187 
vn -4.68161e-16 0.515554 0.856857 
vn -3.96662e-16 0.687699 0.725995 
vn -5.17769e-16 0.319302 0.947653 
vn -4.68161e-16 0.515554 0.856857 
vn -5.43167e-16 0.108119 0.994138 
vn -5.17769e-16 0.319302 0.947653 
vn -5.43167e-16 -0.108119 0.994138 
vn -5.4637e-16 -3.67394e-16 1 
vn -5.43167e-16 0.108119 0.994138 
vn -5.17769e-16 -0.319302 0.947653 
vn -4.68161e-16 -0.515554 0.856857 
vn -3.96662e-16 -0.687699 0.725995 
vn -3.06616e-16 -0.827689 0.561187 
vn -2.02232e-16 -0.928977 0.370138 
vn -8.83928e-17 -0.986827 0.161782 
vn 2.95799e-17 -0.998533 -0.0541389 
vn 1.46169e-16 -0.96355 -0.267528 
vn 2.55924e-16 -0.883512 -0.468408 
vn 3.53712e-16 -0.762162 -0.647386 
vn 4.34961e-16 -0.605174 -0.796093 
vn 4.95872e-16 -0.419889 -0.907575 
vn 5.33596e-16 -0.21497 -0.976621 
usemtl 0.498039_0.498039_0.498039_0.000000_0.000000
o mesh0
f 1//1 2//2 3//2 
f 4//3 1//1 5//4 
f 6//5 4//3 7//6 
f 8//7 6//5 9//8 
f 10//9 8//7 11//10 
f 12//11 10//9 13//12 
f 14//13 12//11 15//14 
f 16//15 14//13 17//16 
f 18//17 16//15 19//18 
f 20//19 18//17 21//20 
f 22//21 20//19 23//22 
f 24//23 22//21 25//24 
f 26//25 24//23 27//26 
f 28//27 26//25 29//28 
f 30//29 31//30 32//30 
f 33//31 32//30 31//30 
f 31//30 28//27 33//31 
f 34//32 30//29 35//33 
f 36//34 34//32 37//35 
f 38//36 36//34 39//37 
f 40//38 38//36 41//39 
f 42//40 40//38 43//41 
f 44//42 42//40 45//43 
f 46//44 44//42 47//45 
f 48//46 46//44 49//47 
f 50//48 48//46 51//49 
f 52//50 50//48 53//51 
f 54//52 52//50 55//53 
f 56//54 54//52 57//55 
f 58//56 56//54 59//57 
f 2//2 58//56 60//56 
f 60//56 3//2 2//2 
f 59//57 60//56 58//56 
f 57//55 59//57 56//54 
f 55//53 57//55 54//52 
f 53//51 55//53 52//50 
f 51//49 53//51 50//48 
f 49//47 51//49 48//46 
f 47//45 49//47 46//44 
f 45//43 47//45 44//42 
f 43//41 45//43 42//40 
f 41//39 43//41 40//38 
f 39//37 41//39 38//36 
f 37//35 39//37 36//34 
f 35//33 37//35 34//32 
f 32//30 35//33 30//29 
f 29//28 33//31 28//27 
f 27//26 29//28 26//25 
f 25//24 27//26 24//23 
f 23//22 25//24 22//21 
f 21//20 23//22 20//19 
f 19//18 21//20 18//17 
f 17//16 19//18 16//15 
f 15//14 17//16 14//13 
f 13//12 15//14 12//11 
f 11//10 13//12 10//9 
f 9//8 11//10 8//7 
f 7//6 9//8 6//5 
f 5//4 7//6 4//3 
f 3//2 5//4 1//1 
o mesh1
f 61//58 62//58 63//58 
f 63//58 64//58 65//58 
f 63//58 66//58 67//58 
f 68//58 69//58 70//58 
f 63//58 71//58 61//58 
f 67//58 64//58 63//58 
f 68//58 72//58 69//58 
f 68//58 73//58 74//58 
f 62//58 75//58 76//58 
f 65//58 71//58 63//58 
f 74//58 72//58 68//58 
f 205//58 77//58 78//58 
f 76//58 79//58 62//58 
f 62//58 80//58 81//58 
f 63//58 70//58 66//58 
f 68//58 82//58 73//58 
f 68//58 205//58 83//58 
f 205//58 84//58 77//58 
f 205//58 85//58 86//58 
f 81//58 75//58 62//58 
f 62//58 87//58 88//58 
f 70//58 63//58 68//58 
f 83//58 89//58 68//58 
f 78//58 90//58 205//58 
f 86//58 91//58 205//58 
f 88//58 80//58 62//58 
f 89//58 82//58 68//58 
f 205//58 92//58 93//58 
f 91//58 84//58 205//58 
f 85//58 94//58 62//58 
f 61//58 87//58 62//58 
f 95//58 63//58 62//58 
f 90//58 92//58 205//58 
f 62//58 96//58 85//58 
f 62//58 97//58 95//58 
f 96//58 86//58 85//58 
f 93//58 83//58 205//58 
f 98//58 205//58 99//58 
f 205//58 100//58 99//58 
f 205//58 101//58 102//58 
f 205//58 103//58 100//58 
f 205//58 104//58 101//58 
f 105//58 106//58 107//58 
f 105//58 108//58 109//58 
f 102//58 103//58 205//58 
f 205//58 110//58 111//58 
f 68//58 112//58 110//58 
f 68//58 113//58 114//58 
f 68//58 115//58 116//58 
f 107//58 68//58 105//58 
f 105//58 117//58 118//58 
f 105//58 119//58 108//58 
f 120//58 121//58 122//58 
f 122//58 123//58 124//58 
f 125//58 119//58 105//58 
f 119//58 125//58 126//58 
f 111//58 104//58 205//58 
f 114//58 112//58 68//58 
f 107//58 115//58 68//58 
f 109//58 117//58 105//58 
f 122//58 127//58 128//58 
f 122//58 129//58 130//58 
f 122//58 99//58 123//58 
f 126//58 131//58 119//58 
f 126//58 120//58 132//58 
f 110//58 205//58 68//58 
f 118//58 106//58 105//58 
f 130//58 127//58 122//58 
f 124//58 133//58 122//58 
f 121//58 120//58 126//58 
f 132//58 131//58 126//58 
f 116//58 113//58 68//58 
f 133//58 129//58 122//58 
f 105//58 134//58 125//58 
f 122//58 128//58 120//58 
f 99//58 122//58 98//58 
f 135//58 55//58 53//58 
f 135//58 60//58 59//58 
f 98//58 23//58 21//58 
f 27//58 98//58 136//58 
f 136//58 32//58 33//58 
f 135//58 45//58 43//58 
f 135//58 57//58 55//58 
f 135//58 3//58 60//58 
f 205//58 5//58 3//58 
f 205//58 9//58 7//58 
f 98//58 25//58 23//58 
f 33//58 29//58 136//58 
f 43//58 137//58 135//58 
f 59//58 57//58 135//58 
f 7//58 5//58 205//58 
f 205//58 15//58 13//58 
f 21//58 205//58 98//58 
f 136//58 29//58 27//58 
f 137//58 37//58 35//58 
f 137//58 41//58 39//58 
f 135//58 47//58 45//58 
f 135//58 51//58 49//58 
f 3//58 135//58 205//58 
f 13//58 11//58 205//58 
f 205//58 19//58 17//58 
f 27//58 25//58 98//58 
f 39//58 37//58 137//58 
f 49//58 47//58 135//58 
f 11//58 9//58 205//58 
f 21//58 19//58 205//58 
f 43//58 41//58 137//58 
f 17//58 15//58 205//58 
f 137//58 32//58 136//58 
f 53//58 51//58 135//58 
f 35//58 32//58 137//58 
f 138//58 139//58 140//58 
f 141//58 142//58 143//58 
f 144//58 145//58 146//58 
f 139//58 144//58 140//58 
f 147//58 148//58 141//58 
f 147//58 149//58 150//58 
f 135//58 151//58 152//58 
f 144//58 139//58 145//58 
f 153//58 154//58 138//58 
f 153//58 155//58 156//58 
f 135//58 157//58 158//58 
f 135//58 159//58 160//58 
f 141//58 153//58 142//58 
f 147//58 161//58 149//58 
f 147//58 162//58 163//58 
f 205//58 164//58 162//58 
f 135//58 165//58 166//58 
f 152//58 167//58 135//58 
f 140//58 153//58 138//58 
f 153//58 141//58 155//58 
f 160//58 157//58 135//58 
f 135//58 168//58 169//58 
f 170//58 171//58 172//58 
f 150//58 148//58 147//58 
f 162//58 147//58 205//58 
f 205//58 173//58 174//58 
f 205//58 175//58 176//58 
f 135//58 177//58 165//58 
f 135//58 178//58 151//58 
f 135//58 146//58 179//58 
f 156//58 154//58 153//58 
f 169//58 159//58 135//58 
f 170//58 180//58 181//58 
f 172//58 182//58 170//58 
f 170//58 183//58 184//58 
f 170//58 185//58 186//58 
f 163//58 161//58 147//58 
f 205//58 187//58 188//58 
f 176//58 173//58 205//58 
f 205//58 166//58 189//58 
f 167//58 177//58 135//58 
f 146//58 135//58 144//58 
f 135//58 190//58 191//58 
f 135//58 192//58 193//58 
f 135//58 194//58 168//58 
f 181//58 135//58 170//58 
f 170//58 195//58 171//58 
f 170//58 196//58 197//58 
f 170//58 198//58 183//58 
f 170//58 199//58 185//58 
f 200//58 201//58 199//58 
f 143//58 142//58 201//58 
f 188//58 164//58 205//58 
f 189//58 175//58 205//58 
f 179//58 178//58 135//58 
f 193//58 190//58 135//58 
f 181//58 194//58 135//58 
f 197//58 195//58 170//58 
f 186//58 198//58 170//58 
f 201//58 200//58 143//58 
f 174//58 187//58 205//58 
f 191//58 144//58 135//58 
f 182//58 180//58 170//58 
f 199//58 170//58 200//58 
f 166//58 205//58 135//58 
f 184//58 196//58 170//58 
f 85//58 205//58 147//58 
f 158//58 192//58 135//58 
f 143//58 147//58 141//58 
f 147//58 202//58 85//58 
f 136//58 203//58 137//58 
f 126//58 204//58 121//58 
f 79//58 96//58 62//58 
o mesh2
f 206//59 207//59 208//59 
f 206//59 209//59 207//59 
f 208//59 210//59 206//59 
f 207//59 211//59 208//59 
f 210//59 212//59 206//59 
f 206//59 350//59 213//59 
f 212//59 214//59 206//59 
f 350//59 215//59 213//59 
f 206//59 216//59 209//59 
f 213//59 217//59 206//59 
f 218//59 219//59 220//59 
f 221//59 218//59 222//59 
f 206//59 223//59 216//59 
f 350//59 224//59 215//59 
f 350//59 225//59 226//59 
f 350//59 227//59 228//59 
f 218//59 229//59 230//59 
f 218//59 231//59 232//59 
f 218//59 221//59 219//59 
f 218//59 233//59 222//59 
f 217//59 223//59 206//59 
f 228//59 225//59 350//59 
f 232//59 229//59 218//59 
f 222//59 234//59 221//59 
f 226//59 224//59 350//59 
f 207//59 235//59 236//59 
f 350//59 230//59 237//59 
f 220//59 231//59 218//59 
f 236//59 211//59 207//59 
f 230//59 350//59 218//59 
f 206//59 238//59 239//59 
f 237//59 227//59 350//59 
f 207//59 240//59 241//59 
f 242//59 243//59 244//59 
f 245//59 242//59 246//59 
f 206//59 247//59 238//59 
f 241//59 235//59 207//59 
f 240//59 207//59 248//59 
f 244//59 222//59 242//59 
f 246//59 249//59 245//59 
f 250//59 251//59 252//59 
f 250//59 206//59 253//59 
f 239//59 254//59 206//59 
f 248//59 255//59 240//59 
f 244//59 256//59 222//59 
f 246//59 257//59 249//59 
f 252//59 258//59 250//59 
f 206//59 259//59 253//59 
f 214//59 247//59 206//59 
f 245//59 243//59 242//59 
f 257//59 260//59 261//59 
f 260//59 257//59 262//59 
f 263//59 222//59 264//59 
f 250//59 265//59 266//59 
f 258//59 267//59 250//59 
f 254//59 259//59 206//59 
f 248//59 262//59 268//59 
f 261//59 249//59 257//59 
f 262//59 248//59 269//59 
f 264//59 270//59 271//59 
f 267//59 265//59 250//59 
f 268//59 255//59 248//59 
f 262//59 269//59 260//59 
f 264//59 271//59 263//59 
f 253//59 251//59 250//59 
f 263//59 242//59 222//59 
f 250//59 270//59 264//59 
f 256//59 234//59 222//59 
f 266//59 270//59 250//59 
f 272//59 28//59 31//59 
f 31//59 273//59 272//59 
f 206//59 273//59 40//59 
f 31//59 30//59 273//59 
f 28//59 272//59 274//59 
f 273//59 38//59 40//59 
f 273//59 34//59 36//59 
f 274//59 26//59 28//59 
f 350//59 12//59 274//59 
f 206//59 44//59 46//59 
f 40//59 42//59 206//59 
f 30//59 34//59 273//59 
f 274//59 22//59 24//59 
f 274//59 12//59 14//59 
f 350//59 10//59 12//59 
f 350//59 206//59 2//59 
f 206//59 54//59 56//59 
f 206//59 48//59 50//59 
f 42//59 44//59 206//59 
f 24//59 26//59 274//59 
f 274//59 18//59 20//59 
f 14//59 16//59 274//59 
f 350//59 8//59 10//59 
f 2//59 1//59 350//59 
f 56//59 58//59 206//59 
f 50//59 52//59 206//59 
f 36//59 38//59 273//59 
f 16//59 18//59 274//59 
f 350//59 6//59 8//59 
f 1//59 4//59 350//59 
f 52//59 54//59 206//59 
f 20//59 22//59 274//59 
f 4//59 6//59 350//59 
f 46//59 48//59 206//59 
f 58//59 2//59 206//59 
f 275//59 276//59 277//59 
f 278//59 279//59 280//59 
f 350//59 281//59 282//59 
f 275//59 283//59 276//59 
f 280//59 284//59 278//59 
f 278//59 285//59 286//59 
f 282//59 287//59 350//59 
f 350//59 288//59 289//59 
f 350//59 290//59 291//59 
f 290//59 292//59 293//59 
f 277//59 290//59 275//59 
f 284//59 294//59 278//59 
f 278//59 295//59 296//59 
f 285//59 297//59 286//59 
f 285//59 298//59 299//59 
f 350//59 300//59 301//59 
f 289//59 281//59 350//59 
f 293//59 291//59 290//59 
f 275//59 302//59 283//59 
f 275//59 303//59 278//59 
f 296//59 279//59 278//59 
f 299//59 297//59 285//59 
f 285//59 304//59 305//59 
f 285//59 350//59 306//59 
f 287//59 300//59 350//59 
f 291//59 307//59 350//59 
f 290//59 308//59 309//59 
f 278//59 302//59 275//59 
f 310//59 311//59 275//59 
f 286//59 295//59 278//59 
f 306//59 304//59 285//59 
f 307//59 288//59 350//59 
f 277//59 308//59 290//59 
f 275//59 312//59 310//59 
f 305//59 298//59 285//59 
f 309//59 292//59 290//59 
f 311//59 303//59 275//59 
f 301//59 306//59 350//59 
f 294//59 302//59 278//59 
f 285//59 313//59 314//59 
f 285//59 315//59 316//59 
f 315//59 317//59 318//59 
f 315//59 319//59 320//59 
f 315//59 218//59 321//59 
f 314//59 350//59 285//59 
f 285//59 322//59 323//59 
f 316//59 324//59 285//59 
f 320//59 317//59 315//59 
f 218//59 325//59 321//59 
f 218//59 326//59 327//59 
f 218//59 328//59 329//59 
f 350//59 330//59 328//59 
f 350//59 331//59 332//59 
f 285//59 333//59 313//59 
f 324//59 322//59 285//59 
f 321//59 319//59 315//59 
f 218//59 334//59 335//59 
f 329//59 326//59 218//59 
f 350//59 336//59 330//59 
f 332//59 337//59 350//59 
f 314//59 338//59 350//59 
f 323//59 339//59 285//59 
f 318//59 340//59 315//59 
f 327//59 334//59 218//59 
f 337//59 336//59 350//59 
f 338//59 341//59 350//59 
f 340//59 316//59 315//59 
f 328//59 218//59 350//59 
f 339//59 333//59 285//59 
f 218//59 315//59 342//59 
f 343//59 342//59 315//59 
f 335//59 344//59 218//59 
f 218//59 345//59 325//59 
f 315//59 346//59 343//59 
f 341//59 331//59 350//59 
f 344//59 345//59 218//59 
f 342//59 347//59 218//59 
f 311//59 348//59 303//59 
f 274//59 290//59 350//59 
f 264//59 349//59 250//59 
o mesh3
f 233//60 218//60 85//60 
f 85//60 218//60 347//60 
f 347//60 94//60 85//60 
f 85//60 202//60 233//60 
o mesh4
f 348//61 125//61 134//61 
f 134//61 303//61 348//61 
o mesh5
f 97//61 343//61 346//61 
f 346//61 95//61 97//61 
o mesh6
f 121//62 204//62 310//62 
f 310//62 312//62 121//62 
o mesh7
f 137//62 203//62 272//62 
f 272//62 273//62 137//62 
o mesh8
f 206//63 250//63 170//63 
f 206//63 135//63 137//63 
f 137//63 273//63 206//63 
f 170//63 135//63 206//63 
o mesh9
f 250//64 349//64 200//64 
f 200//64 170//64 250//64 
o mesh10
f 203//65 136//65 274//65 
f 274//65 272//65 203//65 
o mesh11
f 122//66 121//66 312//66 
f 312//66 275//66 122//66 
o mesh12
f 136//67 98//67 290//67 
f 290//67 98//67 122//67 
f 122//67 275//67 290//67 
f 290//67 274//67 136//67 
o mesh13
f 315//67 63//67 95//67 
f 95//67 346//67 315//67 
o mesh14
f 105//68 68//68 285//68 
f 63//68 315//68 285//68 
f 285//68 68//68 63//68 
f 285//68 278//68 105//68 
o mesh15
f 134//69 105//69 278//69 
f 278//69 303//69 134//69 
o mesh16
f 126//70 125//70 348//70 
f 348//70 311//70 126//70 
o mesh17
f 204//71 126//71 311//71 
f 311//71 310//71 204//71 
o mesh18
f 62//71 94//71 347//71 
f 347//71 342//71 62//71 
o mesh19
f 62//72 342//72 343//72 
f 343//72 97//72 62//72 
o mesh20
f 147//73 222//73 233//73 
f 233//73 202//73 147//73 
o mesh21
f 200//74 349//74 264//74 
f 264//74 143//74 200//74 
o mesh22
f 143//75 264//75 222//75 
f 222//75 147//75 143//75 
o mesh23
f 304//76 306//77 110//77 
f 305//78 304//76 112//79 
f 298//80 305//78 114//81 
f 299//82 298//80 113//83 
f 297//84 299//82 116//85 
f 286//86 297//84 115//87 
f 295//88 286//86 107//89 
f 296//90 295//88 106//91 
f 279//92 296//90 118//93 
f 280//94 279//92 117//95 
f 284//96 280//94 109//97 
f 294//98 284//96 108//99 
f 302//100 294//98 119//101 
f 283//102 302//100 131//103 
f 277//104 276//105 120//105 
f 132//106 120//105 276//105 
f 276//105 283//102 132//106 
f 308//107 277//104 128//108 
f 309//109 308//107 127//110 
f 292//111 309//109 130//112 
f 293//113 292//111 129//114 
f 291//115 293//113 133//116 
f 307//117 291//115 124//118 
f 288//119 307//117 123//120 
f 289//121 288//119 99//122 
f 281//123 289//121 100//124 
f 282//125 281//123 103//126 
f 287//127 282//125 102//128 
f 300//129 287//127 101//130 
f 301//131 300//129 104//132 
f 306//77 301//131 111//131 
f 111//131 110//77 306//77 
f 104//132 111//131 301//131 
f 101//130 104//132 300//129 
f 102//128 101//130 287//127 
f 103//126 102//128 282//125 
f 100//124 103//126 281//123 
f 99//122 100//124 289//121 
f 123//120 99//122 288//119 
f 124//118 123//120 307//117 
f 133//116 124//118 291//115 
f 129//114 133//116 293//113 
f 130//112 129//114 292//111 
f 127//110 130//112 309//109 
f 128//108 127//110 308//107 
f 120//105 128//108 277//104 
f 131//103 132//106 283//102 
f 119//101 131//103 302//100 
f 108//99 119//101 294//98 
f 109//97 108//99 284//96 
f 117//95 109//97 280//94 
f 118//93 117//95 279//92 
f 106//91 118//93 296//90 
f 107//89 106//91 295//88 
f 115//87 107//89 286//86 
f 116//85 115//87 297//84 
f 113//83 116//85 299//82 
f 114//81 113//83 298//80 
f 112//79 114//81 305//78 
f 110//77 112//79 304//76 
o mesh24
f 271//133 270//134 196//134 
f 263//135 271//133 184//136 
f 242//137 263//135 183//138 
f 246//139 242//137 198//140 
f 257//141 246//139 186//142 
f 262//143 257//141 185//144 
f 268//145 262//143 199//146 
f 255//147 268//145 201//148 
f 240//149 255//147 142//150 
f 241//151 240//149 153//152 
f 235//153 241//151 140//154 
f 236//155 235//153 144//156 
f 211//157 236//155 191//158 
f 208//159 211//157 190//160 
f 212//161 210//162 192//162 
f 192//162 210//162 208//159 
f 208//159 193//163 192//162 
f 214//164 212//161 158//165 
f 247//166 214//164 157//167 
f 238//168 247//166 160//169 
f 239//170 238//168 159//171 
f 254//172 239//170 169//173 
f 259//174 254//172 168//175 
f 253//176 259//174 194//177 
f 251//178 253//176 181//179 
f 252//180 251//178 180//181 
f 258//182 252//180 182//183 
f 267//184 258//182 172//185 
f 265//186 267//184 171//187 
f 266//188 265//186 195//189 
f 270//134 266//188 197//188 
f 197//188 196//134 270//134 
f 195//189 197//188 266//188 
f 171//187 195//189 265//186 
f 172//185 171//187 267//184 
f 182//183 172//185 258//182 
f 180//181 182//183 252//180 
f 181//179 180//181 251//178 
f 194//177 181//179 253//176 
f 168//175 194//177 259//174 
f 169//173 168//175 254//172 
f 159//171 169//173 239//170 
f 160//169 159//171 238//168 
f 157//167 160//169 247//166 
f 158//165 157//167 214//164 
f 192//162 158//165 212//161 
f 190//160 193//163 208//159 
f 191//158 190//160 211//157 
f 144//156 191//158 236//155 
f 140//154 144//156 235//153 
f 153//152 140//154 241//151 
f 142//150 153//152 240//149 
f 201//148 142//150 255//147 
f 199//146 201//148 268//145 
f 185//144 199//146 262//143 
f 186//142 185//144 257//141 
f 198//140 186//142 246//139 
f 183//138 198//140 242//137 
f 184//136 183//138 263//135 
f 196//134 184//136 271//133 
o mesh25
f 325//190 345//191 88//191 
f 321//192 325//190 87//193 
f 319//194 321//192 61//195 
f 320//196 319//194 71//197 
f 317//198 320//196 65//199 
f 318//200 317//198 64//201 
f 340//202 318//200 67//203 
f 316//204 340//202 66//205 
f 324//206 316//204 70//207 
f 322//208 324//206 69//209 
f 323//210 322//208 72//211 
f 339//212 323//210 74//213 
f 333//214 339//212 73//215 
f 313//216 333//214 82//217 
f 338//218 314//219 83//219 
f 83//219 314//219 313//216 
f 313//216 89//220 83//219 
f 341//221 338//218 93//222 
f 331//223 341//221 92//224 
f 332//225 331//223 90//226 
f 337//227 332//225 78//228 
f 336//229 337//227 77//230 
f 330//231 336//229 84//232 
f 328//233 330//231 91//234 
f 329//235 328//233 86//236 
f 326//237 329//235 96//238 
f 327//239 326//237 79//240 
f 334//241 327//239 76//242 
f 335//243 334//241 75//244 
f 344//245 335//243 81//246 
f 345//191 344//245 80//245 
f 80//245 88//191 345//191 
f 81//246 80//245 344//245 
f 75//244 81//246 335//243 
f 76//242 75//244 334//241 
f 79//240 76//242 327//239 
f 96//238 79//240 326//237 
f 86//236 96//238 329//235 
f 91//234 86//236 328//233 
f 84//232 91//234 330//231 
f 77//230 84//232 336//229 
f 78//228 77//230 337//227 
f 90//226 78//228 332//225 
f 92//224 90//226 331//223 
f 93//222 92//224 341//221 
f 83//219 93//222 338//218 
f 82//217 89//220 313//216 
f 73//215 82//217 333//214 
f 74//213 73//215 339//212 
f 72//211 74//213 323//210 
f 69//209 72//211 322//208 
f 70//207 69//209 324//206 
f 66//205 70//207 316//204 
f 67//203 66//205 340//202 
f 64//201 67//203 318//200 
f 65//199 64//201 317//198 
f 71//197 65//199 320//196 
f 61//195 71//197 319//194 
f 87//193 61//195 321//192 
f 88//191 87//193 325//190 
o mesh26
f 221//247 234//248 141//248 
f 219//249 221//247 148//250 
f 220//251 219//249 150//252 
f 231//253 220//251 149//254 
f 232//255 231//253 161//256 
f 229//257 232//255 163//258 
f 230//259 229//257 162//260 
f 237//261 230//259 164//262 
f 227//263 237//261 188//264 
f 228//265 227//263 187//266 
f 225//267 228//265 174//268 
f 226//269 225//267 173//270 
f 224//271 226//269 176//272 
f 215//273 224//271 175//274 
f 165//275 217//275 213//276 
f 215//273 189//277 166//276 
f 166//276 213//276 215//273 
f 223//278 217//275 165//275 
f 216//279 223//278 177//278 
f 209//280 216//279 167//279 
f 207//281 209//280 152//280 
f 248//282 207//281 151//281 
f 269//283 248//282 178//282 
f 260//284 269//283 179//283 
f 261//285 260//284 146//284 
f 249//286 261//285 145//285 
f 245//287 249//286 139//286 
f 243//288 245//287 138//287 
f 244//289 243//288 154//288 
f 256//290 244//289 156//289 
f 234//248 256//290 155//290 
f 155//290 141//248 234//248 
f 156//289 155//290 256//290 
f 154//288 156//289 244//289 
f 138//287 154//288 243//288 
f 139//286 138//287 245//287 
f 145//285 139//286 249//286 
f 146//284 145//285 261//285 
f 179//283 146//284 260//284 
f 178//282 179//283 269//283 
f 151//281 178//282 248//282 
f 152//280 151//281 207//281 
f 167//279 152//280 209//280 
f 177//278 167//279 216//279 
f 165//275 177//278 223//278 
f 213//276 166//276 165//275 
f 175//274 189//277 215//273 
f 176//272 175//274 224//271 
f 173//270 176//272 226//269 
f 174//268 173//270 225//267 
f 187//266 174//268 228//265 
f 188//264 187//266 227//263 
f 164//262 188//264 237//261 
f 162//260 164//262 230//259 
f 163//258 162//260 229//257 
f 161//256 163//258 232//255 
f 149//254 161//256 231//253 
f 150//252 149//254 220//251 
f 148//250 150//252 219//249 
f 141//248 148//250 221//247 
