# OBJ generated by ONSHAPE BY PTC INC, 1.219 Units = meters
mtllib Assembly 2 - TopHat.mtl
g TopHat
v 0.00638711 0.00759623 0 
v 0.00635 0.0079375 0 
v 0.00635 0.0079375 0.003175 
v 0.00649672 0.00727093 0 
v 0.00638711 0.00759623 0.003175 
v 0.0066737 0.00697679 0 
v 0.00649672 0.00727093 0.003175 
v 0.00690977 0.00672757 0 
v 0.0066737 0.00697679 0.003175 
v 0.0071939 0.00653492 0 
v 0.00690977 0.00672757 0.003175 
v 0.0075128 0.00640786 0 
v 0.0071939 0.00653492 0.003175 
v 0.00785155 0.00635233 0 
v 0.0075128 0.00640786 0.003175 
v 0.00819433 0.00637091 0 
v 0.00785155 0.00635233 0.003175 
v 0.00852509 0.00646275 0 
v 0.00819433 0.00637091 0.003175 
v 0.00882838 0.00662354 0 
v 0.00852509 0.00646275 0.003175 
v 0.00909002 0.00684578 0 
v 0.00882838 0.00662354 0.003175 
v 0.00929776 0.00711906 0 
v 0.00909002 0.00684578 0.003175 
v 0.0094419 0.00743061 0 
v 0.00929776 0.00711906 0.003175 
v 0.00951569 0.00776586 0 
v 0.0094419 0.00743061 0.003175 
v 0.00951569 0.00810914 0 
v 0.009525 0.0079375 0 
v 0.009525 0.0079375 0.003175 
v 0.00951569 0.00776586 0.003175 
v 0.0094419 0.00844439 0 
v 0.00951569 0.00810914 0.003175 
v 0.00929776 0.00875594 0 
v 0.0094419 0.00844439 0.003175 
v 0.00909002 0.00902922 0 
v 0.00929776 0.00875594 0.003175 
v 0.00882838 0.00925146 0 
v 0.00909002 0.00902922 0.003175 
v 0.00852509 0.00941225 0 
v 0.00882838 0.00925146 0.003175 
v 0.00819433 0.00950409 0 
v 0.00852509 0.00941225 0.003175 
v 0.00785155 0.00952267 0 
v 0.00819433 0.00950409 0.003175 
v 0.0075128 0.00946714 0 
v 0.00785155 0.00952267 0.003175 
v 0.0071939 0.00934008 0 
v 0.0075128 0.00946714 0.003175 
v 0.00690977 0.00914743 0 
v 0.0071939 0.00934008 0.003175 
v 0.0066737 0.00889821 0 
v 0.00690977 0.00914743 0.003175 
v 0.00649672 0.00860407 0 
v 0.0066737 0.00889821 0.003175 
v 0.00638711 0.00827877 0 
v 0.00649672 0.00860407 0.003175 
v 0.00638711 0.00827877 0.003175 
v 0.013949 0.013949 0.003175 
v 0.00802626 0.021166 0.003175 
v 0.00362524 0.0293997 0.003175 
v 0.021166 0.00802626 0.003175 
v 0.000915101 0.0383338 0.003175 
v 0 0 0.003175 
v 0.0383338 0.000915101 0.003175 
v 0.047625 0 0.003175 
v 0.0293997 0.00362524 0.003175 
v 0 0.047625 0.003175 
v 0 0.0175419 0 
v 0 0.003175 0 
v 0 0.0477044 0 
v 0 0.09525 0.003175 
v 0 0.08636 0 
v 0 0.089535 0 
v 0 0.09525 0 
v 0 0 0 
v 0.000915101 0.0569162 0.003175 
v 0.00649672 0.0866459 0.003175 
v 0.00638711 0.0869712 0.003175 
v 0.0383338 0.0943349 0.003175 
v 0.00819433 0.0888791 0.003175 
v 0.0066737 0.0882732 0.003175 
v 0.00690977 0.0885224 0.003175 
v 0.00635 0.0873125 0.003175 
v 0.00638711 0.0876538 0.003175 
v 0.00852509 0.0887873 0.003175 
v 0.00649672 0.0879791 0.003175 
v 0.0071939 0.0859099 0.003175 
v 0.00690977 0.0861026 0.003175 
v 0.00951569 0.0874841 0.003175 
v 0.009525 0.0873125 0.003175 
v 0.021166 0.0872237 0.003175 
v 0.00909002 0.0884042 0.003175 
v 0.00929776 0.0881309 0.003175 
v 0.00785155 0.0888977 0.003175 
v 0.0066737 0.0863518 0.003175 
v 0.0075128 0.0857829 0.003175 
v 0.00362524 0.0658503 0.003175 
v 0.00802626 0.074084 0.003175 
v 0.013949 0.081301 0.003175 
v 0.0094419 0.0868056 0.003175 
v 0.0293997 0.0916248 0.003175 
v 0.0094419 0.0878194 0.003175 
v 0.00882838 0.0886265 0.003175 
v 0.047625 0.09525 0.003175 
v 0.0071939 0.0887151 0.003175 
v 0.0075128 0.0888421 0.003175 
v 0.00852509 0.0858377 0.003175 
v 0.00819433 0.0857459 0.003175 
v 0.00882838 0.0859985 0.003175 
v 0.00929776 0.0864941 0.003175 
v 0.00785155 0.0857273 0.003175 
v 0.00909002 0.0862208 0.003175 
v 0.00951569 0.0871409 0.003175 
v 0.00638711 0.0869712 0 
v 0.00635 0.0873125 0 
v 0.00649672 0.0866459 0 
v 0.0066737 0.0863518 0 
v 0.00666876 0.08636 0 
v 0.00690977 0.0861026 0 
v 0.0071939 0.0859099 0 
v 0.0075128 0.0857829 0 
v 0.00785155 0.0857273 0 
v 0.00819433 0.0857459 0 
v 0.00852509 0.0858377 0 
v 0.00882838 0.0859985 0 
v 0.00909002 0.0862208 0 
v 0.00919585 0.08636 0 
v 0.00929776 0.0864941 0 
v 0.0094419 0.0868056 0 
v 0.00951569 0.0871409 0 
v 0.00951569 0.0874841 0 
v 0.009525 0.0873125 0 
v 0.0094419 0.0878194 0 
v 0.00929776 0.0881309 0 
v 0.00909002 0.0884042 0 
v 0.00882838 0.0886265 0 
v 0.00852509 0.0887873 0 
v 0.00819433 0.0888791 0 
v 0.00785155 0.0888977 0 
v 0.0075128 0.0888421 0 
v 0.0071939 0.0887151 0 
v 0.00690977 0.0885224 0 
v 0.0066737 0.0882732 0 
v 0.00649672 0.0879791 0 
v 0.00638711 0.0876538 0 
v 0.09525 0 0.003175 
v 0.0740914 0 0 
v 0.0852039 0 0 
v 0.0579438 0 0 
v 0.0373062 0 0 
v 0.0100461 0 0 
v 0.003175 0 0 
v 0.09525 0 0 
v 0.09525 0.09525 0.003175 
v 0.09525 0.08636 0 
v 0.09525 0.089535 0 
v 0.09525 0.047625 0.003175 
v 0.09525 0.0477044 0 
v 0.09525 0.0175419 0 
v 0.09525 0.003175 0 
v 0.09525 0.09525 0 
v 0.0100461 0.09525 0 
v 0.003175 0.09525 0 
v 0.0373062 0.09525 0 
v 0.0579438 0.09525 0 
v 0.0740914 0.09525 0 
v 0.0852039 0.09525 0 
v 0 0.047625 0.009525 
v 0.000915101 0.0569162 0.009525 
v 0.00362524 0.0658503 0.009525 
v 0.00802626 0.074084 0.009525 
v 0.013949 0.081301 0.009525 
v 0.021166 0.0872237 0.009525 
v 0.0293997 0.0916248 0.009525 
v 0.0383338 0.0943349 0.009525 
v 0.047625 0.09525 0.009525 
v 0.0569162 0.0943349 0.009525 
v 0.0569162 0.0943349 0.003175 
v 0.0658503 0.0916248 0.009525 
v 0.0658503 0.0916248 0.003175 
v 0.074084 0.0872237 0.009525 
v 0.074084 0.0872237 0.003175 
v 0.081301 0.081301 0.009525 
v 0.081301 0.081301 0.003175 
v 0.0872237 0.074084 0.009525 
v 0.0872237 0.074084 0.003175 
v 0.0916248 0.0658503 0.009525 
v 0.0916248 0.0658503 0.003175 
v 0.0943349 0.0569162 0.009525 
v 0.0943349 0.0569162 0.003175 
v 0.09525 0.047625 0.009525 
v 0.0943349 0.0383338 0.009525 
v 0.0943349 0.0383338 0.003175 
v 0.0916248 0.0293997 0.009525 
v 0.0916248 0.0293997 0.003175 
v 0.0872237 0.021166 0.009525 
v 0.0872237 0.021166 0.003175 
v 0.081301 0.013949 0.009525 
v 0.081301 0.013949 0.003175 
v 0.074084 0.00802626 0.009525 
v 0.074084 0.00802626 0.003175 
v 0.0658503 0.00362524 0.009525 
v 0.0658503 0.00362524 0.003175 
v 0.0569162 0.000915101 0.009525 
v 0.0569162 0.000915101 0.003175 
v 0.047625 0 0.009525 
v 0.0383338 0.000915101 0.009525 
v 0.0293997 0.00362524 0.009525 
v 0.021166 0.00802626 0.009525 
v 0.013949 0.013949 0.009525 
v 0.00802626 0.021166 0.009525 
v 0.00362524 0.0293997 0.009525 
v 0.000915101 0.0383338 0.009525 
v 0.0868878 0.0888421 0.003175 
v 0.0868878 0.0857829 0.003175 
v 0.0865689 0.0859099 0.003175 
v 0.0865689 0.0887151 0.003175 
v 0.0860487 0.0882732 0.003175 
v 0.0862848 0.0885224 0.003175 
v 0.0857621 0.0876538 0.003175 
v 0.0862848 0.0861026 0.003175 
v 0.0872266 0.0857273 0.003175 
v 0.088465 0.0884042 0.003175 
v 0.0886728 0.0881309 0.003175 
v 0.0872266 0.0888977 0.003175 
v 0.0875693 0.0888791 0.003175 
v 0.0858717 0.0866459 0.003175 
v 0.0875693 0.0857459 0.003175 
v 0.0879001 0.0858377 0.003175 
v 0.0882034 0.0886265 0.003175 
v 0.0879001 0.0887873 0.003175 
v 0.0858717 0.0879791 0.003175 
v 0.085725 0.0873125 0.003175 
v 0.0857621 0.0869712 0.003175 
v 0.0860487 0.0863518 0.003175 
v 0.0888169 0.0868056 0.003175 
v 0.0886728 0.0864941 0.003175 
v 0.0888907 0.0871409 0.003175 
v 0.0888169 0.0878194 0.003175 
v 0.0888907 0.0874841 0.003175 
v 0.0882034 0.0859985 0.003175 
v 0.088465 0.0862208 0.003175 
v 0.0889 0.0873125 0.003175 
v 0.0857621 0.0869712 0 
v 0.085725 0.0873125 0 
v 0.0858717 0.0866459 0 
v 0.0860487 0.0863518 0 
v 0.0860438 0.08636 0 
v 0.0862848 0.0861026 0 
v 0.0865689 0.0859099 0 
v 0.0868878 0.0857829 0 
v 0.0872266 0.0857273 0 
v 0.0875693 0.0857459 0 
v 0.0879001 0.0858377 0 
v 0.0882034 0.0859985 0 
v 0.088465 0.0862208 0 
v 0.0885709 0.08636 0 
v 0.0886728 0.0864941 0 
v 0.0888169 0.0868056 0 
v 0.0888907 0.0871409 0 
v 0.0888907 0.0874841 0 
v 0.0889 0.0873125 0 
v 0.0888169 0.0878194 0 
v 0.0886728 0.0881309 0 
v 0.088465 0.0884042 0 
v 0.0882034 0.0886265 0 
v 0.0879001 0.0887873 0 
v 0.0875693 0.0888791 0 
v 0.0872266 0.0888977 0 
v 0.0868878 0.0888421 0 
v 0.0865689 0.0887151 0 
v 0.0862848 0.0885224 0 
v 0.0860487 0.0882732 0 
v 0.0858717 0.0879791 0 
v 0.0857621 0.0876538 0 
v 0.0865689 0.00934008 0.003175 
v 0.0868878 0.00946714 0.003175 
v 0.0862848 0.00914743 0.003175 
v 0.0860487 0.00889821 0.003175 
v 0.0857621 0.00759623 0.003175 
v 0.085725 0.0079375 0.003175 
v 0.0868878 0.00640786 0.003175 
v 0.0865689 0.00653492 0.003175 
v 0.0872266 0.00635233 0.003175 
v 0.0879001 0.00941225 0.003175 
v 0.0875693 0.00950409 0.003175 
v 0.0858717 0.00860407 0.003175 
v 0.0862848 0.00672757 0.003175 
v 0.0872266 0.00952267 0.003175 
v 0.0857621 0.00827877 0.003175 
v 0.0858717 0.00727093 0.003175 
v 0.0860487 0.00697679 0.003175 
v 0.0875693 0.00637091 0.003175 
v 0.0882034 0.00662354 0.003175 
v 0.0879001 0.00646275 0.003175 
v 0.0888169 0.00844439 0.003175 
v 0.088465 0.00902922 0.003175 
v 0.0886728 0.00875594 0.003175 
v 0.0888169 0.00743061 0.003175 
v 0.0886728 0.00711906 0.003175 
v 0.0882034 0.00925146 0.003175 
v 0.088465 0.00684578 0.003175 
v 0.0888907 0.00810914 0.003175 
v 0.0889 0.0079375 0.003175 
v 0.0888907 0.00776586 0.003175 
v 0.0857621 0.00759623 0 
v 0.085725 0.0079375 0 
v 0.0858717 0.00727093 0 
v 0.0860487 0.00697679 0 
v 0.0862848 0.00672757 0 
v 0.0865689 0.00653492 0 
v 0.0868878 0.00640786 0 
v 0.0872266 0.00635233 0 
v 0.0875693 0.00637091 0 
v 0.0879001 0.00646275 0 
v 0.0882034 0.00662354 0 
v 0.088465 0.00684578 0 
v 0.0886728 0.00711906 0 
v 0.0888169 0.00743061 0 
v 0.0888907 0.00776586 0 
v 0.0888907 0.00810914 0 
v 0.0889 0.0079375 0 
v 0.0888169 0.00844439 0 
v 0.0886728 0.00875594 0 
v 0.088465 0.00902922 0 
v 0.0882034 0.00925146 0 
v 0.0879001 0.00941225 0 
v 0.0875693 0.00950409 0 
v 0.0872266 0.00952267 0 
v 0.0868878 0.00946714 0 
v 0.0865689 0.00934008 0 
v 0.0862848 0.00914743 0 
v 0.0860487 0.00889821 0 
v 0.0858717 0.00860407 0 
v 0.0857621 0.00827877 0 
v 0.0830093 0.0287314 0 
v 0.0826705 0.0286759 0 
v 0.0823516 0.0285488 0 
v 0.0820675 0.0283562 0 
v 0.0833521 0.0287128 0 
v 0.0826705 0.0256166 0 
v 0.0823516 0.0257437 0 
v 0.0818314 0.0261855 0 
v 0.0820675 0.0259363 0 
v 0.0836828 0.028621 0 
v 0.0842478 0.028238 0 
v 0.0839861 0.0284602 0 
v 0.0830093 0.0255611 0 
v 0.0816545 0.0264797 0 
v 0.0846734 0.0269746 0 
v 0.0846827 0.0271463 0 
v 0.0815449 0.0274875 0 
v 0.0818314 0.028107 0 
v 0.0845996 0.0276531 0 
v 0.0844555 0.0279647 0 
v 0.0836828 0.0256715 0 
v 0.0839861 0.0258323 0 
v 0.0833521 0.0255797 0 
v 0.0816545 0.0278128 0 
v 0.0846734 0.0273179 0 
v 0.0842478 0.0260545 0 
v 0.0844555 0.0263278 0 
v 0.0845996 0.0266394 0 
v 0.0815077 0.0271463 0 
v 0.0815449 0.026805 0 
v 0.0656778 0.0537077 0 
v 0.0639481 0.0574463 0 
v 0.0614552 0.0607257 0 
v 0.0666707 0.0477044 0 
v 0.0665633 0.0496847 0 
v 0.0583156 0.0633925 0 
v 0.0579438 0.0635896 0 
v 0.0507069 0.066424 0 
v 0.0465937 0.0666471 0 
v 0.0425286 0.0659806 0 
v 0.0546761 0.065322 0 
v 0.0387018 0.0644559 0 
v 0.0303357 0.0556239 0 
v 0.0352923 0.0621442 0 
v 0.0324594 0.0591536 0 
v 0.0373062 0.0635097 0 
v 0.0290204 0.0517202 0 
v 0.0324594 0.0360964 0 
v 0.013733 0.0269746 0 
v 0.0137423 0.0271463 0 
v 0.0136592 0.0266394 0 
v 0.0136592 0.0276531 0 
v 0.013515 0.0279647 0 
v 0.013733 0.0273179 0 
v 0.013515 0.0263278 0 
v 0.0352923 0.0331058 0 
v 0.0130456 0.0284602 0 
v 0.0285836 0.0477044 0 
v 0.028575 0.047625 0 
v 0.0133073 0.028238 0 
v 0.0303357 0.0396261 0 
v 0.0127424 0.028621 0 
v 0.0290204 0.0435298 0 
v 0.0133073 0.0260545 0 
v 0.0127424 0.0256715 0 
v 0.0373062 0.0317403 0 
v 0.0130456 0.0258323 0 
v 0.0124116 0.0255797 0 
v 0.0124116 0.0287128 0 
v 0.0120688 0.0287314 0 
v 0.0114112 0.0285488 0 
v 0.011127 0.0283562 0 
v 0.0117301 0.0256166 0 
v 0.0120688 0.0255611 0 
v 0.0117301 0.0286759 0 
v 0.010891 0.0261855 0 
v 0.011127 0.0259363 0 
v 0.0114112 0.0257437 0 
v 0.0106044 0.026805 0 
v 0.010714 0.0264797 0 
v 0.0106044 0.0274875 0 
v 0.0105673 0.0271463 0 
v 0.010891 0.028107 0 
v 0.010714 0.0278128 0 
v 0.0507069 0.028826 0 
v 0.0546761 0.029928 0 
v 0.0465937 0.0286029 0 
v 0.0387018 0.0307941 0 
v 0.0425286 0.0292694 0 
v 0.0665633 0.0455653 0 
v 0.066675 0.047625 0 
v 0.0656778 0.0415423 0 
v 0.0614552 0.0345243 0 
v 0.0639481 0.0378037 0 
v 0.0579438 0.0316604 0 
v 0.0583156 0.0318575 0 
v 0.0478818 0.0901491 0 
v 0.0475391 0.0901677 0 
v 0.0482126 0.0900573 0 
v 0.0488834 0.089535 0 
v 0.0468814 0.0899851 0 
v 0.0465973 0.0897924 0 
v 0.0472003 0.0901121 0 
v 0.0485159 0.0898965 0 
v 0.0487775 0.0896742 0 
v 0.0463612 0.0895432 0 
v 0.0463563 0.089535 0 
v 0.0492032 0.0884109 0 
v 0.0492125 0.0885825 0 
v 0.0492032 0.0887541 0 
v 0.0460375 0.0885825 0 
v 0.0491294 0.0880756 0 
v 0.0485159 0.0872685 0 
v 0.0487775 0.0874908 0 
v 0.0475391 0.0869973 0 
v 0.0463612 0.0876218 0 
v 0.0465973 0.0873726 0 
v 0.0460746 0.0882412 0 
v 0.0461842 0.0892491 0 
v 0.0460746 0.0889238 0 
v 0.0489853 0.0877641 0 
v 0.0482126 0.0871077 0 
v 0.0478818 0.0870159 0 
v 0.0461842 0.0879159 0 
v 0.0491294 0.0890894 0 
v 0.0468814 0.0871799 0 
v 0.0472003 0.0870529 0 
v 0.0489853 0.0894009 0 
v 0.003175 0.089535 0 
v 0.0100461 0.089535 0 
v 0.0373062 0.089535 0 
v 0.0740914 0.089535 0 
v 0.0852039 0.089535 0 
v 0.003175 0.08636 0 
v 0.0373062 0.08636 0 
v 0.0579437 0.089535 0 
v 0.0740914 0.08636 0 
v 0.0852039 0.08636 0 
v 0.003175 0.0477044 0 
v 0.0852039 0.0477044 0 
v 0.003175 0.0175419 0 
v 0.0100461 0.0477044 0 
v 0.0100461 0.0175419 0 
v 0.0740914 0.0477044 0 
v 0.0852039 0.0175419 0 
v 0.0740914 0.0175419 0 
v 0.003175 0.003175 0 
v 0.0100461 0.003175 0 
v 0.0373062 0.0175419 0 
v 0.0373062 0.003175 0 
v 0.0579437 0.0175419 0 
v 0.0579437 0.003175 0 
v 0.0740914 0.003175 0 
v 0.0852039 0.003175 0 
v 0.0579437 0.08636 0 
v 0.0100461 0.08636 0 
v 0.0815077 0.0271463 0.009525 
v 0.0815449 0.026805 0.009525 
v 0.0816545 0.0264797 0.009525 
v 0.0818314 0.0261855 0.009525 
v 0.0820675 0.0259363 0.009525 
v 0.0823516 0.0257437 0.009525 
v 0.0826705 0.0256166 0.009525 
v 0.0830093 0.0255611 0.009525 
v 0.0833521 0.0255797 0.009525 
v 0.0836828 0.0256715 0.009525 
v 0.0839861 0.0258323 0.009525 
v 0.0842478 0.0260545 0.009525 
v 0.0844555 0.0263278 0.009525 
v 0.0845996 0.0266394 0.009525 
v 0.0846827 0.0271463 0.009525 
v 0.0846734 0.0269746 0.009525 
v 0.0846734 0.0273179 0.009525 
v 0.0845996 0.0276531 0.009525 
v 0.0844555 0.0279647 0.009525 
v 0.0842478 0.028238 0.009525 
v 0.0839861 0.0284602 0.009525 
v 0.0836828 0.028621 0.009525 
v 0.0833521 0.0287128 0.009525 
v 0.0830093 0.0287314 0.009525 
v 0.0826705 0.0286759 0.009525 
v 0.0823516 0.0285488 0.009525 
v 0.0820675 0.0283562 0.009525 
v 0.0818314 0.028107 0.009525 
v 0.0816545 0.0278128 0.009525 
v 0.0815449 0.0274875 0.009525 
v 0.0105673 0.0271463 0.009525 
v 0.0106044 0.026805 0.009525 
v 0.010714 0.0264797 0.009525 
v 0.010891 0.0261855 0.009525 
v 0.011127 0.0259363 0.009525 
v 0.0114112 0.0257437 0.009525 
v 0.0117301 0.0256166 0.009525 
v 0.0120688 0.0255611 0.009525 
v 0.0124116 0.0255797 0.009525 
v 0.0127424 0.0256715 0.009525 
v 0.0130456 0.0258323 0.009525 
v 0.0133073 0.0260545 0.009525 
v 0.013515 0.0263278 0.009525 
v 0.0136592 0.0266394 0.009525 
v 0.0137423 0.0271463 0.009525 
v 0.013733 0.0269746 0.009525 
v 0.013733 0.0273179 0.009525 
v 0.0136592 0.0276531 0.009525 
v 0.013515 0.0279647 0.009525 
v 0.0133073 0.028238 0.009525 
v 0.0130456 0.0284602 0.009525 
v 0.0127424 0.028621 0.009525 
v 0.0124116 0.0287128 0.009525 
v 0.0120688 0.0287314 0.009525 
v 0.0117301 0.0286759 0.009525 
v 0.0114112 0.0285488 0.009525 
v 0.011127 0.0283562 0.009525 
v 0.010891 0.028107 0.009525 
v 0.010714 0.0278128 0.009525 
v 0.0106044 0.0274875 0.009525 
v 0.0460375 0.0885825 0.009525 
v 0.0460746 0.0882412 0.009525 
v 0.0461842 0.0879159 0.009525 
v 0.0463612 0.0876218 0.009525 
v 0.0465973 0.0873726 0.009525 
v 0.0468814 0.0871799 0.009525 
v 0.0472003 0.0870529 0.009525 
v 0.0475391 0.0869973 0.009525 
v 0.0478818 0.0870159 0.009525 
v 0.0482126 0.0871077 0.009525 
v 0.0485159 0.0872685 0.009525 
v 0.0487775 0.0874908 0.009525 
v 0.0489853 0.0877641 0.009525 
v 0.0491294 0.0880756 0.009525 
v 0.0492125 0.0885825 0.009525 
v 0.0492032 0.0884109 0.009525 
v 0.0492032 0.0887541 0.009525 
v 0.0491294 0.0890894 0.009525 
v 0.0487775 0.0896742 0.009525 
v 0.0489853 0.0894009 0.009525 
v 0.0485159 0.0898965 0.009525 
v 0.0482126 0.0900573 0.009525 
v 0.0478818 0.0901491 0.009525 
v 0.0475391 0.0901677 0.009525 
v 0.0472003 0.0901121 0.009525 
v 0.0468814 0.0899851 0.009525 
v 0.0465973 0.0897924 0.009525 
v 0.0461842 0.0892491 0.009525 
v 0.0463612 0.0895432 0.009525 
v 0.0460746 0.0889238 0.009525 
v 0.0303357 0.0556239 0.009525 
v 0.066675 0.047625 0.009525 
v 0.0290204 0.0517202 0.009525 
v 0.0303357 0.0396261 0.009525 
v 0.0290204 0.0435298 0.009525 
v 0.028575 0.047625 0.009525 
v 0.0352923 0.0331058 0.009525 
v 0.0324594 0.0360964 0.009525 
v 0.0614552 0.0345243 0.009525 
v 0.0583156 0.0318575 0.009525 
v 0.0387018 0.0307941 0.009525 
v 0.0507069 0.028826 0.009525 
v 0.0465937 0.0286029 0.009525 
v 0.0546761 0.029928 0.009525 
v 0.0639481 0.0378037 0.009525 
v 0.0425286 0.0292694 0.009525 
v 0.0656778 0.0415423 0.009525 
v 0.0665633 0.0455653 0.009525 
v 0.0425286 0.0659806 0.009525 
v 0.0465937 0.0666471 0.009525 
v 0.0324594 0.0591536 0.009525 
v 0.0352923 0.0621442 0.009525 
v 0.0387018 0.0644559 0.009525 
v 0.0639481 0.0574463 0.009525 
v 0.0507069 0.066424 0.009525 
v 0.0665633 0.0496847 0.009525 
v 0.0583156 0.0633925 0.009525 
v 0.0656778 0.0537077 0.009525 
v 0.0614552 0.0607257 0.009525 
v 0.0546761 0.065322 0.009525 
v 0.0290204 0.0435298 0.00635 
v 0.028575 0.047625 0.00635 
v 0.0303357 0.0396261 0.00635 
v 0.0324594 0.0360964 0.00635 
v 0.0352923 0.0331058 0.00635 
v 0.0387018 0.0307941 0.00635 
v 0.0425286 0.0292694 0.00635 
v 0.0465937 0.0286029 0.00635 
v 0.0507069 0.028826 0.00635 
v 0.0546761 0.029928 0.00635 
v 0.0583156 0.0318575 0.00635 
v 0.0614552 0.0345243 0.00635 
v 0.0639481 0.0378037 0.00635 
v 0.0656778 0.0415423 0.00635 
v 0.0665633 0.0455653 0.00635 
v 0.0665633 0.0496847 0.00635 
v 0.066675 0.047625 0.00635 
v 0.0656778 0.0537077 0.00635 
v 0.0639481 0.0574463 0.00635 
v 0.0614552 0.0607257 0.00635 
v 0.0583156 0.0633925 0.00635 
v 0.0546761 0.065322 0.00635 
v 0.0507069 0.066424 0.00635 
v 0.0465937 0.0666471 0.00635 
v 0.0425286 0.0659806 0.00635 
v 0.0387018 0.0644559 0.00635 
v 0.0352923 0.0621442 0.00635 
v 0.0324594 0.0591536 0.00635 
v 0.0303357 0.0556239 0.00635 
v 0.0290204 0.0517202 0.00635 
v 0.028575 0.047625 0.003175 
v 0.0290204 0.0435298 0.003175 
v 0.0303357 0.0396261 0.003175 
v 0.0324594 0.0360964 0.003175 
v 0.0352923 0.0331058 0.003175 
v 0.0387018 0.0307941 0.003175 
v 0.0425286 0.0292694 0.003175 
v 0.0465937 0.0286029 0.003175 
v 0.0507069 0.028826 0.003175 
v 0.0546761 0.029928 0.003175 
v 0.0583156 0.0318575 0.003175 
v 0.0614552 0.0345243 0.003175 
v 0.0639481 0.0378037 0.003175 
v 0.0656778 0.0415423 0.003175 
v 0.0665633 0.0496847 0.003175 
v 0.066675 0.047625 0.003175 
v 0.0665633 0.0455653 0.003175 
v 0.0656778 0.0537077 0.003175 
v 0.0639481 0.0574463 0.003175 
v 0.0614552 0.0607257 0.003175 
v 0.0546761 0.065322 0.003175 
v 0.0583156 0.0633925 0.003175 
v 0.0507069 0.066424 0.003175 
v 0.0465937 0.0666471 0.003175 
v 0.0425286 0.0659806 0.003175 
v 0.0352923 0.0621442 0.003175 
v 0.0387018 0.0644559 0.003175 
v 0.0324594 0.0591536 0.003175 
v 0.0303357 0.0556239 0.003175 
v 0.0290204 0.0517202 0.003175 
v 0.025015 0.0742435 0.003175 
v 0.0198214 0.0687607 0.003175 
v 0.0198214 0.0264893 0.003175 
v 0.025015 0.0210065 0.003175 
v 0.0605521 0.0151805 0.003175 
v 0.0672245 0.018718 0.003175 
v 0.0729804 0.0236071 0.003175 
v 0.0159279 0.0622896 0.003175 
v 0.0135165 0.0551328 0.003175 
v 0.0127 0.047625 0.003175 
v 0.0135165 0.0401172 0.003175 
v 0.0159279 0.0329604 0.003175 
v 0.0312658 0.0167683 0.003175 
v 0.0532752 0.0131601 0.003175 
v 0.0823453 0.0514011 0.003175 
v 0.0807218 0.0587766 0.003175 
v 0.0775507 0.0656307 0.003175 
v 0.0729804 0.0716429 0.003175 
v 0.0382816 0.013973 0.003175 
v 0.0457342 0.0127512 0.003175 
v 0.0672245 0.076532 0.003175 
v 0.0605521 0.0800695 0.003175 
v 0.0532752 0.0820899 0.003175 
v 0.0457342 0.0824988 0.003175 
v 0.0382816 0.081277 0.003175 
v 0.0312658 0.0784817 0.003175 
v 0.0775507 0.0296193 0.003175 
v 0.0807218 0.0364734 0.003175 
v 0.0823453 0.0438489 0.003175 
v 0.08255 0.047625 0.003175 
v 0.0127 0.047625 0.00635 
v 0.0135165 0.0401172 0.00635 
v 0.0159279 0.0329604 0.00635 
v 0.0198214 0.0264893 0.00635 
v 0.025015 0.0210065 0.00635 
v 0.0312658 0.0167683 0.00635 
v 0.0382816 0.013973 0.00635 
v 0.0457342 0.0127512 0.00635 
v 0.0532752 0.0131601 0.00635 
v 0.0605521 0.0151805 0.00635 
v 0.0672245 0.018718 0.00635 
v 0.0729804 0.0236071 0.00635 
v 0.0775507 0.0296193 0.00635 
v 0.0807218 0.0364734 0.00635 
v 0.0823453 0.0514011 0.00635 
v 0.0823453 0.0438489 0.00635 
v 0.08255 0.047625 0.00635 
v 0.0807218 0.0587766 0.00635 
v 0.0775507 0.0656307 0.00635 
v 0.0729804 0.0716429 0.00635 
v 0.0672245 0.076532 0.00635 
v 0.0605521 0.0800695 0.00635 
v 0.0532752 0.0820899 0.00635 
v 0.0457342 0.0824988 0.00635 
v 0.0382816 0.081277 0.00635 
v 0.0312658 0.0784817 0.00635 
v 0.025015 0.0742435 0.00635 
v 0.0198214 0.0687607 0.00635 
v 0.0159279 0.0622896 0.00635 
v 0.0135165 0.0551328 0.00635 
vn 0.976621 0.21497 0 
vn 1 2.44929e-16 0 
vn 0.907575 0.419889 0 
vn 0.976621 0.21497 0 
vn 0.796093 0.605174 0 
vn 0.907575 0.419889 0 
vn 0.647386 0.762162 0 
vn 0.796093 0.605174 0 
vn 0.468408 0.883512 0 
vn 0.647386 0.762162 0 
vn 0.267528 0.96355 0 
vn 0.468408 0.883512 0 
vn 0.0541389 0.998533 0 
vn 0.267528 0.96355 0 
vn -0.161782 0.986827 0 
vn 0.0541389 0.998533 0 
vn -0.370138 0.928977 0 
vn -0.161782 0.986827 0 
vn -0.561187 0.827689 0 
vn -0.370138 0.928977 0 
vn -0.725995 0.687699 0 
vn -0.561187 0.827689 0 
vn -0.856857 0.515554 0 
vn -0.725995 0.687699 0 
vn -0.947653 0.319302 0 
vn -0.856857 0.515554 0 
vn -0.994138 0.108119 0 
vn -0.947653 0.319302 0 
vn -0.994138 -0.108119 0 
vn -1 -3.67394e-16 0 
vn -0.994138 0.108119 0 
vn -0.947653 -0.319302 0 
vn -0.994138 -0.108119 0 
vn -0.856857 -0.515554 0 
vn -0.947653 -0.319302 0 
vn -0.725995 -0.687699 0 
vn -0.856857 -0.515554 0 
vn -0.561187 -0.827689 0 
vn -0.725995 -0.687699 0 
vn -0.370138 -0.928977 0 
vn -0.561187 -0.827689 0 
vn -0.161782 -0.986827 0 
vn -0.370138 -0.928977 0 
vn 0.0541389 -0.998533 0 
vn -0.161782 -0.986827 0 
vn 0.267528 -0.96355 0 
vn 0.0541389 -0.998533 0 
vn 0.468408 -0.883512 0 
vn 0.267528 -0.96355 0 
vn 0.647386 -0.762162 0 
vn 0.468408 -0.883512 0 
vn 0.796093 -0.605174 0 
vn 0.647386 -0.762162 0 
vn 0.907575 -0.419889 0 
vn 0.796093 -0.605174 0 
vn 0.976621 -0.21497 0 
vn 0.907575 -0.419889 0 
vn 0 0 1 
vn -1 0 0 
vn 0.976621 0.21497 0 
vn 1 2.44929e-16 0 
vn 0.907575 0.419889 0 
vn 0.976621 0.21497 0 
vn 0.796093 0.605174 0 
vn 0.799714 0.600381 0 
vn 0.907575 0.419889 0 
vn 0.647386 0.762162 0 
vn 0.468408 0.883512 0 
vn 0.267528 0.96355 0 
vn 0.0541389 0.998533 0 
vn -0.161782 0.986827 0 
vn -0.370138 0.928977 0 
vn -0.561187 0.827689 0 
vn -0.725995 0.687699 0 
vn -0.856857 0.515554 0 
vn -0.797335 0.603537 0 
vn -0.947653 0.319302 0 
vn -0.994138 0.108119 0 
vn -0.994138 -0.108119 0 
vn -1 -3.67394e-16 0 
vn -0.994138 0.108119 0 
vn -0.947653 -0.319302 0 
vn -0.994138 -0.108119 0 
vn -0.856857 -0.515554 0 
vn -0.947653 -0.319302 0 
vn -0.725995 -0.687699 0 
vn -0.856857 -0.515554 0 
vn -0.561187 -0.827689 0 
vn -0.725995 -0.687699 0 
vn -0.370138 -0.928977 0 
vn -0.561187 -0.827689 0 
vn -0.161782 -0.986827 0 
vn -0.370138 -0.928977 0 
vn 0.0541389 -0.998533 0 
vn -0.161782 -0.986827 0 
vn 0.267528 -0.96355 0 
vn 0.0541389 -0.998533 0 
vn 0.468408 -0.883512 0 
vn 0.267528 -0.96355 0 
vn 0.647386 -0.762162 0 
vn 0.468408 -0.883512 0 
vn 0.796093 -0.605174 0 
vn 0.647386 -0.762162 0 
vn 0.907575 -0.419889 0 
vn 0.796093 -0.605174 0 
vn 0.976621 -0.21497 0 
vn 0.907575 -0.419889 0 
vn 0 -1 0 
vn 1 2.91397e-16 0 
vn 0 1 0 
vn -1 0 0 
vn -0.980785 0.19509 0 
vn -0.92388 0.382683 0 
vn -0.83147 0.55557 0 
vn -0.707107 0.707107 0 
vn -0.55557 0.83147 0 
vn -0.382683 0.92388 0 
vn -0.19509 0.980785 0 
vn -6.12323e-17 1 0 
vn 0.19509 0.980785 0 
vn 0.382683 0.92388 0 
vn 0.55557 0.83147 0 
vn 0.707107 0.707107 0 
vn 0.83147 0.55557 0 
vn 0.92388 0.382683 0 
vn 0.980785 0.19509 0 
vn 1 1.22465e-16 0 
vn 0.980785 -0.19509 0 
vn 0.92388 -0.382683 0 
vn 0.83147 -0.55557 0 
vn 0.707107 -0.707107 0 
vn 0.55557 -0.83147 0 
vn 0.382683 -0.92388 0 
vn 0.19509 -0.980785 0 
vn 1.83697e-16 -1 0 
vn -0.19509 -0.980785 0 
vn -0.382683 -0.92388 0 
vn -0.55557 -0.83147 0 
vn -0.707107 -0.707107 0 
vn -0.83147 -0.55557 0 
vn -0.92388 -0.382683 0 
vn -0.980785 -0.19509 0 
vn 0 0 1 
vn 0.976621 0.21497 0 
vn 1 2.44929e-16 0 
vn 0.907575 0.419889 0 
vn 0.976621 0.21497 0 
vn 0.796093 0.605174 0 
vn 0.799714 0.600381 0 
vn 0.907575 0.419889 0 
vn 0.647386 0.762162 0 
vn 0.468408 0.883512 0 
vn 0.267528 0.96355 0 
vn 0.0541389 0.998533 0 
vn -0.161782 0.986827 0 
vn -0.370138 0.928977 0 
vn -0.561187 0.827689 0 
vn -0.725995 0.687699 0 
vn -0.856857 0.515554 0 
vn -0.797335 0.603537 0 
vn -0.947653 0.319302 0 
vn -0.994138 0.108119 0 
vn -0.994138 -0.108119 0 
vn -1 -3.67394e-16 0 
vn -0.994138 0.108119 0 
vn -0.947653 -0.319302 0 
vn -0.994138 -0.108119 0 
vn -0.856857 -0.515554 0 
vn -0.947653 -0.319302 0 
vn -0.725995 -0.687699 0 
vn -0.856857 -0.515554 0 
vn -0.561187 -0.827689 0 
vn -0.725995 -0.687699 0 
vn -0.370138 -0.928977 0 
vn -0.561187 -0.827689 0 
vn -0.161782 -0.986827 0 
vn -0.370138 -0.928977 0 
vn 0.0541389 -0.998533 0 
vn -0.161782 -0.986827 0 
vn 0.267528 -0.96355 0 
vn 0.0541389 -0.998533 0 
vn 0.468408 -0.883512 0 
vn 0.267528 -0.96355 0 
vn 0.647386 -0.762162 0 
vn 0.468408 -0.883512 0 
vn 0.796093 -0.605174 0 
vn 0.647386 -0.762162 0 
vn 0.907575 -0.419889 0 
vn 0.796093 -0.605174 0 
vn 0.976621 -0.21497 0 
vn 0.907575 -0.419889 0 
vn 0 0 1 
vn 0.976621 0.21497 0 
vn 1 2.44929e-16 0 
vn 0.907575 0.419889 0 
vn 0.976621 0.21497 0 
vn 0.796093 0.605174 0 
vn 0.907575 0.419889 0 
vn 0.647386 0.762162 0 
vn 0.796093 0.605174 0 
vn 0.468408 0.883512 0 
vn 0.647386 0.762162 0 
vn 0.267528 0.96355 0 
vn 0.468408 0.883512 0 
vn 0.0541389 0.998533 0 
vn 0.267528 0.96355 0 
vn -0.161782 0.986827 0 
vn 0.0541389 0.998533 0 
vn -0.370138 0.928977 0 
vn -0.161782 0.986827 0 
vn -0.561187 0.827689 0 
vn -0.370138 0.928977 0 
vn -0.725995 0.687699 0 
vn -0.561187 0.827689 0 
vn -0.856857 0.515554 0 
vn -0.725995 0.687699 0 
vn -0.947653 0.319302 0 
vn -0.856857 0.515554 0 
vn -0.994138 0.108119 0 
vn -0.947653 0.319302 0 
vn -0.994138 -0.108119 0 
vn -1 -3.67394e-16 0 
vn -0.994138 0.108119 0 
vn -0.947653 -0.319302 0 
vn -0.994138 -0.108119 0 
vn -0.856857 -0.515554 0 
vn -0.947653 -0.319302 0 
vn -0.725995 -0.687699 0 
vn -0.856857 -0.515554 0 
vn -0.561187 -0.827689 0 
vn -0.725995 -0.687699 0 
vn -0.370138 -0.928977 0 
vn -0.561187 -0.827689 0 
vn -0.161782 -0.986827 0 
vn -0.370138 -0.928977 0 
vn 0.0541389 -0.998533 0 
vn -0.161782 -0.986827 0 
vn 0.267528 -0.96355 0 
vn 0.0541389 -0.998533 0 
vn 0.468408 -0.883512 0 
vn 0.267528 -0.96355 0 
vn 0.647386 -0.762162 0 
vn 0.468408 -0.883512 0 
vn 0.796093 -0.605174 0 
vn 0.647386 -0.762162 0 
vn 0.907575 -0.419889 0 
vn 0.796093 -0.605174 0 
vn 0.976621 -0.21497 0 
vn 0.907575 -0.419889 0 
vn 0 0 -1 
vn 0.976621 0.21497 0 
vn 1 2.44929e-16 0 
vn 0.907575 0.419889 0 
vn 0.976621 0.21497 0 
vn 0.796093 0.605174 0 
vn 0.907575 0.419889 0 
vn 0.647386 0.762162 0 
vn 0.796093 0.605174 0 
vn 0.468408 0.883512 0 
vn 0.647386 0.762162 0 
vn 0.267528 0.96355 0 
vn 0.468408 0.883512 0 
vn 0.0541389 0.998533 0 
vn 0.267528 0.96355 0 
vn -0.161782 0.986827 0 
vn 0.0541389 0.998533 0 
vn -0.370138 0.928977 0 
vn -0.161782 0.986827 0 
vn -0.561187 0.827689 0 
vn -0.370138 0.928977 0 
vn -0.725995 0.687699 0 
vn -0.561187 0.827689 0 
vn -0.856857 0.515554 0 
vn -0.725995 0.687699 0 
vn -0.947653 0.319302 0 
vn -0.856857 0.515554 0 
vn -0.994138 0.108119 0 
vn -0.947653 0.319302 0 
vn -0.994138 -0.108119 0 
vn -1 -3.67394e-16 0 
vn -0.994138 0.108119 0 
vn -0.947653 -0.319302 0 
vn -0.994138 -0.108119 0 
vn -0.856857 -0.515554 0 
vn -0.947653 -0.319302 0 
vn -0.725995 -0.687699 0 
vn -0.856857 -0.515554 0 
vn -0.561187 -0.827689 0 
vn -0.725995 -0.687699 0 
vn -0.370138 -0.928977 0 
vn -0.561187 -0.827689 0 
vn -0.161782 -0.986827 0 
vn -0.370138 -0.928977 0 
vn 0.0541389 -0.998533 0 
vn -0.161782 -0.986827 0 
vn 0.267528 -0.96355 0 
vn 0.0541389 -0.998533 0 
vn 0.468408 -0.883512 0 
vn 0.267528 -0.96355 0 
vn 0.647386 -0.762162 0 
vn 0.468408 -0.883512 0 
vn 0.796093 -0.605174 0 
vn 0.647386 -0.762162 0 
vn 0.907575 -0.419889 0 
vn 0.796093 -0.605174 0 
vn 0.976621 -0.21497 0 
vn 0.907575 -0.419889 0 
vn 0.976621 0.21497 0 
vn 1 2.44929e-16 0 
vn 0.907575 0.419889 0 
vn 0.976621 0.21497 0 
vn 0.796093 0.605174 0 
vn 0.907575 0.419889 0 
vn 0.647386 0.762162 0 
vn 0.796093 0.605174 0 
vn 0.468408 0.883512 0 
vn 0.647386 0.762162 0 
vn 0.267528 0.96355 0 
vn 0.468408 0.883512 0 
vn 0.0541389 0.998533 0 
vn 0.267528 0.96355 0 
vn -0.161782 0.986827 0 
vn 0.0541389 0.998533 0 
vn -0.370138 0.928977 0 
vn -0.161782 0.986827 0 
vn -0.561187 0.827689 0 
vn -0.370138 0.928977 0 
vn -0.725995 0.687699 0 
vn -0.561187 0.827689 0 
vn -0.856857 0.515554 0 
vn -0.725995 0.687699 0 
vn -0.947653 0.319302 0 
vn -0.856857 0.515554 0 
vn -0.994138 0.108119 0 
vn -0.947653 0.319302 0 
vn -0.994138 -0.108119 0 
vn -1 -3.67394e-16 0 
vn -0.994138 0.108119 0 
vn -0.947653 -0.319302 0 
vn -0.994138 -0.108119 0 
vn -0.856857 -0.515554 0 
vn -0.947653 -0.319302 0 
vn -0.725995 -0.687699 0 
vn -0.856857 -0.515554 0 
vn -0.561187 -0.827689 0 
vn -0.725995 -0.687699 0 
vn -0.370138 -0.928977 0 
vn -0.561187 -0.827689 0 
vn -0.161782 -0.986827 0 
vn -0.370138 -0.928977 0 
vn 0.0541389 -0.998533 0 
vn -0.161782 -0.986827 0 
vn 0.267528 -0.96355 0 
vn 0.0541389 -0.998533 0 
vn 0.468408 -0.883512 0 
vn 0.267528 -0.96355 0 
vn 0.647386 -0.762162 0 
vn 0.468408 -0.883512 0 
vn 0.796093 -0.605174 0 
vn 0.647386 -0.762162 0 
vn 0.907575 -0.419889 0 
vn 0.796093 -0.605174 0 
vn 0.976621 -0.21497 0 
vn 0.907575 -0.419889 0 
vn 0.976621 0.21497 0 
vn 1 2.44929e-16 0 
vn 0.907575 0.419889 0 
vn 0.976621 0.21497 0 
vn 0.796093 0.605174 0 
vn 0.907575 0.419889 0 
vn 0.647386 0.762162 0 
vn 0.796093 0.605174 0 
vn 0.468408 0.883512 0 
vn 0.647386 0.762162 0 
vn 0.267528 0.96355 0 
vn 0.468408 0.883512 0 
vn 0.0541389 0.998533 0 
vn 0.267528 0.96355 0 
vn -0.161782 0.986827 0 
vn 0.0541389 0.998533 0 
vn -0.370138 0.928977 0 
vn -0.161782 0.986827 0 
vn -0.561187 0.827689 0 
vn -0.370138 0.928977 0 
vn -0.725995 0.687699 0 
vn -0.561187 0.827689 0 
vn -0.856857 0.515554 0 
vn -0.725995 0.687699 0 
vn -0.947653 0.319302 0 
vn -0.856857 0.515554 0 
vn -0.994138 0.108119 0 
vn -0.947653 0.319302 0 
vn -0.994138 -0.108119 0 
vn -1 -3.67394e-16 0 
vn -0.994138 0.108119 0 
vn -0.947653 -0.319302 0 
vn -0.994138 -0.108119 0 
vn -0.856857 -0.515554 0 
vn -0.947653 -0.319302 0 
vn -0.725995 -0.687699 0 
vn -0.797335 -0.603537 0 
vn -0.856857 -0.515554 0 
vn -0.561187 -0.827689 0 
vn -0.370138 -0.928977 0 
vn -0.161782 -0.986827 0 
vn 0.0541389 -0.998533 0 
vn 0.267528 -0.96355 0 
vn 0.468408 -0.883512 0 
vn 0.647386 -0.762162 0 
vn 0.796093 -0.605174 0 
vn 0.907575 -0.419889 0 
vn 0.799714 -0.600381 0 
vn 0.796093 -0.605174 0 
vn 0.976621 -0.21497 0 
vn 0 0 1 
vn 0.976621 0.21497 0 
vn 1 2.44929e-16 0 
vn 0.907575 0.419889 0 
vn 0.976621 0.21497 0 
vn 0.796093 0.605174 0 
vn 0.907575 0.419889 0 
vn 0.647386 0.762162 0 
vn 0.796093 0.605174 0 
vn 0.468408 0.883512 0 
vn 0.647386 0.762162 0 
vn 0.267528 0.96355 0 
vn 0.468408 0.883512 0 
vn 0.0541389 0.998533 0 
vn 0.267528 0.96355 0 
vn -0.161782 0.986827 0 
vn 0.0541389 0.998533 0 
vn -0.370138 0.928977 0 
vn -0.161782 0.986827 0 
vn -0.561187 0.827689 0 
vn -0.370138 0.928977 0 
vn -0.725995 0.687699 0 
vn -0.561187 0.827689 0 
vn -0.856857 0.515554 0 
vn -0.725995 0.687699 0 
vn -0.947653 0.319302 0 
vn -0.856857 0.515554 0 
vn -0.994138 0.108119 0 
vn -0.947653 0.319302 0 
vn -0.994138 -0.108119 0 
vn -1 -3.67394e-16 0 
vn -0.994138 0.108119 0 
vn -0.947653 -0.319302 0 
vn -0.856857 -0.515554 0 
vn -0.725995 -0.687699 0 
vn -0.561187 -0.827689 0 
vn -0.370138 -0.928977 0 
vn -0.161782 -0.986827 0 
vn 0.0541389 -0.998533 0 
vn 0.267528 -0.96355 0 
vn 0.468408 -0.883512 0 
vn 0.647386 -0.762162 0 
vn 0.796093 -0.605174 0 
vn 0.907575 -0.419889 0 
vn 0.976621 -0.21497 0 
vn 0.976621 0.21497 0 
vn 1 2.44929e-16 0 
vn 0.907575 0.419889 0 
vn 0.976621 0.21497 0 
vn 0.796093 0.605174 0 
vn 0.907575 0.419889 0 
vn 0.647386 0.762162 0 
vn 0.796093 0.605174 0 
vn 0.468408 0.883512 0 
vn 0.544755 0.838595 0 
vn 0.267528 0.96355 0 
vn 0.0541389 0.998533 0 
vn -0.161782 0.986827 0 
vn -0.370138 0.928977 0 
vn -0.561187 0.827689 0 
vn -0.542832 0.839841 0 
vn -0.725995 0.687699 0 
vn -0.856857 0.515554 0 
vn -0.947653 0.319302 0 
vn -0.994138 0.108119 0 
vn -0.994138 -0.108119 0 
vn -0.999991 -0.00416757 0 
vn -1 -1.22465e-16 0 
vn -0.994138 0.108119 0 
vn -0.947653 -0.319302 0 
vn -0.856857 -0.515554 0 
vn -0.725995 -0.687699 0 
vn -0.561187 -0.827689 0 
vn -0.370138 -0.928977 0 
vn -0.542832 -0.839841 0 
vn -0.561187 -0.827689 0 
vn -0.161782 -0.986827 0 
vn 0.0541389 -0.998533 0 
vn 0.267528 -0.96355 0 
vn 0.468408 -0.883512 0 
vn 0.647386 -0.762162 0 
vn 0.544755 -0.838595 0 
vn 0.468408 -0.883512 0 
vn 0.796093 -0.605174 0 
vn 0.907575 -0.419889 0 
vn 0.976621 -0.21497 0 
vn 0.999991 -0.00416852 0 
vn 0 0 1 
vn 0.976621 0.21497 0 
vn 1 2.44929e-16 0 
vn 0.907575 0.419889 0 
vn 0.976621 0.21497 0 
vn 0.796093 0.605174 0 
vn 0.907575 0.419889 0 
vn 0.647386 0.762162 0 
vn 0.796093 0.605174 0 
vn 0.468408 0.883512 0 
vn 0.647386 0.762162 0 
vn 0.267528 0.96355 0 
vn 0.468408 0.883512 0 
vn 0.0541389 0.998533 0 
vn 0.267528 0.96355 0 
vn -0.161782 0.986827 0 
vn 0.0541389 0.998533 0 
vn -0.370138 0.928977 0 
vn -0.161782 0.986827 0 
vn -0.561187 0.827689 0 
vn -0.370138 0.928977 0 
vn -0.725995 0.687699 0 
vn -0.561187 0.827689 0 
vn -0.856857 0.515554 0 
vn -0.725995 0.687699 0 
vn -0.947653 0.319302 0 
vn -0.856857 0.515554 0 
vn -0.994138 0.108119 0 
vn -0.947653 0.319302 0 
vn -0.994138 -0.108119 0 
vn -1 -3.67394e-16 0 
vn -0.994138 0.108119 0 
vn -0.947653 -0.319302 0 
vn -0.856857 -0.515554 0 
vn -0.725995 -0.687699 0 
vn -0.561187 -0.827689 0 
vn -0.370138 -0.928977 0 
vn -0.161782 -0.986827 0 
vn 0.0541389 -0.998533 0 
vn 0.267528 -0.96355 0 
vn 0.468408 -0.883512 0 
vn 0.647386 -0.762162 0 
vn 0.796093 -0.605174 0 
vn 0.907575 -0.419889 0 
vn 0.976621 -0.21497 0 
vn 0 0 -1 
usemtl 0.615686_0.811765_0.929412_0.000000_0.000000
o mesh0
f 1//1 2//2 3//2 
f 4//3 1//1 5//4 
f 6//5 4//3 7//6 
f 8//7 6//5 9//8 
f 10//9 8//7 11//10 
f 12//11 10//9 13//12 
f 14//13 12//11 15//14 
f 16//15 14//13 17//16 
f 18//17 16//15 19//18 
f 20//19 18//17 21//20 
f 22//21 20//19 23//22 
f 24//23 22//21 25//24 
f 26//25 24//23 27//26 
f 28//27 26//25 29//28 
f 30//29 31//30 32//30 
f 33//31 32//30 31//30 
f 31//30 28//27 33//31 
f 34//32 30//29 35//33 
f 36//34 34//32 37//35 
f 38//36 36//34 39//37 
f 40//38 38//36 41//39 
f 42//40 40//38 43//41 
f 44//42 42//40 45//43 
f 46//44 44//42 47//45 
f 48//46 46//44 49//47 
f 50//48 48//46 51//49 
f 52//50 50//48 53//51 
f 54//52 52//50 55//53 
f 56//54 54//52 57//55 
f 58//56 56//54 59//57 
f 2//2 58//56 60//56 
f 60//56 3//2 2//2 
f 59//57 60//56 58//56 
f 57//55 59//57 56//54 
f 55//53 57//55 54//52 
f 53//51 55//53 52//50 
f 51//49 53//51 50//48 
f 49//47 51//49 48//46 
f 47//45 49//47 46//44 
f 45//43 47//45 44//42 
f 43//41 45//43 42//40 
f 41//39 43//41 40//38 
f 39//37 41//39 38//36 
f 37//35 39//37 36//34 
f 35//33 37//35 34//32 
f 32//30 35//33 30//29 
f 29//28 33//31 28//27 
f 27//26 29//28 26//25 
f 25//24 27//26 24//23 
f 23//22 25//24 22//21 
f 21//20 23//22 20//19 
f 19//18 21//20 18//17 
f 17//16 19//18 16//15 
f 15//14 17//16 14//13 
f 13//12 15//14 12//11 
f 11//10 13//12 10//9 
f 9//8 11//10 8//7 
f 7//6 9//8 6//5 
f 5//4 7//6 4//3 
f 3//2 5//4 1//1 
o mesh1
f 61//58 39//58 37//58 
f 51//58 49//58 62//58 
f 61//58 41//58 39//58 
f 62//58 63//58 51//58 
f 64//58 37//58 35//58 
f 61//58 43//58 41//58 
f 61//58 62//58 45//58 
f 63//58 65//58 51//58 
f 65//58 55//58 53//58 
f 65//58 66//58 60//58 
f 67//58 21//58 19//58 
f 37//58 64//58 61//58 
f 62//58 47//58 45//58 
f 53//58 51//58 65//58 
f 65//58 59//58 57//58 
f 60//58 59//58 65//58 
f 66//58 19//58 17//58 
f 66//58 68//58 67//58 
f 45//58 43//58 61//58 
f 57//58 55//58 65//58 
f 66//58 3//58 60//58 
f 66//58 7//58 5//58 
f 66//58 15//58 13//58 
f 19//58 66//58 67//58 
f 49//58 47//58 62//58 
f 5//58 3//58 66//58 
f 66//58 11//58 9//58 
f 17//58 15//58 66//58 
f 33//58 69//58 64//58 
f 65//58 70//58 66//58 
f 13//58 11//58 66//58 
f 64//58 32//58 33//58 
f 9//58 7//58 66//58 
f 67//58 25//58 23//58 
f 67//58 29//58 27//58 
f 29//58 67//58 69//58 
f 23//58 21//58 67//58 
f 33//58 29//58 69//58 
f 27//58 25//58 67//58 
f 35//58 32//58 64//58 
o mesh2
f 66//59 71//59 72//59 
f 70//59 73//59 71//59 
f 71//59 66//59 70//59 
f 70//59 74//59 75//59 
f 75//59 73//59 70//59 
f 74//59 76//59 75//59 
f 74//59 77//59 76//59 
f 72//59 78//59 66//59 
o mesh3
f 79//58 80//58 81//58 
f 74//58 70//58 79//58 
f 82//58 74//58 83//58 
f 74//58 84//58 85//58 
f 74//58 86//58 87//58 
f 81//58 74//58 79//58 
f 83//58 88//58 82//58 
f 74//58 89//58 84//58 
f 81//58 86//58 74//58 
f 79//58 90//58 91//58 
f 92//58 93//58 94//58 
f 82//58 95//58 96//58 
f 74//58 97//58 83//58 
f 87//58 89//58 74//58 
f 91//58 98//58 79//58 
f 99//58 100//58 101//58 
f 102//58 94//58 103//58 
f 104//58 105//58 92//58 
f 82//58 106//58 95//58 
f 82//58 107//58 74//58 
f 74//58 108//58 109//58 
f 98//58 80//58 79//58 
f 99//58 79//58 100//58 
f 101//58 110//58 111//58 
f 102//58 112//58 110//58 
f 103//58 113//58 102//58 
f 94//58 104//58 92//58 
f 88//58 106//58 82//58 
f 85//58 108//58 74//58 
f 101//58 114//58 99//58 
f 110//58 101//58 102//58 
f 113//58 115//58 102//58 
f 96//58 105//58 82//58 
f 99//58 90//58 79//58 
f 115//58 112//58 102//58 
f 94//58 93//58 116//58 
f 109//58 97//58 74//58 
f 116//58 103//58 94//58 
f 111//58 114//58 101//58 
f 104//58 82//58 105//58 
o mesh4
f 117//60 118//61 86//61 
f 119//62 117//60 81//63 
f 98//64 120//64 121//65 
f 121//65 80//66 98//64 
f 122//67 120//64 98//64 
f 123//68 122//67 91//67 
f 124//69 123//68 90//68 
f 125//70 124//69 99//69 
f 126//71 125//70 114//70 
f 127//72 126//71 111//71 
f 128//73 127//72 110//72 
f 129//74 128//73 112//73 
f 115//74 113//75 130//76 
f 113//75 131//75 130//76 
f 132//77 131//75 113//75 
f 133//78 132//77 103//77 
f 134//79 135//80 93//80 
f 116//81 93//80 135//80 
f 135//80 133//78 116//81 
f 136//82 134//79 92//83 
f 137//84 136//82 105//85 
f 138//86 137//84 96//87 
f 139//88 138//86 95//89 
f 140//90 139//88 106//91 
f 141//92 140//90 88//93 
f 142//94 141//92 83//95 
f 143//96 142//94 97//97 
f 144//98 143//96 109//99 
f 145//100 144//98 108//101 
f 146//102 145//100 85//103 
f 147//104 146//102 84//105 
f 148//106 147//104 89//107 
f 118//61 148//106 87//106 
f 87//106 86//61 118//61 
f 89//107 87//106 148//106 
f 84//105 89//107 147//104 
f 85//103 84//105 146//102 
f 108//101 85//103 145//100 
f 109//99 108//101 144//98 
f 97//97 109//99 143//96 
f 83//95 97//97 142//94 
f 88//93 83//95 141//92 
f 106//91 88//93 140//90 
f 95//89 106//91 139//88 
f 96//87 95//89 138//86 
f 105//85 96//87 137//84 
f 92//83 105//85 136//82 
f 93//80 92//83 134//79 
f 103//77 116//81 133//78 
f 113//75 103//77 132//77 
f 130//76 129//74 115//74 
f 112//73 115//74 129//74 
f 110//72 112//73 128//73 
f 111//71 110//72 127//72 
f 114//70 111//71 126//71 
f 99//69 114//70 125//70 
f 90//68 99//69 124//69 
f 91//67 90//68 123//68 
f 98//64 91//67 122//67 
f 121//65 119//62 80//66 
f 81//63 80//66 119//62 
f 86//61 81//63 117//60 
o mesh5
f 149//108 150//108 151//108 
f 68//108 152//108 150//108 
f 150//108 149//108 68//108 
f 68//108 153//108 152//108 
f 66//108 154//108 153//108 
f 153//108 68//108 66//108 
f 66//108 155//108 154//108 
f 66//108 78//108 155//108 
f 151//108 156//108 149//108 
o mesh6
f 157//109 158//109 159//109 
f 160//109 161//109 158//109 
f 158//109 157//109 160//109 
f 160//109 149//109 162//109 
f 162//109 161//109 160//109 
f 149//109 163//109 162//109 
f 149//109 156//109 163//109 
f 159//109 164//109 157//109 
o mesh7
f 74//110 165//110 166//110 
f 74//110 107//110 167//110 
f 167//110 165//110 74//110 
f 107//110 168//110 167//110 
f 107//110 157//110 169//110 
f 169//110 168//110 107//110 
f 157//110 170//110 169//110 
f 157//110 164//110 170//110 
f 166//110 77//110 74//110 
o mesh8
f 70//111 171//111 172//112 
f 79//112 172//112 173//113 
f 100//113 173//113 174//114 
f 101//114 174//114 175//115 
f 102//115 175//115 176//116 
f 94//116 176//116 177//117 
f 104//117 177//117 178//118 
f 82//118 178//118 179//119 
f 107//119 179//119 180//120 
f 181//120 180//120 182//121 
f 183//121 182//121 184//122 
f 185//122 184//122 186//123 
f 187//123 186//123 188//124 
f 189//124 188//124 190//125 
f 191//125 190//125 192//126 
f 193//126 192//126 194//127 
f 160//127 194//127 195//128 
f 196//128 195//128 197//129 
f 198//129 197//129 199//130 
f 200//130 199//130 201//131 
f 202//131 201//131 203//132 
f 204//132 203//132 205//133 
f 206//133 205//133 207//134 
f 208//134 207//134 209//135 
f 68//135 209//135 210//136 
f 67//136 210//136 211//137 
f 69//137 211//137 212//138 
f 64//138 212//138 213//139 
f 61//139 213//139 214//140 
f 62//140 214//140 215//141 
f 63//141 215//141 216//142 
f 65//142 216//142 171//111 
f 171//111 70//111 65//142 
f 216//142 65//142 63//141 
f 215//141 63//141 62//140 
f 214//140 62//140 61//139 
f 213//139 61//139 64//138 
f 212//138 64//138 69//137 
f 211//137 69//137 67//136 
f 210//136 67//136 68//135 
f 209//135 68//135 208//134 
f 207//134 208//134 206//133 
f 205//133 206//133 204//132 
f 203//132 204//132 202//131 
f 201//131 202//131 200//130 
f 199//130 200//130 198//129 
f 197//129 198//129 196//128 
f 195//128 196//128 160//127 
f 194//127 160//127 193//126 
f 192//126 193//126 191//125 
f 190//125 191//125 189//124 
f 188//124 189//124 187//123 
f 186//123 187//123 185//122 
f 184//122 185//122 183//121 
f 182//121 183//121 181//120 
f 180//120 181//120 107//119 
f 179//119 107//119 82//118 
f 178//118 82//118 104//117 
f 177//117 104//117 94//116 
f 176//116 94//116 102//115 
f 175//115 102//115 101//114 
f 174//114 101//114 100//113 
f 173//113 100//113 79//112 
f 172//112 79//112 70//111 
o mesh9
f 157//143 181//143 217//143 
f 157//143 107//143 181//143 
f 189//143 218//143 219//143 
f 181//143 220//143 217//143 
f 181//143 221//143 222//143 
f 223//143 183//143 185//143 
f 187//143 219//143 224//143 
f 189//143 225//143 218//143 
f 157//143 226//143 227//143 
f 157//143 228//143 229//143 
f 222//143 220//143 181//143 
f 223//143 181//143 183//143 
f 185//143 187//143 230//143 
f 219//143 187//143 189//143 
f 231//143 225//143 189//143 
f 232//143 231//143 191//143 
f 157//143 233//143 226//143 
f 229//143 234//143 157//143 
f 181//143 235//143 221//143 
f 185//143 236//143 223//143 
f 230//143 237//143 185//143 
f 224//143 238//143 187//143 
f 191//143 193//143 232//143 
f 193//143 239//143 240//143 
f 157//143 241//143 239//143 
f 157//143 242//143 243//143 
f 234//143 233//143 157//143 
f 223//143 235//143 181//143 
f 238//143 230//143 187//143 
f 193//143 244//143 232//143 
f 240//143 245//143 193//143 
f 239//143 193//143 157//143 
f 227//143 242//143 157//143 
f 237//143 236//143 185//143 
f 245//143 244//143 193//143 
f 157//143 246//143 241//143 
f 217//143 228//143 157//143 
f 193//143 160//143 157//143 
f 189//143 191//143 231//143 
f 243//143 246//143 157//143 
o mesh10
f 247//144 248//145 236//145 
f 249//146 247//144 237//147 
f 238//148 250//148 251//149 
f 251//149 230//150 238//148 
f 252//151 250//148 238//148 
f 253//152 252//151 224//151 
f 254//153 253//152 219//152 
f 255//154 254//153 218//153 
f 256//155 255//154 225//154 
f 257//156 256//155 231//155 
f 258//157 257//156 232//156 
f 259//158 258//157 244//157 
f 245//158 240//159 260//160 
f 240//159 261//159 260//160 
f 262//161 261//159 240//159 
f 263//162 262//161 239//161 
f 264//163 265//164 246//164 
f 241//165 246//164 265//164 
f 265//164 263//162 241//165 
f 266//166 264//163 243//167 
f 267//168 266//166 242//169 
f 268//170 267//168 227//171 
f 269//172 268//170 226//173 
f 270//174 269//172 233//175 
f 271//176 270//174 234//177 
f 272//178 271//176 229//179 
f 273//180 272//178 228//181 
f 274//182 273//180 217//183 
f 275//184 274//182 220//185 
f 276//186 275//184 222//187 
f 277//188 276//186 221//189 
f 278//190 277//188 235//191 
f 248//145 278//190 223//190 
f 223//190 236//145 248//145 
f 235//191 223//190 278//190 
f 221//189 235//191 277//188 
f 222//187 221//189 276//186 
f 220//185 222//187 275//184 
f 217//183 220//185 274//182 
f 228//181 217//183 273//180 
f 229//179 228//181 272//178 
f 234//177 229//179 271//176 
f 233//175 234//177 270//174 
f 226//173 233//175 269//172 
f 227//171 226//173 268//170 
f 242//169 227//171 267//168 
f 243//167 242//169 266//166 
f 246//164 243//167 264//163 
f 239//161 241//165 263//162 
f 240//159 239//161 262//161 
f 260//160 259//158 245//158 
f 244//157 245//158 259//158 
f 232//156 244//157 258//157 
f 231//155 232//156 257//156 
f 225//154 231//155 256//155 
f 218//153 225//154 255//154 
f 219//152 218//153 254//153 
f 224//151 219//152 253//152 
f 238//148 224//151 252//151 
f 251//149 249//146 230//150 
f 237//147 230//150 249//146 
f 236//145 237//147 247//144 
o mesh11
f 200//192 202//192 279//192 
f 279//192 280//192 200//192 
f 202//192 281//192 279//192 
f 202//192 282//192 281//192 
f 283//192 284//192 204//192 
f 208//192 285//192 286//192 
f 149//192 287//192 285//192 
f 288//192 196//192 198//192 
f 289//192 198//192 200//192 
f 202//192 290//192 282//192 
f 204//192 206//192 283//192 
f 286//192 291//192 208//192 
f 285//192 208//192 149//192 
f 198//192 289//192 288//192 
f 280//192 292//192 200//192 
f 204//192 293//192 290//192 
f 208//192 294//192 283//192 
f 291//192 295//192 208//192 
f 149//192 296//192 287//192 
f 149//192 297//192 298//192 
f 149//192 196//192 299//192 
f 196//192 300//192 301//192 
f 200//192 292//192 289//192 
f 204//192 284//192 293//192 
f 295//192 294//192 208//192 
f 298//192 296//192 149//192 
f 149//192 302//192 303//192 
f 149//192 160//192 196//192 
f 196//192 304//192 300//192 
f 290//192 202//192 204//192 
f 208//192 68//192 149//192 
f 303//192 305//192 149//192 
f 299//192 306//192 149//192 
f 288//192 304//192 196//192 
f 305//192 297//192 149//192 
f 149//192 307//192 308//192 
f 301//192 299//192 196//192 
f 308//192 302//192 149//192 
f 206//192 208//192 283//192 
f 306//192 307//192 149//192 
o mesh12
f 309//193 310//194 284//194 
f 311//195 309//193 283//196 
f 312//197 311//195 294//198 
f 313//199 312//197 295//200 
f 314//201 313//199 291//202 
f 315//203 314//201 286//204 
f 316//205 315//203 285//206 
f 317//207 316//205 287//208 
f 318//209 317//207 296//210 
f 319//211 318//209 298//212 
f 320//213 319//211 297//214 
f 321//215 320//213 305//216 
f 322//217 321//215 303//218 
f 323//219 322//217 302//220 
f 324//221 325//222 307//222 
f 308//223 307//222 325//222 
f 325//222 323//219 308//223 
f 326//224 324//221 306//225 
f 327//226 326//224 299//227 
f 328//228 327//226 301//229 
f 329//230 328//228 300//231 
f 330//232 329//230 304//233 
f 331//234 330//232 288//235 
f 332//236 331//234 289//237 
f 333//238 332//236 292//239 
f 334//240 333//238 280//241 
f 335//242 334//240 279//243 
f 336//244 335//242 281//245 
f 337//246 336//244 282//247 
f 338//248 337//246 290//249 
f 310//194 338//248 293//248 
f 293//248 284//194 310//194 
f 290//249 293//248 338//248 
f 282//247 290//249 337//246 
f 281//245 282//247 336//244 
f 279//243 281//245 335//242 
f 280//241 279//243 334//240 
f 292//239 280//241 333//238 
f 289//237 292//239 332//236 
f 288//235 289//237 331//234 
f 304//233 288//235 330//232 
f 300//231 304//233 329//230 
f 301//229 300//231 328//228 
f 299//227 301//229 327//226 
f 306//225 299//227 326//224 
f 307//222 306//225 324//221 
f 302//220 308//223 323//219 
f 303//218 302//220 322//217 
f 305//216 303//218 321//215 
f 297//214 305//216 320//213 
f 298//212 297//214 319//211 
f 296//210 298//212 318//209 
f 287//208 296//210 317//207 
f 285//206 287//208 316//205 
f 286//204 285//206 315//203 
f 291//202 286//204 314//201 
f 295//200 291//202 313//199 
f 294//198 295//200 312//197 
f 283//196 294//198 311//195 
f 284//194 283//196 309//193 
o mesh13
f 77//250 166//250 467//250 
f 166//250 165//250 468//250 
f 165//250 167//250 469//250 
f 168//250 169//250 470//250 
f 169//250 170//250 471//250 
f 170//250 164//250 159//250 
f 76//250 467//250 472//250 
f 468//250 469//250 473//250 
f 474//250 470//250 475//250 
f 470//250 471//250 476//250 
f 75//250 472//250 477//250 
f 475//250 476//250 478//250 
f 73//250 477//250 479//250 
f 477//250 480//250 481//250 
f 482//250 478//250 339//250 
f 339//250 340//250 482//250 
f 482//250 341//250 342//250 
f 478//250 343//250 339//250 
f 483//250 484//250 344//250 
f 340//250 341//250 482//250 
f 484//250 345//250 344//250 
f 484//250 346//250 347//250 
f 478//250 348//250 343//250 
f 478//250 349//250 350//250 
f 344//250 351//250 483//250 
f 484//250 352//250 346//250 
f 350//250 348//250 478//250 
f 483//250 353//250 354//250 
f 347//250 345//250 484//250 
f 484//250 482//250 355//250 
f 342//250 356//250 482//250 
f 478//250 357//250 358//250 
f 354//250 478//250 483//250 
f 483//250 359//250 360//250 
f 351//250 361//250 483//250 
f 482//250 362//250 355//250 
f 358//250 349//250 478//250 
f 354//250 363//250 478//250 
f 483//250 364//250 365//250 
f 361//250 359//250 483//250 
f 356//250 362//250 482//250 
f 483//250 366//250 353//250 
f 360//250 364//250 483//250 
f 484//250 367//250 368//250 
f 363//250 357//250 478//250 
f 368//250 352//250 484//250 
f 365//250 366//250 483//250 
f 478//250 161//250 162//250 
f 71//250 479//250 485//250 
f 481//250 486//250 31//250 
f 486//250 28//250 31//250 
f 481//250 34//250 36//250 
f 31//250 30//250 481//250 
f 486//250 485//250 12//250 
f 479//250 481//250 46//250 
f 36//250 38//250 481//250 
f 486//250 26//250 28//250 
f 12//250 14//250 486//250 
f 479//250 48//250 50//250 
f 481//250 44//250 46//250 
f 30//250 34//250 481//250 
f 486//250 22//250 24//250 
f 14//250 16//250 486//250 
f 485//250 8//250 10//250 
f 479//250 52//250 54//250 
f 46//250 48//250 479//250 
f 481//250 40//250 42//250 
f 24//250 26//250 486//250 
f 10//250 12//250 485//250 
f 485//250 4//250 6//250 
f 485//250 479//250 58//250 
f 50//250 52//250 479//250 
f 38//250 40//250 481//250 
f 6//250 8//250 485//250 
f 485//250 2//250 1//250 
f 479//250 56//250 58//250 
f 42//250 44//250 481//250 
f 486//250 18//250 20//250 
f 1//250 4//250 485//250 
f 54//250 56//250 479//250 
f 16//250 18//250 486//250 
f 20//250 22//250 486//250 
f 481//250 487//250 488//250 
f 487//250 489//250 490//250 
f 489//250 484//250 491//250 
f 484//250 483//250 492//250 
f 483//250 332//250 333//250 
f 333//250 334//250 483//250 
f 334//250 335//250 483//250 
f 335//250 336//250 483//250 
f 162//250 330//250 331//250 
f 492//250 313//250 314//250 
f 483//250 338//250 310//250 
f 483//250 331//250 332//250 
f 162//250 329//250 330//250 
f 163//250 492//250 317//250 
f 492//250 312//250 313//250 
f 483//250 337//250 338//250 
f 331//250 483//250 162//250 
f 162//250 326//250 327//250 
f 162//250 163//250 324//250 
f 163//250 323//250 325//250 
f 317//250 318//250 163//250 
f 492//250 315//250 316//250 
f 492//250 311//250 312//250 
f 492//250 310//250 309//250 
f 336//250 337//250 483//250 
f 327//250 328//250 162//250 
f 325//250 324//250 163//250 
f 163//250 320//250 321//250 
f 316//250 317//250 492//250 
f 309//250 311//250 492//250 
f 328//250 329//250 162//250 
f 163//250 322//250 323//250 
f 163//250 319//250 320//250 
f 314//250 315//250 492//250 
f 324//250 326//250 162//250 
f 318//250 319//250 163//250 
f 321//250 322//250 163//250 
f 72//250 485//250 155//250 
f 485//250 486//250 154//250 
f 486//250 488//250 153//250 
f 488//250 490//250 152//250 
f 490//250 491//250 150//250 
f 491//250 492//250 151//250 
f 492//250 163//250 156//250 
f 475//250 482//250 369//250 
f 369//250 370//250 475//250 
f 370//250 371//250 475//250 
f 482//250 372//250 373//250 
f 475//250 374//250 375//250 
f 373//250 369//250 482//250 
f 371//250 374//250 475//250 
f 493//250 376//250 377//250 
f 473//250 377//250 378//250 
f 493//250 379//250 376//250 
f 377//250 473//250 493//250 
f 493//250 375//250 379//250 
f 378//250 380//250 473//250 
f 480//250 494//250 381//250 
f 494//250 382//250 383//250 
f 494//250 473//250 384//250 
f 381//250 385//250 480//250 
f 384//250 382//250 494//250 
f 383//250 381//250 494//250 
f 386//250 387//250 388//250 
f 386//250 389//250 387//250 
f 386//250 390//250 391//250 
f 388//250 392//250 386//250 
f 487//250 393//250 394//250 
f 392//250 390//250 386//250 
f 395//250 396//250 397//250 
f 393//250 386//250 394//250 
f 386//250 393//250 389//250 
f 397//250 398//250 395//250 
f 391//250 399//250 386//250 
f 480//250 396//250 400//250 
f 395//250 400//250 396//250 
f 398//250 401//250 399//250 
f 487//250 402//250 393//250 
f 487//250 481//250 403//250 
f 397//250 401//250 398//250 
f 394//250 404//250 487//250 
f 403//250 405//250 487//250 
f 399//250 391//250 398//250 
f 481//250 406//250 403//250 
f 480//250 407//250 408//250 
f 405//250 402//250 487//250 
f 480//250 409//250 410//250 
f 400//250 407//250 480//250 
f 481//250 411//250 412//250 
f 480//250 413//250 409//250 
f 412//250 406//250 481//250 
f 481//250 414//250 415//250 
f 408//250 413//250 480//250 
f 415//250 416//250 481//250 
f 481//250 417//250 418//250 
f 480//250 419//250 420//250 
f 480//250 421//250 422//250 
f 416//250 411//250 481//250 
f 481//250 420//250 417//250 
f 422//250 419//250 480//250 
f 418//250 414//250 481//250 
f 410//250 421//250 480//250 
f 489//250 423//250 424//250 
f 489//250 487//250 425//250 
f 425//250 423//250 489//250 
f 487//250 426//250 427//250 
f 427//250 425//250 487//250 
f 487//250 404//250 426//250 
f 482//250 428//250 429//250 
f 482//250 484//250 430//250 
f 430//250 428//250 482//250 
f 484//250 431//250 432//250 
f 484//250 489//250 433//250 
f 432//250 430//250 484//250 
f 433//250 434//250 484//250 
f 434//250 431//250 484//250 
f 168//250 435//250 436//250 
f 168//250 437//250 435//250 
f 168//250 474//250 438//250 
f 167//250 439//250 440//250 
f 167//250 436//250 441//250 
f 168//250 442//250 437//250 
f 438//250 443//250 168//250 
f 441//250 439//250 167//250 
f 443//250 442//250 168//250 
f 167//250 444//250 445//250 
f 436//250 167//250 168//250 
f 440//250 444//250 167//250 
f 474//250 493//250 446//250 
f 446//250 447//250 474//250 
f 447//250 448//250 474//250 
f 473//250 469//250 449//250 
f 493//250 450//250 446//250 
f 493//250 451//250 452//250 
f 493//250 473//250 453//250 
f 473//250 454//250 455//250 
f 449//250 456//250 473//250 
f 469//250 457//250 458//250 
f 493//250 459//250 450//250 
f 493//250 460//250 451//250 
f 453//250 461//250 493//250 
f 473//250 462//250 454//250 
f 458//250 449//250 469//250 
f 448//250 463//250 474//250 
f 461//250 460//250 493//250 
f 456//250 462//250 473//250 
f 452//250 459//250 493//250 
f 473//250 464//250 465//250 
f 469//250 445//250 457//250 
f 463//250 466//250 474//250 
f 455//250 464//250 473//250 
f 465//250 453//250 473//250 
f 480//250 477//250 125//250 
f 494//250 480//250 129//250 
f 125//250 126//250 480//250 
f 477//250 123//250 124//250 
f 477//250 120//250 122//250 
f 480//250 128//250 129//250 
f 126//250 127//250 480//250 
f 122//250 123//250 477//250 
f 472//250 121//250 120//250 
f 127//250 128//250 480//250 
f 120//250 477//250 472//250 
f 124//250 125//250 477//250 
f 472//250 467//250 148//250 
f 494//250 135//250 134//250 
f 472//250 118//250 117//250 
f 467//250 147//250 148//250 
f 467//250 144//250 145//250 
f 494//250 133//250 135//250 
f 148//250 118//250 472//250 
f 145//250 146//250 467//250 
f 468//250 140//250 141//250 
f 468//250 136//250 137//250 
f 134//250 468//250 494//250 
f 146//250 147//250 467//250 
f 467//250 468//250 142//250 
f 468//250 139//250 140//250 
f 137//250 138//250 468//250 
f 494//250 132//250 133//250 
f 494//250 130//250 131//250 
f 117//250 119//250 472//250 
f 142//250 143//250 467//250 
f 138//250 139//250 468//250 
f 131//250 132//250 494//250 
f 143//250 144//250 467//250 
f 134//250 136//250 468//250 
f 141//250 142//250 468//250 
f 478//250 255//250 256//250 
f 158//250 161//250 259//250 
f 256//250 161//250 478//250 
f 476//250 250//250 252//250 
f 161//250 258//250 259//250 
f 256//250 257//250 161//250 
f 478//250 253//250 254//250 
f 252//250 478//250 476//250 
f 257//250 258//250 161//250 
f 252//250 253//250 478//250 
f 254//250 255//250 478//250 
f 476//250 251//250 250//250 
f 158//250 265//250 264//250 
f 471//250 274//250 275//250 
f 471//250 272//250 273//250 
f 471//250 159//250 271//250 
f 158//250 263//250 265//250 
f 471//250 278//250 248//250 
f 273//250 274//250 471//250 
f 159//250 270//250 271//250 
f 159//250 266//250 267//250 
f 264//250 159//250 158//250 
f 476//250 248//250 247//250 
f 471//250 277//250 278//250 
f 275//250 276//250 471//250 
f 159//250 269//250 270//250 
f 267//250 268//250 159//250 
f 158//250 262//250 263//250 
f 158//250 260//250 261//250 
f 247//250 249//250 476//250 
f 276//250 277//250 471//250 
f 268//250 269//250 159//250 
f 261//250 262//250 158//250 
f 248//250 476//250 471//250 
f 264//250 266//250 159//250 
f 271//250 272//250 471//250 
f 249//250 251//250 476//250 
f 259//250 260//250 158//250 
f 119//250 121//250 472//250 
f 129//250 130//250 494//250 
f 466//250 438//250 474//250 
f 445//250 469//250 167//250 
f 429//250 372//250 482//250 
f 424//250 433//250 489//250 
f 420//250 481//250 480//250 
f 385//250 396//250 480//250 
f 380//250 384//250 473//250 
f 375//250 493//250 475//250 
f 156//250 151//250 492//250 
f 151//250 150//250 491//250 
f 150//250 152//250 490//250 
f 152//250 153//250 488//250 
f 153//250 154//250 486//250 
f 154//250 155//250 485//250 
f 155//250 78//250 72//250 
f 310//250 492//250 483//250 
f 492//250 491//250 484//250 
f 491//250 490//250 489//250 
f 490//250 488//250 487//250 
f 488//250 486//250 481//250 
f 58//250 2//250 485//250 
f 485//250 72//250 71//250 
f 162//250 483//250 478//250 
f 355//250 367//250 484//250 
f 481//250 479//250 477//250 
f 479//250 71//250 73//250 
f 478//250 482//250 475//250 
f 477//250 73//250 75//250 
f 476//250 475//250 470//250 
f 475//250 493//250 474//250 
f 473//250 494//250 468//250 
f 472//250 75//250 76//250 
f 159//250 471//250 170//250 
f 471//250 470//250 169//250 
f 470//250 474//250 168//250 
f 469//250 468//250 165//250 
f 468//250 467//250 166//250 
f 467//250 76//250 77//250 
o mesh14
f 368//251 367//252 495//252 
f 352//253 368//251 496//254 
f 346//255 352//253 497//256 
f 347//257 346//255 498//258 
f 345//259 347//257 499//260 
f 344//261 345//259 500//262 
f 351//263 344//261 501//264 
f 361//265 351//263 502//266 
f 359//267 361//265 503//268 
f 360//269 359//267 504//270 
f 364//271 360//269 505//272 
f 365//273 364//271 506//274 
f 366//275 365//273 507//276 
f 353//277 366//275 508//278 
f 363//279 354//280 509//280 
f 510//281 509//280 354//280 
f 354//280 353//277 510//281 
f 357//282 363//279 511//283 
f 358//284 357//282 512//285 
f 349//286 358//284 513//287 
f 350//288 349//286 514//289 
f 348//290 350//288 515//291 
f 343//292 348//290 516//293 
f 339//294 343//292 517//295 
f 340//296 339//294 518//297 
f 341//298 340//296 519//299 
f 342//300 341//298 520//301 
f 356//302 342//300 521//303 
f 362//304 356//302 522//305 
f 355//306 362//304 523//307 
f 367//252 355//306 524//306 
f 524//306 495//252 367//252 
f 523//307 524//306 355//306 
f 522//305 523//307 362//304 
f 521//303 522//305 356//302 
f 520//301 521//303 342//300 
f 519//299 520//301 341//298 
f 518//297 519//299 340//296 
f 517//295 518//297 339//294 
f 516//293 517//295 343//292 
f 515//291 516//293 348//290 
f 514//289 515//291 350//288 
f 513//287 514//289 349//286 
f 512//285 513//287 358//284 
f 511//283 512//285 357//282 
f 509//280 511//283 363//279 
f 508//278 510//281 353//277 
f 507//276 508//278 366//275 
f 506//274 507//276 365//273 
f 505//272 506//274 364//271 
f 504//270 505//272 360//269 
f 503//268 504//270 359//267 
f 502//266 503//268 361//265 
f 501//264 502//266 351//263 
f 500//262 501//264 344//261 
f 499//260 500//262 345//259 
f 498//258 499//260 347//257 
f 497//256 498//258 346//255 
f 496//254 497//256 352//253 
f 495//252 496//254 368//251 
o mesh15
f 417//308 420//309 525//309 
f 418//310 417//308 526//311 
f 414//312 418//310 527//313 
f 415//314 414//312 528//315 
f 416//316 415//314 529//317 
f 411//318 416//316 530//319 
f 412//320 411//318 531//321 
f 406//322 412//320 532//323 
f 403//324 406//322 533//325 
f 405//326 403//324 534//327 
f 402//328 405//326 535//329 
f 393//330 402//328 536//331 
f 389//332 393//330 537//333 
f 387//334 389//332 538//335 
f 392//336 388//337 539//337 
f 540//338 539//337 388//337 
f 388//337 387//334 540//338 
f 390//339 392//336 541//340 
f 391//341 390//339 542//342 
f 398//343 391//341 543//344 
f 395//345 398//343 544//346 
f 400//347 395//345 545//348 
f 407//349 400//347 546//350 
f 408//351 407//349 547//352 
f 413//353 408//351 548//354 
f 409//355 413//353 549//356 
f 410//357 409//355 550//358 
f 421//359 410//357 551//360 
f 422//361 421//359 552//362 
f 419//363 422//361 553//364 
f 420//309 419//363 554//363 
f 554//363 525//309 420//309 
f 553//364 554//363 419//363 
f 552//362 553//364 422//361 
f 551//360 552//362 421//359 
f 550//358 551//360 410//357 
f 549//356 550//358 409//355 
f 548//354 549//356 413//353 
f 547//352 548//354 408//351 
f 546//350 547//352 407//349 
f 545//348 546//350 400//347 
f 544//346 545//348 395//345 
f 543//344 544//346 398//343 
f 542//342 543//344 391//341 
f 541//340 542//342 390//339 
f 539//337 541//340 392//336 
f 538//335 540//338 387//334 
f 537//333 538//335 389//332 
f 536//331 537//333 393//330 
f 535//329 536//331 402//328 
f 534//327 535//329 405//326 
f 533//325 534//327 403//324 
f 532//323 533//325 406//322 
f 531//321 532//323 412//320 
f 530//319 531//321 411//318 
f 529//317 530//319 416//316 
f 528//315 529//317 415//314 
f 527//313 528//315 414//312 
f 526//311 527//313 418//310 
f 525//309 526//311 417//308 
o mesh16
f 456//365 449//366 555//366 
f 462//367 456//365 556//368 
f 454//369 462//367 557//370 
f 455//371 454//369 558//372 
f 464//373 455//371 559//374 
f 465//375 464//373 560//376 
f 453//377 465//375 561//378 
f 461//379 453//377 562//380 
f 460//381 461//379 563//382 
f 451//383 460//381 564//384 
f 452//385 451//383 565//386 
f 459//387 452//385 566//388 
f 450//389 459//387 567//390 
f 446//391 450//389 568//392 
f 448//393 447//394 569//394 
f 570//395 569//394 447//394 
f 447//394 446//391 570//395 
f 463//396 448//393 571//397 
f 466//398 463//396 572//399 
f 573//400 443//400 438//401 
f 438//401 574//402 573//400 
f 442//403 443//400 573//400 
f 437//404 442//403 575//403 
f 435//405 437//404 576//404 
f 436//406 435//405 577//405 
f 441//407 436//406 578//406 
f 439//408 441//407 579//407 
f 440//409 439//408 580//408 
f 444//410 440//409 581//409 
f 582//411 457//411 445//412 
f 445//412 583//413 582//411 
f 458//414 457//411 582//411 
f 449//366 458//414 584//414 
f 584//414 555//366 449//366 
f 582//411 584//414 458//414 
f 445//412 444//410 583//413 
f 581//409 583//413 444//410 
f 580//408 581//409 440//409 
f 579//407 580//408 439//408 
f 578//406 579//407 441//407 
f 577//405 578//406 436//406 
f 576//404 577//405 435//405 
f 575//403 576//404 437//404 
f 573//400 575//403 442//403 
f 438//401 466//398 574//402 
f 572//399 574//402 466//398 
f 571//397 572//399 463//396 
f 569//394 571//397 448//393 
f 568//392 570//395 446//391 
f 567//390 568//392 450//389 
f 566//388 567//390 459//387 
f 565//386 566//388 452//385 
f 564//384 565//386 451//383 
f 563//382 564//384 460//381 
f 562//380 563//382 461//379 
f 561//378 562//380 453//377 
f 560//376 561//378 465//375 
f 559//374 560//376 464//373 
f 558//372 559//374 455//371 
f 557//370 558//372 454//369 
f 556//368 557//370 462//367 
f 555//366 556//368 456//365 
o mesh17
f 173//415 585//415 559//415 
f 586//415 519//415 518//415 
f 173//415 587//415 585//415 
f 588//415 549//415 548//415 
f 502//415 539//415 540//415 
f 586//415 520//415 519//415 
f 585//415 560//415 559//415 
f 549//415 589//415 590//415 
f 548//415 591//415 592//415 
f 495//415 593//415 594//415 
f 538//415 537//415 207//415 
f 540//415 538//415 203//415 
f 201//415 503//415 502//415 
f 518//415 194//415 586//415 
f 586//415 522//415 521//415 
f 559//415 558//415 173//415 
f 549//415 588//415 589//415 
f 548//415 595//415 591//415 
f 495//415 596//415 597//415 
f 594//415 598//415 495//415 
f 599//415 524//415 523//415 
f 537//415 536//415 210//415 
f 207//415 205//415 538//415 
f 540//415 201//415 502//415 
f 515//415 514//415 195//415 
f 521//415 520//415 586//415 
f 173//415 590//415 587//415 
f 548//415 592//415 588//415 
f 548//415 597//415 600//415 
f 598//415 596//415 495//415 
f 599//415 495//415 524//415 
f 210//415 209//415 537//415 
f 203//415 201//415 540//415 
f 557//415 556//415 175//415 
f 194//415 516//415 515//415 
f 518//415 517//415 194//415 
f 590//415 173//415 549//415 
f 597//415 548//415 495//415 
f 523//415 601//415 599//415 
f 523//415 586//415 602//415 
f 549//415 172//415 171//415 
f 550//415 171//415 216//415 
f 535//415 534//415 212//415 
f 536//415 535//415 211//415 
f 205//415 203//415 538//415 
f 584//415 582//415 178//415 
f 555//415 584//415 177//415 
f 556//415 555//415 176//415 
f 175//415 174//415 557//415 
f 513//415 512//415 197//415 
f 517//415 516//415 194//415 
f 600//415 595//415 548//415 
f 602//415 601//415 523//415 
f 549//415 173//415 172//415 
f 216//415 552//415 551//415 
f 534//415 533//415 213//415 
f 211//415 210//415 536//415 
f 201//415 504//415 503//415 
f 201//415 506//415 505//415 
f 178//415 583//415 581//415 
f 177//415 176//415 555//415 
f 174//415 173//415 557//415 
f 195//415 514//415 513//415 
f 586//415 523//415 522//415 
f 599//415 593//415 495//415 
f 216//415 551//415 550//415 
f 552//415 216//415 215//415 
f 213//415 532//415 531//415 
f 212//415 211//415 535//415 
f 505//415 504//415 201//415 
f 178//415 582//415 583//415 
f 176//415 175//415 556//415 
f 195//415 194//415 515//415 
f 171//415 550//415 549//415 
f 215//415 554//415 553//415 
f 215//415 526//415 525//415 
f 215//415 214//415 527//415 
f 214//415 530//415 529//415 
f 213//415 533//415 532//415 
f 209//415 207//415 537//415 
f 178//415 177//415 584//415 
f 558//415 557//415 173//415 
f 525//415 554//415 215//415 
f 214//415 528//415 527//415 
f 214//415 531//415 530//415 
f 213//415 212//415 534//415 
f 197//415 195//415 513//415 
f 527//415 526//415 215//415 
f 531//415 214//415 213//415 
f 201//415 508//415 507//415 
f 561//415 603//415 604//415 
f 179//415 178//415 580//415 
f 215//415 553//415 552//415 
f 507//415 506//415 201//415 
f 604//415 562//415 561//415 
f 560//415 605//415 606//415 
f 580//415 579//415 179//415 
f 529//415 528//415 214//415 
f 560//415 607//415 603//415 
f 560//415 585//415 605//415 
f 508//415 201//415 199//415 
f 497//415 542//415 541//415 
f 497//415 544//415 543//415 
f 497//415 546//415 545//415 
f 566//415 565//415 608//415 
f 581//415 580//415 178//415 
f 606//415 607//415 560//415 
f 197//415 510//415 508//415 
f 543//415 542//415 497//415 
f 497//415 547//415 546//415 
f 496//415 548//415 547//415 
f 539//415 502//415 501//415 
f 609//415 563//415 562//415 
f 194//415 192//415 610//415 
f 608//415 192//415 566//415 
f 569//415 184//415 182//415 
f 180//415 179//415 576//415 
f 179//415 578//415 577//415 
f 561//415 560//415 603//415 
f 197//415 509//415 510//415 
f 545//415 544//415 497//415 
f 547//415 497//415 496//415 
f 539//415 499//415 498//415 
f 501//415 500//415 539//415 
f 609//415 564//415 563//415 
f 565//415 564//415 611//415 
f 192//415 612//415 610//415 
f 192//415 567//415 566//415 
f 182//415 572//415 571//415 
f 572//415 182//415 180//415 
f 180//415 575//415 573//415 
f 577//415 576//415 179//415 
f 197//415 512//415 511//415 
f 199//415 197//415 508//415 
f 496//415 495//415 548//415 
f 500//415 499//415 539//415 
f 562//415 604//415 609//415 
f 611//415 613//415 565//415 
f 608//415 612//415 192//415 
f 567//415 190//415 188//415 
f 568//415 188//415 186//415 
f 570//415 186//415 184//415 
f 180//415 574//415 572//415 
f 576//415 575//415 180//415 
f 579//415 578//415 179//415 
f 498//415 497//415 539//415 
f 609//415 614//415 564//415 
f 610//415 586//415 194//415 
f 567//415 192//415 190//415 
f 184//415 569//415 570//415 
f 573//415 574//415 180//415 
f 541//415 539//415 497//415 
f 613//415 608//415 565//415 
f 186//415 570//415 568//415 
f 511//415 509//415 197//415 
f 188//415 568//415 567//415 
f 614//415 611//415 564//415 
f 182//415 571//415 569//415 
o mesh18
f 615//416 616//417 590//417 
f 617//418 615//416 589//419 
f 618//420 617//418 588//421 
f 619//422 618//420 592//423 
f 620//424 619//422 591//425 
f 621//426 620//424 595//427 
f 622//428 621//426 600//429 
f 623//430 622//428 597//431 
f 624//432 623//430 596//433 
f 625//434 624//432 598//435 
f 626//436 625//434 594//437 
f 627//438 626//436 593//439 
f 628//440 627//438 599//441 
f 629//442 628//440 601//443 
f 610//444 630//444 631//445 
f 629//442 602//446 586//445 
f 586//445 631//445 629//442 
f 632//447 630//444 610//444 
f 633//448 632//447 612//447 
f 634//449 633//448 608//448 
f 635//450 634//449 613//449 
f 636//451 635//450 611//450 
f 637//452 636//451 614//451 
f 638//453 637//452 609//452 
f 639//454 638//453 604//453 
f 640//455 639//454 603//454 
f 641//456 640//455 607//455 
f 642//457 641//456 606//456 
f 643//458 642//457 605//457 
f 644//459 643//458 585//458 
f 616//417 644//459 587//459 
f 587//459 590//417 616//417 
f 585//458 587//459 644//459 
f 605//457 585//458 643//458 
f 606//456 605//457 642//457 
f 607//455 606//456 641//456 
f 603//454 607//455 640//455 
f 604//453 603//454 639//454 
f 609//452 604//453 638//453 
f 614//451 609//452 637//452 
f 611//450 614//451 636//451 
f 613//449 611//450 635//450 
f 608//448 613//449 634//449 
f 612//447 608//448 633//448 
f 610//444 612//447 632//447 
f 631//445 586//445 610//444 
f 601//443 602//446 629//442 
f 599//441 601//443 628//440 
f 593//439 599//441 627//438 
f 594//437 593//439 626//436 
f 598//435 594//437 625//434 
f 596//433 598//435 624//432 
f 597//431 596//433 623//430 
f 600//429 597//431 622//428 
f 595//427 600//429 621//426 
f 591//425 595//427 620//424 
f 592//423 591//425 619//422 
f 588//421 592//423 618//420 
f 589//419 588//421 617//418 
f 590//417 589//419 615//416 
o mesh19
f 401//460 397//461 645//461 
f 399//462 401//460 646//463 
f 386//464 399//462 647//465 
f 394//466 386//464 648//467 
f 649//466 650//468 404//469 
f 650//468 426//468 404//469 
f 427//470 426//468 650//468 
f 425//471 427//470 651//470 
f 423//472 425//471 652//471 
f 424//473 423//472 653//472 
f 654//473 655//474 433//475 
f 655//474 434//474 433//475 
f 431//476 434//474 655//474 
f 432//477 431//476 656//476 
f 430//478 432//477 657//477 
f 428//479 430//478 658//478 
f 659//480 373//480 372//481 
f 372//481 660//482 659//480 
f 428//479 661//483 660//482 
f 660//482 429//482 428//479 
f 369//484 373//480 659//480 
f 370//485 369//484 662//484 
f 371//486 370//485 663//485 
f 374//487 371//486 664//486 
f 665//488 379//488 375//489 
f 375//489 666//490 665//488 
f 376//491 379//488 665//488 
f 377//492 376//491 667//491 
f 378//493 377//492 668//492 
f 380//494 378//493 669//493 
f 670//495 382//495 384//496 
f 384//496 671//497 670//495 
f 383//498 382//495 670//495 
f 381//499 383//498 672//498 
f 385//500 381//499 673//499 
f 674//500 645//461 396//501 
f 645//461 397//461 396//501 
f 396//501 385//500 674//500 
f 673//499 674//500 385//500 
f 672//498 673//499 381//499 
f 670//495 672//498 383//498 
f 384//496 380//494 671//497 
f 669//493 671//497 380//494 
f 668//492 669//493 378//493 
f 667//491 668//492 377//492 
f 665//488 667//491 376//491 
f 375//489 374//487 666//490 
f 664//486 666//490 374//487 
f 663//485 664//486 371//486 
f 662//484 663//485 370//485 
f 659//480 662//484 369//484 
f 372//481 429//482 660//482 
f 658//478 661//483 428//479 
f 657//477 658//478 430//478 
f 656//476 657//477 432//477 
f 655//474 656//476 431//476 
f 433//475 424//473 654//473 
f 653//472 654//473 424//473 
f 652//471 653//472 423//472 
f 651//470 652//471 425//471 
f 650//468 651//470 427//470 
f 404//469 394//466 649//466 
f 648//467 649//466 394//466 
f 647//465 648//467 386//464 
f 646//463 647//465 399//462 
f 645//461 646//463 401//460 
o mesh20
f 675//502 670//502 671//502 
f 676//502 672//502 670//502 
f 677//502 648//502 647//502 
f 678//502 649//502 648//502 
f 679//502 680//502 655//502 
f 680//502 681//502 656//502 
f 670//502 675//502 676//502 
f 676//502 682//502 673//502 
f 683//502 674//502 673//502 
f 683//502 684//502 645//502 
f 685//502 646//502 645//502 
f 685//502 686//502 647//502 
f 648//502 677//502 678//502 
f 678//502 687//502 650//502 
f 688//502 679//502 654//502 
f 656//502 655//502 680//502 
f 689//502 659//502 660//502 
f 689//502 690//502 662//502 
f 690//502 691//502 663//502 
f 691//502 692//502 664//502 
f 673//502 672//502 676//502 
f 645//502 674//502 683//502 
f 647//502 646//502 685//502 
f 650//502 649//502 678//502 
f 693//502 651//502 650//502 
f 693//502 694//502 652//502 
f 694//502 688//502 653//502 
f 655//502 654//502 679//502 
f 662//502 659//502 689//502 
f 664//502 663//502 691//502 
f 692//502 695//502 666//502 
f 695//502 696//502 665//502 
f 697//502 667//502 665//502 
f 698//502 668//502 667//502 
f 699//502 669//502 668//502 
f 699//502 700//502 671//502 
f 673//502 682//502 683//502 
f 647//502 686//502 677//502 
f 652//502 651//502 693//502 
f 654//502 653//502 688//502 
f 701//502 657//502 656//502 
f 702//502 658//502 657//502 
f 703//502 661//502 658//502 
f 704//502 660//502 661//502 
f 663//502 662//502 690//502 
f 665//502 666//502 695//502 
f 667//502 697//502 698//502 
f 671//502 669//502 699//502 
f 645//502 684//502 685//502 
f 653//502 652//502 694//502 
f 657//502 701//502 702//502 
f 661//502 703//502 704//502 
f 666//502 664//502 692//502 
f 668//502 698//502 699//502 
f 650//502 687//502 693//502 
f 658//502 702//502 703//502 
f 665//502 696//502 697//502 
f 656//502 681//502 701//502 
f 671//502 700//502 675//502 
f 660//502 704//502 689//502 
o mesh21
f 685//503 684//504 705//504 
f 686//505 685//503 706//506 
f 677//507 686//505 707//508 
f 678//509 677//507 708//510 
f 687//511 678//509 709//512 
f 693//513 687//511 710//514 
f 694//515 693//513 711//516 
f 688//517 694//515 712//518 
f 679//519 688//517 713//520 
f 680//521 679//519 714//522 
f 681//523 680//521 715//524 
f 701//525 681//523 716//526 
f 702//527 701//525 717//528 
f 703//529 702//527 718//530 
f 719//531 689//531 704//532 
f 703//529 720//533 721//532 
f 721//532 704//532 703//529 
f 690//534 689//531 719//531 
f 691//535 690//534 722//534 
f 692//536 691//535 723//535 
f 695//537 692//536 724//536 
f 696//538 695//537 725//537 
f 697//539 696//538 726//538 
f 698//540 697//539 727//539 
f 699//541 698//540 728//540 
f 700//542 699//541 729//541 
f 675//543 700//542 730//542 
f 676//544 675//543 731//543 
f 682//545 676//544 732//544 
f 683//546 682//545 733//545 
f 684//504 683//546 734//546 
f 734//546 705//504 684//504 
f 733//545 734//546 683//546 
f 732//544 733//545 682//545 
f 731//543 732//544 676//544 
f 730//542 731//543 675//543 
f 729//541 730//542 700//542 
f 728//540 729//541 699//541 
f 727//539 728//540 698//540 
f 726//538 727//539 697//539 
f 725//537 726//538 696//538 
f 724//536 725//537 695//537 
f 723//535 724//536 692//536 
f 722//534 723//535 691//535 
f 719//531 722//534 690//534 
f 704//532 721//532 719//531 
f 718//530 720//533 703//529 
f 717//528 718//530 702//527 
f 716//526 717//528 701//525 
f 715//524 716//526 681//523 
f 714//522 715//524 680//521 
f 713//520 714//522 679//519 
f 712//518 713//520 688//517 
f 711//516 712//518 694//515 
f 710//514 711//516 693//513 
f 709//512 710//514 687//511 
f 708//510 709//512 678//509 
f 707//508 708//510 677//507 
f 706//506 707//508 686//505 
f 705//504 706//506 685//503 
o mesh22
f 721//547 631//547 630//547 
f 720//547 629//547 631//547 
f 715//547 625//547 626//547 
f 714//547 624//547 625//547 
f 725//547 635//547 636//547 
f 724//547 634//547 635//547 
f 723//547 633//547 634//547 
f 723//547 722//547 632//547 
f 719//547 630//547 632//547 
f 631//547 721//547 720//547 
f 625//547 715//547 714//547 
f 714//547 713//547 623//547 
f 709//547 619//547 620//547 
f 709//547 708//547 618//547 
f 635//547 725//547 724//547 
f 632//547 633//547 723//547 
f 630//547 719//547 721//547 
f 720//547 718//547 628//547 
f 623//547 624//547 714//547 
f 712//547 622//547 623//547 
f 711//547 621//547 622//547 
f 711//547 710//547 620//547 
f 618//547 619//547 709//547 
f 708//547 707//547 617//547 
f 706//547 615//547 617//547 
f 706//547 705//547 616//547 
f 634//547 724//547 723//547 
f 628//547 629//547 720//547 
f 718//547 717//547 627//547 
f 717//547 716//547 626//547 
f 623//547 713//547 712//547 
f 620//547 621//547 711//547 
f 617//547 618//547 708//547 
f 616//547 615//547 706//547 
f 732//547 731//547 641//547 
f 731//547 730//547 640//547 
f 729//547 639//547 640//547 
f 729//547 728//547 638//547 
f 728//547 727//547 637//547 
f 727//547 726//547 636//547 
f 632//547 722//547 719//547 
f 626//547 627//547 717//547 
f 622//547 712//547 711//547 
f 617//547 707//547 706//547 
f 734//547 644//547 616//547 
f 734//547 733//547 643//547 
f 732//547 642//547 643//547 
f 640//547 641//547 731//547 
f 638//547 639//547 729//547 
f 636//547 637//547 727//547 
f 627//547 628//547 718//547 
f 620//547 710//547 709//547 
f 643//547 644//547 734//547 
f 641//547 642//547 732//547 
f 637//547 638//547 728//547 
f 626//547 716//547 715//547 
f 643//547 733//547 732//547 
f 636//547 726//547 725//547 
f 640//547 730//547 729//547 
f 616//547 705//547 734//547 
