# OBJ generated by ONSHAPE BY PTC INC, 1.219 Units = meters
mtllib Assembly 2 - Part 1.mtl
g Part 1
v -0.0259649 0.0241775 0 
v -0.026 0.0245 0 
v -0.026 0.0245 0.01651 
v -0.0258614 0.0238702 0 
v -0.0259649 0.0241775 0.01651 
v -0.0256941 0.0235922 0 
v -0.0258614 0.0238702 0.01651 
v -0.0254711 0.0233568 0 
v -0.0256941 0.0235922 0.01651 
v -0.0252026 0.0231747 0 
v -0.0254711 0.0233568 0.01651 
v -0.0249013 0.0230547 0 
v -0.0252026 0.0231747 0.01651 
v -0.0245812 0.0230022 0 
v -0.0249013 0.0230547 0.01651 
v -0.0242573 0.0230198 0 
v -0.0245812 0.0230022 0.01651 
v -0.0239448 0.0231065 0 
v -0.0242573 0.0230198 0.01651 
v -0.0236582 0.0232585 0 
v -0.0239448 0.0231065 0.01651 
v -0.023411 0.0234685 0 
v -0.0236582 0.0232585 0.01651 
v -0.0232147 0.0237267 0 
v -0.023411 0.0234685 0.01651 
v -0.0230785 0.024021 0 
v -0.0232147 0.0237267 0.01651 
v -0.0230088 0.0243378 0 
v -0.0230785 0.024021 0.01651 
v -0.0230088 0.0246622 0 
v -0.023 0.0245 0 
v -0.023 0.0245 0.01651 
v -0.0230088 0.0243378 0.01651 
v -0.0230785 0.024979 0 
v -0.0230088 0.0246622 0.01651 
v -0.0232147 0.0252733 0 
v -0.0230785 0.024979 0.01651 
v -0.023411 0.0255315 0 
v -0.0232147 0.0252733 0.01651 
v -0.0236582 0.0257415 0 
v -0.023411 0.0255315 0.01651 
v -0.0239448 0.0258935 0 
v -0.0236582 0.0257415 0.01651 
v -0.0242573 0.0259802 0 
v -0.0239448 0.0258935 0.01651 
v -0.0245812 0.0259978 0 
v -0.0242573 0.0259802 0.01651 
v -0.0249013 0.0259453 0 
v -0.0245812 0.0259978 0.01651 
v -0.0252026 0.0258253 0 
v -0.0249013 0.0259453 0.01651 
v -0.0254711 0.0256432 0 
v -0.0252026 0.0258253 0.01651 
v -0.0256941 0.0254078 0 
v -0.0254711 0.0256432 0.01651 
v -0.0258614 0.0251298 0 
v -0.0256941 0.0254078 0.01651 
v -0.0259649 0.0248225 0 
v -0.0258614 0.0251298 0.01651 
v -0.0259649 0.0248225 0.01651 
v 0.0235289 -0.0233568 0.01651 
v -0.0249013 -0.0230547 0.01651 
v 0.0233059 -0.0235922 0.01651 
v -0.0275 0.0275 0.01651 
v -0.0245812 -0.0230022 0.01651 
v -0.0242573 -0.0230198 0.01651 
v 0.0247427 -0.0230198 0.01651 
v 0.0250552 -0.0231065 0.01651 
v 0.0237974 -0.0231747 0.01651 
v 0.0240987 -0.0230547 0.01651 
v 0.025589 -0.0234685 0.01651 
v 0.0244188 0.0230022 0.01651 
v 0.0253418 -0.0232585 0.01651 
v 0.0244188 -0.0230022 0.01651 
v 0.0247427 0.0230198 0.01651 
v 0.0233059 0.0235922 0.01651 
v 0.0231386 0.0238702 0.01651 
v 0.0240987 0.0230547 0.01651 
v 0.0233059 0.0254078 0.01651 
v -0.0236582 -0.0232585 0.01651 
v -0.023411 -0.0234685 0.01651 
v -0.0230088 -0.0246622 0.01651 
v 0.0230351 -0.0248225 0.01651 
v 0.023 -0.0245 0.01651 
v 0.0257853 -0.0237267 0.01651 
v 0.0253418 0.0232585 0.01651 
v 0.0250552 0.0231065 0.01651 
v 0.0257853 0.0237267 0.01651 
v 0.025589 0.0234685 0.01651 
v 0.0230351 0.0248225 0.01651 
v 0.0231386 0.0251298 0.01651 
v 0.0230351 0.0241775 0.01651 
v 0.0237974 0.0231747 0.01651 
v 0.0235289 0.0233568 0.01651 
v -0.0230088 -0.0243378 0.01651 
v -0.023 -0.0245 0.01651 
v -0.0239448 -0.0231065 0.01651 
v -0.0252026 -0.0231747 0.01651 
v -0.0275 -0.0275 0.01651 
v -0.0256941 -0.0254078 0.01651 
v -0.0258614 -0.0251298 0.01651 
v 0.0275 -0.0275 0.01651 
v -0.0236582 -0.0257415 0.01651 
v -0.0239448 -0.0258935 0.01651 
v 0.0244188 -0.0259978 0.01651 
v 0.0240987 -0.0259453 0.01651 
v 0.0275 0.0275 0.01651 
v 0.0259912 0.0243378 0.01651 
v 0.0259215 0.024021 0.01651 
v 0.023 0.0245 0.01651 
v 0.0230351 -0.0241775 0.01651 
v -0.0230785 -0.024021 0.01651 
v -0.0259649 -0.0241775 0.01651 
v -0.0258614 -0.0238702 0.01651 
v -0.026 -0.0245 0.01651 
v -0.0259649 -0.0248225 0.01651 
v -0.0252026 -0.0258253 0.01651 
v -0.0254711 -0.0256432 0.01651 
v -0.0242573 -0.0259802 0.01651 
v -0.0245812 -0.0259978 0.01651 
v -0.0232147 -0.0252733 0.01651 
v -0.023411 -0.0255315 0.01651 
v -0.0230785 -0.024979 0.01651 
v 0.0233059 -0.0254078 0.01651 
v 0.0231386 -0.0251298 0.01651 
v 0.0247427 -0.0259802 0.01651 
v 0.0253418 -0.0257415 0.01651 
v 0.0250552 -0.0258935 0.01651 
v 0.0257853 -0.0252733 0.01651 
v 0.025589 -0.0255315 0.01651 
v 0.026 0.0245 0.01651 
v -0.0232147 -0.0237267 0.01651 
v 0.0231386 -0.0238702 0.01651 
v -0.0256941 -0.0235922 0.01651 
v -0.0254711 -0.0233568 0.01651 
v -0.0249013 -0.0259453 0.01651 
v 0.0237974 -0.0258253 0.01651 
v 0.0235289 -0.0256432 0.01651 
v 0.0253418 0.0257415 0.01651 
v 0.025589 0.0255315 0.01651 
v 0.0247427 0.0259802 0.01651 
v 0.0250552 0.0258935 0.01651 
v 0.0240987 0.0259453 0.01651 
v 0.0244188 0.0259978 0.01651 
v 0.0237974 0.0258253 0.01651 
v 0.0259215 -0.024021 0.01651 
v 0.0259912 -0.0243378 0.01651 
v 0.026 -0.0245 0.01651 
v 0.0259912 -0.0246622 0.01651 
v 0.0259215 0.024979 0.01651 
v 0.0259912 0.0246622 0.01651 
v 0.0235289 0.0256432 0.01651 
v 0.0259215 -0.024979 0.01651 
v 0.0257853 0.0252733 0.01651 
v 0.0275 0.0275 0 
v 0.0244188 0.0259978 0 
v 0.0247427 -0.0230198 0 
v 0.0244188 -0.0230022 0 
v 0.0244188 0.0230022 0 
v 0.0247427 0.0259802 0 
v 0.0247427 0.0230198 0 
v -0.0245812 -0.0230022 0 
v -0.0249013 -0.0230547 0 
v -0.0275 0.0275 0 
v -0.023 -0.0245 0 
v 0.0230351 -0.0241775 0 
v 0.023 -0.0245 0 
v 0.0240987 -0.0230547 0 
v 0.0240987 0.0230547 0 
v -0.0242573 -0.0230198 0 
v -0.0230088 -0.0246622 0 
v 0.0237974 0.0231747 0 
v 0.0253418 -0.0232585 0 
v 0.0250552 -0.0231065 0 
v 0.0257853 -0.0237267 0 
v 0.025589 -0.0234685 0 
v 0.0233059 0.0235922 0 
v 0.0235289 0.0233568 0 
v 0.0233059 -0.0235922 0 
v -0.023411 -0.0234685 0 
v -0.0230088 -0.0243378 0 
v 0.0240987 0.0259453 0 
v 0.0253418 0.0232585 0 
v 0.025589 0.0234685 0 
v 0.0250552 0.0231065 0 
v 0.0237974 -0.0231747 0 
v 0.0230351 0.0241775 0 
v 0.0231386 0.0238702 0 
v 0.0275 -0.0275 0 
v 0.0259912 -0.0243378 0 
v 0.0259215 -0.024021 0 
v 0.0259912 -0.0246622 0 
v 0.026 -0.0245 0 
v -0.0275 -0.0275 0 
v 0.0233059 -0.0254078 0 
v 0.0235289 -0.0256432 0 
v 0.0230351 -0.0248225 0 
v 0.0231386 -0.0251298 0 
v -0.0245812 -0.0259978 0 
v -0.0236582 -0.0232585 0 
v -0.0239448 -0.0231065 0 
v -0.0232147 -0.0237267 0 
v -0.0230785 -0.024979 0 
v 0.0253418 0.0257415 0 
v 0.0250552 0.0258935 0 
v 0.0257853 0.0252733 0 
v 0.025589 0.0255315 0 
v 0.0259912 0.0243378 0 
v 0.026 0.0245 0 
v 0.0235289 -0.0233568 0 
v 0.0253418 -0.0257415 0 
v 0.025589 -0.0255315 0 
v 0.0247427 -0.0259802 0 
v 0.0250552 -0.0258935 0 
v 0.0240987 -0.0259453 0 
v 0.0244188 -0.0259978 0 
v 0.0237974 -0.0258253 0 
v -0.0249013 -0.0259453 0 
v -0.0230785 -0.024021 0 
v -0.0242573 -0.0259802 0 
v -0.0239448 -0.0258935 0 
v 0.0259912 0.0246622 0 
v 0.023 0.0245 0 
v 0.0259215 -0.024979 0 
v -0.0256941 -0.0254078 0 
v -0.0254711 -0.0256432 0 
v -0.0259649 -0.0248225 0 
v -0.0258614 -0.0251298 0 
v -0.0252026 -0.0231747 0 
v -0.0254711 -0.0233568 0 
v -0.0232147 -0.0252733 0 
v 0.0231386 -0.0238702 0 
v -0.0236582 -0.0257415 0 
v 0.0237974 0.0258253 0 
v 0.0235289 0.0256432 0 
v 0.0259215 0.024021 0 
v 0.0257853 0.0237267 0 
v -0.0252026 -0.0258253 0 
v 0.0259215 0.024979 0 
v 0.0257853 -0.0252733 0 
v -0.026 -0.0245 0 
v -0.0259649 -0.0241775 0 
v -0.0256941 -0.0235922 0 
v -0.0258614 -0.0238702 0 
v -0.023411 -0.0255315 0 
v 0.0233059 0.0254078 0 
v 0.0231386 0.0251298 0 
v 0.0230351 0.0248225 0 
vn 0.976621 0.21497 0 
vn 1 2.44929e-16 0 
vn 0.907575 0.419889 0 
vn 0.976621 0.21497 0 
vn 0.796093 0.605174 0 
vn 0.907575 0.419889 0 
vn 0.647386 0.762162 0 
vn 0.796093 0.605174 0 
vn 0.468408 0.883512 0 
vn 0.647386 0.762162 0 
vn 0.267528 0.96355 0 
vn 0.468408 0.883512 0 
vn 0.0541389 0.998533 0 
vn 0.267528 0.96355 0 
vn -0.161782 0.986827 0 
vn 0.0541389 0.998533 0 
vn -0.370138 0.928977 0 
vn -0.161782 0.986827 0 
vn -0.561187 0.827689 0 
vn -0.370138 0.928977 0 
vn -0.725995 0.687699 0 
vn -0.561187 0.827689 0 
vn -0.856857 0.515554 0 
vn -0.725995 0.687699 0 
vn -0.947653 0.319302 0 
vn -0.856857 0.515554 0 
vn -0.994138 0.108119 0 
vn -0.947653 0.319302 0 
vn -0.994138 -0.108119 0 
vn -1 -3.67394e-16 0 
vn -0.994138 0.108119 0 
vn -0.947653 -0.319302 0 
vn -0.994138 -0.108119 0 
vn -0.856857 -0.515554 0 
vn -0.947653 -0.319302 0 
vn -0.725995 -0.687699 0 
vn -0.856857 -0.515554 0 
vn -0.561187 -0.827689 0 
vn -0.725995 -0.687699 0 
vn -0.370138 -0.928977 0 
vn -0.561187 -0.827689 0 
vn -0.161782 -0.986827 0 
vn -0.370138 -0.928977 0 
vn 0.0541389 -0.998533 0 
vn -0.161782 -0.986827 0 
vn 0.267528 -0.96355 0 
vn 0.0541389 -0.998533 0 
vn 0.468408 -0.883512 0 
vn 0.267528 -0.96355 0 
vn 0.647386 -0.762162 0 
vn 0.468408 -0.883512 0 
vn 0.796093 -0.605174 0 
vn 0.647386 -0.762162 0 
vn 0.907575 -0.419889 0 
vn 0.796093 -0.605174 0 
vn 0.976621 -0.21497 0 
vn 0.907575 -0.419889 0 
vn 0 0 1 
vn 0 0 -1 
vn 0 1 0 
vn -1 0 0 
vn 0 -1 0 
vn 1 6.30809e-17 0 
vn 0.976621 0.21497 0 
vn 0.907575 0.419889 0 
vn 0.796093 0.605174 0 
vn 0.647386 0.762162 0 
vn 0.468408 0.883512 0 
vn 0.267528 0.96355 0 
vn 0.0541389 0.998533 0 
vn -0.161782 0.986827 0 
vn -0.370138 0.928977 0 
vn -0.561187 0.827689 0 
vn -0.725995 0.687699 0 
vn -0.856857 0.515554 0 
vn -0.947653 0.319302 0 
vn -0.994138 0.108119 0 
vn -0.994138 -0.108119 0 
vn -1 -3.67394e-16 0 
vn -0.994138 0.108119 0 
vn -0.947653 -0.319302 0 
vn -0.994138 -0.108119 0 
vn -0.856857 -0.515554 0 
vn -0.947653 -0.319302 0 
vn -0.725995 -0.687699 0 
vn -0.856857 -0.515554 0 
vn -0.561187 -0.827689 0 
vn -0.725995 -0.687699 0 
vn -0.370138 -0.928977 0 
vn -0.561187 -0.827689 0 
vn -0.161782 -0.986827 0 
vn -0.370138 -0.928977 0 
vn 0.0541389 -0.998533 0 
vn -0.161782 -0.986827 0 
vn 0.267528 -0.96355 0 
vn 0.0541389 -0.998533 0 
vn 0.468408 -0.883512 0 
vn 0.267528 -0.96355 0 
vn 0.647386 -0.762162 0 
vn 0.468408 -0.883512 0 
vn 0.796093 -0.605174 0 
vn 0.647386 -0.762162 0 
vn 0.907575 -0.419889 0 
vn 0.796093 -0.605174 0 
vn 0.976621 -0.21497 0 
vn 0.907575 -0.419889 0 
vn 0.976621 0.21497 0 
vn 1 2.44929e-16 0 
vn 0.907575 0.419889 0 
vn 0.976621 0.21497 0 
vn 0.796093 0.605174 0 
vn 0.907575 0.419889 0 
vn 0.647386 0.762162 0 
vn 0.796093 0.605174 0 
vn 0.468408 0.883512 0 
vn 0.647386 0.762162 0 
vn 0.267528 0.96355 0 
vn 0.468408 0.883512 0 
vn 0.0541389 0.998533 0 
vn 0.267528 0.96355 0 
vn -0.161782 0.986827 0 
vn 0.0541389 0.998533 0 
vn -0.370138 0.928977 0 
vn -0.161782 0.986827 0 
vn -0.561187 0.827689 0 
vn -0.370138 0.928977 0 
vn -0.725995 0.687699 0 
vn -0.561187 0.827689 0 
vn -0.856857 0.515554 0 
vn -0.725995 0.687699 0 
vn -0.947653 0.319302 0 
vn -0.856857 0.515554 0 
vn -0.994138 0.108119 0 
vn -0.947653 0.319302 0 
vn -0.994138 -0.108119 0 
vn -1 -3.67394e-16 0 
vn -0.994138 0.108119 0 
vn -0.947653 -0.319302 0 
vn -0.994138 -0.108119 0 
vn -0.856857 -0.515554 0 
vn -0.947653 -0.319302 0 
vn -0.725995 -0.687699 0 
vn -0.856857 -0.515554 0 
vn -0.561187 -0.827689 0 
vn -0.725995 -0.687699 0 
vn -0.370138 -0.928977 0 
vn -0.561187 -0.827689 0 
vn -0.161782 -0.986827 0 
vn -0.370138 -0.928977 0 
vn 0.0541389 -0.998533 0 
vn -0.161782 -0.986827 0 
vn 0.267528 -0.96355 0 
vn 0.0541389 -0.998533 0 
vn 0.468408 -0.883512 0 
vn 0.267528 -0.96355 0 
vn 0.647386 -0.762162 0 
vn 0.468408 -0.883512 0 
vn 0.796093 -0.605174 0 
vn 0.647386 -0.762162 0 
vn 0.907575 -0.419889 0 
vn 0.796093 -0.605174 0 
vn 0.976621 -0.21497 0 
vn 0.907575 -0.419889 0 
vn 0.976621 0.21497 0 
vn 1 2.44929e-16 0 
vn 0.907575 0.419889 0 
vn 0.976621 0.21497 0 
vn 0.796093 0.605174 0 
vn 0.907575 0.419889 0 
vn 0.647386 0.762162 0 
vn 0.796093 0.605174 0 
vn 0.468408 0.883512 0 
vn 0.647386 0.762162 0 
vn 0.267528 0.96355 0 
vn 0.468408 0.883512 0 
vn 0.0541389 0.998533 0 
vn 0.267528 0.96355 0 
vn -0.161782 0.986827 0 
vn 0.0541389 0.998533 0 
vn -0.370138 0.928977 0 
vn -0.161782 0.986827 0 
vn -0.561187 0.827689 0 
vn -0.370138 0.928977 0 
vn -0.725995 0.687699 0 
vn -0.561187 0.827689 0 
vn -0.856857 0.515554 0 
vn -0.725995 0.687699 0 
vn -0.947653 0.319302 0 
vn -0.856857 0.515554 0 
vn -0.994138 0.108119 0 
vn -0.947653 0.319302 0 
vn -0.994138 -0.108119 0 
vn -1 -3.67394e-16 0 
vn -0.994138 0.108119 0 
vn -0.947653 -0.319302 0 
vn -0.994138 -0.108119 0 
vn -0.856857 -0.515554 0 
vn -0.947653 -0.319302 0 
vn -0.725995 -0.687699 0 
vn -0.856857 -0.515554 0 
vn -0.561187 -0.827689 0 
vn -0.725995 -0.687699 0 
vn -0.370138 -0.928977 0 
vn -0.561187 -0.827689 0 
vn -0.161782 -0.986827 0 
vn -0.370138 -0.928977 0 
vn 0.0541389 -0.998533 0 
vn -0.161782 -0.986827 0 
vn 0.267528 -0.96355 0 
vn 0.0541389 -0.998533 0 
vn 0.468408 -0.883512 0 
vn 0.267528 -0.96355 0 
vn 0.647386 -0.762162 0 
vn 0.468408 -0.883512 0 
vn 0.796093 -0.605174 0 
vn 0.647386 -0.762162 0 
vn 0.907575 -0.419889 0 
vn 0.796093 -0.605174 0 
vn 0.976621 -0.21497 0 
vn 0.907575 -0.419889 0 
usemtl 0.729412_0.250980_0.105882_0.000000_0.000000
o mesh0
f 1//1 2//2 3//2 
f 4//3 1//1 5//4 
f 6//5 4//3 7//6 
f 8//7 6//5 9//8 
f 10//9 8//7 11//10 
f 12//11 10//9 13//12 
f 14//13 12//11 15//14 
f 16//15 14//13 17//16 
f 18//17 16//15 19//18 
f 20//19 18//17 21//20 
f 22//21 20//19 23//22 
f 24//23 22//21 25//24 
f 26//25 24//23 27//26 
f 28//27 26//25 29//28 
f 30//29 31//30 32//30 
f 33//31 32//30 31//30 
f 31//30 28//27 33//31 
f 34//32 30//29 35//33 
f 36//34 34//32 37//35 
f 38//36 36//34 39//37 
f 40//38 38//36 41//39 
f 42//40 40//38 43//41 
f 44//42 42//40 45//43 
f 46//44 44//42 47//45 
f 48//46 46//44 49//47 
f 50//48 48//46 51//49 
f 52//50 50//48 53//51 
f 54//52 52//50 55//53 
f 56//54 54//52 57//55 
f 58//56 56//54 59//57 
f 2//2 58//56 60//56 
f 60//56 3//2 2//2 
f 59//57 60//56 58//56 
f 57//55 59//57 56//54 
f 55//53 57//55 54//52 
f 53//51 55//53 52//50 
f 51//49 53//51 50//48 
f 49//47 51//49 48//46 
f 47//45 49//47 46//44 
f 45//43 47//45 44//42 
f 43//41 45//43 42//40 
f 41//39 43//41 40//38 
f 39//37 41//39 38//36 
f 37//35 39//37 36//34 
f 35//33 37//35 34//32 
f 32//30 35//33 30//29 
f 29//28 33//31 28//27 
f 27//26 29//28 26//25 
f 25//24 27//26 24//23 
f 23//22 25//24 22//21 
f 21//20 23//22 20//19 
f 19//18 21//20 18//17 
f 17//16 19//18 16//15 
f 15//14 17//16 14//13 
f 13//12 15//14 12//11 
f 11//10 13//12 10//9 
f 9//8 11//10 8//7 
f 7//6 9//8 6//5 
f 5//4 7//6 4//3 
f 3//2 5//4 1//1 
o mesh1
f 61//58 27//58 25//58 
f 62//58 9//58 7//58 
f 25//58 63//58 61//58 
f 7//58 64//58 62//58 
f 65//58 66//58 11//58 
f 27//58 67//58 68//58 
f 27//58 69//58 70//58 
f 63//58 19//58 17//58 
f 63//58 23//58 21//58 
f 61//58 69//58 27//58 
f 71//58 72//58 29//58 
f 7//58 5//58 64//58 
f 9//58 62//58 65//58 
f 68//58 73//58 27//58 
f 70//58 74//58 27//58 
f 17//58 15//58 63//58 
f 25//58 23//58 63//58 
f 71//58 75//58 72//58 
f 39//58 76//58 77//58 
f 32//58 72//58 78//58 
f 79//58 64//58 47//58 
f 11//58 80//58 81//58 
f 64//58 60//58 59//58 
f 11//58 9//58 65//58 
f 82//58 83//58 84//58 
f 74//58 67//58 27//58 
f 21//58 19//58 63//58 
f 29//58 27//58 71//58 
f 72//58 32//58 33//58 
f 85//58 86//58 87//58 
f 85//58 88//58 89//58 
f 39//58 90//58 91//58 
f 77//58 92//58 39//58 
f 39//58 93//58 94//58 
f 78//58 37//58 35//58 
f 79//58 43//58 41//58 
f 47//58 45//58 79//58 
f 64//58 51//58 49//58 
f 95//58 96//58 84//58 
f 81//58 63//58 11//58 
f 11//58 66//58 97//58 
f 64//58 3//58 60//58 
f 64//58 98//58 62//58 
f 99//58 100//58 101//58 
f 102//58 103//58 104//58 
f 84//58 96//58 82//58 
f 102//58 105//58 106//58 
f 15//58 13//58 63//58 
f 33//58 29//58 72//58 
f 89//58 86//58 85//58 
f 107//58 108//58 109//58 
f 39//58 110//58 90//58 
f 94//58 76//58 39//58 
f 78//58 39//58 37//58 
f 45//58 43//58 79//58 
f 64//58 53//58 51//58 
f 111//58 112//58 95//58 
f 97//58 80//58 11//58 
f 5//58 3//58 64//58 
f 64//58 113//58 114//58 
f 99//58 115//58 113//58 
f 101//58 116//58 99//58 
f 99//58 117//58 118//58 
f 99//58 119//58 120//58 
f 104//58 99//58 102//58 
f 102//58 121//58 122//58 
f 82//58 123//58 83//58 
f 121//58 124//58 125//58 
f 102//58 126//58 105//58 
f 102//58 127//58 128//58 
f 102//58 129//58 130//58 
f 73//58 71//58 27//58 
f 87//58 75//58 85//58 
f 107//58 131//58 108//58 
f 92//58 110//58 39//58 
f 78//58 35//58 32//58 
f 49//58 47//58 64//58 
f 64//58 57//58 55//58 
f 132//58 111//58 133//58 
f 111//58 132//58 112//58 
f 59//58 57//58 64//58 
f 64//58 134//58 135//58 
f 113//58 64//58 99//58 
f 118//58 100//58 99//58 
f 120//58 136//58 99//58 
f 122//58 103//58 102//58 
f 125//58 83//58 121//58 
f 121//58 137//58 138//58 
f 106//58 121//58 102//58 
f 130//58 127//58 102//58 
f 107//58 139//58 140//58 
f 107//58 141//58 142//58 
f 107//58 143//58 144//58 
f 64//58 145//58 143//58 
f 102//58 146//58 147//58 
f 107//58 85//58 146//58 
f 71//58 85//58 75//58 
f 109//58 85//58 107//58 
f 78//58 93//58 39//58 
f 55//58 53//58 64//58 
f 84//58 111//58 95//58 
f 135//58 98//58 64//58 
f 116//58 115//58 99//58 
f 104//58 119//58 99//58 
f 138//58 124//58 121//58 
f 128//58 126//58 102//58 
f 142//58 139//58 107//58 
f 143//58 107//58 64//58 
f 146//58 102//58 107//58 
f 109//58 88//58 85//58 
f 41//58 39//58 79//58 
f 81//58 132//58 63//58 
f 136//58 117//58 99//58 
f 106//58 137//58 121//58 
f 102//58 148//58 149//58 
f 107//58 150//58 151//58 
f 144//58 141//58 107//58 
f 64//58 79//58 152//58 
f 13//58 11//58 63//58 
f 133//58 63//58 132//58 
f 123//58 121//58 83//58 
f 149//58 153//58 102//58 
f 107//58 154//58 150//58 
f 152//58 145//58 64//58 
f 91//58 79//58 39//58 
f 153//58 129//58 102//58 
f 140//58 154//58 107//58 
f 114//58 134//58 64//58 
f 147//58 148//58 102//58 
f 151//58 131//58 107//58 
o mesh2
f 31//59 155//59 156//59 
f 157//59 158//59 159//59 
f 155//59 160//59 156//59 
f 159//59 161//59 157//59 
f 162//59 6//59 8//59 
f 163//59 164//59 1//59 
f 165//59 166//59 167//59 
f 156//59 28//59 31//59 
f 168//59 169//59 159//59 
f 8//59 170//59 162//59 
f 1//59 4//59 163//59 
f 167//59 171//59 165//59 
f 155//59 40//59 42//59 
f 31//59 30//59 155//59 
f 168//59 172//59 169//59 
f 161//59 173//59 174//59 
f 161//59 175//59 176//59 
f 14//59 177//59 178//59 
f 4//59 6//59 163//59 
f 8//59 179//59 180//59 
f 165//59 181//59 166//59 
f 164//59 44//59 46//59 
f 42//59 164//59 155//59 
f 155//59 36//59 38//59 
f 156//59 26//59 28//59 
f 18//59 156//59 182//59 
f 175//59 183//59 184//59 
f 175//59 161//59 185//59 
f 158//59 168//59 159//59 
f 176//59 173//59 161//59 
f 178//59 186//59 14//59 
f 14//59 187//59 188//59 
f 189//59 190//59 191//59 
f 189//59 192//59 193//59 
f 194//59 195//59 196//59 
f 194//59 197//59 198//59 
f 197//59 194//59 199//59 
f 164//59 2//59 1//59 
f 8//59 200//59 201//59 
f 179//59 202//59 180//59 
f 167//59 203//59 171//59 
f 46//59 48//59 164//59 
f 38//59 40//59 155//59 
f 30//59 34//59 155//59 
f 155//59 204//59 205//59 
f 155//59 206//59 207//59 
f 182//59 16//59 18//59 
f 155//59 208//59 209//59 
f 210//59 8//59 10//59 
f 185//59 183//59 175//59 
f 174//59 157//59 161//59 
f 188//59 177//59 14//59 
f 193//59 190//59 189//59 
f 189//59 211//59 212//59 
f 189//59 213//59 214//59 
f 189//59 215//59 216//59 
f 194//59 217//59 215//59 
f 198//59 195//59 194//59 
f 194//59 218//59 199//59 
f 162//59 163//59 6//59 
f 180//59 200//59 8//59 
f 181//59 219//59 166//59 
f 167//59 220//59 221//59 
f 164//59 50//59 52//59 
f 42//59 44//59 164//59 
f 156//59 24//59 26//59 
f 207//59 204//59 155//59 
f 156//59 20//59 22//59 
f 18//59 20//59 156//59 
f 209//59 222//59 155//59 
f 186//59 10//59 12//59 
f 10//59 186//59 210//59 
f 168//59 186//59 172//59 
f 14//59 223//59 187//59 
f 189//59 224//59 192//59 
f 214//59 211//59 189//59 
f 215//59 189//59 194//59 
f 199//59 167//59 197//59 
f 194//59 225//59 226//59 
f 194//59 227//59 228//59 
f 164//59 229//59 230//59 
f 201//59 170//59 8//59 
f 167//59 231//59 203//59 
f 202//59 179//59 232//59 
f 221//59 233//59 167//59 
f 48//59 50//59 164//59 
f 205//59 160//59 155//59 
f 16//59 234//59 235//59 
f 182//59 234//59 16//59 
f 155//59 236//59 208//59 
f 210//59 179//59 8//59 
f 178//59 172//59 186//59 
f 191//59 237//59 189//59 
f 216//59 213//59 189//59 
f 194//59 238//59 218//59 
f 228//59 225//59 194//59 
f 163//59 229//59 164//59 
f 232//59 166//59 202//59 
f 167//59 199//59 220//59 
f 34//59 36//59 155//59 
f 22//59 24//59 156//59 
f 222//59 239//59 155//59 
f 189//59 237//59 236//59 
f 184//59 237//59 175//59 
f 189//59 240//59 224//59 
f 196//59 217//59 194//59 
f 194//59 241//59 227//59 
f 194//59 164//59 242//59 
f 164//59 243//59 244//59 
f 219//59 202//59 166//59 
f 233//59 245//59 167//59 
f 235//59 246//59 16//59 
f 236//59 155//59 189//59 
f 191//59 175//59 237//59 
f 226//59 238//59 194//59 
f 244//59 242//59 164//59 
f 245//59 231//59 167//59 
f 239//59 206//59 155//59 
f 212//59 240//59 189//59 
f 164//59 54//59 56//59 
f 230//59 243//59 164//59 
f 12//59 14//59 186//59 
f 223//59 14//59 16//59 
f 16//59 246//59 247//59 
f 56//59 58//59 164//59 
f 52//59 54//59 164//59 
f 247//59 248//59 16//59 
f 242//59 241//59 194//59 
f 58//59 2//59 164//59 
f 16//59 248//59 223//59 
o mesh3
f 107//60 155//60 164//60 
f 164//60 64//60 107//60 
o mesh4
f 64//61 164//61 194//61 
f 194//61 99//61 64//61 
o mesh5
f 99//62 194//62 189//62 
f 189//62 102//62 99//62 
o mesh6
f 102//63 189//63 155//63 
f 155//63 107//63 102//63 
o mesh7
f 227//64 241//63 115//63 
f 228//65 227//64 116//64 
f 225//66 228//65 101//65 
f 226//67 225//66 100//66 
f 238//68 226//67 118//67 
f 218//69 238//68 117//68 
f 199//70 218//69 136//69 
f 220//71 199//70 120//70 
f 221//72 220//71 119//71 
f 233//73 221//72 104//72 
f 245//74 233//73 103//73 
f 231//75 245//74 122//74 
f 203//76 231//75 121//75 
f 171//77 203//76 123//76 
f 181//78 165//79 96//79 
f 82//80 96//79 165//79 
f 165//79 171//77 82//80 
f 219//81 181//78 95//82 
f 202//83 219//81 112//84 
f 180//85 202//83 132//86 
f 200//87 180//85 81//88 
f 201//89 200//87 80//90 
f 170//91 201//89 97//92 
f 162//93 170//91 66//94 
f 163//95 162//93 65//96 
f 229//97 163//95 62//98 
f 230//99 229//97 98//100 
f 243//101 230//99 135//102 
f 244//103 243//101 134//104 
f 242//105 244//103 114//106 
f 241//63 242//105 113//105 
f 113//105 115//63 241//63 
f 114//106 113//105 242//105 
f 134//104 114//106 244//103 
f 135//102 134//104 243//101 
f 98//100 135//102 230//99 
f 62//98 98//100 229//97 
f 65//96 62//98 163//95 
f 66//94 65//96 162//93 
f 97//92 66//94 170//91 
f 80//90 97//92 201//89 
f 81//88 80//90 200//87 
f 132//86 81//88 180//85 
f 112//84 132//86 202//83 
f 95//82 112//84 219//81 
f 96//79 95//82 181//78 
f 123//76 82//80 171//77 
f 121//75 123//76 203//76 
f 122//74 121//75 231//75 
f 103//73 122//74 245//74 
f 104//72 103//73 233//73 
f 119//71 104//72 221//72 
f 120//70 119//71 220//71 
f 136//69 120//70 199//70 
f 117//68 136//69 218//69 
f 118//67 117//68 238//68 
f 100//66 118//67 226//67 
f 101//65 100//66 225//66 
f 116//64 101//65 228//65 
f 115//63 116//64 227//64 
o mesh8
f 197//107 167//108 84//108 
f 198//109 197//107 83//110 
f 195//111 198//109 125//112 
f 196//113 195//111 124//114 
f 217//115 196//113 138//116 
f 215//117 217//115 137//118 
f 216//119 215//117 106//120 
f 213//121 216//119 105//122 
f 214//123 213//121 126//124 
f 211//125 214//123 128//126 
f 212//127 211//125 127//128 
f 240//129 212//127 130//130 
f 224//131 240//129 129//132 
f 192//133 224//131 153//134 
f 190//135 193//136 148//136 
f 149//137 148//136 193//136 
f 193//136 192//133 149//137 
f 191//138 190//135 147//139 
f 175//140 191//138 146//141 
f 176//142 175//140 85//143 
f 173//144 176//142 71//145 
f 174//146 173//144 73//147 
f 157//148 174//146 68//149 
f 158//150 157//148 67//151 
f 168//152 158//150 74//153 
f 186//154 168//152 70//155 
f 210//156 186//154 69//157 
f 179//158 210//156 61//159 
f 232//160 179//158 63//161 
f 166//162 232//160 133//163 
f 167//108 166//162 111//162 
f 111//162 84//108 167//108 
f 133//163 111//162 166//162 
f 63//161 133//163 232//160 
f 61//159 63//161 179//158 
f 69//157 61//159 210//156 
f 70//155 69//157 186//154 
f 74//153 70//155 168//152 
f 67//151 74//153 158//150 
f 68//149 67//151 157//148 
f 73//147 68//149 174//146 
f 71//145 73//147 173//144 
f 85//143 71//145 176//142 
f 146//141 85//143 175//140 
f 147//139 146//141 191//138 
f 148//136 147//139 190//135 
f 153//134 149//137 192//133 
f 129//132 153//134 224//131 
f 130//130 129//132 240//129 
f 127//128 130//130 212//127 
f 128//126 127//128 211//125 
f 126//124 128//126 214//123 
f 105//122 126//124 213//121 
f 106//120 105//122 216//119 
f 137//118 106//120 215//117 
f 138//116 137//118 217//115 
f 124//114 138//116 196//113 
f 125//112 124//114 195//111 
f 83//110 125//112 198//109 
f 84//108 83//110 197//107 
o mesh9
f 187//164 223//165 110//165 
f 188//166 187//164 92//167 
f 177//168 188//166 77//169 
f 178//170 177//168 76//171 
f 172//172 178//170 94//173 
f 169//174 172//172 93//175 
f 159//176 169//174 78//177 
f 161//178 159//176 72//179 
f 185//180 161//178 75//181 
f 183//182 185//180 87//183 
f 184//184 183//182 86//185 
f 237//186 184//184 89//187 
f 236//188 237//186 88//189 
f 208//190 236//188 109//191 
f 222//192 209//193 131//193 
f 108//194 131//193 209//193 
f 209//193 208//190 108//194 
f 239//195 222//192 151//196 
f 206//197 239//195 150//198 
f 207//199 206//197 154//200 
f 204//201 207//199 140//202 
f 205//203 204//201 139//204 
f 160//205 205//203 142//206 
f 156//207 160//205 141//208 
f 182//209 156//207 144//210 
f 234//211 182//209 143//212 
f 235//213 234//211 145//214 
f 246//215 235//213 152//216 
f 247//217 246//215 79//218 
f 248//219 247//217 91//220 
f 223//165 248//219 90//219 
f 90//219 110//165 223//165 
f 91//220 90//219 248//219 
f 79//218 91//220 247//217 
f 152//216 79//218 246//215 
f 145//214 152//216 235//213 
f 143//212 145//214 234//211 
f 144//210 143//212 182//209 
f 141//208 144//210 156//207 
f 142//206 141//208 160//205 
f 139//204 142//206 205//203 
f 140//202 139//204 204//201 
f 154//200 140//202 207//199 
f 150//198 154//200 206//197 
f 151//196 150//198 239//195 
f 131//193 151//196 222//192 
f 109//191 108//194 208//190 
f 88//189 109//191 236//188 
f 89//187 88//189 237//186 
f 86//185 89//187 184//184 
f 87//183 86//185 183//182 
f 75//181 87//183 185//180 
f 72//179 75//181 161//178 
f 78//177 72//179 159//176 
f 93//175 78//177 169//174 
f 94//173 93//175 172//172 
f 76//171 94//173 178//170 
f 77//169 76//171 177//168 
f 92//167 77//169 188//166 
f 110//165 92//167 187//164 
