# OBJ generated by ONSHAPE BY PTC INC, 1.219 Units = meters
mtllib Assembly 2 - TopHat Panel.mtl
g TopHat Panel
v 0.0577376 0.13885 0.0353416 
v 0.058275 0.13885 0.0354 
v 0.058275 0.135675 0.0354 
v 0.0572253 0.13885 0.0351689 
v 0.0577376 0.135675 0.0353416 
v 0.0567621 0.13885 0.0348902 
v 0.0572253 0.135675 0.0351689 
v 0.0563696 0.13885 0.0345185 
v 0.0567621 0.135675 0.0348902 
v 0.0560662 0.13885 0.034071 
v 0.0563696 0.135675 0.0345185 
v 0.0558661 0.13885 0.0335688 
v 0.0560662 0.135675 0.034071 
v 0.0557787 0.13885 0.0330353 
v 0.0558661 0.135675 0.0335688 
v 0.0558079 0.13885 0.0324955 
v 0.0557787 0.135675 0.0330353 
v 0.0559526 0.13885 0.0319747 
v 0.0558079 0.135675 0.0324955 
v 0.0562058 0.13885 0.031497 
v 0.0559526 0.135675 0.0319747 
v 0.0565558 0.13885 0.031085 
v 0.0562058 0.135675 0.031497 
v 0.0569861 0.13885 0.0307579 
v 0.0565558 0.135675 0.031085 
v 0.0574767 0.13885 0.0305309 
v 0.0569861 0.135675 0.0307579 
v 0.0580047 0.13885 0.0304147 
v 0.0574767 0.135675 0.0305309 
v 0.0585453 0.13885 0.0304147 
v 0.058275 0.13885 0.0304 
v 0.058275 0.135675 0.0304 
v 0.0580047 0.135675 0.0304147 
v 0.0590733 0.13885 0.0305309 
v 0.0585453 0.135675 0.0304147 
v 0.0595639 0.13885 0.0307579 
v 0.0590733 0.135675 0.0305309 
v 0.0599942 0.13885 0.031085 
v 0.0595639 0.135675 0.0307579 
v 0.0603442 0.13885 0.031497 
v 0.0599942 0.135675 0.031085 
v 0.0605974 0.13885 0.0319747 
v 0.0603442 0.135675 0.031497 
v 0.0607421 0.13885 0.0324955 
v 0.0605974 0.135675 0.0319747 
v 0.0607713 0.13885 0.0330353 
v 0.0607421 0.135675 0.0324955 
v 0.0606839 0.13885 0.0335688 
v 0.0607713 0.135675 0.0330353 
v 0.0604838 0.13885 0.034071 
v 0.0606839 0.135675 0.0335688 
v 0.0601804 0.13885 0.0345185 
v 0.0604838 0.135675 0.034071 
v 0.0597879 0.13885 0.0348902 
v 0.0601804 0.135675 0.0345185 
v 0.0593247 0.13885 0.0351689 
v 0.0597879 0.135675 0.0348902 
v 0.0588124 0.13885 0.0353416 
v 0.0593247 0.135675 0.0351689 
v 0.0588124 0.135675 0.0353416 
v 0.0328433 0.135675 0.0152681 
v 0.0329171 0.135675 0.0156034 
v 0.0328433 0.135675 0.0149249 
v 0.0330612 0.135675 0.0159149 
v 0.033269 0.135675 0.0161882 
v 0.0329171 0.135675 0.0145896 
v 0.033269 0.135675 0.0140048 
v 0.0330612 0.135675 0.0142781 
v 0.0338339 0.135675 0.0136217 
v 0.0335306 0.135675 0.0137825 
v 0.0341647 0.135675 0.0166631 
v 0.0335306 0.135675 0.0164105 
v 0.0338339 0.135675 0.0165713 
v 0.0354492 0.135675 0.0163064 
v 0.0356853 0.135675 0.0160572 
v 0.0344215 0.135675 0.013509 
v 0.0341647 0.135675 0.0135299 
v 0.0358623 0.135675 0.0144299 
v 0.0356853 0.135675 0.0141358 
v 0.036009 0.135675 0.0150965 
v 0.0359719 0.135675 0.0147552 
v 0.0359719 0.135675 0.0154378 
v 0.0351651 0.135675 0.0164991 
v 0.0345074 0.135675 0.0166817 
v 0.0348462 0.135675 0.0166261 
v 0.0358623 0.135675 0.0157631 
v 0.0348462 0.135675 0.0135669 
v 0.0345074 0.135675 0.0135113 
v 0.0354492 0.135675 0.0138866 
v 0.0351651 0.135675 0.0136939 
v 0.0469083 0.135675 0.06985 
v 0.0469083 0.135675 0.0731955 
v 0.016417 0.135675 0.06985 
v 0.0328433 0.135675 0.0582319 
v 0.0329171 0.135675 0.0589104 
v 0.0330612 0.135675 0.0592219 
v 0.0328433 0.135675 0.0585751 
v 0.0348462 0.135675 0.0568739 
v 0.0345074 0.135675 0.0568183 
v 0.0354492 0.135675 0.0571936 
v 0.0351651 0.135675 0.0570009 
v 0.045892 0.135675 0.06985 
v 0.036009 0.135675 0.0584035 
v 0.0341647 0.135675 0.0599701 
v 0.033269 0.135675 0.0594952 
v 0.0329171 0.135675 0.0578966 
v 0.033269 0.135675 0.0573118 
v 0.0330612 0.135675 0.0575851 
v 0.0338339 0.135675 0.0569287 
v 0.0335306 0.135675 0.0570895 
v 0.0358623 0.135675 0.0577369 
v 0.0356853 0.135675 0.0574428 
v 0.0359719 0.135675 0.0580622 
v 0.0358623 0.135675 0.0590701 
v 0.0359719 0.135675 0.0587448 
v 0.0348462 0.135675 0.0599331 
v 0.0351651 0.135675 0.0598061 
v 0.0345074 0.135675 0.0599887 
v 0.0354492 0.135675 0.0596134 
v 0.0356853 0.135675 0.0593642 
v 0.0335306 0.135675 0.0597175 
v 0.0338339 0.135675 0.0598783 
v 0.0344215 0.135675 0.056816 
v 0.0341647 0.135675 0.0568369 
v -4.16334e-17 0.135675 0.046108 
v 0.003175 0.135675 0.0508 
v 0.003175 0.135675 0.06985 
v 0.003175 0.135675 0.0254 
v -4.16334e-17 0.135675 0.0254 
v 0.003175 0.135675 0.023542 
v 0.003175 0.135675 0.0067545 
v 0.016417 0.135675 0 
v 0.013495 0.135675 0.00635 
v 0.003175 0.135675 0.00635 
v 0.034135 0.135675 0.00635 
v 0.044455 0.135675 0.00635 
v 0.044455 0.135675 0 
v 0.034135 0.135675 0 
v 0.023815 0.135675 0.00635 
v 0.023815 0.135675 0 
v 0.045892 0.135675 0.00635 
v 0.054775 0.135675 0.00635 
v 0.054775 0.135675 0.0067545 
v 0.068775 0.135675 0.0289 
v 0.054775 0.135675 0.0289 
v 0.054775 0.135675 0.023542 
v 0.0811804 0.135675 0.0345185 
v 0.0814838 0.135675 0.034071 
v 0.0798124 0.135675 0.0353416 
v 0.0803247 0.135675 0.0351689 
v 0.079275 0.135675 0.0354 
v 0.082775 0.135675 0.0289 
v 0.0795453 0.135675 0.0304147 
v 0.079275 0.135675 0.0304 
v 0.0807879 0.135675 0.0348902 
v 0.0777621 0.135675 0.0348902 
v 0.0782253 0.135675 0.0351689 
v 0.0775558 0.135675 0.031085 
v 0.0772058 0.135675 0.031497 
v 0.0784767 0.135675 0.0305309 
v 0.0779861 0.135675 0.0307579 
v 0.0790047 0.135675 0.0304147 
v 0.0800733 0.135675 0.0305309 
v 0.0809942 0.135675 0.031085 
v 0.0805639 0.135675 0.0307579 
v 0.0815974 0.135675 0.0319747 
v 0.0813442 0.135675 0.031497 
v 0.0817421 0.135675 0.0324955 
v 0.0787376 0.135675 0.0353416 
v 0.0768661 0.135675 0.0335688 
v 0.0770662 0.135675 0.034071 
v 0.0767787 0.135675 0.0330353 
v 0.0769526 0.135675 0.0319747 
v 0.0773696 0.135675 0.0345185 
v 0.0768079 0.135675 0.0324955 
v 0.0816839 0.135675 0.0335688 
v 0.0817713 0.135675 0.0330353 
v 0.082775 0.135675 0.023542 
v 0.082775 0.135675 0.0067545 
v 0.082775 0.135675 0.00635 
v 0.091658 0.135675 0.00635 
v 0.134375 0.135675 0.0067545 
v 0.113735 0.135675 0.00635 
v 0.124055 0.135675 0.00635 
v 0.124055 0.135675 0 
v 0.113735 0.135675 0 
v 0.093095 0.135675 0.00635 
v 0.103415 0.135675 0.00635 
v 0.103415 0.135675 0 
v 0.093095 0.135675 0 
v 0.134375 0.135675 0.023542 
v 0.103214 0.135675 0.0166817 
v 0.103553 0.135675 0.0135669 
v 0.103214 0.135675 0.0135113 
v 0.103872 0.135675 0.0164991 
v 0.104156 0.135675 0.0163064 
v 0.103553 0.135675 0.0166261 
v 0.102541 0.135675 0.0165713 
v 0.102872 0.135675 0.0166631 
v 0.103872 0.135675 0.0136939 
v 0.104392 0.135675 0.0160572 
v 0.102238 0.135675 0.0164105 
v 0.101624 0.135675 0.0156034 
v 0.101768 0.135675 0.0159149 
v 0.104156 0.135675 0.0138866 
v 0.104716 0.135675 0.0150965 
v 0.104679 0.135675 0.0147552 
v 0.104679 0.135675 0.0154378 
v 0.101976 0.135675 0.0161882 
v 0.10155 0.135675 0.0149249 
v 0.10155 0.135675 0.0152681 
v 0.102541 0.135675 0.0136217 
v 0.102238 0.135675 0.0137825 
v 0.103128 0.135675 0.013509 
v 0.102872 0.135675 0.0135299 
v 0.104392 0.135675 0.0141358 
v 0.104569 0.135675 0.0144299 
v 0.104569 0.135675 0.0157631 
v 0.101976 0.135675 0.0140048 
v 0.101768 0.135675 0.0142781 
v 0.101624 0.135675 0.0145896 
v 0.13755 0.135675 0.046108 
v 0.134375 0.135675 0.0254 
v 0.091658 0.135675 0.06985 
v 0.103214 0.135675 0.0599887 
v 0.103553 0.135675 0.0599331 
v 0.104156 0.135675 0.0571936 
v 0.103872 0.135675 0.0570009 
v 0.134375 0.135675 0.06985 
v 0.104392 0.135675 0.0574428 
v 0.104569 0.135675 0.0577369 
v 0.134375 0.135675 0.0508 
v 0.103872 0.135675 0.0598061 
v 0.102872 0.135675 0.0599701 
v 0.102238 0.135675 0.0597175 
v 0.102541 0.135675 0.0598783 
v 0.101624 0.135675 0.0589104 
v 0.101768 0.135675 0.0592219 
v 0.10155 0.135675 0.0582319 
v 0.103553 0.135675 0.0568739 
v 0.104716 0.135675 0.0584035 
v 0.104679 0.135675 0.0580622 
v 0.104156 0.135675 0.0596134 
v 0.101976 0.135675 0.0594952 
v 0.10155 0.135675 0.0585751 
v 0.101976 0.135675 0.0573118 
v 0.101768 0.135675 0.0575851 
v 0.103128 0.135675 0.056816 
v 0.102872 0.135675 0.0568369 
v 0.103214 0.135675 0.0568183 
v 0.104569 0.135675 0.0590701 
v 0.104679 0.135675 0.0587448 
v 0.104392 0.135675 0.0593642 
v 0.101624 0.135675 0.0578966 
v 0.102238 0.135675 0.0570895 
v 0.102541 0.135675 0.0569287 
v 0.13755 0.135675 0.0508 
v 0.0906417 0.135675 0.06985 
v 0.082775 0.135675 0.0762 
v 0.0790047 0.135675 0.0864147 
v 0.0800733 0.135675 0.0865309 
v 0.0795453 0.135675 0.0864147 
v 0.0809942 0.135675 0.087085 
v 0.0805639 0.135675 0.0867579 
v 0.0784767 0.135675 0.0865309 
v 0.0779861 0.135675 0.0867579 
v 0.079275 0.135675 0.0864 
v 0.0815974 0.135675 0.0879747 
v 0.0813442 0.135675 0.087497 
v 0.082775 0.135675 0.0929 
v 0.0807879 0.135675 0.0908902 
v 0.0811804 0.135675 0.0905185 
v 0.068775 0.135675 0.0929 
v 0.0787376 0.135675 0.0913416 
v 0.0775558 0.135675 0.087085 
v 0.0772058 0.135675 0.087497 
v 0.0817713 0.135675 0.0890353 
v 0.0817421 0.135675 0.0884955 
v 0.0814838 0.135675 0.090071 
v 0.0782253 0.135675 0.0911689 
v 0.0770662 0.135675 0.090071 
v 0.0773696 0.135675 0.0905185 
v 0.0769526 0.135675 0.0879747 
v 0.0816839 0.135675 0.0895688 
v 0.0803247 0.135675 0.0911689 
v 0.079275 0.135675 0.0914 
v 0.0798124 0.135675 0.0913416 
v 0.0777621 0.135675 0.0908902 
v 0.0768661 0.135675 0.0895688 
v 0.0768079 0.135675 0.0884955 
v 0.0767787 0.135675 0.0890353 
v 0.0906417 0.135675 0.0731955 
v 0.0906417 0.135675 0.0762 
v 0.0603442 0.135675 0.087497 
v 0.0599942 0.135675 0.087085 
v 0.0605974 0.135675 0.0879747 
v 0.0607421 0.135675 0.0884955 
v 0.054775 0.135675 0.0762 
v 0.0569861 0.135675 0.0867579 
v 0.0565558 0.135675 0.087085 
v 0.0590733 0.135675 0.0865309 
v 0.0585453 0.135675 0.0864147 
v 0.0595639 0.135675 0.0867579 
v 0.0607713 0.135675 0.0890353 
v 0.0604838 0.135675 0.090071 
v 0.0606839 0.135675 0.0895688 
v 0.0597879 0.135675 0.0908902 
v 0.0601804 0.135675 0.0905185 
v 0.054775 0.135675 0.0929 
v 0.0558079 0.135675 0.0884955 
v 0.0562058 0.135675 0.087497 
v 0.0588124 0.135675 0.0913416 
v 0.0593247 0.135675 0.0911689 
v 0.0560662 0.135675 0.090071 
v 0.0563696 0.135675 0.0905185 
v 0.0557787 0.135675 0.0890353 
v 0.0558661 0.135675 0.0895688 
v 0.0559526 0.135675 0.0879747 
v 0.0574767 0.135675 0.0865309 
v 0.058275 0.135675 0.0914 
v 0.0567621 0.135675 0.0908902 
v 0.0572253 0.135675 0.0911689 
v 0.058275 0.135675 0.0864 
v 0.0580047 0.135675 0.0864147 
v 0.0577376 0.135675 0.0913416 
v 0.0469083 0.135675 0.0762 
v 0.13755 0.135675 0.0254 
v 0.134375 0.135675 0.00635 
v 0.013495 0.135675 0 
v -4.16334e-17 0.135675 0.0508 
v 0.016417 0.135675 0.023542 
v 0.016417 0.135675 0.0067545 
v 0.045892 0.135675 0.023542 
v 0.045892 0.135675 0.0067545 
v 0.016417 0.135675 0.046108 
v 0.045892 0.135675 0.046108 
v 0.068775 0.135675 0.046108 
v 0.068775 0.135675 0.0731955 
v 0.091658 0.135675 0.046108 
v 0.091658 0.135675 0.023542 
v 0.091658 0.135675 0.0067545 
v 0.0328433 0.13885 0.0152681 
v 0.0341647 0.13885 0.0135299 
v 0.0328433 0.13885 0.0149249 
v 0.0330612 0.13885 0.0159149 
v 0.0329171 0.13885 0.0156034 
v 0.0344215 0.13885 0.013509 
v 0.033269 0.13885 0.0140048 
v 0.0335306 0.13885 0.0137825 
v 0.0329171 0.13885 0.0145896 
v 0.0330612 0.13885 0.0142781 
v 0.0335306 0.13885 0.0164105 
v 0.033269 0.13885 0.0161882 
v 0.0358623 0.13885 0.0157631 
v 0.0356853 0.13885 0.0160572 
v 0.036009 0.13885 0.0150965 
v 0.0358623 0.13885 0.0144299 
v 0.0359719 0.13885 0.0147552 
v 0.0354492 0.13885 0.0138866 
v 0.0356853 0.13885 0.0141358 
v 0.0345074 0.13885 0.0135113 
v 0.0341647 0.13885 0.0166631 
v 0.0338339 0.13885 0.0165713 
v 0.0345074 0.13885 0.0166817 
v 0.0351651 0.13885 0.0164991 
v 0.0348462 0.13885 0.0166261 
v 0.0354492 0.13885 0.0163064 
v 0.0359719 0.13885 0.0154378 
v 0.0348462 0.13885 0.0135669 
v 0.0351651 0.13885 0.0136939 
v 0.0338339 0.13885 0.0136217 
v 0.016417 0.13885 0.06985 
v 0.0328433 0.13885 0.0585751 
v 0.0328433 0.13885 0.0582319 
v 0.0341647 0.13885 0.0568369 
v 0.033269 0.13885 0.0573118 
v 0.0335306 0.13885 0.0570895 
v 0.0329171 0.13885 0.0578966 
v 0.0330612 0.13885 0.0575851 
v 0.0344215 0.13885 0.056816 
v 0.0329171 0.13885 0.0589104 
v 0.033269 0.13885 0.0594952 
v 0.0330612 0.13885 0.0592219 
v 0.0345074 0.13885 0.0568183 
v 0.0335306 0.13885 0.0597175 
v 0.045892 0.13885 0.06985 
v 0.0354492 0.13885 0.0596134 
v 0.0351651 0.13885 0.0598061 
v 0.0359719 0.13885 0.0580622 
v 0.036009 0.13885 0.0584035 
v 0.0348462 0.13885 0.0568739 
v 0.0351651 0.13885 0.0570009 
v 0.0338339 0.13885 0.0569287 
v 0.0341647 0.13885 0.0599701 
v 0.0338339 0.13885 0.0598783 
v 0.0348462 0.13885 0.0599331 
v 0.0358623 0.13885 0.0590701 
v 0.0356853 0.13885 0.0593642 
v 0.0359719 0.13885 0.0587448 
v 0.0358623 0.13885 0.0577369 
v 0.0354492 0.13885 0.0571936 
v 0.0356853 0.13885 0.0574428 
v 0.0345074 0.13885 0.0599887 
v 0.0469083 0.13885 0.06985 
v 0.0595639 0.13885 0.0867579 
v 0.0599942 0.13885 0.087085 
v 0.068775 0.13885 0.0929 
v 0.0605974 0.13885 0.0879747 
v 0.0603442 0.13885 0.087497 
v 0.054775 0.13885 0.0762 
v 0.0585453 0.13885 0.0864147 
v 0.0580047 0.13885 0.0864147 
v 0.058275 0.13885 0.0864 
v 0.0562058 0.13885 0.087497 
v 0.0565558 0.13885 0.087085 
v 0.0607421 0.13885 0.0884955 
v 0.0590733 0.13885 0.0865309 
v 0.0559526 0.13885 0.0879747 
v 0.054775 0.13885 0.0929 
v 0.0557787 0.13885 0.0890353 
v 0.0558079 0.13885 0.0884955 
v 0.0604838 0.13885 0.090071 
v 0.0601804 0.13885 0.0905185 
v 0.0607713 0.13885 0.0890353 
v 0.0606839 0.13885 0.0895688 
v 0.0574767 0.13885 0.0865309 
v 0.0569861 0.13885 0.0867579 
v 0.0597879 0.13885 0.0908902 
v 0.0593247 0.13885 0.0911689 
v 0.0560662 0.13885 0.090071 
v 0.0558661 0.13885 0.0895688 
v 0.0567621 0.13885 0.0908902 
v 0.0563696 0.13885 0.0905185 
v 0.0577376 0.13885 0.0913416 
v 0.0572253 0.13885 0.0911689 
v 0.0588124 0.13885 0.0913416 
v 0.058275 0.13885 0.0914 
v 0.0469083 0.13885 0.0731955 
v 0.0469083 0.13885 0.0762 
v 0.082775 0.13885 0.0762 
v 0.0790047 0.13885 0.0864147 
v 0.079275 0.13885 0.0864 
v 0.0795453 0.13885 0.0864147 
v 0.0784767 0.13885 0.0865309 
v 0.0800733 0.13885 0.0865309 
v 0.0805639 0.13885 0.0867579 
v 0.0775558 0.13885 0.087085 
v 0.0779861 0.13885 0.0867579 
v 0.0809942 0.13885 0.087085 
v 0.0813442 0.13885 0.087497 
v 0.0769526 0.13885 0.0879747 
v 0.0772058 0.13885 0.087497 
v 0.082775 0.13885 0.0929 
v 0.0814838 0.13885 0.090071 
v 0.0811804 0.13885 0.0905185 
v 0.0817421 0.13885 0.0884955 
v 0.0815974 0.13885 0.0879747 
v 0.0768079 0.13885 0.0884955 
v 0.0816839 0.13885 0.0895688 
v 0.0817713 0.13885 0.0890353 
v 0.079275 0.13885 0.0914 
v 0.0787376 0.13885 0.0913416 
v 0.0803247 0.13885 0.0911689 
v 0.0798124 0.13885 0.0913416 
v 0.0807879 0.13885 0.0908902 
v 0.0768661 0.13885 0.0895688 
v 0.0767787 0.13885 0.0890353 
v 0.0777621 0.13885 0.0908902 
v 0.0773696 0.13885 0.0905185 
v 0.0770662 0.13885 0.090071 
v 0.0782253 0.13885 0.0911689 
v 0.0906417 0.13885 0.0731955 
v 0.0906417 0.13885 0.06985 
v 0.134375 0.13885 0.0508 
v 0.103553 0.13885 0.0568739 
v 0.103872 0.13885 0.0570009 
v 0.103214 0.13885 0.0568183 
v 0.102872 0.13885 0.0568369 
v 0.103128 0.13885 0.056816 
v 0.134375 0.13885 0.06985 
v 0.104156 0.13885 0.0596134 
v 0.103872 0.13885 0.0598061 
v 0.104156 0.13885 0.0571936 
v 0.104392 0.13885 0.0593642 
v 0.104716 0.13885 0.0584035 
v 0.104569 0.13885 0.0577369 
v 0.104679 0.13885 0.0580622 
v 0.104392 0.13885 0.0574428 
v 0.102541 0.13885 0.0569287 
v 0.104569 0.13885 0.0590701 
v 0.104679 0.13885 0.0587448 
v 0.102238 0.13885 0.0570895 
v 0.101624 0.13885 0.0578966 
v 0.101768 0.13885 0.0575851 
v 0.091658 0.13885 0.06985 
v 0.103553 0.13885 0.0599331 
v 0.101976 0.13885 0.0573118 
v 0.10155 0.13885 0.0585751 
v 0.10155 0.13885 0.0582319 
v 0.101976 0.13885 0.0594952 
v 0.101768 0.13885 0.0592219 
v 0.102872 0.13885 0.0599701 
v 0.102541 0.13885 0.0598783 
v 0.101624 0.13885 0.0589104 
v 0.102238 0.13885 0.0597175 
v 0.103214 0.13885 0.0599887 
v 0.13755 0.13885 0.046108 
v 0.134375 0.13885 0.0254 
v 0.13755 0.13885 0.0254 
v 0.134375 0.13885 0.0067545 
v 0.103214 0.13885 0.0135113 
v 0.102872 0.13885 0.0135299 
v 0.103128 0.13885 0.013509 
v 0.102541 0.13885 0.0136217 
v 0.103553 0.13885 0.0135669 
v 0.103872 0.13885 0.0136939 
v 0.102238 0.13885 0.0137825 
v 0.134375 0.13885 0.023542 
v 0.103553 0.13885 0.0166261 
v 0.103214 0.13885 0.0166817 
v 0.101976 0.13885 0.0140048 
v 0.103872 0.13885 0.0164991 
v 0.104392 0.13885 0.0160572 
v 0.104156 0.13885 0.0163064 
v 0.104569 0.13885 0.0144299 
v 0.104679 0.13885 0.0147552 
v 0.104156 0.13885 0.0138866 
v 0.101624 0.13885 0.0145896 
v 0.101768 0.13885 0.0142781 
v 0.10155 0.13885 0.0152681 
v 0.104716 0.13885 0.0150965 
v 0.104392 0.13885 0.0141358 
v 0.101624 0.13885 0.0156034 
v 0.104569 0.13885 0.0157631 
v 0.104679 0.13885 0.0154378 
v 0.10155 0.13885 0.0149249 
v 0.101976 0.13885 0.0161882 
v 0.101768 0.13885 0.0159149 
v 0.102872 0.13885 0.0166631 
v 0.102238 0.13885 0.0164105 
v 0.102541 0.13885 0.0165713 
v 0.103415 0.13885 0.00635 
v 0.093095 0.13885 0.00635 
v 0.093095 0.13885 0 
v 0.103415 0.13885 0 
v 0.124055 0.13885 0.00635 
v 0.113735 0.13885 0.00635 
v 0.113735 0.13885 0 
v 0.124055 0.13885 0 
v 0.134375 0.13885 0.00635 
v 0.082775 0.13885 0.0067545 
v 0.091658 0.13885 0.00635 
v 0.082775 0.13885 0.023542 
v 0.082775 0.13885 0.0289 
v 0.068775 0.13885 0.0289 
v 0.0790047 0.13885 0.0304147 
v 0.079275 0.13885 0.0304 
v 0.0795453 0.13885 0.0304147 
v 0.0800733 0.13885 0.0305309 
v 0.0805639 0.13885 0.0307579 
v 0.0784767 0.13885 0.0305309 
v 0.0815974 0.13885 0.0319747 
v 0.0817421 0.13885 0.0324955 
v 0.0809942 0.13885 0.031085 
v 0.0813442 0.13885 0.031497 
v 0.0775558 0.13885 0.031085 
v 0.0779861 0.13885 0.0307579 
v 0.0769526 0.13885 0.0319747 
v 0.0772058 0.13885 0.031497 
v 0.0768079 0.13885 0.0324955 
v 0.0817713 0.13885 0.0330353 
v 0.0768661 0.13885 0.0335688 
v 0.0773696 0.13885 0.0345185 
v 0.0770662 0.13885 0.034071 
v 0.0787376 0.13885 0.0353416 
v 0.0782253 0.13885 0.0351689 
v 0.0798124 0.13885 0.0353416 
v 0.079275 0.13885 0.0354 
v 0.0807879 0.13885 0.0348902 
v 0.0803247 0.13885 0.0351689 
v 0.0816839 0.13885 0.0335688 
v 0.0814838 0.13885 0.034071 
v 0.0767787 0.13885 0.0330353 
v 0.0777621 0.13885 0.0348902 
v 0.0811804 0.13885 0.0345185 
v 0.054775 0.13885 0.0289 
v 0.054775 0.13885 0.023542 
v 0.054775 0.13885 0.0067545 
v 0.054775 0.13885 0.00635 
v 0.016417 0.13885 0 
v 0.023815 0.13885 0.00635 
v 0.044455 0.13885 0.00635 
v 0.034135 0.13885 0.00635 
v 0.034135 0.13885 0 
v 0.044455 0.13885 0 
v 0.045892 0.13885 0.00635 
v 0.003175 0.13885 0.0067545 
v 0.013495 0.13885 0.00635 
v 0.013495 0.13885 0 
v 0.003175 0.13885 0.023542 
v -4.16334e-17 0.13885 0.046108 
v 0.003175 0.13885 0.0254 
v 0.003175 0.13885 0.0508 
v -4.16334e-17 0.13885 0.0508 
v 0.003175 0.13885 0.06985 
v -4.16334e-17 0.13885 0.0254 
v 0.003175 0.13885 0.00635 
v 0.023815 0.13885 0 
v 0.082775 0.13885 0.00635 
v 0.13755 0.13885 0.0508 
v 0.0906417 0.13885 0.0762 
v 0.016417 0.13885 0.046108 
v 0.045892 0.13885 0.046108 
v 0.045892 0.13885 0.023542 
v 0.016417 0.13885 0.0067545 
v 0.016417 0.13885 0.023542 
v 0.045892 0.13885 0.0067545 
v 0.068775 0.13885 0.0731955 
v 0.068775 0.13885 0.046108 
v 0.091658 0.13885 0.046108 
v 0.091658 0.13885 0.023542 
v 0.091658 0.13885 0.0067545 
vn 0.21497 0 -0.976621 
vn 2.44929e-16 0 -1 
vn 0.419889 0 -0.907575 
vn 0.21497 0 -0.976621 
vn 0.605174 0 -0.796093 
vn 0.419889 0 -0.907575 
vn 0.762162 0 -0.647386 
vn 0.605174 0 -0.796093 
vn 0.883512 0 -0.468408 
vn 0.762162 0 -0.647386 
vn 0.96355 0 -0.267528 
vn 0.883512 0 -0.468408 
vn 0.998533 0 -0.0541389 
vn 0.96355 0 -0.267528 
vn 0.986827 0 0.161782 
vn 0.998533 0 -0.0541389 
vn 0.928977 0 0.370138 
vn 0.986827 0 0.161782 
vn 0.827689 0 0.561187 
vn 0.928977 0 0.370138 
vn 0.687699 0 0.725995 
vn 0.827689 0 0.561187 
vn 0.515554 0 0.856857 
vn 0.687699 0 0.725995 
vn 0.319302 0 0.947653 
vn 0.515554 0 0.856857 
vn 0.108119 0 0.994138 
vn 0.319302 0 0.947653 
vn -0.108119 0 0.994138 
vn -3.67394e-16 0 1 
vn 0.108119 0 0.994138 
vn -0.319302 0 0.947653 
vn -0.108119 0 0.994138 
vn -0.515554 0 0.856857 
vn -0.319302 0 0.947653 
vn -0.687699 0 0.725995 
vn -0.515554 0 0.856857 
vn -0.827689 0 0.561187 
vn -0.687699 0 0.725995 
vn -0.928977 0 0.370138 
vn -0.827689 0 0.561187 
vn -0.986827 0 0.161782 
vn -0.928977 0 0.370138 
vn -0.998533 0 -0.0541389 
vn -0.986827 0 0.161782 
vn -0.96355 0 -0.267528 
vn -0.998533 0 -0.0541389 
vn -0.883512 0 -0.468408 
vn -0.96355 0 -0.267528 
vn -0.762162 0 -0.647386 
vn -0.883512 0 -0.468408 
vn -0.605174 0 -0.796093 
vn -0.762162 0 -0.647386 
vn -0.419889 0 -0.907575 
vn -0.605174 0 -0.796093 
vn -0.21497 0 -0.976621 
vn -0.419889 0 -0.907575 
vn 0 -1 0 
vn 0 1 0 
vn 0 0 1 
vn 1 0 0 
vn 0 0 -1 
vn -1 0 0 
vn 1 0 0 
vn 0 0 1 
vn 0 0 -1 
vn 1 0 0 
vn 0 0 1 
vn -1 0 0 
vn 0 0 -1 
vn 0 0 1 
vn 1 0 0 
vn 0 0 -1 
vn -1 0 0 
vn 1 0 0 
vn 0 0 -1 
vn -1 0 0 
vn 1 0 0 
vn 0 0 -1 
vn -1 0 0 
vn 1 0 0 
vn 0 0 -1 
vn -1 0 0 
vn 1 0 0 
vn 0 0 -1 
vn 0 0 1 
vn 1 0 0 
vn -1 0 0 
vn 0 0 1 
vn 0.21497 0 -0.976621 
vn 2.44929e-16 0 -1 
vn 0.419889 0 -0.907575 
vn 0.21497 0 -0.976621 
vn 0.605174 0 -0.796093 
vn 0.419889 0 -0.907575 
vn 0.762162 0 -0.647386 
vn 0.605174 0 -0.796093 
vn 0.883512 0 -0.468408 
vn 0.762162 0 -0.647386 
vn 0.96355 0 -0.267528 
vn 0.883512 0 -0.468408 
vn 0.998533 0 -0.0541389 
vn 0.96355 0 -0.267528 
vn 0.986827 0 0.161782 
vn 0.998533 0 -0.0541389 
vn 0.928977 0 0.370138 
vn 0.986827 0 0.161782 
vn 0.827689 0 0.561187 
vn 0.928977 0 0.370138 
vn 0.687699 0 0.725995 
vn 0.827689 0 0.561187 
vn 0.515554 0 0.856857 
vn 0.687699 0 0.725995 
vn 0.319302 0 0.947653 
vn 0.515554 0 0.856857 
vn 0.108119 0 0.994138 
vn 0.319302 0 0.947653 
vn -0.108119 0 0.994138 
vn -3.67394e-16 0 1 
vn 0.108119 0 0.994138 
vn -0.319302 0 0.947653 
vn -0.108119 0 0.994138 
vn -0.515554 0 0.856857 
vn -0.319302 0 0.947653 
vn -0.687699 0 0.725995 
vn -0.515554 0 0.856857 
vn -0.827689 0 0.561187 
vn -0.687699 0 0.725995 
vn -0.928977 0 0.370138 
vn -0.827689 0 0.561187 
vn -0.986827 0 0.161782 
vn -0.928977 0 0.370138 
vn -0.998533 0 -0.0541389 
vn -0.986827 0 0.161782 
vn -0.96355 0 -0.267528 
vn -0.998533 0 -0.0541389 
vn -0.883512 0 -0.468408 
vn -0.96355 0 -0.267528 
vn -0.762162 0 -0.647386 
vn -0.883512 0 -0.468408 
vn -0.605174 0 -0.796093 
vn -0.762162 0 -0.647386 
vn -0.419889 0 -0.907575 
vn -0.605174 0 -0.796093 
vn -0.21497 0 -0.976621 
vn -0.419889 0 -0.907575 
vn 0.21497 0 -0.976621 
vn 2.44929e-16 0 -1 
vn 0.419889 0 -0.907575 
vn 0.21497 0 -0.976621 
vn 0.605174 0 -0.796093 
vn 0.419889 0 -0.907575 
vn 0.762162 0 -0.647386 
vn 0.605174 0 -0.796093 
vn 0.883512 0 -0.468408 
vn 0.762162 0 -0.647386 
vn 0.96355 0 -0.267528 
vn 0.883512 0 -0.468408 
vn 0.998533 0 -0.0541389 
vn 0.96355 0 -0.267528 
vn 0.986827 0 0.161782 
vn 0.998533 0 -0.0541389 
vn 0.928977 0 0.370138 
vn 0.986827 0 0.161782 
vn 0.827689 0 0.561187 
vn 0.928977 0 0.370138 
vn 0.687699 0 0.725995 
vn 0.827689 0 0.561187 
vn 0.515554 0 0.856857 
vn 0.687699 0 0.725995 
vn 0.319302 0 0.947653 
vn 0.515554 0 0.856857 
vn 0.108119 0 0.994138 
vn 0.319302 0 0.947653 
vn -0.108119 0 0.994138 
vn -3.67394e-16 0 1 
vn 0.108119 0 0.994138 
vn -0.319302 0 0.947653 
vn -0.108119 0 0.994138 
vn -0.515554 0 0.856857 
vn -0.319302 0 0.947653 
vn -0.687699 0 0.725995 
vn -0.515554 0 0.856857 
vn -0.827689 0 0.561187 
vn -0.687699 0 0.725995 
vn -0.928977 0 0.370138 
vn -0.827689 0 0.561187 
vn -0.986827 0 0.161782 
vn -0.928977 0 0.370138 
vn -0.998533 0 -0.0541389 
vn -0.986827 0 0.161782 
vn -0.96355 0 -0.267528 
vn -0.998533 0 -0.0541389 
vn -0.883512 0 -0.468408 
vn -0.96355 0 -0.267528 
vn -0.762162 0 -0.647386 
vn -0.883512 0 -0.468408 
vn -0.605174 0 -0.796093 
vn -0.762162 0 -0.647386 
vn -0.419889 0 -0.907575 
vn -0.605174 0 -0.796093 
vn -0.21497 0 -0.976621 
vn -0.419889 0 -0.907575 
vn 0.21497 0 -0.976621 
vn 2.44929e-16 0 -1 
vn 0.419889 0 -0.907575 
vn 0.21497 0 -0.976621 
vn 0.605174 0 -0.796093 
vn 0.419889 0 -0.907575 
vn 0.762162 0 -0.647386 
vn 0.605174 0 -0.796093 
vn 0.883512 0 -0.468408 
vn 0.762162 0 -0.647386 
vn 0.96355 0 -0.267528 
vn 0.883512 0 -0.468408 
vn 0.998533 0 -0.0541389 
vn 0.96355 0 -0.267528 
vn 0.986827 0 0.161782 
vn 0.998533 0 -0.0541389 
vn 0.928977 0 0.370138 
vn 0.986827 0 0.161782 
vn 0.827689 0 0.561187 
vn 0.928977 0 0.370138 
vn 0.687699 0 0.725995 
vn 0.827689 0 0.561187 
vn 0.515554 0 0.856857 
vn 0.687699 0 0.725995 
vn 0.319302 0 0.947653 
vn 0.515554 0 0.856857 
vn 0.108119 0 0.994138 
vn 0.319302 0 0.947653 
vn -0.108119 0 0.994138 
vn -3.67394e-16 0 1 
vn 0.108119 0 0.994138 
vn -0.319302 0 0.947653 
vn -0.108119 0 0.994138 
vn -0.515554 0 0.856857 
vn -0.319302 0 0.947653 
vn -0.687699 0 0.725995 
vn -0.515554 0 0.856857 
vn -0.827689 0 0.561187 
vn -0.687699 0 0.725995 
vn -0.928977 0 0.370138 
vn -0.827689 0 0.561187 
vn -0.986827 0 0.161782 
vn -0.928977 0 0.370138 
vn -0.998533 0 -0.0541389 
vn -0.986827 0 0.161782 
vn -0.96355 0 -0.267528 
vn -0.998533 0 -0.0541389 
vn -0.883512 0 -0.468408 
vn -0.96355 0 -0.267528 
vn -0.762162 0 -0.647386 
vn -0.883512 0 -0.468408 
vn -0.605174 0 -0.796093 
vn -0.762162 0 -0.647386 
vn -0.419889 0 -0.907575 
vn -0.605174 0 -0.796093 
vn -0.21497 0 -0.976621 
vn -0.419889 0 -0.907575 
vn -0.976621 -2.30108e-16 0.21497 
vn -1 -2.35616e-16 2.44929e-16 
vn -0.907575 -2.13839e-16 0.419889 
vn -0.976621 -2.30108e-16 0.21497 
vn -0.796093 -1.87572e-16 0.605174 
vn -0.907575 -2.13839e-16 0.419889 
vn -0.647386 -1.52535e-16 0.762162 
vn -0.796093 -1.87572e-16 0.605174 
vn -0.468408 -1.10365e-16 0.883512 
vn -0.647386 -1.52535e-16 0.762162 
vn -0.267528 -6.3034e-17 0.96355 
vn -0.468408 -1.10365e-16 0.883512 
vn -0.0541389 -1.2756e-17 0.998533 
vn -0.267528 -6.3034e-17 0.96355 
vn 0.161782 3.81184e-17 0.986827 
vn 4.28626e-16 1.00991e-31 1 
vn -0.0541389 -1.2756e-17 0.998533 
vn 0.370138 8.72105e-17 0.928977 
vn 0.161782 3.81184e-17 0.986827 
vn 0.561187 1.32225e-16 0.827689 
vn 0.370138 8.72105e-17 0.928977 
vn 0.725995 1.71056e-16 0.687699 
vn 0.561187 1.32225e-16 0.827689 
vn 0.856857 2.01889e-16 0.515554 
vn 0.725995 1.71056e-16 0.687699 
vn 0.947653 2.23282e-16 0.319302 
vn 0.856857 2.01889e-16 0.515554 
vn 0.994138 2.34235e-16 0.108119 
vn 0.947653 2.23282e-16 0.319302 
vn 0.994138 2.34235e-16 -0.108119 
vn 0.994138 2.34235e-16 0.108119 
vn 0.947653 2.23282e-16 -0.319302 
vn 0.994138 2.34235e-16 -0.108119 
vn 0.856857 2.01889e-16 -0.515554 
vn 0.947653 2.23282e-16 -0.319302 
vn 0.725995 1.71056e-16 -0.687699 
vn 0.856857 2.01889e-16 -0.515554 
vn 0.561187 1.32225e-16 -0.827689 
vn 0.725995 1.71056e-16 -0.687699 
vn 0.370138 8.72105e-17 -0.928977 
vn 0.561187 1.32225e-16 -0.827689 
vn 0.161782 3.81184e-17 -0.986827 
vn 0.370138 8.72105e-17 -0.928977 
vn -0.0541389 -1.2756e-17 -0.998533 
vn 0.161782 3.81184e-17 -0.986827 
vn -0.267528 -6.3034e-17 -0.96355 
vn -0.0541389 -1.2756e-17 -0.998533 
vn -0.468408 -1.10365e-16 -0.883512 
vn -0.267528 -6.3034e-17 -0.96355 
vn -0.647386 -1.52535e-16 -0.762162 
vn -0.468408 -1.10365e-16 -0.883512 
vn -0.796093 -1.87572e-16 -0.605174 
vn -0.647386 -1.52535e-16 -0.762162 
vn -0.907575 -2.13839e-16 -0.419889 
vn -0.796093 -1.87572e-16 -0.605174 
vn -0.976621 -2.30108e-16 -0.21497 
vn -0.907575 -2.13839e-16 -0.419889 
vn -0.976621 -2.30108e-16 0.21497 
vn -1 -2.35616e-16 2.44929e-16 
vn -0.907575 -2.13839e-16 0.419889 
vn -0.976621 -2.30108e-16 0.21497 
vn -0.796093 -1.87572e-16 0.605174 
vn -0.907575 -2.13839e-16 0.419889 
vn -0.647386 -1.52535e-16 0.762162 
vn -0.796093 -1.87572e-16 0.605174 
vn -0.468408 -1.10365e-16 0.883512 
vn -0.647386 -1.52535e-16 0.762162 
vn -0.267528 -6.3034e-17 0.96355 
vn -0.468408 -1.10365e-16 0.883512 
vn -0.0541389 -1.2756e-17 0.998533 
vn -0.267528 -6.3034e-17 0.96355 
vn 0.161782 3.81184e-17 0.986827 
vn 4.28626e-16 1.00991e-31 1 
vn -0.0541389 -1.2756e-17 0.998533 
vn 0.370138 8.72105e-17 0.928977 
vn 0.161782 3.81184e-17 0.986827 
vn 0.561187 1.32225e-16 0.827689 
vn 0.370138 8.72105e-17 0.928977 
vn 0.725995 1.71056e-16 0.687699 
vn 0.561187 1.32225e-16 0.827689 
vn 0.856857 2.01889e-16 0.515554 
vn 0.725995 1.71056e-16 0.687699 
vn 0.947653 2.23282e-16 0.319302 
vn 0.856857 2.01889e-16 0.515554 
vn 0.994138 2.34235e-16 0.108119 
vn 0.947653 2.23282e-16 0.319302 
vn 0.994138 2.34235e-16 -0.108119 
vn 0.994138 2.34235e-16 0.108119 
vn 0.947653 2.23282e-16 -0.319302 
vn 0.994138 2.34235e-16 -0.108119 
vn 0.856857 2.01889e-16 -0.515554 
vn 0.947653 2.23282e-16 -0.319302 
vn 0.725995 1.71056e-16 -0.687699 
vn 0.856857 2.01889e-16 -0.515554 
vn 0.561187 1.32225e-16 -0.827689 
vn 0.725995 1.71056e-16 -0.687699 
vn 0.370138 8.72105e-17 -0.928977 
vn 0.561187 1.32225e-16 -0.827689 
vn 0.161782 3.81184e-17 -0.986827 
vn 0.370138 8.72105e-17 -0.928977 
vn -0.0541389 -1.2756e-17 -0.998533 
vn 0.161782 3.81184e-17 -0.986827 
vn -0.267528 -6.3034e-17 -0.96355 
vn -0.0541389 -1.2756e-17 -0.998533 
vn -0.468408 -1.10365e-16 -0.883512 
vn -0.267528 -6.3034e-17 -0.96355 
vn -0.647386 -1.52535e-16 -0.762162 
vn -0.468408 -1.10365e-16 -0.883512 
vn -0.796093 -1.87572e-16 -0.605174 
vn -0.647386 -1.52535e-16 -0.762162 
vn -0.907575 -2.13839e-16 -0.419889 
vn -0.796093 -1.87572e-16 -0.605174 
vn -0.976621 -2.30108e-16 -0.21497 
vn -0.907575 -2.13839e-16 -0.419889 
vn -0.976621 -2.30108e-16 0.21497 
vn -1 -2.35616e-16 2.44929e-16 
vn -0.907575 -2.13839e-16 0.419889 
vn -0.976621 -2.30108e-16 0.21497 
vn -0.796093 -1.87572e-16 0.605174 
vn -0.907575 -2.13839e-16 0.419889 
vn -0.647386 -1.52535e-16 0.762162 
vn -0.796093 -1.87572e-16 0.605174 
vn -0.468408 -1.10365e-16 0.883512 
vn -0.647386 -1.52535e-16 0.762162 
vn -0.267528 -6.3034e-17 0.96355 
vn -0.468408 -1.10365e-16 0.883512 
vn -0.0541389 -1.2756e-17 0.998533 
vn -0.267528 -6.3034e-17 0.96355 
vn 0.161782 3.81184e-17 0.986827 
vn 4.28626e-16 1.00991e-31 1 
vn -0.0541389 -1.2756e-17 0.998533 
vn 0.370138 8.72105e-17 0.928977 
vn 0.161782 3.81184e-17 0.986827 
vn 0.561187 1.32225e-16 0.827689 
vn 0.370138 8.72105e-17 0.928977 
vn 0.725995 1.71056e-16 0.687699 
vn 0.561187 1.32225e-16 0.827689 
vn 0.856857 2.01889e-16 0.515554 
vn 0.725995 1.71056e-16 0.687699 
vn 0.947653 2.23282e-16 0.319302 
vn 0.856857 2.01889e-16 0.515554 
vn 0.994138 2.34235e-16 0.108119 
vn 0.947653 2.23282e-16 0.319302 
vn 0.994138 2.34235e-16 -0.108119 
vn 0.994138 2.34235e-16 0.108119 
vn 0.947653 2.23282e-16 -0.319302 
vn 0.994138 2.34235e-16 -0.108119 
vn 0.856857 2.01889e-16 -0.515554 
vn 0.947653 2.23282e-16 -0.319302 
vn 0.725995 1.71056e-16 -0.687699 
vn 0.856857 2.01889e-16 -0.515554 
vn 0.561187 1.32225e-16 -0.827689 
vn 0.725995 1.71056e-16 -0.687699 
vn 0.370138 8.72105e-17 -0.928977 
vn 0.561187 1.32225e-16 -0.827689 
vn 0.161782 3.81184e-17 -0.986827 
vn 0.370138 8.72105e-17 -0.928977 
vn -0.0541389 -1.2756e-17 -0.998533 
vn 0.161782 3.81184e-17 -0.986827 
vn -0.267528 -6.3034e-17 -0.96355 
vn -0.0541389 -1.2756e-17 -0.998533 
vn -0.468408 -1.10365e-16 -0.883512 
vn -0.267528 -6.3034e-17 -0.96355 
vn -0.647386 -1.52535e-16 -0.762162 
vn -0.468408 -1.10365e-16 -0.883512 
vn -0.796093 -1.87572e-16 -0.605174 
vn -0.647386 -1.52535e-16 -0.762162 
vn -0.907575 -2.13839e-16 -0.419889 
vn -0.796093 -1.87572e-16 -0.605174 
vn -0.976621 -2.30108e-16 -0.21497 
vn -0.907575 -2.13839e-16 -0.419889 
vn -0.976621 -2.30108e-16 0.21497 
vn -1 -2.35616e-16 2.44929e-16 
vn -0.907575 -2.13839e-16 0.419889 
vn -0.976621 -2.30108e-16 0.21497 
vn -0.796093 -1.87572e-16 0.605174 
vn -0.907575 -2.13839e-16 0.419889 
vn -0.647386 -1.52535e-16 0.762162 
vn -0.796093 -1.87572e-16 0.605174 
vn -0.468408 -1.10365e-16 0.883512 
vn -0.647386 -1.52535e-16 0.762162 
vn -0.267528 -6.3034e-17 0.96355 
vn -0.468408 -1.10365e-16 0.883512 
vn -0.0541389 -1.2756e-17 0.998533 
vn -0.267528 -6.3034e-17 0.96355 
vn 0.161782 3.81184e-17 0.986827 
vn 4.28626e-16 1.00991e-31 1 
vn -0.0541389 -1.2756e-17 0.998533 
vn 0.370138 8.72105e-17 0.928977 
vn 0.161782 3.81184e-17 0.986827 
vn 0.561187 1.32225e-16 0.827689 
vn 0.370138 8.72105e-17 0.928977 
vn 0.725995 1.71056e-16 0.687699 
vn 0.561187 1.32225e-16 0.827689 
vn 0.856857 2.01889e-16 0.515554 
vn 0.725995 1.71056e-16 0.687699 
vn 0.947653 2.23282e-16 0.319302 
vn 0.856857 2.01889e-16 0.515554 
vn 0.994138 2.34235e-16 0.108119 
vn 0.947653 2.23282e-16 0.319302 
vn 0.994138 2.34235e-16 -0.108119 
vn 0.994138 2.34235e-16 0.108119 
vn 0.947653 2.23282e-16 -0.319302 
vn 0.994138 2.34235e-16 -0.108119 
vn 0.856857 2.01889e-16 -0.515554 
vn 0.947653 2.23282e-16 -0.319302 
vn 0.725995 1.71056e-16 -0.687699 
vn 0.856857 2.01889e-16 -0.515554 
vn 0.561187 1.32225e-16 -0.827689 
vn 0.725995 1.71056e-16 -0.687699 
vn 0.370138 8.72105e-17 -0.928977 
vn 0.561187 1.32225e-16 -0.827689 
vn 0.161782 3.81184e-17 -0.986827 
vn 0.370138 8.72105e-17 -0.928977 
vn -0.0541389 -1.2756e-17 -0.998533 
vn 0.161782 3.81184e-17 -0.986827 
vn -0.267528 -6.3034e-17 -0.96355 
vn -0.0541389 -1.2756e-17 -0.998533 
vn -0.468408 -1.10365e-16 -0.883512 
vn -0.267528 -6.3034e-17 -0.96355 
vn -0.647386 -1.52535e-16 -0.762162 
vn -0.468408 -1.10365e-16 -0.883512 
vn -0.796093 -1.87572e-16 -0.605174 
vn -0.647386 -1.52535e-16 -0.762162 
vn -0.907575 -2.13839e-16 -0.419889 
vn -0.796093 -1.87572e-16 -0.605174 
vn -0.976621 -2.30108e-16 -0.21497 
vn -0.907575 -2.13839e-16 -0.419889 
usemtl 0.980392_0.713725_0.003922_0.000000_0.000000
o mesh0
f 1//1 2//2 3//2 
f 4//3 1//1 5//4 
f 6//5 4//3 7//6 
f 8//7 6//5 9//8 
f 10//9 8//7 11//10 
f 12//11 10//9 13//12 
f 14//13 12//11 15//14 
f 16//15 14//13 17//16 
f 18//17 16//15 19//18 
f 20//19 18//17 21//20 
f 22//21 20//19 23//22 
f 24//23 22//21 25//24 
f 26//25 24//23 27//26 
f 28//27 26//25 29//28 
f 30//29 31//30 32//30 
f 33//31 32//30 31//30 
f 31//30 28//27 33//31 
f 34//32 30//29 35//33 
f 36//34 34//32 37//35 
f 38//36 36//34 39//37 
f 40//38 38//36 41//39 
f 42//40 40//38 43//41 
f 44//42 42//40 45//43 
f 46//44 44//42 47//45 
f 48//46 46//44 49//47 
f 50//48 48//46 51//49 
f 52//50 50//48 53//51 
f 54//52 52//50 55//53 
f 56//54 54//52 57//55 
f 58//56 56//54 59//57 
f 2//2 58//56 60//56 
f 60//56 3//2 2//2 
f 59//57 60//56 58//56 
f 57//55 59//57 56//54 
f 55//53 57//55 54//52 
f 53//51 55//53 52//50 
f 51//49 53//51 50//48 
f 49//47 51//49 48//46 
f 47//45 49//47 46//44 
f 45//43 47//45 44//42 
f 43//41 45//43 42//40 
f 41//39 43//41 40//38 
f 39//37 41//39 38//36 
f 37//35 39//37 36//34 
f 35//33 37//35 34//32 
f 32//30 35//33 30//29 
f 29//28 33//31 28//27 
f 27//26 29//28 26//25 
f 25//24 27//26 24//23 
f 23//22 25//24 22//21 
f 21//20 23//22 20//19 
f 19//18 21//20 18//17 
f 17//16 19//18 16//15 
f 15//14 17//16 14//13 
f 13//12 15//14 12//11 
f 11//10 13//12 10//9 
f 9//8 11//10 8//7 
f 7//6 9//8 6//5 
f 5//4 7//6 4//3 
f 3//2 5//4 1//1 
o mesh1
f 331//58 61//58 62//58 
f 332//58 63//58 61//58 
f 61//58 331//58 332//58 
f 331//58 64//58 65//58 
f 332//58 66//58 63//58 
f 332//58 67//58 68//58 
f 332//58 69//58 70//58 
f 333//58 331//58 71//58 
f 331//58 72//58 73//58 
f 62//58 64//58 331//58 
f 70//58 67//58 332//58 
f 333//58 74//58 75//58 
f 73//58 71//58 331//58 
f 68//58 66//58 332//58 
f 334//58 76//58 77//58 
f 334//58 78//58 79//58 
f 334//58 80//58 81//58 
f 333//58 82//58 80//58 
f 333//58 83//58 74//58 
f 333//58 84//58 85//58 
f 65//58 72//58 331//58 
f 77//58 332//58 334//58 
f 81//58 78//58 334//58 
f 333//58 86//58 82//58 
f 85//58 83//58 333//58 
f 77//58 69//58 332//58 
f 334//58 87//58 88//58 
f 334//58 89//58 90//58 
f 80//58 334//58 333//58 
f 71//58 84//58 333//58 
f 90//58 87//58 334//58 
f 75//58 86//58 333//58 
f 79//58 89//58 334//58 
f 335//58 331//58 333//58 
f 336//58 337//58 91//58 
f 338//58 92//58 91//58 
f 91//58 337//58 338//58 
f 93//58 335//58 94//58 
f 93//58 95//58 96//58 
f 94//58 97//58 93//58 
f 336//58 98//58 99//58 
f 336//58 100//58 101//58 
f 336//58 102//58 103//58 
f 102//58 93//58 104//58 
f 96//58 105//58 93//58 
f 335//58 106//58 94//58 
f 335//58 107//58 108//58 
f 335//58 109//58 110//58 
f 101//58 98//58 336//58 
f 336//58 111//58 112//58 
f 103//58 113//58 336//58 
f 102//58 114//58 115//58 
f 102//58 116//58 117//58 
f 104//58 118//58 102//58 
f 97//58 95//58 93//58 
f 110//58 107//58 335//58 
f 112//58 100//58 336//58 
f 115//58 103//58 102//58 
f 102//58 119//58 120//58 
f 118//58 116//58 102//58 
f 93//58 121//58 122//58 
f 108//58 106//58 335//58 
f 336//58 123//58 124//58 
f 113//58 111//58 336//58 
f 117//58 119//58 102//58 
f 105//58 121//58 93//58 
f 124//58 335//58 336//58 
f 120//58 114//58 102//58 
f 124//58 109//58 335//58 
f 122//58 104//58 93//58 
f 125//58 335//58 126//58 
f 93//58 127//58 126//58 
f 126//58 335//58 93//58 
f 331//58 335//58 128//58 
f 125//58 129//58 128//58 
f 128//58 335//58 125//58 
f 130//58 131//58 332//58 
f 132//58 332//58 133//58 
f 131//58 134//58 133//58 
f 133//58 332//58 131//58 
f 334//58 135//58 136//58 
f 137//58 136//58 135//58 
f 135//58 138//58 137//58 
f 332//58 139//58 135//58 
f 135//58 334//58 332//58 
f 132//58 140//58 139//58 
f 139//58 332//58 132//58 
f 334//58 141//58 142//58 
f 333//58 334//58 143//58 
f 144//58 337//58 51//58 
f 337//58 57//58 55//58 
f 337//58 53//58 51//58 
f 337//58 59//58 57//58 
f 144//58 47//58 45//58 
f 55//58 53//58 337//58 
f 337//58 3//58 60//58 
f 145//58 21//58 19//58 
f 145//58 144//58 35//58 
f 144//58 49//58 47//58 
f 60//58 59//58 337//58 
f 336//58 5//58 3//58 
f 336//58 9//58 7//58 
f 336//58 13//58 11//58 
f 336//58 17//58 15//58 
f 145//58 23//58 21//58 
f 144//58 37//58 35//58 
f 51//58 49//58 144//58 
f 7//58 5//58 336//58 
f 15//58 13//58 336//58 
f 19//58 336//58 145//58 
f 144//58 39//58 37//58 
f 144//58 43//58 41//58 
f 3//58 337//58 336//58 
f 19//58 17//58 336//58 
f 145//58 32//58 33//58 
f 41//58 39//58 144//58 
f 11//58 9//58 336//58 
f 145//58 27//58 25//58 
f 33//58 29//58 145//58 
f 45//58 43//58 144//58 
f 29//58 27//58 145//58 
f 25//58 23//58 145//58 
f 333//58 146//58 145//58 
f 145//58 336//58 333//58 
f 339//58 147//58 148//58 
f 339//58 149//58 150//58 
f 339//58 337//58 151//58 
f 152//58 153//58 154//58 
f 339//58 155//58 147//58 
f 151//58 149//58 339//58 
f 337//58 156//58 157//58 
f 144//58 158//58 159//58 
f 144//58 160//58 161//58 
f 144//58 154//58 162//58 
f 152//58 163//58 153//58 
f 152//58 164//58 165//58 
f 152//58 166//58 167//58 
f 152//58 339//58 168//58 
f 150//58 155//58 339//58 
f 157//58 169//58 337//58 
f 337//58 170//58 171//58 
f 144//58 172//58 170//58 
f 159//58 173//58 144//58 
f 162//58 160//58 144//58 
f 165//58 163//58 152//58 
f 168//58 166//58 152//58 
f 169//58 151//58 337//58 
f 171//58 174//58 337//58 
f 144//58 175//58 172//58 
f 161//58 158//58 144//58 
f 167//58 164//58 152//58 
f 339//58 176//58 177//58 
f 174//58 156//58 337//58 
f 173//58 175//58 144//58 
f 177//58 168//58 339//58 
f 170//58 337//58 144//58 
f 340//58 339//58 152//58 
f 148//58 176//58 339//58 
f 154//58 144//58 152//58 
f 178//58 179//58 341//58 
f 179//58 180//58 181//58 
f 182//58 183//58 184//58 
f 185//58 184//58 183//58 
f 183//58 186//58 185//58 
f 182//58 187//58 188//58 
f 188//58 183//58 182//58 
f 189//58 188//58 187//58 
f 187//58 190//58 189//58 
f 341//58 181//58 187//58 
f 187//58 182//58 341//58 
f 191//58 340//58 192//58 
f 182//58 193//58 194//58 
f 191//58 195//58 196//58 
f 192//58 197//58 191//58 
f 194//58 341//58 182//58 
f 197//58 195//58 191//58 
f 340//58 198//58 199//58 
f 182//58 200//58 193//58 
f 196//58 201//58 191//58 
f 340//58 202//58 198//58 
f 340//58 203//58 204//58 
f 182//58 205//58 200//58 
f 182//58 206//58 207//58 
f 191//58 208//58 206//58 
f 199//58 192//58 340//58 
f 204//58 209//58 340//58 
f 341//58 210//58 211//58 
f 341//58 212//58 213//58 
f 341//58 214//58 215//58 
f 182//58 216//58 205//58 
f 207//58 217//58 182//58 
f 191//58 218//58 208//58 
f 209//58 202//58 340//58 
f 211//58 340//58 341//58 
f 341//58 219//58 220//58 
f 215//58 212//58 341//58 
f 217//58 216//58 182//58 
f 201//58 218//58 191//58 
f 341//58 221//58 210//58 
f 213//58 219//58 341//58 
f 206//58 182//58 191//58 
f 220//58 221//58 341//58 
f 211//58 203//58 340//58 
f 222//58 339//58 223//58 
f 340//58 191//58 223//58 
f 223//58 339//58 340//58 
f 224//58 225//58 226//58 
f 222//58 227//58 228//58 
f 226//58 229//58 224//58 
f 222//58 230//58 227//58 
f 231//58 222//58 232//58 
f 232//58 226//58 233//58 
f 224//58 234//58 225//58 
f 224//58 235//58 236//58 
f 224//58 237//58 238//58 
f 224//58 339//58 239//58 
f 339//58 222//58 240//58 
f 222//58 231//58 230//58 
f 232//58 241//58 242//58 
f 233//58 243//58 232//58 
f 236//58 234//58 224//58 
f 238//58 244//58 224//58 
f 239//58 245//58 224//58 
f 339//58 246//58 247//58 
f 339//58 248//58 249//58 
f 240//58 250//58 339//58 
f 232//58 242//58 231//58 
f 232//58 251//58 252//58 
f 243//58 253//58 232//58 
f 244//58 235//58 224//58 
f 339//58 254//58 239//58 
f 339//58 255//58 246//58 
f 249//58 256//58 339//58 
f 228//58 240//58 222//58 
f 253//58 251//58 232//58 
f 245//58 237//58 224//58 
f 256//58 255//58 339//58 
f 252//58 241//58 232//58 
f 247//58 254//58 339//58 
f 222//58 257//58 232//58 
f 250//58 248//58 339//58 
f 338//58 337//58 258//58 
f 339//58 224//58 258//58 
f 258//58 337//58 339//58 
f 338//58 259//58 260//58 
f 259//58 261//58 262//58 
f 259//58 263//58 264//58 
f 338//58 265//58 266//58 
f 259//58 267//58 260//58 
f 264//58 261//58 259//58 
f 259//58 268//58 269//58 
f 270//58 271//58 272//58 
f 270//58 273//58 274//58 
f 338//58 275//58 276//58 
f 260//58 265//58 338//58 
f 269//58 263//58 259//58 
f 270//58 277//58 278//58 
f 272//58 279//58 270//58 
f 273//58 280//58 274//58 
f 273//58 281//58 282//58 
f 273//58 338//58 283//58 
f 266//58 275//58 338//58 
f 259//58 278//58 268//58 
f 270//58 284//58 277//58 
f 270//58 285//58 271//58 
f 270//58 286//58 287//58 
f 273//58 288//58 280//58 
f 273//58 289//58 281//58 
f 273//58 290//58 291//58 
f 276//58 283//58 338//58 
f 278//58 259//58 270//58 
f 287//58 285//58 270//58 
f 282//58 288//58 273//58 
f 283//58 290//58 273//58 
f 279//58 284//58 270//58 
f 291//58 289//58 273//58 
f 274//58 286//58 270//58 
f 292//58 293//58 259//58 
f 259//58 338//58 292//58 
f 338//58 294//58 295//58 
f 338//58 296//58 294//58 
f 273//58 297//58 296//58 
f 298//58 299//58 300//58 
f 338//58 301//58 302//58 
f 295//58 303//58 338//58 
f 273//58 304//58 297//58 
f 273//58 305//58 306//58 
f 273//58 307//58 308//58 
f 309//58 298//58 310//58 
f 300//58 311//58 298//58 
f 302//58 298//58 338//58 
f 296//58 338//58 273//58 
f 308//58 305//58 273//58 
f 273//58 312//58 313//58 
f 309//58 314//58 315//58 
f 309//58 316//58 317//58 
f 298//58 318//58 310//58 
f 298//58 319//58 299//58 
f 303//58 301//58 338//58 
f 313//58 307//58 273//58 
f 309//58 320//58 312//58 
f 309//58 321//58 322//58 
f 317//58 314//58 309//58 
f 311//58 318//58 298//58 
f 298//58 323//58 324//58 
f 306//58 304//58 273//58 
f 309//58 325//58 320//58 
f 315//58 321//58 309//58 
f 324//58 319//58 298//58 
f 312//58 273//58 309//58 
f 310//58 316//58 309//58 
f 92//58 338//58 298//58 
f 322//58 325//58 309//58 
f 302//58 323//58 298//58 
f 298//58 326//58 92//58 
f 262//58 267//58 259//58 
f 258//58 292//58 338//58 
f 226//58 232//58 229//58 
f 223//58 327//58 222//58 
f 194//58 214//58 341//58 
f 184//58 328//58 182//58 
f 181//58 341//58 179//58 
f 341//58 340//58 178//58 
f 152//58 178//58 340//58 
f 35//58 32//58 145//58 
f 143//58 146//58 333//58 
f 142//58 143//58 334//58 
f 136//58 141//58 334//58 
f 133//58 329//58 132//58 
f 332//58 331//58 130//58 
f 128//58 130//58 331//58 
f 126//58 330//58 125//58 
f 99//58 123//58 336//58 
f 91//58 102//58 336//58 
f 333//58 336//58 335//58 
f 88//58 76//58 334//58 
o mesh2
f 612//59 613//59 614//59 
f 615//59 616//59 342//59 
f 617//59 615//59 343//59 
f 342//59 344//59 615//59 
f 616//59 345//59 346//59 
f 343//59 347//59 617//59 
f 615//59 348//59 349//59 
f 615//59 350//59 351//59 
f 346//59 342//59 616//59 
f 616//59 352//59 353//59 
f 614//59 354//59 355//59 
f 614//59 617//59 356//59 
f 617//59 357//59 358//59 
f 617//59 359//59 360//59 
f 347//59 361//59 617//59 
f 351//59 348//59 615//59 
f 353//59 345//59 616//59 
f 616//59 362//59 363//59 
f 614//59 364//59 362//59 
f 614//59 365//59 366//59 
f 355//59 367//59 614//59 
f 356//59 368//59 614//59 
f 360//59 357//59 617//59 
f 617//59 369//59 370//59 
f 615//59 371//59 343//59 
f 344//59 350//59 615//59 
f 362//59 616//59 614//59 
f 367//59 365//59 614//59 
f 358//59 356//59 617//59 
f 361//59 369//59 617//59 
f 363//59 352//59 616//59 
f 368//59 354//59 614//59 
f 349//59 371//59 615//59 
f 370//59 359//59 617//59 
f 372//59 373//59 374//59 
f 613//59 612//59 375//59 
f 612//59 376//59 377//59 
f 612//59 378//59 379//59 
f 374//59 612//59 372//59 
f 375//59 380//59 613//59 
f 379//59 376//59 612//59 
f 372//59 381//59 373//59 
f 372//59 382//59 383//59 
f 380//59 384//59 613//59 
f 374//59 378//59 612//59 
f 372//59 385//59 382//59 
f 386//59 387//59 388//59 
f 613//59 389//59 390//59 
f 613//59 391//59 392//59 
f 612//59 393//59 375//59 
f 383//59 381//59 372//59 
f 372//59 394//59 395//59 
f 388//59 396//59 386//59 
f 386//59 397//59 398//59 
f 386//59 390//59 399//59 
f 613//59 400//59 389//59 
f 384//59 391//59 613//59 
f 395//59 385//59 372//59 
f 398//59 387//59 386//59 
f 390//59 386//59 613//59 
f 613//59 401//59 402//59 
f 377//59 393//59 612//59 
f 399//59 397//59 386//59 
f 392//59 401//59 613//59 
f 402//59 400//59 613//59 
f 386//59 403//59 394//59 
f 394//59 372//59 386//59 
f 618//59 619//59 404//59 
f 613//59 386//59 404//59 
f 404//59 619//59 613//59 
f 618//59 405//59 406//59 
f 407//59 618//59 408//59 
f 406//59 409//59 618//59 
f 618//59 410//59 411//59 
f 410//59 412//59 413//59 
f 410//59 414//59 415//59 
f 408//59 416//59 407//59 
f 618//59 417//59 405//59 
f 413//59 411//59 410//59 
f 410//59 418//59 414//59 
f 419//59 420//59 421//59 
f 407//59 422//59 423//59 
f 407//59 424//59 425//59 
f 409//59 408//59 618//59 
f 410//59 426//59 412//59 
f 415//59 427//59 410//59 
f 421//59 410//59 419//59 
f 407//59 428//59 429//59 
f 425//59 422//59 407//59 
f 411//59 417//59 618//59 
f 421//59 418//59 410//59 
f 419//59 430//59 431//59 
f 419//59 432//59 433//59 
f 423//59 428//59 407//59 
f 427//59 426//59 410//59 
f 433//59 430//59 419//59 
f 419//59 434//59 435//59 
f 416//59 424//59 407//59 
f 435//59 432//59 419//59 
f 419//59 407//59 436//59 
f 431//59 420//59 419//59 
f 429//59 436//59 407//59 
f 419//59 437//59 434//59 
f 438//59 439//59 410//59 
f 410//59 618//59 438//59 
f 440//59 441//59 442//59 
f 442//59 443//59 440//59 
f 618//59 444//59 441//59 
f 440//59 445//59 446//59 
f 441//59 440//59 618//59 
f 443//59 445//59 440//59 
f 618//59 447//59 448//59 
f 440//59 449//59 450//59 
f 448//59 444//59 618//59 
f 446//59 449//59 440//59 
f 618//59 451//59 452//59 
f 452//59 447//59 618//59 
f 453//59 454//59 455//59 
f 453//59 440//59 456//59 
f 450//59 457//59 440//59 
f 407//59 458//59 451//59 
f 453//59 459//59 454//59 
f 456//59 460//59 453//59 
f 451//59 618//59 407//59 
f 453//59 461//59 462//59 
f 453//59 463//59 464//59 
f 455//59 465//59 453//59 
f 457//59 456//59 440//59 
f 407//59 466//59 467//59 
f 407//59 468//59 469//59 
f 462//59 407//59 453//59 
f 465//59 463//59 453//59 
f 467//59 458//59 407//59 
f 469//59 470//59 407//59 
f 462//59 471//59 407//59 
f 460//59 459//59 453//59 
f 471//59 468//59 407//59 
f 472//59 618//59 440//59 
f 470//59 466//59 407//59 
f 464//59 461//59 453//59 
f 620//59 619//59 473//59 
f 618//59 472//59 473//59 
f 473//59 619//59 618//59 
f 474//59 475//59 476//59 
f 620//59 477//59 475//59 
f 620//59 478//59 479//59 
f 480//59 481//59 482//59 
f 476//59 483//59 474//59 
f 479//59 477//59 620//59 
f 480//59 484//59 481//59 
f 480//59 474//59 485//59 
f 474//59 486//59 487//59 
f 483//59 488//59 474//59 
f 620//59 489//59 478//59 
f 480//59 490//59 484//59 
f 485//59 491//59 480//59 
f 488//59 486//59 474//59 
f 620//59 492//59 489//59 
f 620//59 493//59 494//59 
f 495//59 480//59 496//59 
f 491//59 490//59 480//59 
f 475//59 474//59 620//59 
f 494//59 497//59 620//59 
f 495//59 498//59 499//59 
f 482//59 496//59 480//59 
f 497//59 492//59 620//59 
f 499//59 620//59 495//59 
f 495//59 500//59 501//59 
f 495//59 502//59 503//59 
f 487//59 485//59 474//59 
f 495//59 504//59 498//59 
f 495//59 505//59 500//59 
f 495//59 506//59 502//59 
f 499//59 493//59 620//59 
f 503//59 505//59 495//59 
f 507//59 620//59 474//59 
f 501//59 504//59 495//59 
f 496//59 506//59 495//59 
f 621//59 620//59 508//59 
f 507//59 509//59 508//59 
f 508//59 620//59 507//59 
f 510//59 622//59 511//59 
f 622//59 512//59 513//59 
f 513//59 511//59 622//59 
f 622//59 514//59 512//59 
f 511//59 515//59 510//59 
f 515//59 516//59 510//59 
f 622//59 517//59 514//59 
f 518//59 519//59 520//59 
f 622//59 521//59 517//59 
f 518//59 522//59 519//59 
f 518//59 523//59 524//59 
f 510//59 525//59 526//59 
f 516//59 527//59 510//59 
f 622//59 528//59 529//59 
f 622//59 621//59 530//59 
f 524//59 522//59 518//59 
f 518//59 510//59 531//59 
f 510//59 532//59 525//59 
f 529//59 521//59 622//59 
f 621//59 533//59 530//59 
f 518//59 534//59 523//59 
f 531//59 535//59 518//59 
f 527//59 532//59 510//59 
f 530//59 536//59 622//59 
f 621//59 537//59 538//59 
f 621//59 520//59 539//59 
f 535//59 534//59 518//59 
f 536//59 528//59 622//59 
f 621//59 540//59 537//59 
f 539//59 541//59 621//59 
f 526//59 531//59 510//59 
f 541//59 540//59 621//59 
f 538//59 533//59 621//59 
f 622//59 542//59 543//59 
f 544//59 543//59 542//59 
f 542//59 545//59 544//59 
f 622//59 546//59 547//59 
f 547//59 542//59 622//59 
f 548//59 547//59 546//59 
f 546//59 549//59 548//59 
f 510//59 550//59 546//59 
f 546//59 622//59 510//59 
f 551//59 622//59 552//59 
f 553//59 621//59 622//59 
f 554//59 555//59 556//59 
f 556//59 557//59 554//59 
f 557//59 558//59 554//59 
f 554//59 559//59 560//59 
f 555//59 561//59 556//59 
f 554//59 562//59 563//59 
f 554//59 564//59 565//59 
f 558//59 559//59 554//59 
f 555//59 566//59 567//59 
f 565//59 562//59 554//59 
f 567//59 561//59 555//59 
f 555//59 568//59 569//59 
f 560//59 564//59 554//59 
f 555//59 570//59 568//59 
f 620//59 563//59 571//59 
f 569//59 566//59 555//59 
f 555//59 619//59 572//59 
f 619//59 573//59 574//59 
f 619//59 575//59 576//59 
f 620//59 577//59 578//59 
f 620//59 579//59 580//59 
f 620//59 581//59 582//59 
f 563//59 620//59 554//59 
f 572//59 583//59 555//59 
f 619//59 584//59 573//59 
f 619//59 578//59 575//59 
f 580//59 577//59 620//59 
f 582//59 585//59 620//59 
f 583//59 570//59 555//59 
f 576//59 584//59 619//59 
f 585//59 579//59 620//59 
f 574//59 572//59 619//59 
f 571//59 581//59 620//59 
f 621//59 553//59 554//59 
f 554//59 620//59 621//59 
f 586//59 31//59 30//59 
f 586//59 28//59 31//59 
f 30//59 555//59 586//59 
f 619//59 50//59 52//59 
f 555//59 46//59 48//59 
f 586//59 26//59 28//59 
f 52//59 54//59 619//59 
f 48//59 619//59 555//59 
f 30//59 34//59 555//59 
f 586//59 613//59 16//59 
f 619//59 56//59 58//59 
f 48//59 50//59 619//59 
f 555//59 40//59 42//59 
f 555//59 36//59 38//59 
f 586//59 24//59 26//59 
f 16//59 18//59 586//59 
f 613//59 10//59 12//59 
f 613//59 6//59 8//59 
f 54//59 56//59 619//59 
f 42//59 44//59 555//59 
f 34//59 36//59 555//59 
f 586//59 20//59 22//59 
f 613//59 14//59 16//59 
f 8//59 10//59 613//59 
f 613//59 1//59 4//59 
f 613//59 619//59 2//59 
f 44//59 46//59 555//59 
f 22//59 24//59 586//59 
f 12//59 14//59 613//59 
f 2//59 1//59 613//59 
f 38//59 40//59 555//59 
f 4//59 6//59 613//59 
f 614//59 613//59 586//59 
f 18//59 20//59 586//59 
f 58//59 2//59 619//59 
f 614//59 587//59 588//59 
f 617//59 588//59 589//59 
f 590//59 615//59 591//59 
f 615//59 592//59 593//59 
f 593//59 591//59 615//59 
f 594//59 593//59 592//59 
f 592//59 595//59 594//59 
f 617//59 596//59 592//59 
f 592//59 615//59 617//59 
f 597//59 615//59 598//59 
f 590//59 599//59 598//59 
f 598//59 615//59 590//59 
f 600//59 616//59 615//59 
f 601//59 612//59 602//59 
f 616//59 600//59 602//59 
f 602//59 612//59 616//59 
f 372//59 612//59 603//59 
f 601//59 604//59 603//59 
f 603//59 612//59 601//59 
f 603//59 605//59 372//59 
f 602//59 606//59 601//59 
f 615//59 597//59 600//59 
f 598//59 607//59 597//59 
f 591//59 608//59 590//59 
f 589//59 596//59 617//59 
f 588//59 617//59 614//59 
f 586//59 587//59 614//59 
f 578//59 619//59 620//59 
f 622//59 551//59 553//59 
f 552//59 609//59 551//59 
f 543//59 552//59 622//59 
f 520//59 621//59 518//59 
f 508//59 518//59 621//59 
f 474//59 610//59 507//59 
f 473//59 495//59 620//59 
f 440//59 611//59 472//59 
f 436//59 437//59 419//59 
f 404//59 438//59 618//59 
f 396//59 403//59 386//59 
f 366//59 364//59 614//59 
f 614//59 616//59 612//59 
o mesh3
f 259//60 293//60 611//60 
f 611//60 440//60 259//60 
o mesh4
f 232//61 474//61 480//61 
f 480//61 229//61 232//61 
o mesh5
f 137//62 138//62 594//62 
f 594//62 595//62 137//62 
o mesh6
f 132//62 590//62 608//62 
f 599//62 590//62 132//62 
f 132//62 329//62 599//62 
f 608//62 140//62 132//62 
o mesh7
f 145//61 146//61 587//61 
f 588//61 587//61 146//61 
f 146//61 143//61 588//61 
f 589//61 588//61 143//61 
f 143//61 142//61 589//61 
f 587//61 586//61 145//61 
o mesh8
f 551//63 609//63 180//63 
f 553//63 551//63 179//63 
f 179//63 178//63 553//63 
f 554//63 553//63 178//63 
f 178//63 152//63 554//63 
f 180//63 179//63 551//63 
o mesh9
f 186//62 548//62 549//62 
f 549//62 185//62 186//62 
o mesh10
f 190//62 544//62 545//62 
f 545//62 189//62 190//62 
o mesh11
f 597//63 607//63 134//63 
f 600//63 597//63 131//63 
f 131//63 130//63 600//63 
f 602//63 600//63 130//63 
f 130//63 128//63 602//63 
f 134//63 131//63 597//63 
o mesh12
f 257//64 222//64 507//64 
f 509//64 507//64 222//64 
f 222//64 327//64 509//64 
f 507//64 610//64 257//64 
o mesh13
f 129//63 125//63 601//63 
f 604//63 601//63 125//63 
f 125//63 330//63 604//63 
f 601//63 606//63 129//63 
o mesh14
f 298//65 410//65 439//65 
f 439//65 326//65 298//65 
o mesh15
f 152//66 144//66 555//66 
f 586//66 555//66 144//66 
f 144//66 145//66 586//66 
f 555//66 554//66 152//66 
o mesh16
f 259//67 440//67 453//67 
f 453//67 270//67 259//67 
o mesh17
f 309//68 273//68 407//68 
f 453//68 407//68 273//68 
f 273//68 270//68 453//68 
f 407//68 419//68 309//68 
o mesh18
f 309//69 419//69 410//69 
f 410//69 298//69 309//69 
o mesh19
f 602//70 128//70 129//70 
f 129//70 606//70 602//70 
o mesh20
f 126//69 127//69 605//69 
f 605//69 603//69 126//69 
o mesh21
f 330//71 126//71 603//71 
f 603//71 604//71 330//71 
o mesh22
f 474//71 232//71 257//71 
f 257//71 610//71 474//71 
o mesh23
f 223//72 191//72 518//72 
f 510//72 518//72 191//72 
f 191//72 182//72 510//72 
f 550//72 510//72 182//72 
f 182//72 328//72 550//72 
f 518//72 508//72 223//72 
o mesh24
f 327//73 223//73 508//73 
f 508//73 509//73 327//73 
o mesh25
f 133//73 134//73 607//73 
f 607//73 598//73 133//73 
o mesh26
f 329//74 133//74 598//74 
f 598//74 599//74 329//74 
o mesh27
f 592//75 136//75 137//75 
f 137//75 595//75 592//75 
o mesh28
f 142//76 141//76 596//76 
f 592//76 596//76 141//76 
f 141//76 136//76 592//76 
f 596//76 589//76 142//76 
o mesh29
f 187//76 181//76 552//76 
f 609//76 552//76 181//76 
f 181//76 180//76 609//76 
f 552//76 543//76 187//76 
o mesh30
f 190//77 187//77 543//77 
f 543//77 544//77 190//77 
o mesh31
f 542//78 188//78 189//78 
f 189//78 545//78 542//78 
o mesh32
f 183//79 188//79 542//79 
f 542//79 547//79 183//79 
o mesh33
f 186//80 183//80 547//80 
f 547//80 548//80 186//80 
o mesh34
f 591//81 139//81 140//81 
f 140//81 608//81 591//81 
o mesh35
f 135//82 139//82 591//82 
f 591//82 593//82 135//82 
o mesh36
f 138//83 135//83 593//83 
f 593//83 594//83 138//83 
o mesh37
f 546//84 184//84 185//84 
f 185//84 549//84 546//84 
o mesh38
f 328//85 184//85 546//85 
f 546//85 550//85 328//85 
o mesh39
f 258//86 224//86 495//86 
f 480//86 495//86 224//86 
f 224//86 229//86 480//86 
f 495//86 473//86 258//86 
o mesh40
f 293//87 292//87 472//87 
f 473//87 472//87 292//87 
f 292//87 258//87 473//87 
f 472//87 611//87 293//87 
o mesh41
f 439//88 438//88 92//88 
f 91//88 92//88 438//88 
f 438//88 404//88 91//88 
f 92//88 326//88 439//88 
o mesh42
f 372//89 605//89 127//89 
f 386//89 372//89 93//89 
f 93//89 102//89 386//89 
f 404//89 386//89 102//89 
f 102//89 91//89 404//89 
f 127//89 93//89 372//89 
o mesh43
f 434//90 437//91 320//91 
f 435//92 434//90 325//93 
f 432//94 435//92 322//95 
f 433//96 432//94 321//97 
f 430//98 433//96 315//99 
f 431//100 430//98 314//101 
f 420//102 431//100 317//103 
f 421//104 420//102 316//105 
f 418//106 421//104 310//107 
f 414//108 418//106 318//109 
f 415//110 414//108 311//111 
f 427//112 415//110 300//113 
f 426//114 427//112 299//115 
f 412//116 426//114 319//117 
f 411//118 413//119 323//119 
f 324//120 323//119 413//119 
f 413//119 412//116 324//120 
f 417//121 411//118 302//122 
f 405//123 417//121 301//124 
f 406//125 405//123 303//126 
f 409//127 406//125 295//128 
f 408//129 409//127 294//130 
f 416//131 408//129 296//132 
f 424//133 416//131 297//134 
f 425//135 424//133 304//136 
f 422//137 425//135 306//138 
f 423//139 422//137 305//140 
f 428//141 423//139 308//142 
f 429//143 428//141 307//144 
f 436//145 429//143 313//146 
f 437//91 436//145 312//145 
f 312//145 320//91 437//91 
f 313//146 312//145 436//145 
f 307//144 313//146 429//143 
f 308//142 307//144 428//141 
f 305//140 308//142 423//139 
f 306//138 305//140 422//137 
f 304//136 306//138 425//135 
f 297//134 304//136 424//133 
f 296//132 297//134 416//131 
f 294//130 296//132 408//129 
f 295//128 294//130 409//127 
f 303//126 295//128 406//125 
f 301//124 303//126 405//123 
f 302//122 301//124 417//121 
f 323//119 302//122 411//118 
f 319//117 324//120 412//116 
f 299//115 319//117 426//114 
f 300//113 299//115 427//112 
f 311//111 300//113 415//110 
f 318//109 311//111 414//108 
f 310//107 318//109 418//106 
f 316//105 310//107 421//104 
f 317//103 316//105 420//102 
f 314//101 317//103 431//100 
f 315//99 314//101 430//98 
f 321//97 315//99 433//96 
f 322//95 321//97 432//94 
f 325//93 322//95 435//92 
f 320//91 325//93 434//90 
o mesh44
f 462//147 461//148 286//148 
f 471//149 462//147 274//150 
f 468//151 471//149 280//152 
f 469//153 468//151 288//154 
f 470//155 469//153 282//156 
f 466//157 470//155 281//158 
f 467//159 466//157 289//160 
f 458//161 467//159 291//162 
f 451//163 458//161 290//164 
f 452//165 451//163 283//166 
f 447//167 452//165 276//168 
f 448//169 447//167 275//170 
f 444//171 448//169 266//172 
f 441//173 444//171 265//174 
f 443//175 442//176 267//176 
f 260//177 267//176 442//176 
f 442//176 441//173 260//177 
f 445//178 443//175 262//179 
f 446//180 445//178 261//181 
f 449//182 446//180 264//183 
f 450//184 449//182 263//185 
f 457//186 450//184 269//187 
f 456//188 457//186 268//189 
f 460//190 456//188 278//191 
f 459//192 460//190 277//193 
f 454//194 459//192 284//195 
f 455//196 454//194 279//197 
f 465//198 455//196 272//199 
f 463//200 465//198 271//201 
f 464//202 463//200 285//203 
f 461//148 464//202 287//202 
f 287//202 286//148 461//148 
f 285//203 287//202 464//202 
f 271//201 285//203 463//200 
f 272//199 271//201 465//198 
f 279//197 272//199 455//196 
f 284//195 279//197 454//194 
f 277//193 284//195 459//192 
f 278//191 277//193 460//190 
f 268//189 278//191 456//188 
f 269//187 268//189 457//186 
f 263//185 269//187 450//184 
f 264//183 263//185 449//182 
f 261//181 264//183 446//180 
f 262//179 261//181 445//178 
f 267//176 262//179 443//175 
f 265//174 260//177 441//173 
f 266//172 265//174 444//171 
f 275//170 266//172 448//169 
f 276//168 275//170 447//167 
f 283//166 276//168 452//165 
f 290//164 283//166 451//163 
f 291//162 290//164 458//161 
f 289//160 291//162 467//159 
f 281//158 289//160 466//157 
f 282//156 281//158 470//155 
f 288//154 282//156 469//153 
f 280//152 288//154 468//151 
f 274//150 280//152 471//149 
f 286//148 274//150 462//147 
o mesh45
f 575//204 578//205 151//205 
f 576//206 575//204 169//207 
f 584//208 576//206 157//209 
f 573//210 584//208 156//211 
f 574//212 573//210 174//213 
f 572//214 574//212 171//215 
f 583//216 572//214 170//217 
f 570//218 583//216 172//219 
f 568//220 570//218 175//221 
f 569//222 568//220 173//223 
f 566//224 569//222 159//225 
f 567//226 566//224 158//227 
f 561//228 567//226 161//229 
f 556//230 561//228 160//231 
f 558//232 557//233 154//233 
f 162//234 154//233 557//233 
f 557//233 556//230 162//234 
f 559//235 558//232 153//236 
f 560//237 559//235 163//238 
f 564//239 560//237 165//240 
f 565//241 564//239 164//242 
f 562//243 565//241 167//244 
f 563//245 562//243 166//246 
f 571//247 563//245 168//248 
f 581//249 571//247 177//250 
f 582//251 581//249 176//252 
f 585//253 582//251 148//254 
f 579//255 585//253 147//256 
f 580//257 579//255 155//258 
f 577//259 580//257 150//260 
f 578//205 577//259 149//259 
f 149//259 151//205 578//205 
f 150//260 149//259 577//259 
f 155//258 150//260 580//257 
f 147//256 155//258 579//255 
f 148//254 147//256 585//253 
f 176//252 148//254 582//251 
f 177//250 176//252 581//249 
f 168//248 177//250 571//247 
f 166//246 168//248 563//245 
f 167//244 166//246 562//243 
f 164//242 167//244 565//241 
f 165//240 164//242 564//239 
f 163//238 165//240 560//237 
f 153//236 163//238 559//235 
f 154//233 153//236 558//232 
f 160//231 162//234 556//230 
f 161//229 160//231 561//228 
f 158//227 161//229 567//226 
f 159//225 158//227 566//224 
f 173//223 159//225 569//222 
f 175//221 173//223 568//220 
f 172//219 175//221 570//218 
f 170//217 172//219 583//216 
f 171//215 170//217 572//214 
f 174//213 171//215 574//212 
f 156//211 174//213 573//210 
f 157//209 156//211 584//208 
f 169//207 157//209 576//206 
f 151//205 169//207 575//204 
o mesh46
f 113//261 103//262 390//262 
f 111//263 113//261 389//264 
f 112//265 111//263 400//266 
f 100//267 112//265 402//268 
f 101//269 100//267 401//270 
f 98//271 101//269 392//272 
f 99//273 98//271 391//274 
f 124//275 123//276 380//276 
f 384//277 380//276 123//276 
f 123//276 99//273 384//277 
f 109//278 124//275 375//279 
f 110//280 109//278 393//281 
f 107//282 110//280 377//283 
f 108//284 107//282 376//285 
f 106//286 108//284 379//287 
f 94//288 106//286 378//289 
f 97//290 94//288 374//291 
f 95//292 97//290 373//293 
f 96//294 95//292 381//295 
f 105//296 96//294 383//297 
f 121//298 105//296 382//299 
f 122//300 121//298 385//301 
f 104//302 122//300 395//303 
f 118//304 104//302 394//305 
f 116//306 118//304 403//307 
f 117//308 116//306 396//309 
f 119//310 117//308 388//311 
f 120//312 119//310 387//313 
f 114//314 120//312 398//315 
f 115//316 114//314 397//317 
f 103//262 115//316 399//316 
f 399//316 390//262 103//262 
f 397//317 399//316 115//316 
f 398//315 397//317 114//314 
f 387//313 398//315 120//312 
f 388//311 387//313 119//310 
f 396//309 388//311 117//308 
f 403//307 396//309 116//306 
f 394//305 403//307 118//304 
f 395//303 394//305 104//302 
f 385//301 395//303 122//300 
f 382//299 385//301 121//298 
f 383//297 382//299 105//296 
f 381//295 383//297 96//294 
f 373//293 381//295 95//292 
f 374//291 373//293 97//290 
f 378//289 374//291 94//288 
f 379//287 378//289 106//286 
f 376//285 379//287 108//284 
f 377//283 376//285 107//282 
f 393//281 377//283 110//280 
f 375//279 393//281 109//278 
f 380//276 375//279 124//275 
f 391//274 384//277 99//273 
f 392//272 391//274 98//271 
f 401//270 392//272 101//269 
f 402//268 401//270 100//267 
f 400//266 402//268 112//265 
f 389//264 400//266 111//263 
f 390//262 389//264 113//261 
o mesh47
f 242//318 241//319 485//319 
f 231//320 242//318 487//321 
f 230//322 231//320 486//323 
f 227//324 230//322 488//325 
f 228//326 227//324 483//327 
f 240//328 228//326 476//329 
f 250//330 240//328 475//331 
f 249//332 248//333 479//333 
f 477//334 479//333 248//333 
f 248//333 250//330 477//334 
f 256//335 249//332 478//336 
f 255//337 256//335 489//338 
f 246//339 255//337 492//340 
f 247//341 246//339 497//342 
f 254//343 247//341 494//344 
f 239//345 254//343 493//346 
f 245//347 239//345 499//348 
f 237//349 245//347 498//350 
f 238//351 237//349 504//352 
f 244//353 238//351 501//354 
f 235//355 244//353 500//356 
f 236//357 235//355 505//358 
f 234//359 236//357 503//360 
f 225//361 234//359 502//362 
f 226//363 225//361 506//364 
f 233//365 226//363 496//366 
f 243//367 233//365 482//368 
f 253//369 243//367 481//370 
f 251//371 253//369 484//372 
f 252//373 251//371 490//374 
f 241//319 252//373 491//373 
f 491//373 485//319 241//319 
f 490//374 491//373 252//373 
f 484//372 490//374 251//371 
f 481//370 484//372 253//369 
f 482//368 481//370 243//367 
f 496//366 482//368 233//365 
f 506//364 496//366 226//363 
f 502//362 506//364 225//361 
f 503//360 502//362 234//359 
f 505//358 503//360 236//357 
f 500//356 505//358 235//355 
f 501//354 500//356 244//353 
f 504//352 501//354 238//351 
f 498//350 504//352 237//349 
f 499//348 498//350 245//347 
f 493//346 499//348 239//345 
f 494//344 493//346 254//343 
f 497//342 494//344 247//341 
f 492//340 497//342 246//339 
f 489//338 492//340 255//337 
f 478//336 489//338 256//335 
f 479//333 478//336 249//332 
f 475//331 477//334 250//330 
f 476//329 475//331 240//328 
f 483//327 476//329 228//326 
f 488//325 483//327 227//324 
f 486//323 488//325 230//322 
f 487//321 486//323 231//320 
f 485//319 487//321 242//318 
o mesh48
f 207//375 206//376 531//376 
f 217//377 207//375 526//378 
f 216//379 217//377 525//380 
f 205//381 216//379 532//382 
f 200//383 205//381 527//384 
f 193//385 200//383 516//386 
f 194//387 193//385 515//388 
f 215//389 214//390 513//390 
f 511//391 513//390 214//390 
f 214//390 194//387 511//391 
f 212//392 215//389 512//393 
f 213//394 212//392 514//395 
f 219//396 213//394 517//397 
f 220//398 219//396 521//399 
f 221//400 220//398 529//401 
f 210//402 221//400 528//403 
f 211//404 210//402 536//405 
f 203//406 211//404 530//407 
f 204//408 203//406 533//409 
f 209//410 204//408 538//411 
f 202//412 209//410 537//413 
f 198//414 202//412 540//415 
f 199//416 198//414 541//417 
f 192//418 199//416 539//419 
f 197//420 192//418 520//421 
f 195//422 197//420 519//423 
f 196//424 195//422 522//425 
f 201//426 196//424 524//427 
f 218//428 201//426 523//429 
f 208//430 218//428 534//431 
f 206//376 208//430 535//430 
f 535//430 531//376 206//376 
f 534//431 535//430 208//430 
f 523//429 534//431 218//428 
f 524//427 523//429 201//426 
f 522//425 524//427 196//424 
f 519//423 522//425 195//422 
f 520//421 519//423 197//420 
f 539//419 520//421 192//418 
f 541//417 539//419 199//416 
f 540//415 541//417 198//414 
f 537//413 540//415 202//412 
f 538//411 537//413 209//410 
f 533//409 538//411 204//408 
f 530//407 533//409 203//406 
f 536//405 530//407 211//404 
f 528//403 536//405 210//402 
f 529//401 528//403 221//400 
f 521//399 529//401 220//398 
f 517//397 521//399 219//396 
f 514//395 517//397 213//394 
f 512//393 514//395 212//392 
f 513//390 512//393 215//389 
f 515//388 511//391 194//387 
f 516//386 515//388 193//385 
f 527//384 516//386 200//383 
f 532//382 527//384 205//381 
f 525//380 532//382 216//379 
f 526//378 525//380 217//377 
f 531//376 526//378 207//375 
o mesh49
f 81//432 80//433 356//433 
f 78//434 81//432 358//435 
f 79//436 78//434 357//437 
f 89//438 79//436 360//439 
f 90//440 89//438 359//441 
f 87//442 90//440 370//443 
f 88//444 87//442 369//445 
f 77//446 76//447 347//447 
f 361//448 347//447 76//447 
f 76//447 88//444 361//448 
f 69//449 77//446 343//450 
f 70//451 69//449 371//452 
f 67//453 70//451 349//454 
f 68//455 67//453 348//456 
f 66//457 68//455 351//458 
f 63//459 66//457 350//460 
f 61//461 63//459 344//462 
f 62//463 61//461 342//464 
f 64//465 62//463 346//466 
f 65//467 64//465 345//468 
f 72//469 65//467 353//470 
f 73//471 72//469 352//472 
f 71//473 73//471 363//474 
f 84//475 71//473 362//476 
f 85//477 84//475 364//478 
f 83//479 85//477 366//480 
f 74//481 83//479 365//482 
f 75//483 74//481 367//484 
f 86//485 75//483 355//486 
f 82//487 86//485 354//488 
f 80//433 82//487 368//487 
f 368//487 356//433 80//433 
f 354//488 368//487 82//487 
f 355//486 354//488 86//485 
f 367//484 355//486 75//483 
f 365//482 367//484 74//481 
f 366//480 365//482 83//479 
f 364//478 366//480 85//477 
f 362//476 364//478 84//475 
f 363//474 362//476 71//473 
f 352//472 363//474 73//471 
f 353//470 352//472 72//469 
f 345//468 353//470 65//467 
f 346//466 345//468 64//465 
f 342//464 346//466 62//463 
f 344//462 342//464 61//461 
f 350//460 344//462 63//459 
f 351//458 350//460 66//457 
f 348//456 351//458 68//455 
f 349//454 348//456 67//453 
f 371//452 349//454 70//451 
f 343//450 371//452 69//449 
f 347//447 343//450 77//446 
f 369//445 361//448 88//444 
f 370//443 369//445 87//442 
f 359//441 370//443 90//440 
f 360//439 359//441 89//438 
f 357//437 360//439 79//436 
f 358//435 357//437 78//434 
f 356//433 358//435 81//432 
