# OBJ generated by ONSHAPE BY PTC INC, 1.219 Units = meters
mtllib Assembly 2 - Green PCB.mtl
g Green PCB
v -0.0359039 0.0213122 0 
v -0.035941 0.0216535 0 
v -0.035941 0.0216535 0.01905 
v -0.0357943 0.0209869 0 
v -0.0359039 0.0213122 0.01905 
v -0.0356173 0.0206928 0 
v -0.0357943 0.0209869 0.01905 
v -0.0353812 0.0204436 0 
v -0.0356173 0.0206928 0.01905 
v -0.0350971 0.0202509 0 
v -0.0353812 0.0204436 0.01905 
v -0.0347782 0.0201239 0 
v -0.0350971 0.0202509 0.01905 
v -0.0344394 0.0200683 0 
v -0.0347782 0.0201239 0.01905 
v -0.0340967 0.0200869 0 
v -0.0344394 0.0200683 0.01905 
v -0.0337659 0.0201787 0 
v -0.0340967 0.0200869 0.01905 
v -0.0334626 0.0203395 0 
v -0.0337659 0.0201787 0.01905 
v -0.033201 0.0205618 0 
v -0.0334626 0.0203395 0.01905 
v -0.0329932 0.0208351 0 
v -0.033201 0.0205618 0.01905 
v -0.0328491 0.0211466 0 
v -0.0329932 0.0208351 0.01905 
v -0.0327753 0.0214819 0 
v -0.0328491 0.0211466 0.01905 
v -0.0327753 0.0218251 0 
v -0.032766 0.0216535 0 
v -0.032766 0.0216535 0.01905 
v -0.0327753 0.0214819 0.01905 
v -0.0328491 0.0221604 0 
v -0.0327753 0.0218251 0.01905 
v -0.0329932 0.0224719 0 
v -0.0328491 0.0221604 0.01905 
v -0.033201 0.0227452 0 
v -0.0329932 0.0224719 0.01905 
v -0.0334626 0.0229675 0 
v -0.033201 0.0227452 0.01905 
v -0.0337659 0.0231283 0 
v -0.0334626 0.0229675 0.01905 
v -0.0340967 0.0232201 0 
v -0.0337659 0.0231283 0.01905 
v -0.0344394 0.0232387 0 
v -0.0340967 0.0232201 0.01905 
v -0.0347782 0.0231831 0 
v -0.0344394 0.0232387 0.01905 
v -0.0350971 0.0230561 0 
v -0.0347782 0.0231831 0.01905 
v -0.0353812 0.0228634 0 
v -0.0350971 0.0230561 0.01905 
v -0.0356173 0.0226142 0 
v -0.0353812 0.0228634 0.01905 
v -0.0357943 0.0223201 0 
v -0.0356173 0.0226142 0.01905 
v -0.0359039 0.0219948 0 
v -0.0357943 0.0223201 0.01905 
v -0.0359039 0.0219948 0.01905 
v 0.0381 0.0254 0.01905 
v 0.0359317 0.0214819 0.01905 
v 0.0358579 0.0211466 0.01905 
v 0.035941 0.0216535 0.01905 
v -0.0340967 -0.0200869 0.01905 
v 0.0328031 0.0219948 0.01905 
v -0.0381 0.0254 0.01905 
v 0.0346103 -0.0200869 0.01905 
v 0.035506 0.0205618 0.01905 
v 0.0352444 0.0203395 0.01905 
v 0.0330897 -0.0206928 0.01905 
v 0.0333258 -0.0204436 0.01905 
v -0.0357943 -0.0209869 0.01905 
v -0.0347782 -0.0201239 0.01905 
v -0.0344394 -0.0200683 0.01905 
v -0.0353812 -0.0204436 0.01905 
v -0.0350971 -0.0202509 0.01905 
v -0.0356173 -0.0206928 0.01905 
v 0.0339288 0.0231831 0.01905 
v 0.0333258 0.0228634 0.01905 
v 0.0336099 0.0230561 0.01905 
v 0.0329127 0.0223201 0.01905 
v 0.0330897 0.0226142 0.01905 
v 0.0339288 -0.0201239 0.01905 
v 0.0342676 -0.0200683 0.01905 
v 0.0357138 0.0208351 0.01905 
v 0.0336099 -0.0202509 0.01905 
v -0.033201 -0.0205618 0.01905 
v 0.0329127 -0.0209869 0.01905 
v -0.0327753 -0.0214819 0.01905 
v -0.032766 -0.0216535 0.01905 
v 0.032766 -0.0216535 0.01905 
v -0.0337659 -0.0201787 0.01905 
v 0.0349411 0.0201787 0.01905 
v 0.0349411 0.0231283 0.01905 
v 0.0352444 0.0229675 0.01905 
v 0.0342676 0.0232387 0.01905 
v 0.032766 0.0216535 0.01905 
v 0.0329127 0.0209869 0.01905 
v 0.0328031 0.0213122 0.01905 
v 0.0349411 -0.0201787 0.01905 
v 0.0352444 -0.0203395 0.01905 
v 0.0328031 -0.0213122 0.01905 
v -0.0328491 -0.0211466 0.01905 
v -0.0334626 -0.0203395 0.01905 
v -0.0327753 -0.0218251 0.01905 
v 0.0329127 -0.0223201 0.01905 
v 0.0328031 -0.0219948 0.01905 
v 0.0346103 0.0232201 0.01905 
v -0.0381 -0.0254 0.01905 
v 0.0381 -0.0254 0.01905 
v 0.0358579 -0.0211466 0.01905 
v -0.0329932 -0.0208351 0.01905 
v 0.0346103 0.0200869 0.01905 
v 0.0342676 0.0200683 0.01905 
v -0.0359039 -0.0213122 0.01905 
v 0.0359317 -0.0214819 0.01905 
v 0.035506 -0.0205618 0.01905 
v 0.0357138 -0.0208351 0.01905 
v -0.035941 -0.0216535 0.01905 
v -0.0357943 -0.0223201 0.01905 
v -0.0359039 -0.0219948 0.01905 
v -0.0353812 -0.0228634 0.01905 
v -0.0356173 -0.0226142 0.01905 
v -0.0328491 -0.0221604 0.01905 
v 0.0358579 0.0221604 0.01905 
v 0.0359317 0.0218251 0.01905 
v 0.035506 0.0227452 0.01905 
v 0.0357138 0.0224719 0.01905 
v -0.0350971 -0.0230561 0.01905 
v -0.0337659 -0.0231283 0.01905 
v -0.0340967 -0.0232201 0.01905 
v -0.033201 -0.0227452 0.01905 
v -0.0334626 -0.0229675 0.01905 
v 0.0336099 -0.0230561 0.01905 
v 0.0333258 -0.0228634 0.01905 
v 0.035941 -0.0216535 0.01905 
v 0.0359317 -0.0218251 0.01905 
v -0.0347782 -0.0231831 0.01905 
v -0.0344394 -0.0232387 0.01905 
v -0.0329932 -0.0224719 0.01905 
v 0.0339288 -0.0231831 0.01905 
v 0.0342676 -0.0232387 0.01905 
v 0.0352444 -0.0229675 0.01905 
v 0.0349411 -0.0231283 0.01905 
v 0.0358579 -0.0221604 0.01905 
v 0.0336099 0.0202509 0.01905 
v 0.0333258 0.0204436 0.01905 
v 0.0339288 0.0201239 0.01905 
v 0.0330897 -0.0226142 0.01905 
v 0.0346103 -0.0232201 0.01905 
v 0.035506 -0.0227452 0.01905 
v 0.0357138 -0.0224719 0.01905 
v 0.0330897 0.0206928 0.01905 
v 0.0329127 0.0223201 0 
v 0.0381 0.0254 0 
v 0.0359317 0.0214819 0 
v 0.035941 0.0216535 0 
v 0.0329127 -0.0209869 0 
v -0.0327753 -0.0218251 0 
v -0.032766 -0.0216535 0 
v 0.0358579 0.0221604 0 
v 0.0357138 0.0224719 0 
v 0.0359317 0.0218251 0 
v -0.033201 -0.0205618 0 
v 0.0329127 0.0209869 0 
v 0.0333258 -0.0204436 0 
v 0.0346103 -0.0200869 0 
v 0.0342676 -0.0200683 0 
v 0.0342676 0.0200683 0 
v 0.0339288 -0.0201239 0 
v 0.0330897 0.0206928 0 
v -0.0381 0.0254 0 
v 0.0336099 0.0230561 0 
v 0.0333258 0.0228634 0 
v -0.0328491 -0.0221604 0 
v 0.0357138 0.0208351 0 
v 0.0358579 0.0211466 0 
v 0.0336099 -0.0202509 0 
v 0.0346103 0.0200869 0 
v 0.0333258 0.0204436 0 
v 0.0339288 0.0231831 0 
v 0.0342676 0.0232387 0 
v -0.0328491 -0.0211466 0 
v -0.0329932 -0.0208351 0 
v -0.0327753 -0.0214819 0 
v 0.035506 0.0205618 0 
v 0.0349411 0.0201787 0 
v 0.0339288 0.0201239 0 
v 0.0336099 0.0202509 0 
v 0.0381 -0.0254 0 
v 0.0359317 -0.0218251 0 
v 0.035941 -0.0216535 0 
v 0.0328031 0.0219948 0 
v 0.0330897 0.0226142 0 
v 0.0346103 0.0232201 0 
v 0.035506 0.0227452 0 
v 0.0352444 0.0229675 0 
v -0.033201 -0.0227452 0 
v -0.0329932 -0.0224719 0 
v -0.0340967 -0.0232201 0 
v -0.0337659 -0.0231283 0 
v 0.0352444 0.0203395 0 
v 0.0330897 -0.0206928 0 
v 0.0359317 -0.0214819 0 
v 0.0358579 -0.0211466 0 
v 0.0358579 -0.0221604 0 
v 0.0349411 0.0231283 0 
v -0.0334626 -0.0229675 0 
v 0.0328031 -0.0213122 0 
v -0.0344394 -0.0232387 0 
v 0.035506 -0.0205618 0 
v 0.0352444 -0.0203395 0 
v 0.0357138 -0.0208351 0 
v -0.0350971 -0.0202509 0 
v 0.0328031 0.0213122 0 
v 0.032766 0.0216535 0 
v 0.0349411 -0.0201787 0 
v -0.0381 -0.0254 0 
v 0.0329127 -0.0223201 0 
v 0.0330897 -0.0226142 0 
v -0.0340967 -0.0200869 0 
v -0.0344394 -0.0200683 0 
v -0.0334626 -0.0203395 0 
v 0.032766 -0.0216535 0 
v 0.0357138 -0.0224719 0 
v 0.0346103 -0.0232201 0 
v 0.0349411 -0.0231283 0 
v 0.0339288 -0.0231831 0 
v 0.0333258 -0.0228634 0 
v -0.0353812 -0.0204436 0 
v -0.0347782 -0.0201239 0 
v -0.0337659 -0.0201787 0 
v 0.035506 -0.0227452 0 
v 0.0352444 -0.0229675 0 
v 0.0342676 -0.0232387 0 
v 0.0336099 -0.0230561 0 
v 0.0328031 -0.0219948 0 
v -0.0357943 -0.0223201 0 
v -0.0356173 -0.0226142 0 
v -0.0357943 -0.0209869 0 
v -0.0347782 -0.0231831 0 
v -0.0353812 -0.0228634 0 
v -0.0350971 -0.0230561 0 
v -0.0359039 -0.0213122 0 
v -0.0356173 -0.0206928 0 
v -0.035941 -0.0216535 0 
v -0.0359039 -0.0219948 0 
vn 0.976621 0.21497 0 
vn 1 2.44929e-16 0 
vn 0.907575 0.419889 0 
vn 0.976621 0.21497 0 
vn 0.796093 0.605174 0 
vn 0.907575 0.419889 0 
vn 0.647386 0.762162 0 
vn 0.796093 0.605174 0 
vn 0.468408 0.883512 0 
vn 0.647386 0.762162 0 
vn 0.267528 0.96355 0 
vn 0.468408 0.883512 0 
vn 0.0541389 0.998533 0 
vn 0.267528 0.96355 0 
vn -0.161782 0.986827 0 
vn 0.0541389 0.998533 0 
vn -0.370138 0.928977 0 
vn -0.161782 0.986827 0 
vn -0.561187 0.827689 0 
vn -0.370138 0.928977 0 
vn -0.725995 0.687699 0 
vn -0.561187 0.827689 0 
vn -0.856857 0.515554 0 
vn -0.725995 0.687699 0 
vn -0.947653 0.319302 0 
vn -0.856857 0.515554 0 
vn -0.994138 0.108119 0 
vn -0.947653 0.319302 0 
vn -0.994138 -0.108119 0 
vn -1 -3.67394e-16 0 
vn -0.994138 0.108119 0 
vn -0.947653 -0.319302 0 
vn -0.994138 -0.108119 0 
vn -0.856857 -0.515554 0 
vn -0.947653 -0.319302 0 
vn -0.725995 -0.687699 0 
vn -0.856857 -0.515554 0 
vn -0.561187 -0.827689 0 
vn -0.725995 -0.687699 0 
vn -0.370138 -0.928977 0 
vn -0.561187 -0.827689 0 
vn -0.161782 -0.986827 0 
vn -0.370138 -0.928977 0 
vn 0.0541389 -0.998533 0 
vn -0.161782 -0.986827 0 
vn 0.267528 -0.96355 0 
vn 0.0541389 -0.998533 0 
vn 0.468408 -0.883512 0 
vn 0.267528 -0.96355 0 
vn 0.647386 -0.762162 0 
vn 0.468408 -0.883512 0 
vn 0.796093 -0.605174 0 
vn 0.647386 -0.762162 0 
vn 0.907575 -0.419889 0 
vn 0.796093 -0.605174 0 
vn 0.976621 -0.21497 0 
vn 0.907575 -0.419889 0 
vn 0 0 1 
vn 0 0 -1 
vn 0 1 0 
vn -1 0 0 
vn 0 -1 0 
vn 1 0 0 
vn 0.976621 0.21497 0 
vn 0.907575 0.419889 0 
vn 0.796093 0.605174 0 
vn 0.647386 0.762162 0 
vn 0.468408 0.883512 0 
vn 0.267528 0.96355 0 
vn 0.0541389 0.998533 0 
vn -0.161782 0.986827 0 
vn -0.370138 0.928977 0 
vn -0.561187 0.827689 0 
vn -0.725995 0.687699 0 
vn -0.856857 0.515554 0 
vn -0.947653 0.319302 0 
vn -0.994138 0.108119 0 
vn -0.994138 -0.108119 0 
vn -1 -3.67394e-16 0 
vn -0.994138 0.108119 0 
vn -0.947653 -0.319302 0 
vn -0.994138 -0.108119 0 
vn -0.856857 -0.515554 0 
vn -0.947653 -0.319302 0 
vn -0.725995 -0.687699 0 
vn -0.856857 -0.515554 0 
vn -0.561187 -0.827689 0 
vn -0.725995 -0.687699 0 
vn -0.370138 -0.928977 0 
vn -0.561187 -0.827689 0 
vn -0.161782 -0.986827 0 
vn -0.370138 -0.928977 0 
vn 0.0541389 -0.998533 0 
vn -0.161782 -0.986827 0 
vn 0.267528 -0.96355 0 
vn 0.0541389 -0.998533 0 
vn 0.468408 -0.883512 0 
vn 0.267528 -0.96355 0 
vn 0.647386 -0.762162 0 
vn 0.468408 -0.883512 0 
vn 0.796093 -0.605174 0 
vn 0.647386 -0.762162 0 
vn 0.907575 -0.419889 0 
vn 0.796093 -0.605174 0 
vn 0.976621 -0.21497 0 
vn 0.907575 -0.419889 0 
vn 0.976621 0.21497 0 
vn 1 2.44929e-16 0 
vn 0.907575 0.419889 0 
vn 0.976621 0.21497 0 
vn 0.796093 0.605174 0 
vn 0.907575 0.419889 0 
vn 0.647386 0.762162 0 
vn 0.796093 0.605174 0 
vn 0.468408 0.883512 0 
vn 0.647386 0.762162 0 
vn 0.267528 0.96355 0 
vn 0.468408 0.883512 0 
vn 0.0541389 0.998533 0 
vn 0.267528 0.96355 0 
vn -0.161782 0.986827 0 
vn 0.0541389 0.998533 0 
vn -0.370138 0.928977 0 
vn -0.161782 0.986827 0 
vn -0.561187 0.827689 0 
vn -0.370138 0.928977 0 
vn -0.725995 0.687699 0 
vn -0.561187 0.827689 0 
vn -0.856857 0.515554 0 
vn -0.725995 0.687699 0 
vn -0.947653 0.319302 0 
vn -0.856857 0.515554 0 
vn -0.994138 0.108119 0 
vn -0.947653 0.319302 0 
vn -0.994138 -0.108119 0 
vn -1 -3.67394e-16 0 
vn -0.994138 0.108119 0 
vn -0.947653 -0.319302 0 
vn -0.994138 -0.108119 0 
vn -0.856857 -0.515554 0 
vn -0.947653 -0.319302 0 
vn -0.725995 -0.687699 0 
vn -0.856857 -0.515554 0 
vn -0.561187 -0.827689 0 
vn -0.725995 -0.687699 0 
vn -0.370138 -0.928977 0 
vn -0.561187 -0.827689 0 
vn -0.161782 -0.986827 0 
vn -0.370138 -0.928977 0 
vn 0.0541389 -0.998533 0 
vn -0.161782 -0.986827 0 
vn 0.267528 -0.96355 0 
vn 0.0541389 -0.998533 0 
vn 0.468408 -0.883512 0 
vn 0.267528 -0.96355 0 
vn 0.647386 -0.762162 0 
vn 0.468408 -0.883512 0 
vn 0.796093 -0.605174 0 
vn 0.647386 -0.762162 0 
vn 0.907575 -0.419889 0 
vn 0.796093 -0.605174 0 
vn 0.976621 -0.21497 0 
vn 0.907575 -0.419889 0 
vn 0.976621 0.21497 0 
vn 1 2.44929e-16 0 
vn 0.907575 0.419889 0 
vn 0.976621 0.21497 0 
vn 0.796093 0.605174 0 
vn 0.907575 0.419889 0 
vn 0.647386 0.762162 0 
vn 0.796093 0.605174 0 
vn 0.468408 0.883512 0 
vn 0.647386 0.762162 0 
vn 0.267528 0.96355 0 
vn 0.468408 0.883512 0 
vn 0.0541389 0.998533 0 
vn 0.267528 0.96355 0 
vn -0.161782 0.986827 0 
vn 0.0541389 0.998533 0 
vn -0.370138 0.928977 0 
vn -0.161782 0.986827 0 
vn -0.561187 0.827689 0 
vn -0.370138 0.928977 0 
vn -0.725995 0.687699 0 
vn -0.561187 0.827689 0 
vn -0.856857 0.515554 0 
vn -0.725995 0.687699 0 
vn -0.947653 0.319302 0 
vn -0.856857 0.515554 0 
vn -0.994138 0.108119 0 
vn -0.947653 0.319302 0 
vn -0.994138 -0.108119 0 
vn -1 -3.67394e-16 0 
vn -0.994138 0.108119 0 
vn -0.947653 -0.319302 0 
vn -0.994138 -0.108119 0 
vn -0.856857 -0.515554 0 
vn -0.947653 -0.319302 0 
vn -0.725995 -0.687699 0 
vn -0.856857 -0.515554 0 
vn -0.561187 -0.827689 0 
vn -0.725995 -0.687699 0 
vn -0.370138 -0.928977 0 
vn -0.561187 -0.827689 0 
vn -0.161782 -0.986827 0 
vn -0.370138 -0.928977 0 
vn 0.0541389 -0.998533 0 
vn -0.161782 -0.986827 0 
vn 0.267528 -0.96355 0 
vn 0.0541389 -0.998533 0 
vn 0.468408 -0.883512 0 
vn 0.267528 -0.96355 0 
vn 0.647386 -0.762162 0 
vn 0.468408 -0.883512 0 
vn 0.796093 -0.605174 0 
vn 0.647386 -0.762162 0 
vn 0.907575 -0.419889 0 
vn 0.796093 -0.605174 0 
vn 0.976621 -0.21497 0 
vn 0.907575 -0.419889 0 
usemtl 0.282353_0.549020_0.160784_0.000000_0.000000
o mesh0
f 1//1 2//2 3//2 
f 4//3 1//1 5//4 
f 6//5 4//3 7//6 
f 8//7 6//5 9//8 
f 10//9 8//7 11//10 
f 12//11 10//9 13//12 
f 14//13 12//11 15//14 
f 16//15 14//13 17//16 
f 18//17 16//15 19//18 
f 20//19 18//17 21//20 
f 22//21 20//19 23//22 
f 24//23 22//21 25//24 
f 26//25 24//23 27//26 
f 28//27 26//25 29//28 
f 30//29 31//30 32//30 
f 33//31 32//30 31//30 
f 31//30 28//27 33//31 
f 34//32 30//29 35//33 
f 36//34 34//32 37//35 
f 38//36 36//34 39//37 
f 40//38 38//36 41//39 
f 42//40 40//38 43//41 
f 44//42 42//40 45//43 
f 46//44 44//42 47//45 
f 48//46 46//44 49//47 
f 50//48 48//46 51//49 
f 52//50 50//48 53//51 
f 54//52 52//50 55//53 
f 56//54 54//52 57//55 
f 58//56 56//54 59//57 
f 2//2 58//56 60//56 
f 60//56 3//2 2//2 
f 59//57 60//56 58//56 
f 57//55 59//57 56//54 
f 55//53 57//55 54//52 
f 53//51 55//53 52//50 
f 51//49 53//51 50//48 
f 49//47 51//49 48//46 
f 47//45 49//47 46//44 
f 45//43 47//45 44//42 
f 43//41 45//43 42//40 
f 41//39 43//41 40//38 
f 39//37 41//39 38//36 
f 37//35 39//37 36//34 
f 35//33 37//35 34//32 
f 32//30 35//33 30//29 
f 29//28 33//31 28//27 
f 27//26 29//28 26//25 
f 25//24 27//26 24//23 
f 23//22 25//24 22//21 
f 21//20 23//22 20//19 
f 19//18 21//20 18//17 
f 17//16 19//18 16//15 
f 15//14 17//16 14//13 
f 13//12 15//14 12//11 
f 11//10 13//12 10//9 
f 9//8 11//10 8//7 
f 7//6 9//8 6//5 
f 5//4 7//6 4//3 
f 3//2 5//4 1//1 
o mesh1
f 61//58 62//58 63//58 
f 61//58 64//58 62//58 
f 65//58 19//58 17//58 
f 66//58 67//58 49//58 
f 68//58 69//58 70//58 
f 63//58 68//58 61//58 
f 70//58 71//58 72//58 
f 73//58 11//58 9//58 
f 17//58 74//58 75//58 
f 15//58 76//58 77//58 
f 15//58 73//58 78//58 
f 65//58 32//58 33//58 
f 61//58 67//58 79//58 
f 67//58 80//58 81//58 
f 67//58 82//58 83//58 
f 67//58 51//58 49//58 
f 67//58 57//58 55//58 
f 70//58 84//58 85//58 
f 63//58 86//58 68//58 
f 72//58 87//58 70//58 
f 88//58 89//58 71//58 
f 90//58 91//58 92//58 
f 93//58 70//58 94//58 
f 73//58 13//58 11//58 
f 17//58 75//58 65//58 
f 78//58 76//58 15//58 
f 65//58 23//58 21//58 
f 33//58 29//58 65//58 
f 61//58 95//58 96//58 
f 79//58 97//58 61//58 
f 83//58 80//58 67//58 
f 49//58 98//58 66//58 
f 49//58 99//58 100//58 
f 55//58 53//58 67//58 
f 61//58 101//58 102//58 
f 86//58 69//58 68//58 
f 71//58 70//58 88//58 
f 103//58 104//58 90//58 
f 70//58 93//58 105//58 
f 94//58 65//58 93//58 
f 73//58 15//58 13//58 
f 77//58 74//58 15//58 
f 65//58 25//58 23//58 
f 29//58 27//58 65//58 
f 106//58 107//58 108//58 
f 61//58 109//58 95//58 
f 81//58 79//58 67//58 
f 100//58 98//58 49//58 
f 67//58 59//58 57//58 
f 110//58 7//58 5//58 
f 111//58 61//58 112//58 
f 61//58 68//58 101//58 
f 87//58 84//58 70//58 
f 92//58 103//58 90//58 
f 89//58 88//58 113//58 
f 65//58 114//58 115//58 
f 94//58 114//58 65//58 
f 17//58 15//58 74//58 
f 27//58 25//58 65//58 
f 7//58 110//58 116//58 
f 108//58 91//58 106//58 
f 97//58 109//58 61//58 
f 53//58 51//58 67//58 
f 67//58 3//58 60//58 
f 5//58 67//58 110//58 
f 112//58 117//58 111//58 
f 61//58 118//58 119//58 
f 70//58 85//58 68//58 
f 113//58 104//58 89//58 
f 105//58 88//58 70//58 
f 21//58 19//58 65//58 
f 110//58 120//58 116//58 
f 110//58 121//58 122//58 
f 110//58 123//58 124//58 
f 106//58 125//58 107//58 
f 61//58 126//58 127//58 
f 61//58 128//58 129//58 
f 66//58 82//58 67//58 
f 5//58 3//58 67//58 
f 119//58 112//58 61//58 
f 103//58 89//58 104//58 
f 9//58 7//58 73//58 
f 122//58 120//58 110//58 
f 110//58 130//58 123//58 
f 107//58 131//58 132//58 
f 107//58 133//58 134//58 
f 108//58 92//58 91//58 
f 110//58 135//58 136//58 
f 111//58 137//58 138//58 
f 129//58 126//58 61//58 
f 60//58 59//58 67//58 
f 102//58 118//58 61//58 
f 116//58 73//58 7//58 
f 110//58 139//58 130//58 
f 110//58 132//58 140//58 
f 134//58 131//58 107//58 
f 125//58 141//58 107//58 
f 110//58 142//58 135//58 
f 111//58 143//58 142//58 
f 111//58 144//58 145//58 
f 138//58 146//58 111//58 
f 41//58 147//58 148//58 
f 35//58 115//58 149//58 
f 96//58 128//58 61//58 
f 115//58 32//58 65//58 
f 140//58 139//58 110//58 
f 141//58 133//58 107//58 
f 136//58 150//58 110//58 
f 111//58 151//58 143//58 
f 111//58 152//58 144//58 
f 146//58 153//58 111//58 
f 41//58 149//58 147//58 
f 149//58 37//58 35//58 
f 149//58 41//58 39//58 
f 99//58 45//58 43//58 
f 117//58 137//58 111//58 
f 132//58 110//58 107//58 
f 142//58 110//58 111//58 
f 153//58 152//58 111//58 
f 148//58 154//58 41//58 
f 39//58 37//58 149//58 
f 99//58 47//58 45//58 
f 124//58 121//58 110//58 
f 145//58 151//58 111//58 
f 35//58 32//58 115//58 
f 99//58 49//58 47//58 
f 150//58 107//58 110//58 
f 43//58 41//58 99//58 
f 154//58 99//58 41//58 
f 127//58 64//58 61//58 
o mesh2
f 155//59 28//59 31//59 
f 156//59 157//59 158//59 
f 155//59 26//59 28//59 
f 159//59 160//59 161//59 
f 156//59 162//59 163//59 
f 158//59 164//59 156//59 
f 165//59 166//59 167//59 
f 168//59 169//59 170//59 
f 171//59 166//59 172//59 
f 173//59 50//59 52//59 
f 155//59 34//59 36//59 
f 31//59 30//59 155//59 
f 38//59 174//59 175//59 
f 159//59 176//59 160//59 
f 164//59 162//59 156//59 
f 156//59 177//59 178//59 
f 166//59 179//59 167//59 
f 170//59 180//59 168//59 
f 172//59 181//59 171//59 
f 173//59 48//59 50//59 
f 30//59 34//59 155//59 
f 155//59 22//59 24//59 
f 155//59 16//59 18//59 
f 38//59 182//59 174//59 
f 156//59 183//59 182//59 
f 159//59 184//59 185//59 
f 161//59 186//59 159//59 
f 178//59 157//59 156//59 
f 168//59 187//59 177//59 
f 168//59 180//59 188//59 
f 166//59 171//59 179//59 
f 171//59 189//59 170//59 
f 181//59 190//59 171//59 
f 191//59 192//59 193//59 
f 52//59 54//59 173//59 
f 173//59 44//59 46//59 
f 156//59 42//59 44//59 
f 156//59 38//59 40//59 
f 24//59 26//59 155//59 
f 18//59 20//59 155//59 
f 194//59 14//59 16//59 
f 175//59 195//59 38//59 
f 156//59 196//59 183//59 
f 156//59 197//59 198//59 
f 186//59 184//59 159//59 
f 159//59 199//59 200//59 
f 159//59 201//59 202//59 
f 177//59 156//59 168//59 
f 188//59 203//59 168//59 
f 167//59 204//59 165//59 
f 190//59 189//59 171//59 
f 191//59 205//59 206//59 
f 191//59 207//59 192//59 
f 46//59 48//59 173//59 
f 40//59 42//59 156//59 
f 20//59 22//59 155//59 
f 16//59 155//59 194//59 
f 182//59 38//59 156//59 
f 198//59 208//59 156//59 
f 200//59 176//59 159//59 
f 202//59 209//59 159//59 
f 210//59 211//59 201//59 
f 203//59 187//59 168//59 
f 169//59 171//59 170//59 
f 156//59 212//59 213//59 
f 156//59 206//59 214//59 
f 193//59 205//59 191//59 
f 215//59 14//59 216//59 
f 173//59 56//59 58//59 
f 44//59 173//59 156//59 
f 194//59 217//59 14//59 
f 208//59 196//59 156//59 
f 209//59 199//59 159//59 
f 201//59 159//59 210//59 
f 204//59 159//59 165//59 
f 213//59 218//59 156//59 
f 206//59 156//59 191//59 
f 219//59 220//59 221//59 
f 216//59 166//59 215//59 
f 166//59 222//59 223//59 
f 166//59 165//59 224//59 
f 54//59 56//59 173//59 
f 195//59 155//59 38//59 
f 210//59 225//59 211//59 
f 218//59 168//59 156//59 
f 191//59 226//59 207//59 
f 191//59 227//59 228//59 
f 191//59 219//59 229//59 
f 221//59 230//59 219//59 
f 231//59 12//59 14//59 
f 223//59 232//59 166//59 
f 224//59 233//59 166//59 
f 36//59 38//59 155//59 
f 163//59 197//59 156//59 
f 191//59 234//59 226//59 
f 228//59 235//59 191//59 
f 229//59 236//59 191//59 
f 230//59 237//59 219//59 
f 238//59 219//59 211//59 
f 219//59 239//59 240//59 
f 14//59 217//59 216//59 
f 241//59 4//59 6//59 
f 233//59 222//59 166//59 
f 185//59 165//59 159//59 
f 235//59 234//59 191//59 
f 237//59 229//59 219//59 
f 219//59 242//59 211//59 
f 240//59 243//59 219//59 
f 215//59 231//59 14//59 
f 6//59 8//59 241//59 
f 58//59 2//59 173//59 
f 236//59 227//59 191//59 
f 211//59 225//59 238//59 
f 243//59 244//59 219//59 
f 4//59 241//59 245//59 
f 231//59 246//59 12//59 
f 8//59 10//59 241//59 
f 214//59 212//59 156//59 
f 244//59 242//59 219//59 
f 245//59 219//59 4//59 
f 10//59 12//59 241//59 
f 219//59 173//59 1//59 
f 238//59 220//59 219//59 
f 219//59 247//59 248//59 
f 246//59 241//59 12//59 
f 173//59 2//59 1//59 
f 248//59 239//59 219//59 
f 1//59 4//59 219//59 
f 245//59 247//59 219//59 
f 232//59 215//59 166//59 
o mesh3
f 61//60 156//60 173//60 
f 173//60 67//60 61//60 
o mesh4
f 67//61 173//61 219//61 
f 219//61 110//61 67//61 
o mesh5
f 110//62 219//62 191//62 
f 191//62 111//62 110//62 
o mesh6
f 111//63 191//63 156//63 
f 156//63 61//63 111//63 
o mesh7
f 248//64 247//63 120//63 
f 239//65 248//64 122//64 
f 240//66 239//65 121//65 
f 243//67 240//66 124//66 
f 244//68 243//67 123//67 
f 242//69 244//68 130//68 
f 211//70 242//69 139//69 
f 201//71 211//70 140//70 
f 202//72 201//71 132//71 
f 209//73 202//72 131//72 
f 199//74 209//73 134//73 
f 200//75 199//74 133//74 
f 176//76 200//75 141//75 
f 160//77 176//76 125//76 
f 186//78 161//79 91//79 
f 106//80 91//79 161//79 
f 161//79 160//77 106//80 
f 184//81 186//78 90//82 
f 185//83 184//81 104//84 
f 165//85 185//83 113//86 
f 224//87 165//85 88//88 
f 233//89 224//87 105//90 
f 222//91 233//89 93//92 
f 223//93 222//91 65//94 
f 232//95 223//93 75//96 
f 215//97 232//95 74//98 
f 231//99 215//97 77//100 
f 246//101 231//99 76//102 
f 241//103 246//101 78//104 
f 245//105 241//103 73//106 
f 247//63 245//105 116//105 
f 116//105 120//63 247//63 
f 73//106 116//105 245//105 
f 78//104 73//106 241//103 
f 76//102 78//104 246//101 
f 77//100 76//102 231//99 
f 74//98 77//100 215//97 
f 75//96 74//98 232//95 
f 65//94 75//96 223//93 
f 93//92 65//94 222//91 
f 105//90 93//92 233//89 
f 88//88 105//90 224//87 
f 113//86 88//88 165//85 
f 104//84 113//86 185//83 
f 90//82 104//84 184//81 
f 91//79 90//82 186//78 
f 125//76 106//80 160//77 
f 141//75 125//76 176//76 
f 133//74 141//75 200//75 
f 134//73 133//74 199//74 
f 131//72 134//73 209//73 
f 132//71 131//72 202//72 
f 140//70 132//71 201//71 
f 139//69 140//70 211//70 
f 130//68 139//69 242//69 
f 123//67 130//68 244//68 
f 124//66 123//67 243//67 
f 121//65 124//66 240//66 
f 122//64 121//65 239//65 
f 120//63 122//64 248//64 
o mesh8
f 238//107 225//108 92//108 
f 220//109 238//107 108//110 
f 221//111 220//109 107//112 
f 230//113 221//111 150//114 
f 237//115 230//113 136//116 
f 229//117 237//115 135//118 
f 236//119 229//117 142//120 
f 227//121 236//119 143//122 
f 228//123 227//121 151//124 
f 235//125 228//123 145//126 
f 234//127 235//125 144//128 
f 226//129 234//127 152//130 
f 207//131 226//129 153//132 
f 192//133 207//131 146//134 
f 205//135 193//136 137//136 
f 138//137 137//136 193//136 
f 193//136 192//133 138//137 
f 206//138 205//135 117//139 
f 214//140 206//138 112//141 
f 212//142 214//140 119//143 
f 213//144 212//142 118//145 
f 218//146 213//144 102//147 
f 168//148 218//146 101//149 
f 169//150 168//148 68//151 
f 171//152 169//150 85//153 
f 179//154 171//152 84//155 
f 167//156 179//154 87//157 
f 204//158 167//156 72//159 
f 159//160 204//158 71//161 
f 210//162 159//160 89//163 
f 225//108 210//162 103//162 
f 103//162 92//108 225//108 
f 89//163 103//162 210//162 
f 71//161 89//163 159//160 
f 72//159 71//161 204//158 
f 87//157 72//159 167//156 
f 84//155 87//157 179//154 
f 85//153 84//155 171//152 
f 68//151 85//153 169//150 
f 101//149 68//151 168//148 
f 102//147 101//149 218//146 
f 118//145 102//147 213//144 
f 119//143 118//145 212//142 
f 112//141 119//143 214//140 
f 117//139 112//141 206//138 
f 137//136 117//139 205//135 
f 146//134 138//137 192//133 
f 153//132 146//134 207//131 
f 152//130 153//132 226//129 
f 144//128 152//130 234//127 
f 145//126 144//128 235//125 
f 151//124 145//126 228//123 
f 143//122 151//124 227//121 
f 142//120 143//122 236//119 
f 135//118 142//120 229//117 
f 136//116 135//118 237//115 
f 150//114 136//116 230//113 
f 107//112 150//114 221//111 
f 108//110 107//112 220//109 
f 92//108 108//110 238//107 
o mesh9
f 216//164 217//165 98//165 
f 166//166 216//164 100//167 
f 172//168 166//166 99//169 
f 181//170 172//168 154//171 
f 190//172 181//170 148//173 
f 189//174 190//172 147//175 
f 170//176 189//174 149//177 
f 180//178 170//176 115//179 
f 188//180 180//178 114//181 
f 203//182 188//180 94//183 
f 187//184 203//182 70//185 
f 177//186 187//184 69//187 
f 178//188 177//186 86//189 
f 157//190 178//188 63//191 
f 164//192 158//193 64//193 
f 62//194 64//193 158//193 
f 158//193 157//190 62//194 
f 162//195 164//192 127//196 
f 163//197 162//195 126//198 
f 197//199 163//197 129//200 
f 198//201 197//199 128//202 
f 208//203 198//201 96//204 
f 196//205 208//203 95//206 
f 183//207 196//205 109//208 
f 182//209 183//207 97//210 
f 174//211 182//209 79//212 
f 175//213 174//211 81//214 
f 195//215 175//213 80//216 
f 155//217 195//215 83//218 
f 194//219 155//217 82//220 
f 217//165 194//219 66//219 
f 66//219 98//165 217//165 
f 82//220 66//219 194//219 
f 83//218 82//220 155//217 
f 80//216 83//218 195//215 
f 81//214 80//216 175//213 
f 79//212 81//214 174//211 
f 97//210 79//212 182//209 
f 109//208 97//210 183//207 
f 95//206 109//208 196//205 
f 96//204 95//206 208//203 
f 128//202 96//204 198//201 
f 129//200 128//202 197//199 
f 126//198 129//200 163//197 
f 127//196 126//198 162//195 
f 64//193 127//196 164//192 
f 63//191 62//194 157//190 
f 86//189 63//191 178//188 
f 69//187 86//189 177//186 
f 70//185 69//187 187//184 
f 94//183 70//185 203//182 
f 114//181 94//183 188//180 
f 115//179 114//181 180//178 
f 149//177 115//179 170//176 
f 147//175 149//177 189//174 
f 148//173 147//175 190//172 
f 154//171 148//173 181//170 
f 99//169 154//171 172//168 
f 100//167 99//169 166//166 
f 98//165 100//167 216//164 
