# OBJ generated by ONSHAPE BY PTC INC, 1.219 Units = meters
mtllib Assembly 2 - ToF Front.mtl
g ToF Front
v 0.0585063 0.00635 0.0614792 
v 0.058775 0.00635 0.06145 
v 0.058775 0.0127 0.06145 
v 0.0582501 0.00635 0.0615655 
v 0.0585063 0.0127 0.0614792 
v 0.0580185 0.00635 0.0617049 
v 0.0582501 0.0127 0.0615655 
v 0.0578223 0.00635 0.0618908 
v 0.0580185 0.0127 0.0617049 
v 0.0576706 0.00635 0.0621145 
v 0.0578223 0.0127 0.0618908 
v 0.0575706 0.00635 0.0623656 
v 0.0576706 0.0127 0.0621145 
v 0.0575268 0.00635 0.0626323 
v 0.0575706 0.0127 0.0623656 
v 0.0575415 0.00635 0.0629022 
v 0.0575268 0.0127 0.0626323 
v 0.0576138 0.00635 0.0631627 
v 0.0575415 0.0127 0.0629022 
v 0.0577404 0.00635 0.0634015 
v 0.0576138 0.0127 0.0631627 
v 0.0579154 0.00635 0.0636075 
v 0.0577404 0.0127 0.0634015 
v 0.0581306 0.00635 0.0637711 
v 0.0579154 0.0127 0.0636075 
v 0.0583759 0.00635 0.0638846 
v 0.0581306 0.0127 0.0637711 
v 0.0586399 0.00635 0.0639427 
v 0.0583759 0.0127 0.0638846 
v 0.0589101 0.00635 0.0639427 
v 0.0586399 0.0127 0.0639427 
v 0.0591741 0.00635 0.0638846 
v 0.0589101 0.0127 0.0639427 
v 0.0594194 0.00635 0.0637711 
v 0.0591741 0.0127 0.0638846 
v 0.0596346 0.00635 0.0636075 
v 0.0594194 0.0127 0.0637711 
v 0.0598096 0.00635 0.0634015 
v 0.0596346 0.0127 0.0636075 
v 0.0599362 0.00635 0.0631627 
v 0.0598096 0.0127 0.0634015 
v 0.0600085 0.00635 0.0629022 
v 0.0599362 0.0127 0.0631627 
v 0.0600232 0.00635 0.0626323 
v 0.0600085 0.0127 0.0629022 
v 0.0599794 0.00635 0.0623656 
v 0.0600232 0.0127 0.0626323 
v 0.0598794 0.00635 0.0621145 
v 0.0599794 0.0127 0.0623656 
v 0.0597277 0.00635 0.0618908 
v 0.0598794 0.0127 0.0621145 
v 0.0595315 0.00635 0.0617049 
v 0.0597277 0.0127 0.0618908 
v 0.0592999 0.00635 0.0615655 
v 0.0595315 0.0127 0.0617049 
v 0.0590437 0.00635 0.0614792 
v 0.0592999 0.0127 0.0615655 
v 0.0590437 0.0127 0.0614792 
v 0.0589101 0.0127 0.0512427 
v 0.0596346 0.0127 0.0509075 
v 0.0594194 0.0127 0.0510711 
v 0.0583759 0.0127 0.0511846 
v 0.0581306 0.0127 0.0510711 
v 0.0586399 0.0127 0.0512427 
v 0.0591741 0.0127 0.0511846 
v 0.0599362 0.0127 0.0504627 
v 0.0598096 0.0127 0.0507015 
v 0.0598794 0.0127 0.0494145 
v 0.0595315 0.0127 0.0490049 
v 0.0597277 0.0127 0.0491908 
v 0.0579154 0.0127 0.0509075 
v 0.0577404 0.0127 0.0507015 
v 0.058775 0.0127 0.04875 
v 0.0582501 0.0127 0.0488655 
v 0.0585063 0.0127 0.0487792 
v 0.0576706 0.0127 0.0494145 
v 0.0578223 0.0127 0.0491908 
v 0.0575706 0.0127 0.0496656 
v 0.0600085 0.0127 0.0502022 
v 0.0599794 0.0127 0.0496656 
v 0.0600232 0.0127 0.0499323 
v 0.0592999 0.0127 0.0488655 
v 0.0590437 0.0127 0.0487792 
v 0.0580185 0.0127 0.0490049 
v 0.0575415 0.0127 0.0502022 
v 0.0575268 0.0127 0.0499323 
v 0.0576138 0.0127 0.0504627 
v 0.0798794 0.0127 0.0494145 
v 0.0799794 0.0127 0.0496656 
v 0.0792999 0.0127 0.0488655 
v 0.0795315 0.0127 0.0490049 
v 0.0785063 0.0127 0.0487792 
v 0.078775 0.0127 0.04875 
v 0.0775706 0.0127 0.0496656 
v 0.0776706 0.0127 0.0494145 
v 0.0800232 0.0127 0.0499323 
v 0.0797277 0.0127 0.0491908 
v 0.0790437 0.0127 0.0487792 
v 0.0782501 0.0127 0.0488655 
v 0.0778223 0.0127 0.0491908 
v 0.0780185 0.0127 0.0490049 
v 0.0775268 0.0127 0.0499323 
v 0.0775415 0.0127 0.0502022 
v 0.0800085 0.0127 0.0502022 
v 0.0799362 0.0127 0.0504627 
v 0.0781306 0.0127 0.0510711 
v 0.0779154 0.0127 0.0509075 
v 0.0786399 0.0127 0.0512427 
v 0.0783759 0.0127 0.0511846 
v 0.0777404 0.0127 0.0507015 
v 0.0776138 0.0127 0.0504627 
v 0.0789101 0.0127 0.0512427 
v 0.0794194 0.0127 0.0510711 
v 0.0791741 0.0127 0.0511846 
v 0.0798096 0.0127 0.0507015 
v 0.0796346 0.0127 0.0509075 
v 0.0798794 0.0127 0.0621145 
v 0.0799794 0.0127 0.0623656 
v 0.0792999 0.0127 0.0615655 
v 0.0795315 0.0127 0.0617049 
v 0.0785063 0.0127 0.0614792 
v 0.078775 0.0127 0.06145 
v 0.0829 0.0127 0.06985 
v 0.0791741 0.0127 0.0638846 
v 0.0789101 0.0127 0.0639427 
v 0.0800232 0.0127 0.0626323 
v 0.0797277 0.0127 0.0618908 
v 0.0790437 0.0127 0.0614792 
v 0.0782501 0.0127 0.0615655 
v 0.0778223 0.0127 0.0618908 
v 0.0780185 0.0127 0.0617049 
v 0.0775268 0.0127 0.0626323 
v 0.0775706 0.0127 0.0623656 
v 0.0794194 0.0127 0.0637711 
v 0.0798096 0.0127 0.0634015 
v 0.0796346 0.0127 0.0636075 
v 0.0800085 0.0127 0.0629022 
v 0.0776706 0.0127 0.0621145 
v 0.0775415 0.0127 0.0629022 
v 0.0799362 0.0127 0.0631627 
v 0.074775 0.0127 0.06985 
v 0.0777404 0.0127 0.0634015 
v 0.0776138 0.0127 0.0631627 
v 0.0786399 0.0127 0.0639427 
v 0.0781306 0.0127 0.0637711 
v 0.0779154 0.0127 0.0636075 
v 0.0783759 0.0127 0.0638846 
v 0.068775 0.0127 0.0762 
v 0.074775 0.0127 0.0762 
v 0.092425 0.0127 0.06096 
v 0.086775 0.0127 0.06985 
v 0.098775 0.0127 0.0762 
v 0.098775 0.0127 0.06096 
v 0.092425 0.0127 0.06065 
v 0.092425 0.0127 0.05205 
v 0.089775 0.0127 0.05285 
v 0.085775 0.0127 0.05285 
v 0.085775 0.0127 0.05985 
v 0.089775 0.0127 0.05985 
v 0.092425 0.0127 0.04572 
v 0.092425 0.0127 0.03048 
v 0.098775 0.0127 0.03048 
v 0.098775 0.0127 0.04572 
v 0.098775 0.0127 3.30317e-18 
v 0.082965 0.0127 0 
v 0.082965 0.0127 0.00635 
v 0.092425 0.0127 0.024375 
v 0.092425 0.0127 0.01524 
v 0.0829 0.0127 0.00635 
v 0.068775 0.0127 0 
v 0.073505 0.0127 0.00635 
v 0.064045 0.0127 0.00635 
v 0.064045 0.0127 0 
v 0.038775 0.0127 0.01524 
v 0.043275 0.0127 0.01524 
v 0.043275 0.0127 -6.93889e-18 
v 0.045125 0.0127 0.01524 
v 0.054585 0.0127 0.00635 
v 0.05465 0.0127 0.00635 
v 0.045125 0.0127 0.024375 
v 0.038775 0.0127 0.04572 
v 0.043275 0.0127 0.04572 
v 0.043275 0.0127 0.03048 
v 0.045125 0.0127 0.03048 
v 0.045125 0.0127 0.04572 
v 0.045125 0.0127 0.05205 
v 0.047775 0.0127 0.05285 
v 0.051775 0.0127 0.05285 
v 0.045125 0.0127 0.06065 
v 0.047775 0.0127 0.05985 
v 0.051775 0.0127 0.05985 
v 0.038775 0.0127 0.0762 
v 0.043275 0.0127 0.0762 
v 0.043275 0.0127 0.06096 
v 0.050775 0.0127 0.06985 
v 0.05465 0.0127 0.06985 
v 0.045125 0.0127 0.06096 
v 0.050775 0.0127 0.0762 
v 0.062775 0.0127 0.06985 
v 0.062775 0.0127 0.0762 
v 0.038775 0.0127 0.06096 
v 0.038775 0.0127 0.03048 
v 0.054585 0.0127 0 
v 0.038775 0.0127 -3.46945e-18 
v 0.073505 0.0127 0 
v 0.098775 0.0127 0.01524 
v 0.086775 0.0127 0.0762 
v 0.05465 0.0127 0.06065 
v 0.068775 0.0127 0.06065 
v 0.068775 0.0127 0.05205 
v 0.0829 0.0127 0.06065 
v 0.0829 0.0127 0.05205 
v 0.05465 0.0127 0.05205 
v 0.068775 0.0127 0.024375 
v 0.05465 0.0127 0.024375 
v 0.0829 0.0127 0.024375 
v 0.0586399 0.00635 0.0512427 
v 0.0589101 0.00635 0.0512427 
v 0.0591741 0.00635 0.0511846 
v 0.0594194 0.00635 0.0510711 
v 0.0583759 0.00635 0.0511846 
v 0.0579154 0.00635 0.0509075 
v 0.0581306 0.00635 0.0510711 
v 0.0596346 0.00635 0.0509075 
v 0.0598096 0.00635 0.0507015 
v 0.0576138 0.00635 0.0504627 
v 0.0577404 0.00635 0.0507015 
v 0.0598794 0.00635 0.0494145 
v 0.0597277 0.00635 0.0491908 
v 0.0599794 0.00635 0.0496656 
v 0.0599362 0.00635 0.0504627 
v 0.0590437 0.00635 0.0487792 
v 0.058775 0.00635 0.04875 
v 0.0600085 0.00635 0.0502022 
v 0.0600232 0.00635 0.0499323 
v 0.0575415 0.00635 0.0502022 
v 0.0592999 0.00635 0.0488655 
v 0.0595315 0.00635 0.0490049 
v 0.0575706 0.00635 0.0496656 
v 0.0575268 0.00635 0.0499323 
v 0.0576706 0.00635 0.0494145 
v 0.0580185 0.00635 0.0490049 
v 0.0578223 0.00635 0.0491908 
v 0.0585063 0.00635 0.0487792 
v 0.0582501 0.00635 0.0488655 
v 0.0799794 0.00635 0.0496656 
v 0.0798794 0.00635 0.0494145 
v 0.0797277 0.00635 0.0491908 
v 0.0795315 0.00635 0.0490049 
v 0.0800232 0.00635 0.0499323 
v 0.0776706 0.00635 0.0494145 
v 0.0800085 0.00635 0.0502022 
v 0.0794194 0.00635 0.0510711 
v 0.0796346 0.00635 0.0509075 
v 0.0789101 0.00635 0.0512427 
v 0.0791741 0.00635 0.0511846 
v 0.0775706 0.00635 0.0496656 
v 0.0782501 0.00635 0.0488655 
v 0.0780185 0.00635 0.0490049 
v 0.0792999 0.00635 0.0488655 
v 0.0790437 0.00635 0.0487792 
v 0.0786399 0.00635 0.0512427 
v 0.0781306 0.00635 0.0510711 
v 0.0783759 0.00635 0.0511846 
v 0.0777404 0.00635 0.0507015 
v 0.0779154 0.00635 0.0509075 
v 0.0775268 0.00635 0.0499323 
v 0.0778223 0.00635 0.0491908 
v 0.078775 0.00635 0.04875 
v 0.0798096 0.00635 0.0507015 
v 0.0799362 0.00635 0.0504627 
v 0.0785063 0.00635 0.0487792 
v 0.0775415 0.00635 0.0502022 
v 0.0776138 0.00635 0.0504627 
v 0.062775 0.00635 0.06985 
v 0.05465 0.00635 0.06985 
v 0.068775 0.00635 0.0762 
v 0.062775 0.00635 0.0762 
v 0.038775 0.00635 0.0762 
v 0.038775 0.00635 0.06096 
v 0.043275 0.00635 0.06096 
v 0.045125 0.00635 0.06096 
v 0.050775 0.00635 0.06985 
v 0.043275 0.00635 0.0762 
v 0.045125 0.00635 0.06065 
v 0.047775 0.00635 0.05985 
v 0.051775 0.00635 0.05985 
v 0.045125 0.00635 0.05205 
v 0.047775 0.00635 0.05285 
v 0.051775 0.00635 0.05285 
v 0.038775 0.00635 0.04572 
v 0.038775 0.00635 0.03048 
v 0.043275 0.00635 0.03048 
v 0.045125 0.00635 0.04572 
v 0.045125 0.00635 0.03048 
v 0.043275 0.00635 0.04572 
v 0.038775 0.00635 0.01524 
v 0.038775 0.00635 -3.46945e-18 
v 0.043275 0.00635 -6.93889e-18 
v 0.054585 0.00635 0 
v 0.054585 0.00635 0.00635 
v 0.045125 0.00635 0.024375 
v 0.045125 0.00635 0.01524 
v 0.05465 0.00635 0.00635 
v 0.068775 0.00635 0 
v 0.064045 0.00635 0.00635 
v 0.073505 0.00635 0.00635 
v 0.073505 0.00635 0 
v 0.098775 0.00635 3.30317e-18 
v 0.092425 0.00635 0.01524 
v 0.082965 0.00635 0.00635 
v 0.098775 0.00635 0.01524 
v 0.0829 0.00635 0.00635 
v 0.092425 0.00635 0.024375 
v 0.092425 0.00635 0.03048 
v 0.092425 0.00635 0.04572 
v 0.098775 0.00635 0.04572 
v 0.098775 0.00635 0.03048 
v 0.092425 0.00635 0.05205 
v 0.092425 0.00635 0.06065 
v 0.089775 0.00635 0.05985 
v 0.085775 0.00635 0.05985 
v 0.085775 0.00635 0.05285 
v 0.089775 0.00635 0.05285 
v 0.092425 0.00635 0.06096 
v 0.098775 0.00635 0.06096 
v 0.086775 0.00635 0.06985 
v 0.098775 0.00635 0.0762 
v 0.086775 0.00635 0.0762 
v 0.0829 0.00635 0.06985 
v 0.074775 0.00635 0.06985 
v 0.0786399 0.00635 0.0639427 
v 0.0789101 0.00635 0.0639427 
v 0.0797277 0.00635 0.0618908 
v 0.0795315 0.00635 0.0617049 
v 0.0800232 0.00635 0.0626323 
v 0.0799794 0.00635 0.0623656 
v 0.0783759 0.00635 0.0638846 
v 0.0798794 0.00635 0.0621145 
v 0.0800085 0.00635 0.0629022 
v 0.0791741 0.00635 0.0638846 
v 0.0792999 0.00635 0.0615655 
v 0.0790437 0.00635 0.0614792 
v 0.0799362 0.00635 0.0631627 
v 0.0794194 0.00635 0.0637711 
v 0.0796346 0.00635 0.0636075 
v 0.0781306 0.00635 0.0637711 
v 0.0798096 0.00635 0.0634015 
v 0.0777404 0.00635 0.0634015 
v 0.0779154 0.00635 0.0636075 
v 0.0776706 0.00635 0.0621145 
v 0.0775706 0.00635 0.0623656 
v 0.0782501 0.00635 0.0615655 
v 0.0780185 0.00635 0.0617049 
v 0.0776138 0.00635 0.0631627 
v 0.0775268 0.00635 0.0626323 
v 0.0778223 0.00635 0.0618908 
v 0.078775 0.00635 0.06145 
v 0.0775415 0.00635 0.0629022 
v 0.0785063 0.00635 0.0614792 
v 0.074775 0.00635 0.0762 
v 0.082965 0.00635 0 
v 0.064045 0.00635 0 
v 0.043275 0.00635 0.01524 
v 0.050775 0.00635 0.0762 
v 0.05465 0.00635 0.05205 
v 0.068775 0.00635 0.05205 
v 0.068775 0.00635 0.024375 
v 0.05465 0.00635 0.024375 
v 0.0829 0.00635 0.05205 
v 0.0829 0.00635 0.024375 
v 0.05465 0.00635 0.06065 
v 0.068775 0.00635 0.06065 
v 0.0829 0.00635 0.06065 
vn 0.21497 0 0.976621 
vn 2.44929e-16 0 1 
vn 0.419889 0 0.907575 
vn 0.21497 0 0.976621 
vn 0.605174 0 0.796093 
vn 0.419889 0 0.907575 
vn 0.762162 0 0.647386 
vn 0.605174 0 0.796093 
vn 0.883512 0 0.468408 
vn 0.762162 0 0.647386 
vn 0.96355 0 0.267528 
vn 0.883512 0 0.468408 
vn 0.998533 0 0.0541389 
vn 0.96355 0 0.267528 
vn 0.986827 0 -0.161782 
vn 0.998533 0 0.0541389 
vn 0.928977 0 -0.370138 
vn 0.986827 0 -0.161782 
vn 0.827689 0 -0.561187 
vn 0.928977 0 -0.370138 
vn 0.687699 0 -0.725995 
vn 0.827689 0 -0.561187 
vn 0.515554 0 -0.856857 
vn 0.687699 0 -0.725995 
vn 0.319302 0 -0.947653 
vn 0.515554 0 -0.856857 
vn 0.108119 0 -0.994138 
vn 0.319302 0 -0.947653 
vn -0.108119 0 -0.994138 
vn 0.108119 0 -0.994138 
vn -0.319302 0 -0.947653 
vn -0.108119 0 -0.994138 
vn -0.515554 0 -0.856857 
vn -0.319302 0 -0.947653 
vn -0.687699 0 -0.725995 
vn -0.515554 0 -0.856857 
vn -0.827689 0 -0.561187 
vn -0.687699 0 -0.725995 
vn -0.928977 0 -0.370138 
vn -0.827689 0 -0.561187 
vn -0.986827 0 -0.161782 
vn -0.928977 0 -0.370138 
vn -0.998533 0 0.0541389 
vn -0.986827 0 -0.161782 
vn -0.96355 0 0.267528 
vn -0.998533 0 0.0541389 
vn -0.883512 0 0.468408 
vn -0.96355 0 0.267528 
vn -0.762162 0 0.647386 
vn -0.883512 0 0.468408 
vn -0.605174 0 0.796093 
vn -0.762162 0 0.647386 
vn -0.419889 0 0.907575 
vn -0.605174 0 0.796093 
vn -0.21497 0 0.976621 
vn -0.419889 0 0.907575 
vn 0 1 0 
vn 0 -1 0 
vn -2.31296e-16 0 1 
vn 0 0 -1 
vn -1 0 -4.55308e-16 
vn 1 0 5.4637e-16 
vn 0 0 1 
vn 0 0 -1 
vn -1 0 0 
vn 0 0 1 
vn 1 0 0 
vn -1 0 -4.55308e-16 
vn 0 0 -1 
vn 1 0 5.4637e-16 
vn -2.31296e-16 0 1 
vn -1 0 0 
vn 5.4637e-16 0 -1 
vn 1 0 5.4637e-16 
vn -5.4637e-16 0 1 
vn 5.4637e-16 0 -1 
vn 1 0 5.4637e-16 
vn -5.4637e-16 0 1 
vn -1 0 -5.4637e-16 
vn 5.4637e-16 0 -1 
vn -5.4637e-16 0 1 
vn -1 0 -5.4637e-16 
vn 1 0 0 
vn 0 0 -1 
vn -1 0 0 
vn 1 0 0 
vn 0 0 1 
vn -1 0 0 
vn 1 0 0 
vn 0 0 1 
vn 0.21497 0 0.976621 
vn 0.419889 0 0.907575 
vn 0.605174 0 0.796093 
vn 0.762162 0 0.647386 
vn 0.883512 0 0.468408 
vn 0.96355 0 0.267528 
vn 0.998533 0 0.0541389 
vn 0.986827 0 -0.161782 
vn 0.928977 0 -0.370138 
vn 0.827689 0 -0.561187 
vn 0.687699 0 -0.725995 
vn 0.515554 0 -0.856857 
vn 0.319302 0 -0.947653 
vn 0.108119 0 -0.994138 
vn -0.108119 0 -0.994138 
vn -0.319302 0 -0.947653 
vn -0.515554 0 -0.856857 
vn -0.687699 0 -0.725995 
vn -0.827689 0 -0.561187 
vn -0.928977 0 -0.370138 
vn -0.986827 0 -0.161782 
vn -0.998533 0 0.0541389 
vn -0.96355 0 0.267528 
vn -0.883512 0 0.468408 
vn -0.762162 0 0.647386 
vn -0.605174 0 0.796093 
vn -0.419889 0 0.907575 
vn -0.21497 0 0.976621 
vn 0.21497 0 0.976621 
vn 2.44929e-16 0 1 
vn 0.419889 0 0.907575 
vn 0.21497 0 0.976621 
vn 0.605174 0 0.796093 
vn 0.419889 0 0.907575 
vn 0.762162 0 0.647386 
vn 0.605174 0 0.796093 
vn 0.883512 0 0.468408 
vn 0.762162 0 0.647386 
vn 0.96355 0 0.267528 
vn 0.883512 0 0.468408 
vn 0.998533 0 0.0541389 
vn 0.96355 0 0.267528 
vn 0.986827 0 -0.161782 
vn 0.998533 0 0.0541389 
vn 0.928977 0 -0.370138 
vn 0.986827 0 -0.161782 
vn 0.827689 0 -0.561187 
vn 0.928977 0 -0.370138 
vn 0.687699 0 -0.725995 
vn 0.827689 0 -0.561187 
vn 0.515554 0 -0.856857 
vn 0.687699 0 -0.725995 
vn 0.319302 0 -0.947653 
vn 0.515554 0 -0.856857 
vn 0.108119 0 -0.994138 
vn 0.319302 0 -0.947653 
vn -0.108119 0 -0.994138 
vn 0.108119 0 -0.994138 
vn -0.319302 0 -0.947653 
vn -0.108119 0 -0.994138 
vn -0.515554 0 -0.856857 
vn -0.319302 0 -0.947653 
vn -0.687699 0 -0.725995 
vn -0.515554 0 -0.856857 
vn -0.827689 0 -0.561187 
vn -0.687699 0 -0.725995 
vn -0.928977 0 -0.370138 
vn -0.827689 0 -0.561187 
vn -0.986827 0 -0.161782 
vn -0.928977 0 -0.370138 
vn -0.998533 0 0.0541389 
vn -0.986827 0 -0.161782 
vn -0.96355 0 0.267528 
vn -0.998533 0 0.0541389 
vn -0.883512 0 0.468408 
vn -0.96355 0 0.267528 
vn -0.762162 0 0.647386 
vn -0.883512 0 0.468408 
vn -0.605174 0 0.796093 
vn -0.762162 0 0.647386 
vn -0.419889 0 0.907575 
vn -0.605174 0 0.796093 
vn -0.21497 0 0.976621 
vn -0.419889 0 0.907575 
vn 0.21497 0 0.976621 
vn 2.44929e-16 0 1 
vn 0.419889 0 0.907575 
vn 0.21497 0 0.976621 
vn 0.605174 0 0.796093 
vn 0.419889 0 0.907575 
vn 0.762162 0 0.647386 
vn 0.605174 0 0.796093 
vn 0.883512 0 0.468408 
vn 0.762162 0 0.647386 
vn 0.96355 0 0.267528 
vn 0.883512 0 0.468408 
vn 0.998533 0 0.0541389 
vn 0.96355 0 0.267528 
vn 0.986827 0 -0.161782 
vn 0.998533 0 0.0541389 
vn 0.928977 0 -0.370138 
vn 0.986827 0 -0.161782 
vn 0.827689 0 -0.561187 
vn 0.928977 0 -0.370138 
vn 0.687699 0 -0.725995 
vn 0.827689 0 -0.561187 
vn 0.515554 0 -0.856857 
vn 0.687699 0 -0.725995 
vn 0.319302 0 -0.947653 
vn 0.515554 0 -0.856857 
vn 0.108119 0 -0.994138 
vn 0.319302 0 -0.947653 
vn -0.108119 0 -0.994138 
vn 0.108119 0 -0.994138 
vn -0.319302 0 -0.947653 
vn -0.108119 0 -0.994138 
vn -0.515554 0 -0.856857 
vn -0.319302 0 -0.947653 
vn -0.687699 0 -0.725995 
vn -0.515554 0 -0.856857 
vn -0.827689 0 -0.561187 
vn -0.687699 0 -0.725995 
vn -0.928977 0 -0.370138 
vn -0.827689 0 -0.561187 
vn -0.986827 0 -0.161782 
vn -0.928977 0 -0.370138 
vn -0.998533 0 0.0541389 
vn -0.986827 0 -0.161782 
vn -0.96355 0 0.267528 
vn -0.998533 0 0.0541389 
vn -0.883512 0 0.468408 
vn -0.96355 0 0.267528 
vn -0.762162 0 0.647386 
vn -0.883512 0 0.468408 
vn -0.605174 0 0.796093 
vn -0.762162 0 0.647386 
vn -0.419889 0 0.907575 
vn -0.605174 0 0.796093 
vn -0.21497 0 0.976621 
vn -0.419889 0 0.907575 
usemtl 0.768627_0.886275_0.952941_0.000000_0.000000
o mesh0
f 1//1 2//2 3//2 
f 4//3 1//1 5//4 
f 6//5 4//3 7//6 
f 8//7 6//5 9//8 
f 10//9 8//7 11//10 
f 12//11 10//9 13//12 
f 14//13 12//11 15//14 
f 16//15 14//13 17//16 
f 18//17 16//15 19//18 
f 20//19 18//17 21//20 
f 22//21 20//19 23//22 
f 24//23 22//21 25//24 
f 26//25 24//23 27//26 
f 28//27 26//25 29//28 
f 30//29 28//27 31//30 
f 32//31 30//29 33//32 
f 34//33 32//31 35//34 
f 36//35 34//33 37//36 
f 38//37 36//35 39//38 
f 40//39 38//37 41//40 
f 42//41 40//39 43//42 
f 44//43 42//41 45//44 
f 46//45 44//43 47//46 
f 48//47 46//45 49//48 
f 50//49 48//47 51//50 
f 52//51 50//49 53//52 
f 54//53 52//51 55//54 
f 56//55 54//53 57//56 
f 2//2 56//55 58//55 
f 58//55 3//2 2//2 
f 57//56 58//55 56//55 
f 55//54 57//56 54//53 
f 53//52 55//54 52//51 
f 51//50 53//52 50//49 
f 49//48 51//50 48//47 
f 47//46 49//48 46//45 
f 45//44 47//46 44//43 
f 43//42 45//44 42//41 
f 41//40 43//42 40//39 
f 39//38 41//40 38//37 
f 37//36 39//38 36//35 
f 35//34 37//36 34//33 
f 33//32 35//34 32//31 
f 31//30 33//32 30//29 
f 29//28 31//30 28//27 
f 27//26 29//28 26//25 
f 25//24 27//26 24//23 
f 23//22 25//24 22//21 
f 21//20 23//22 20//19 
f 19//18 21//20 18//17 
f 17//16 19//18 16//15 
f 15//14 17//16 14//13 
f 13//12 15//14 12//11 
f 11//10 13//12 10//9 
f 9//8 11//10 8//7 
f 7//6 9//8 6//5 
f 5//4 7//6 4//3 
f 3//2 5//4 1//1 
o mesh1
f 208//57 209//57 210//57 
f 209//57 211//57 212//57 
f 213//57 210//57 59//57 
f 210//57 60//57 61//57 
f 213//57 62//57 63//57 
f 59//57 64//57 213//57 
f 61//57 65//57 210//57 
f 210//57 66//57 67//57 
f 210//57 214//57 68//57 
f 214//57 69//57 70//57 
f 213//57 71//57 72//57 
f 64//57 62//57 213//57 
f 67//57 60//57 210//57 
f 70//57 68//57 214//57 
f 214//57 215//57 73//57 
f 215//57 74//57 75//57 
f 215//57 76//57 77//57 
f 213//57 78//57 76//57 
f 63//57 71//57 213//57 
f 210//57 79//57 66//57 
f 210//57 80//57 81//57 
f 214//57 82//57 69//57 
f 73//57 83//57 214//57 
f 215//57 84//57 74//57 
f 76//57 215//57 213//57 
f 213//57 85//57 86//57 
f 72//57 87//57 213//57 
f 81//57 79//57 210//57 
f 83//57 82//57 214//57 
f 77//57 84//57 215//57 
f 87//57 85//57 213//57 
f 68//57 80//57 210//57 
f 86//57 78//57 213//57 
f 75//57 73//57 215//57 
f 212//57 216//57 88//57 
f 88//57 89//57 212//57 
f 216//57 90//57 91//57 
f 214//57 92//57 93//57 
f 210//57 94//57 95//57 
f 89//57 96//57 212//57 
f 91//57 97//57 216//57 
f 216//57 93//57 98//57 
f 214//57 99//57 92//57 
f 214//57 100//57 101//57 
f 210//57 102//57 94//57 
f 97//57 88//57 216//57 
f 93//57 216//57 214//57 
f 214//57 95//57 100//57 
f 210//57 103//57 102//57 
f 98//57 90//57 216//57 
f 95//57 214//57 210//57 
f 212//57 104//57 105//57 
f 101//57 99//57 214//57 
f 210//57 106//57 107//57 
f 210//57 108//57 109//57 
f 96//57 104//57 212//57 
f 210//57 110//57 111//57 
f 109//57 106//57 210//57 
f 212//57 112//57 108//57 
f 212//57 113//57 114//57 
f 212//57 115//57 116//57 
f 111//57 103//57 210//57 
f 108//57 210//57 212//57 
f 116//57 113//57 212//57 
f 107//57 110//57 210//57 
f 105//57 115//57 212//57 
f 211//57 117//57 118//57 
f 211//57 119//57 120//57 
f 209//57 121//57 122//57 
f 123//57 124//57 125//57 
f 118//57 126//57 211//57 
f 120//57 127//57 211//57 
f 211//57 122//57 128//57 
f 209//57 129//57 121//57 
f 209//57 130//57 131//57 
f 209//57 132//57 133//57 
f 123//57 134//57 124//57 
f 123//57 135//57 136//57 
f 123//57 211//57 137//57 
f 127//57 117//57 211//57 
f 122//57 211//57 209//57 
f 209//57 138//57 130//57 
f 209//57 139//57 132//57 
f 136//57 134//57 123//57 
f 137//57 140//57 123//57 
f 128//57 119//57 211//57 
f 133//57 138//57 209//57 
f 140//57 135//57 123//57 
f 131//57 129//57 209//57 
f 141//57 142//57 143//57 
f 141//57 125//57 144//57 
f 126//57 137//57 211//57 
f 143//57 209//57 141//57 
f 141//57 145//57 146//57 
f 144//57 147//57 141//57 
f 143//57 139//57 209//57 
f 147//57 145//57 141//57 
f 146//57 142//57 141//57 
f 148//57 149//57 141//57 
f 141//57 209//57 148//57 
f 211//57 123//57 150//57 
f 150//57 123//57 151//57 
f 152//57 153//57 151//57 
f 151//57 153//57 150//57 
f 150//57 154//57 211//57 
f 154//57 155//57 156//57 
f 155//57 212//57 157//57 
f 212//57 211//57 158//57 
f 154//57 159//57 158//57 
f 157//57 156//57 155//57 
f 158//57 211//57 154//57 
f 158//57 157//57 212//57 
f 216//57 160//57 161//57 
f 162//57 161//57 160//57 
f 160//57 163//57 162//57 
f 212//57 155//57 160//57 
f 160//57 216//57 212//57 
f 164//57 165//57 166//57 
f 216//57 167//57 168//57 
f 166//57 168//57 164//57 
f 168//57 166//57 216//57 
f 166//57 169//57 216//57 
f 170//57 214//57 171//57 
f 216//57 169//57 171//57 
f 171//57 214//57 216//57 
f 215//57 214//57 172//57 
f 170//57 173//57 172//57 
f 172//57 214//57 170//57 
f 174//57 175//57 176//57 
f 176//57 177//57 178//57 
f 215//57 178//57 177//57 
f 176//57 175//57 177//57 
f 215//57 179//57 178//57 
f 177//57 180//57 215//57 
f 181//57 182//57 183//57 
f 213//57 184//57 185//57 
f 182//57 185//57 184//57 
f 184//57 183//57 182//57 
f 215//57 180//57 184//57 
f 184//57 213//57 215//57 
f 186//57 187//57 188//57 
f 186//57 189//57 190//57 
f 190//57 187//57 186//57 
f 189//57 208//57 191//57 
f 208//57 213//57 188//57 
f 191//57 190//57 189//57 
f 188//57 213//57 186//57 
f 192//57 193//57 194//57 
f 195//57 196//57 197//57 
f 193//57 198//57 195//57 
f 195//57 194//57 193//57 
f 208//57 189//57 197//57 
f 197//57 196//57 208//57 
f 209//57 55//57 53//57 
f 209//57 45//57 43//57 
f 53//57 51//57 209//57 
f 209//57 208//57 3//57 
f 208//57 7//57 5//57 
f 208//57 13//57 11//57 
f 196//57 21//57 19//57 
f 209//57 47//57 45//57 
f 209//57 57//57 55//57 
f 3//57 58//57 209//57 
f 208//57 9//57 7//57 
f 208//57 15//57 13//57 
f 19//57 208//57 196//57 
f 148//57 43//57 41//57 
f 209//57 49//57 47//57 
f 58//57 57//57 209//57 
f 11//57 9//57 208//57 
f 19//57 17//57 208//57 
f 199//57 33//57 31//57 
f 148//57 37//57 35//57 
f 41//57 39//57 148//57 
f 51//57 49//57 209//57 
f 17//57 15//57 208//57 
f 196//57 25//57 23//57 
f 31//57 196//57 199//57 
f 39//57 37//57 148//57 
f 5//57 3//57 208//57 
f 196//57 27//57 25//57 
f 31//57 29//57 196//57 
f 43//57 148//57 209//57 
f 29//57 27//57 196//57 
f 148//57 33//57 199//57 
f 23//57 21//57 196//57 
f 35//57 33//57 148//57 
f 199//57 200//57 148//57 
f 197//57 194//57 195//57 
f 194//57 201//57 192//57 
f 188//57 191//57 208//57 
f 185//57 186//57 213//57 
f 183//57 202//57 181//57 
f 178//57 203//57 176//57 
f 176//57 204//57 174//57 
f 172//57 179//57 215//57 
f 171//57 205//57 170//57 
f 168//57 206//57 164//57 
f 161//57 167//57 216//57 
f 156//57 159//57 154//57 
f 151//57 207//57 152//57 
f 125//57 141//57 123//57 
f 114//57 112//57 212//57 
f 65//57 59//57 210//57 
f 212//57 210//57 209//57 
f 210//57 213//57 208//57 
o mesh2
f 366//58 217//58 218//58 
f 218//58 367//58 366//58 
f 367//58 219//58 220//58 
f 366//58 221//58 217//58 
f 218//58 219//58 367//58 
f 366//58 222//58 223//58 
f 367//58 224//58 225//58 
f 223//58 221//58 366//58 
f 220//58 224//58 367//58 
f 366//58 226//58 227//58 
f 227//58 222//58 366//58 
f 368//58 228//58 229//58 
f 367//58 230//58 228//58 
f 225//58 231//58 367//58 
f 368//58 232//58 233//58 
f 228//58 368//58 367//58 
f 367//58 234//58 235//58 
f 366//58 236//58 226//58 
f 368//58 237//58 232//58 
f 229//58 238//58 368//58 
f 231//58 234//58 367//58 
f 366//58 239//58 240//58 
f 366//58 369//58 241//58 
f 369//58 242//58 243//58 
f 369//58 233//58 244//58 
f 238//58 237//58 368//58 
f 240//58 236//58 366//58 
f 243//58 241//58 369//58 
f 244//58 245//58 369//58 
f 235//58 230//58 367//58 
f 245//58 242//58 369//58 
f 241//58 239//58 366//58 
f 370//58 246//58 247//58 
f 371//58 248//58 249//58 
f 370//58 250//58 246//58 
f 367//58 368//58 251//58 
f 371//58 247//58 248//58 
f 370//58 252//58 250//58 
f 370//58 253//58 254//58 
f 370//58 255//58 256//58 
f 251//58 257//58 367//58 
f 368//58 258//58 259//58 
f 371//58 260//58 261//58 
f 247//58 371//58 370//58 
f 256//58 253//58 370//58 
f 370//58 367//58 262//58 
f 367//58 263//58 264//58 
f 367//58 265//58 266//58 
f 257//58 267//58 367//58 
f 259//58 268//58 368//58 
f 368//58 371//58 269//58 
f 249//58 260//58 371//58 
f 370//58 270//58 271//58 
f 262//58 255//58 370//58 
f 266//58 263//58 367//58 
f 268//58 251//58 368//58 
f 269//58 272//58 368//58 
f 271//58 252//58 370//58 
f 264//58 262//58 367//58 
f 367//58 273//58 274//58 
f 272//58 258//58 368//58 
f 254//58 270//58 370//58 
f 267//58 273//58 367//58 
f 274//58 265//58 367//58 
f 372//58 366//58 367//58 
f 373//58 367//58 370//58 
f 275//58 276//58 28//58 
f 28//58 30//58 275//58 
f 373//58 48//58 50//58 
f 275//58 38//58 40//58 
f 276//58 26//58 28//58 
f 373//58 56//58 2//58 
f 373//58 46//58 48//58 
f 275//58 36//58 38//58 
f 30//58 32//58 275//58 
f 373//58 54//58 56//58 
f 50//58 52//58 373//58 
f 373//58 40//58 42//58 
f 275//58 34//58 36//58 
f 276//58 24//58 26//58 
f 276//58 18//58 20//58 
f 276//58 372//58 16//58 
f 372//58 6//58 8//58 
f 372//58 2//58 1//58 
f 52//58 54//58 373//58 
f 42//58 44//58 373//58 
f 32//58 34//58 275//58 
f 20//58 22//58 276//58 
f 372//58 14//58 16//58 
f 8//58 10//58 372//58 
f 1//58 4//58 372//58 
f 44//58 46//58 373//58 
f 22//58 24//58 276//58 
f 372//58 12//58 14//58 
f 4//58 6//58 372//58 
f 40//58 373//58 275//58 
f 10//58 12//58 372//58 
f 16//58 18//58 276//58 
f 277//58 278//58 275//58 
f 275//58 373//58 277//58 
f 279//58 280//58 281//58 
f 372//58 276//58 282//58 
f 283//58 281//58 282//58 
f 284//58 281//58 283//58 
f 282//58 276//58 283//58 
f 282//58 285//58 372//58 
f 285//58 286//58 287//58 
f 285//58 288//58 289//58 
f 289//58 286//58 285//58 
f 288//58 366//58 290//58 
f 366//58 372//58 287//58 
f 290//58 289//58 288//58 
f 287//58 372//58 285//58 
f 291//58 292//58 293//58 
f 369//58 294//58 295//58 
f 293//58 295//58 294//58 
f 294//58 296//58 293//58 
f 366//58 288//58 294//58 
f 294//58 369//58 366//58 
f 297//58 298//58 299//58 
f 299//58 300//58 301//58 
f 369//58 302//58 303//58 
f 301//58 303//58 299//58 
f 303//58 301//58 369//58 
f 301//58 304//58 369//58 
f 305//58 368//58 306//58 
f 369//58 304//58 306//58 
f 306//58 368//58 369//58 
f 371//58 368//58 307//58 
f 305//58 308//58 307//58 
f 307//58 368//58 305//58 
f 309//58 310//58 311//58 
f 371//58 311//58 310//58 
f 309//58 312//58 310//58 
f 371//58 313//58 311//58 
f 310//58 314//58 371//58 
f 370//58 315//58 316//58 
f 317//58 316//58 315//58 
f 315//58 318//58 317//58 
f 371//58 314//58 315//58 
f 315//58 370//58 371//58 
f 319//58 320//58 321//58 
f 320//58 374//58 322//58 
f 322//58 321//58 320//58 
f 374//58 370//58 323//58 
f 323//58 322//58 374//58 
f 319//58 324//58 323//58 
f 323//58 370//58 319//58 
f 325//58 326//58 327//58 
f 328//58 329//58 327//58 
f 327//58 326//58 328//58 
f 374//58 320//58 325//58 
f 325//58 330//58 374//58 
f 331//58 332//58 333//58 
f 333//58 330//58 331//58 
f 374//58 334//58 335//58 
f 374//58 336//58 337//58 
f 331//58 338//58 332//58 
f 374//58 339//58 334//58 
f 374//58 340//58 336//58 
f 333//58 341//58 330//58 
f 374//58 342//58 343//58 
f 337//58 339//58 374//58 
f 330//58 344//58 340//58 
f 330//58 345//58 346//58 
f 331//58 347//58 338//58 
f 335//58 342//58 374//58 
f 330//58 348//58 344//58 
f 341//58 345//58 330//58 
f 331//58 349//58 350//58 
f 373//58 351//58 352//58 
f 373//58 353//58 354//58 
f 340//58 374//58 330//58 
f 350//58 347//58 331//58 
f 331//58 373//58 355//58 
f 352//58 356//58 373//58 
f 354//58 357//58 373//58 
f 373//58 374//58 358//58 
f 346//58 348//58 330//58 
f 373//58 359//58 355//58 
f 357//58 351//58 373//58 
f 358//58 360//58 373//58 
f 355//58 349//58 331//58 
f 360//58 353//58 373//58 
f 277//58 373//58 331//58 
f 356//58 359//58 373//58 
f 343//58 358//58 374//58 
f 331//58 361//58 277//58 
f 327//58 330//58 325//58 
f 321//58 324//58 319//58 
f 316//58 319//58 370//58 
f 311//58 362//58 309//58 
f 307//58 313//58 371//58 
f 306//58 363//58 305//58 
f 303//58 364//58 299//58 
f 299//58 364//58 297//58 
f 295//58 302//58 369//58 
f 293//58 296//58 291//58 
f 287//58 290//58 366//58 
f 283//58 365//58 284//58 
f 281//58 284//58 279//58 
f 2//58 372//58 373//58 
f 370//58 374//58 373//58 
f 367//58 373//58 372//58 
f 261//58 269//58 371//58 
f 233//58 369//58 368//58 
o mesh3
f 149//59 148//59 277//59 
f 278//59 277//59 148//59 
f 148//59 200//59 278//59 
f 277//59 361//59 149//59 
o mesh4
f 152//59 207//59 329//59 
f 329//59 328//59 152//59 
o mesh5
f 164//60 309//60 362//60 
f 362//60 165//60 164//60 
o mesh6
f 173//60 170//60 305//60 
f 308//60 305//60 170//60 
f 170//60 205//60 308//60 
f 305//60 363//60 173//60 
o mesh7
f 181//61 202//61 292//61 
f 292//61 291//61 181//61 
o mesh8
f 192//61 201//61 280//61 
f 280//61 279//61 192//61 
o mesh9
f 152//62 328//62 326//62 
f 326//62 153//62 152//62 
o mesh10
f 162//62 163//62 317//62 
f 317//62 318//62 162//62 
o mesh11
f 157//63 323//63 324//63 
f 324//63 156//63 157//63 
o mesh12
f 158//62 322//62 323//62 
f 323//62 157//62 158//62 
o mesh13
f 159//64 321//64 322//64 
f 322//64 158//64 159//64 
o mesh14
f 188//65 290//65 287//65 
f 287//65 191//65 188//65 
o mesh15
f 187//66 289//66 290//66 
f 290//66 188//66 187//66 
o mesh16
f 190//67 286//67 289//67 
f 289//67 187//67 190//67 
o mesh17
f 204//68 298//68 297//68 
f 297//68 174//68 204//68 
o mesh18
f 204//69 176//69 299//69 
f 300//69 299//69 176//69 
f 176//69 203//69 300//69 
f 299//69 298//69 204//69 
o mesh19
f 164//70 206//70 312//70 
f 312//70 309//70 164//70 
o mesh20
f 191//69 287//69 286//69 
f 286//69 190//69 191//69 
o mesh21
f 198//71 193//71 284//71 
f 279//71 284//71 193//71 
f 193//71 192//71 279//71 
f 284//71 365//71 198//71 
o mesh22
f 156//72 324//72 321//72 
f 321//72 159//72 156//72 
o mesh23
f 312//71 206//71 168//71 
f 168//71 310//71 312//71 
o mesh24
f 315//73 161//73 162//73 
f 162//73 318//73 315//73 
o mesh25
f 315//74 314//74 167//74 
f 168//74 167//74 314//74 
f 314//74 310//74 168//74 
f 167//74 161//74 315//74 
o mesh26
f 317//75 163//75 160//75 
f 160//75 316//75 317//75 
o mesh27
f 325//76 150//76 153//76 
f 153//76 326//76 325//76 
o mesh28
f 325//77 320//77 154//77 
f 155//77 154//77 320//77 
f 320//77 319//77 155//77 
f 160//77 155//77 319//77 
f 319//77 316//77 160//77 
f 154//77 150//77 325//77 
o mesh29
f 282//76 281//76 194//76 
f 201//76 194//76 281//76 
f 281//76 280//76 201//76 
f 194//76 197//76 282//76 
o mesh30
f 291//78 296//78 182//78 
f 185//78 182//78 296//78 
f 296//78 294//78 185//78 
f 182//78 181//78 291//78 
o mesh31
f 294//79 288//79 186//79 
f 189//79 186//79 288//79 
f 288//79 285//79 189//79 
f 197//79 189//79 285//79 
f 285//79 282//79 197//79 
f 186//79 185//79 294//79 
o mesh32
f 295//80 293//80 183//80 
f 202//80 183//80 293//80 
f 293//80 292//80 202//80 
f 183//80 184//80 295//80 
o mesh33
f 297//81 364//81 175//81 
f 177//81 175//81 364//81 
f 364//81 303//81 177//81 
f 175//81 174//81 297//81 
o mesh34
f 303//82 302//82 180//82 
f 184//82 180//82 302//82 
f 302//82 295//82 184//82 
f 180//82 177//82 303//82 
o mesh35
f 300//83 203//83 178//83 
f 178//83 301//83 300//83 
o mesh36
f 306//82 172//82 173//82 
f 173//82 363//82 306//82 
o mesh37
f 306//84 304//84 179//84 
f 178//84 179//84 304//84 
f 304//84 301//84 178//84 
f 179//84 172//84 306//84 
o mesh38
f 308//83 205//83 171//83 
f 171//83 307//83 308//83 
o mesh39
f 311//85 166//85 165//85 
f 165//85 362//85 311//85 
o mesh40
f 311//84 313//84 169//84 
f 171//84 169//84 313//84 
f 313//84 307//84 171//84 
f 169//84 166//84 311//84 
o mesh41
f 329//85 207//85 151//85 
f 151//85 327//85 329//85 
o mesh42
f 331//86 141//86 149//86 
f 149//86 361//86 331//86 
o mesh43
f 331//87 330//87 123//87 
f 151//87 123//87 330//87 
f 330//87 327//87 151//87 
f 123//87 141//87 331//87 
o mesh44
f 278//88 200//88 199//88 
f 199//88 275//88 278//88 
o mesh45
f 283//89 195//89 198//89 
f 198//89 365//89 283//89 
o mesh46
f 283//90 276//90 196//90 
f 199//90 196//90 276//90 
f 276//90 275//90 199//90 
f 196//90 195//90 283//90 
o mesh47
f 244//91 233//90 73//90 
f 245//92 244//91 75//91 
f 242//93 245//92 74//92 
f 243//94 242//93 84//93 
f 241//95 243//94 77//94 
f 239//96 241//95 76//95 
f 240//97 239//96 78//96 
f 236//98 240//97 86//97 
f 226//99 236//98 85//98 
f 227//100 226//99 87//99 
f 222//101 227//100 72//100 
f 223//102 222//101 71//101 
f 221//103 223//102 63//102 
f 217//104 221//103 62//103 
f 218//105 217//104 64//104 
f 219//106 218//105 59//105 
f 220//107 219//106 65//106 
f 224//108 220//107 61//107 
f 225//109 224//108 60//108 
f 231//110 225//109 67//109 
f 234//111 231//110 66//110 
f 235//112 234//111 79//111 
f 230//113 235//112 81//112 
f 228//114 230//113 80//113 
f 229//115 228//114 68//114 
f 238//116 229//115 70//115 
f 237//117 238//116 69//116 
f 232//118 237//117 82//117 
f 233//90 232//118 83//118 
f 83//118 73//90 233//90 
f 82//117 83//118 232//118 
f 69//116 82//117 237//117 
f 70//115 69//116 238//116 
f 68//114 70//115 229//115 
f 80//113 68//114 228//114 
f 81//112 80//113 230//113 
f 79//111 81//112 235//112 
f 66//110 79//111 234//111 
f 67//109 66//110 231//110 
f 60//108 67//109 225//109 
f 61//107 60//108 224//108 
f 65//106 61//107 220//107 
f 59//105 65//106 219//106 
f 64//104 59//105 218//105 
f 62//103 64//104 217//104 
f 63//102 62//103 221//103 
f 71//101 63//102 223//102 
f 72//100 71//101 222//101 
f 87//99 72//100 227//100 
f 85//98 87//99 226//99 
f 86//97 85//98 236//98 
f 78//96 86//97 240//97 
f 76//95 78//96 239//96 
f 77//94 76//95 241//95 
f 84//93 77//94 243//94 
f 74//92 84//93 242//93 
f 75//91 74//92 245//92 
f 73//90 75//91 244//91 
o mesh48
f 272//119 269//120 93//120 
f 258//121 272//119 92//122 
f 259//123 258//121 99//124 
f 268//125 259//123 101//126 
f 251//127 268//125 100//128 
f 257//129 251//127 95//130 
f 267//131 257//129 94//132 
f 273//133 267//131 102//134 
f 274//135 273//133 103//136 
f 265//137 274//135 111//138 
f 266//139 265//137 110//140 
f 263//141 266//139 107//142 
f 264//143 263//141 106//144 
f 262//145 264//143 109//146 
f 255//147 262//145 108//148 
f 256//149 255//147 112//150 
f 253//151 256//149 114//152 
f 254//153 253//151 113//154 
f 270//155 254//153 116//156 
f 271//157 270//155 115//158 
f 252//159 271//157 105//160 
f 250//161 252//159 104//162 
f 246//163 250//161 96//164 
f 247//165 246//163 89//166 
f 248//167 247//165 88//168 
f 249//169 248//167 97//170 
f 260//171 249//169 91//172 
f 261//173 260//171 90//174 
f 269//120 261//173 98//173 
f 98//173 93//120 269//120 
f 90//174 98//173 261//173 
f 91//172 90//174 260//171 
f 97//170 91//172 249//169 
f 88//168 97//170 248//167 
f 89//166 88//168 247//165 
f 96//164 89//166 246//163 
f 104//162 96//164 250//161 
f 105//160 104//162 252//159 
f 115//158 105//160 271//157 
f 116//156 115//158 270//155 
f 113//154 116//156 254//153 
f 114//152 113//154 253//151 
f 112//150 114//152 256//149 
f 108//148 112//150 255//147 
f 109//146 108//148 262//145 
f 106//144 109//146 264//143 
f 107//142 106//144 263//141 
f 110//140 107//142 266//139 
f 111//138 110//140 265//137 
f 103//136 111//138 274//135 
f 102//134 103//136 273//133 
f 94//132 102//134 267//131 
f 95//130 94//132 257//129 
f 100//128 95//130 251//127 
f 101//126 100//128 268//125 
f 99//124 101//126 259//123 
f 92//122 99//124 258//121 
f 93//120 92//122 272//119 
o mesh49
f 360//175 358//176 122//176 
f 353//177 360//175 121//178 
f 354//179 353//177 129//180 
f 357//181 354//179 131//182 
f 351//183 357//181 130//184 
f 352//185 351//183 138//186 
f 356//187 352//185 133//188 
f 359//189 356//187 132//190 
f 355//191 359//189 139//192 
f 349//193 355//191 143//194 
f 350//195 349//193 142//196 
f 347//197 350//195 146//198 
f 338//199 347//197 145//200 
f 332//201 338//199 147//202 
f 333//203 332//201 144//204 
f 341//205 333//203 125//206 
f 345//207 341//205 124//208 
f 346//209 345//207 134//210 
f 348//211 346//209 136//212 
f 344//213 348//211 135//214 
f 340//215 344//213 140//216 
f 336//217 340//215 137//218 
f 337//219 336//217 126//220 
f 339//221 337//219 118//222 
f 334//223 339//221 117//224 
f 335//225 334//223 127//226 
f 342//227 335//225 120//228 
f 343//229 342//227 119//230 
f 358//176 343//229 128//229 
f 128//229 122//176 358//176 
f 119//230 128//229 343//229 
f 120//228 119//230 342//227 
f 127//226 120//228 335//225 
f 117//224 127//226 334//223 
f 118//222 117//224 339//221 
f 126//220 118//222 337//219 
f 137//218 126//220 336//217 
f 140//216 137//218 340//215 
f 135//214 140//216 344//213 
f 136//212 135//214 348//211 
f 134//210 136//212 346//209 
f 124//208 134//210 345//207 
f 125//206 124//208 341//205 
f 144//204 125//206 333//203 
f 147//202 144//204 332//201 
f 145//200 147//202 338//199 
f 146//198 145//200 347//197 
f 142//196 146//198 350//195 
f 143//194 142//196 349//193 
f 139//192 143//194 355//191 
f 132//190 139//192 359//189 
f 133//188 132//190 356//187 
f 138//186 133//188 352//185 
f 130//184 138//186 351//183 
f 131//182 130//184 357//181 
f 129//180 131//182 354//179 
f 121//178 129//180 353//177 
f 122//176 121//178 360//175 
