# OBJ generated by ONSHAPE BY PTC INC, 1.219 Units = meters
mtllib Assembly 2 - Side Back.mtl
g Side Back
v 0.08253 0.19685 0.06985 
v 0.094285 0.19685 0.06985 
v 0.094285 0.2032 0.06985 
v 0.08253 0.2032 0.06985 
v 0.08253 0.2032 0.0762 
v 0.08253 0.19685 0.0762 
v 0.05502 0.19685 0.0762 
v 0.05502 0.2032 0.0762 
v 0.05502 0.2032 0.06985 
v 0.05502 0.19685 0.06985 
v 0.043265 0.2032 0.06985 
v 0.043265 0.19685 0.06985 
v 0.043265 0.2032 0.0674 
v 0.043265 0.19685 0.0674 
v 0.044865 0.2032 0.0674 
v 0.044865 0.19685 0.0674 
v 0.044865 0.2032 0.0642 
v 0.044865 0.19685 0.0642 
v 0.043265 0.19685 0.0642 
v 0.043265 0.2032 0.0642 
v 0.043265 0.2032 0.063 
v 0.043265 0.19685 0.063 
v 0.039265 0.19685 0.063 
v 0.039265 0.2032 0.063 
v 0.039265 0.19685 0.0642 
v 0.039265 0.2032 0.0642 
v 0.037665 0.19685 0.0642 
v 0.037665 0.2032 0.0642 
v 0.037665 0.19685 0.0674 
v 0.037665 0.2032 0.0674 
v 0.039265 0.2032 0.0674 
v 0.039265 0.19685 0.0674 
v 0.039265 0.19685 0.06985 
v 0.039265 0.2032 0.06985 
v 0.02751 0.19685 0.06985 
v 0.02751 0.2032 0.06985 
v 0.02751 0.2032 0.0762 
v 0.02751 0.19685 0.0762 
v 2.77556e-17 0.19685 0.0762 
v 2.77556e-17 0.2032 0.0762 
v -4.16334e-17 0.2032 0.0508 
v -4.16334e-17 0.19685 0.0508 
v 0.003175 0.2032 0.0508 
v 0.003175 0.19685 0.0508 
v 0.003175 0.2032 0.0401 
v 0.003175 0.19685 0.0401 
v 0.0088 0.2032 0.0401 
v 0.0088 0.19685 0.0401 
v 0.0088 0.2032 0.0417 
v 0.0088 0.19685 0.0417 
v 0.012 0.2032 0.0417 
v 0.012 0.19685 0.0417 
v 0.012 0.19685 0.0401 
v 0.012 0.2032 0.0401 
v 0.0132 0.2032 0.0401 
v 0.0132 0.19685 0.0401 
v 0.0132 0.19685 0.0361 
v 0.0132 0.2032 0.0361 
v 0.012 0.19685 0.0361 
v 0.012 0.2032 0.0361 
v 0.012 0.19685 0.0345 
v 0.012 0.2032 0.0345 
v 0.0088 0.19685 0.0345 
v 0.0088 0.2032 0.0345 
v 0.0088 0.2032 0.0361 
v 0.0088 0.19685 0.0361 
v 0.003175 0.19685 0.0361 
v 0.003175 0.2032 0.0361 
v 0.003175 0.19685 0.0254 
v 0.003175 0.2032 0.0254 
v -4.16334e-17 0.2032 0.0254 
v -4.16334e-17 0.19685 0.0254 
v -4.16334e-17 0.19685 0 
v -4.16334e-17 0.2032 0 
v 0.02751 0.2032 0 
v 0.02751 0.19685 0 
v 0.02751 0.2032 0.00635 
v 0.02751 0.19685 0.00635 
v 0.039265 0.2032 0.00635 
v 0.039265 0.19685 0.00635 
v 0.039265 0.2032 0.0088 
v 0.039265 0.19685 0.0088 
v 0.037665 0.2032 0.0088 
v 0.037665 0.19685 0.0088 
v 0.037665 0.2032 0.012 
v 0.037665 0.19685 0.012 
v 0.039265 0.19685 0.012 
v 0.039265 0.2032 0.012 
v 0.039265 0.2032 0.0132 
v 0.039265 0.19685 0.0132 
v 0.043265 0.19685 0.0132 
v 0.043265 0.2032 0.0132 
v 0.043265 0.19685 0.012 
v 0.043265 0.2032 0.012 
v 0.044865 0.19685 0.012 
v 0.044865 0.2032 0.012 
v 0.044865 0.19685 0.0088 
v 0.044865 0.2032 0.0088 
v 0.043265 0.2032 0.0088 
v 0.043265 0.19685 0.0088 
v 0.043265 0.19685 0.00635 
v 0.043265 0.2032 0.00635 
v 0.05502 0.19685 0.00635 
v 0.05502 0.2032 0.00635 
v 0.05502 0.2032 0 
v 0.05502 0.19685 0 
v 0.08253 0.19685 0 
v 0.08253 0.2032 0 
v 0.08253 0.2032 0.00635 
v 0.08253 0.19685 0.00635 
v 0.094285 0.2032 0.00635 
v 0.094285 0.19685 0.00635 
v 0.094285 0.2032 0.0088 
v 0.094285 0.19685 0.0088 
v 0.092685 0.2032 0.0088 
v 0.092685 0.19685 0.0088 
v 0.092685 0.2032 0.012 
v 0.092685 0.19685 0.012 
v 0.094285 0.19685 0.012 
v 0.094285 0.2032 0.012 
v 0.094285 0.2032 0.0132 
v 0.094285 0.19685 0.0132 
v 0.098285 0.19685 0.0132 
v 0.098285 0.2032 0.0132 
v 0.098285 0.19685 0.012 
v 0.098285 0.2032 0.012 
v 0.099885 0.19685 0.012 
v 0.099885 0.2032 0.012 
v 0.099885 0.19685 0.0088 
v 0.099885 0.2032 0.0088 
v 0.098285 0.2032 0.0088 
v 0.098285 0.19685 0.0088 
v 0.098285 0.19685 0.00635 
v 0.098285 0.2032 0.00635 
v 0.11004 0.19685 0.00635 
v 0.11004 0.2032 0.00635 
v 0.11004 0.2032 0 
v 0.11004 0.19685 0 
v 0.13755 0.19685 0 
v 0.13755 0.2032 0 
v 0.13755 0.2032 0.0254 
v 0.13755 0.19685 0.0254 
v 0.134375 0.2032 0.0254 
v 0.134375 0.19685 0.0254 
v 0.134375 0.2032 0.0361 
v 0.134375 0.19685 0.0361 
v 0.12875 0.2032 0.0361 
v 0.12875 0.19685 0.0361 
v 0.12875 0.2032 0.0345 
v 0.12875 0.19685 0.0345 
v 0.12555 0.2032 0.0345 
v 0.12555 0.19685 0.0345 
v 0.12555 0.19685 0.0361 
v 0.12555 0.2032 0.0361 
v 0.12435 0.2032 0.0361 
v 0.12435 0.19685 0.0361 
v 0.12435 0.19685 0.0401 
v 0.12435 0.2032 0.0401 
v 0.12555 0.19685 0.0401 
v 0.12555 0.2032 0.0401 
v 0.12555 0.19685 0.0417 
v 0.12555 0.2032 0.0417 
v 0.12875 0.19685 0.0417 
v 0.12875 0.2032 0.0417 
v 0.12875 0.2032 0.0401 
v 0.12875 0.19685 0.0401 
v 0.134375 0.19685 0.0401 
v 0.134375 0.2032 0.0401 
v 0.134375 0.19685 0.0508 
v 0.134375 0.2032 0.0508 
v 0.13755 0.2032 0.0508 
v 0.13755 0.19685 0.0508 
v 0.13755 0.19685 0.0762 
v 0.13755 0.2032 0.0762 
v 0.11004 0.2032 0.0762 
v 0.11004 0.19685 0.0762 
v 0.11004 0.2032 0.06985 
v 0.11004 0.19685 0.06985 
v 0.098285 0.2032 0.06985 
v 0.098285 0.19685 0.06985 
v 0.094285 0.19685 0.0674 
v 0.094285 0.2032 0.0674 
v 0.092685 0.19685 0.0674 
v 0.092685 0.2032 0.0674 
v 0.098285 0.2032 0.0674 
v 0.098285 0.19685 0.0674 
v 0.099885 0.2032 0.0674 
v 0.099885 0.19685 0.0674 
v 0.099885 0.2032 0.0642 
v 0.099885 0.19685 0.0642 
v 0.098285 0.19685 0.0642 
v 0.098285 0.2032 0.0642 
v 0.098285 0.2032 0.063 
v 0.098285 0.19685 0.063 
v 0.094285 0.19685 0.063 
v 0.094285 0.2032 0.063 
v 0.092685 0.19685 0.0642 
v 0.094285 0.19685 0.0642 
v 0.092685 0.2032 0.0642 
v 0.094285 0.2032 0.0642 
vn 0 0 1 
vn 1 0 0 
vn -1 0 0 
vn 0 0 1 
vn 0 0 -1 
vn -1 0 0 
vn 0 0 1 
vn 1 0 0 
vn 0 0 -1 
vn 0 0 1 
vn 1 0 0 
vn -1 0 0 
vn 0 0 -1 
vn 1 0 0 
vn -1 0 0 
vn 0 0 -1 
vn 0 0 1 
vn -1 0 0 
vn 1 0 0 
vn 0 0 1 
vn -1 0 0 
vn 0 0 -1 
vn 1 0 0 
vn 0 0 1 
vn 0 0 -1 
vn 1 0 0 
vn -1 0 0 
vn 0 0 -1 
vn 0 0 1 
vn -1 0 0 
vn 0 0 -1 
vn 1 0 0 
vn 0 0 1 
vn 0 0 -1 
vn 1 0 0 
vn -1 0 0 
vn 0 0 -1 
vn 0 0 1 
vn -1 0 0 
vn 0 0 -1 
vn 1 0 0 
vn 0 0 1 
vn -1 0 0 
vn 1 0 0 
vn 0 0 1 
vn 0 0 -1 
vn 1 0 0 
vn -1 0 0 
vn 0 0 -1 
vn 1 0 0 
vn 0 0 1 
vn -1 0 0 
vn 1 0 0 
vn 0 0 -1 
vn -1 0 0 
vn 0 0 1 
vn 0 -1 0 
vn 0 1 0 
vn 1 0 0 
vn 0 0 1 
usemtl 0.917647_0.917647_0.917647_0.000000_0.000000
o mesh0
f 1//1 2//1 3//1 
f 3//1 4//1 1//1 
o mesh1
f 5//2 6//2 1//2 
f 1//2 4//2 5//2 
o mesh2
f 7//1 6//1 5//1 
f 5//1 8//1 7//1 
o mesh3
f 9//3 10//3 7//3 
f 7//3 8//3 9//3 
o mesh4
f 10//4 9//4 11//4 
f 11//4 12//4 10//4 
o mesh5
f 13//3 14//3 12//3 
f 12//3 11//3 13//3 
o mesh6
f 15//5 16//5 14//5 
f 14//5 13//5 15//5 
o mesh7
f 17//6 18//6 16//6 
f 16//6 15//6 17//6 
o mesh8
f 19//7 18//7 17//7 
f 17//7 20//7 19//7 
o mesh9
f 21//6 22//6 19//6 
f 19//6 20//6 21//6 
o mesh10
f 23//7 22//7 21//7 
f 21//7 24//7 23//7 
o mesh11
f 25//8 23//8 24//8 
f 24//8 26//8 25//8 
o mesh12
f 27//7 25//7 26//7 
f 26//7 28//7 27//7 
o mesh13
f 29//8 27//8 28//8 
f 28//8 30//8 29//8 
o mesh14
f 31//9 32//9 29//9 
f 29//9 30//9 31//9 
o mesh15
f 33//8 32//8 31//8 
f 31//8 34//8 33//8 
o mesh16
f 35//10 33//10 34//10 
f 34//10 36//10 35//10 
o mesh17
f 37//11 38//11 35//11 
f 35//11 36//11 37//11 
o mesh18
f 39//10 38//10 37//10 
f 37//10 40//10 39//10 
o mesh19
f 39//12 40//12 41//12 
f 41//12 42//12 39//12 
o mesh20
f 43//13 44//13 42//13 
f 42//13 41//13 43//13 
o mesh21
f 44//12 43//12 45//12 
f 45//12 46//12 44//12 
o mesh22
f 47//13 48//13 46//13 
f 46//13 45//13 47//13 
o mesh23
f 49//14 50//14 48//14 
f 48//14 47//14 49//14 
o mesh24
f 51//13 52//13 50//13 
f 50//13 49//13 51//13 
o mesh25
f 53//15 52//15 51//15 
f 51//15 54//15 53//15 
o mesh26
f 55//16 56//16 53//16 
f 53//16 54//16 55//16 
o mesh27
f 57//15 56//15 55//15 
f 55//15 58//15 57//15 
o mesh28
f 59//17 57//17 58//17 
f 58//17 60//17 59//17 
o mesh29
f 61//18 59//18 60//18 
f 60//18 62//18 61//18 
o mesh30
f 63//17 61//17 62//17 
f 62//17 64//17 63//17 
o mesh31
f 65//19 66//19 63//19 
f 63//19 64//19 65//19 
o mesh32
f 67//20 66//20 65//20 
f 65//20 68//20 67//20 
o mesh33
f 69//21 67//21 68//21 
f 68//21 70//21 69//21 
o mesh34
f 71//20 72//20 69//20 
f 69//20 70//20 71//20 
o mesh35
f 73//21 72//21 71//21 
f 71//21 74//21 73//21 
o mesh36
f 73//22 74//22 75//22 
f 75//22 76//22 73//22 
o mesh37
f 77//23 78//23 76//23 
f 76//23 75//23 77//23 
o mesh38
f 78//22 77//22 79//22 
f 79//22 80//22 78//22 
o mesh39
f 81//23 82//23 80//23 
f 80//23 79//23 81//23 
o mesh40
f 83//24 84//24 82//24 
f 82//24 81//24 83//24 
o mesh41
f 85//23 86//23 84//23 
f 84//23 83//23 85//23 
o mesh42
f 87//25 86//25 85//25 
f 85//25 88//25 87//25 
o mesh43
f 89//26 90//26 87//26 
f 87//26 88//26 89//26 
o mesh44
f 91//25 90//25 89//25 
f 89//25 92//25 91//25 
o mesh45
f 93//27 91//27 92//27 
f 92//27 94//27 93//27 
o mesh46
f 95//28 93//28 94//28 
f 94//28 96//28 95//28 
o mesh47
f 97//27 95//27 96//27 
f 96//27 98//27 97//27 
o mesh48
f 99//29 100//29 97//29 
f 97//29 98//29 99//29 
o mesh49
f 101//30 100//30 99//30 
f 99//30 102//30 101//30 
o mesh50
f 103//31 101//31 102//31 
f 102//31 104//31 103//31 
o mesh51
f 105//30 106//30 103//30 
f 103//30 104//30 105//30 
o mesh52
f 107//31 106//31 105//31 
f 105//31 108//31 107//31 
o mesh53
f 109//32 110//32 107//32 
f 107//32 108//32 109//32 
o mesh54
f 110//31 109//31 111//31 
f 111//31 112//31 110//31 
o mesh55
f 113//32 114//32 112//32 
f 112//32 111//32 113//32 
o mesh56
f 115//33 116//33 114//33 
f 114//33 113//33 115//33 
o mesh57
f 117//32 118//32 116//32 
f 116//32 115//32 117//32 
o mesh58
f 119//34 118//34 117//34 
f 117//34 120//34 119//34 
o mesh59
f 121//35 122//35 119//35 
f 119//35 120//35 121//35 
o mesh60
f 123//34 122//34 121//34 
f 121//34 124//34 123//34 
o mesh61
f 125//36 123//36 124//36 
f 124//36 126//36 125//36 
o mesh62
f 127//37 125//37 126//37 
f 126//37 128//37 127//37 
o mesh63
f 129//36 127//36 128//36 
f 128//36 130//36 129//36 
o mesh64
f 131//38 132//38 129//38 
f 129//38 130//38 131//38 
o mesh65
f 133//39 132//39 131//39 
f 131//39 134//39 133//39 
o mesh66
f 135//40 133//40 134//40 
f 134//40 136//40 135//40 
o mesh67
f 137//39 138//39 135//39 
f 135//39 136//39 137//39 
o mesh68
f 139//40 138//40 137//40 
f 137//40 140//40 139//40 
o mesh69
f 139//41 140//41 141//41 
f 141//41 142//41 139//41 
o mesh70
f 143//42 144//42 142//42 
f 142//42 141//42 143//42 
o mesh71
f 144//41 143//41 145//41 
f 145//41 146//41 144//41 
o mesh72
f 147//42 148//42 146//42 
f 146//42 145//42 147//42 
o mesh73
f 149//43 150//43 148//43 
f 148//43 147//43 149//43 
o mesh74
f 151//42 152//42 150//42 
f 150//42 149//42 151//42 
o mesh75
f 153//44 152//44 151//44 
f 151//44 154//44 153//44 
o mesh76
f 155//45 156//45 153//45 
f 153//45 154//45 155//45 
o mesh77
f 157//44 156//44 155//44 
f 155//44 158//44 157//44 
o mesh78
f 159//46 157//46 158//46 
f 158//46 160//46 159//46 
o mesh79
f 161//47 159//47 160//47 
f 160//47 162//47 161//47 
o mesh80
f 163//46 161//46 162//46 
f 162//46 164//46 163//46 
o mesh81
f 165//48 166//48 163//48 
f 163//48 164//48 165//48 
o mesh82
f 167//49 166//49 165//49 
f 165//49 168//49 167//49 
o mesh83
f 169//50 167//50 168//50 
f 168//50 170//50 169//50 
o mesh84
f 171//49 172//49 169//49 
f 169//49 170//49 171//49 
o mesh85
f 173//50 172//50 171//50 
f 171//50 174//50 173//50 
o mesh86
f 173//51 174//51 175//51 
f 175//51 176//51 173//51 
o mesh87
f 177//52 178//52 176//52 
f 176//52 175//52 177//52 
o mesh88
f 178//51 177//51 179//51 
f 179//51 180//51 178//51 
o mesh89
f 2//53 181//53 182//53 
f 182//53 3//53 2//53 
o mesh90
f 182//54 181//54 183//54 
f 183//54 184//54 182//54 
o mesh91
f 185//55 186//55 180//55 
f 180//55 179//55 185//55 
o mesh92
f 187//54 188//54 186//54 
f 186//54 185//54 187//54 
o mesh93
f 189//55 190//55 188//55 
f 188//55 187//55 189//55 
o mesh94
f 191//56 190//56 189//56 
f 189//56 192//56 191//56 
o mesh95
f 193//55 194//55 191//55 
f 191//55 192//55 193//55 
o mesh96
f 195//56 194//56 193//56 
f 193//56 196//56 195//56 
o mesh97
f 152//57 156//57 127//57 
f 190//57 122//57 123//57 
f 152//57 153//57 156//57 
f 144//57 150//57 152//57 
f 190//57 95//57 122//57 
f 152//57 129//57 144//57 
f 146//57 148//57 150//57 
f 123//57 127//57 156//57 
f 123//57 161//57 190//57 
f 178//57 188//57 190//57 
f 139//57 129//57 135//57 
f 133//57 135//57 129//57 
f 150//57 144//57 146//57 
f 139//57 142//57 144//57 
f 156//57 157//57 123//57 
f 167//57 169//57 163//57 
f 190//57 163//57 178//57 
f 180//57 186//57 188//57 
f 129//57 132//57 133//57 
f 144//57 129//57 139//57 
f 123//57 125//57 127//57 
f 163//57 166//57 167//57 
f 188//57 178//57 180//57 
f 173//57 176//57 178//57 
f 127//57 129//57 152//57 
f 157//57 161//57 123//57 
f 169//57 173//57 163//57 
f 178//57 163//57 173//57 
f 52//57 56//57 27//57 
f 157//57 159//57 161//57 
f 161//57 163//57 190//57 
f 52//57 53//57 56//57 
f 44//57 50//57 52//57 
f 169//57 172//57 173//57 
f 122//57 95//57 118//57 
f 52//57 29//57 44//57 
f 46//57 48//57 50//57 
f 23//57 27//57 56//57 
f 78//57 22//57 23//57 
f 118//57 119//57 122//57 
f 118//57 95//57 110//57 
f 39//57 29//57 35//57 
f 33//57 35//57 29//57 
f 50//57 44//57 46//57 
f 39//57 42//57 44//57 
f 56//57 57//57 23//57 
f 67//57 69//57 63//57 
f 78//57 1//57 22//57 
f 110//57 116//57 118//57 
f 112//57 114//57 116//57 
f 95//57 190//57 194//57 
f 1//57 90//57 91//57 
f 29//57 32//57 33//57 
f 44//57 29//57 39//57 
f 23//57 25//57 27//57 
f 63//57 66//57 67//57 
f 73//57 76//57 61//57 
f 61//57 76//57 78//57 
f 107//57 97//57 103//57 
f 101//57 103//57 97//57 
f 116//57 110//57 112//57 
f 110//57 95//57 97//57 
f 91//57 93//57 195//57 
f 194//57 93//57 95//57 
f 91//57 197//57 1//57 
f 27//57 29//57 52//57 
f 57//57 61//57 23//57 
f 69//57 73//57 63//57 
f 23//57 61//57 78//57 
f 97//57 100//57 101//57 
f 97//57 107//57 110//57 
f 194//57 195//57 93//57 
f 2//57 1//57 183//57 
f 1//57 78//57 90//57 
f 57//57 59//57 61//57 
f 61//57 63//57 73//57 
f 135//57 138//57 139//57 
f 190//57 191//57 194//57 
f 197//57 183//57 1//57 
f 69//57 72//57 73//57 
f 22//57 1//57 18//57 
f 195//57 198//57 91//57 
f 91//57 198//57 197//57 
f 18//57 19//57 22//57 
f 18//57 1//57 10//57 
f 183//57 181//57 2//57 
f 90//57 78//57 86//57 
f 10//57 16//57 18//57 
f 12//57 14//57 16//57 
f 86//57 87//57 90//57 
f 16//57 10//57 12//57 
f 7//57 10//57 1//57 
f 78//57 84//57 86//57 
f 80//57 82//57 84//57 
f 1//57 6//57 7//57 
f 84//57 78//57 80//57 
f 103//57 106//57 107//57 
f 35//57 38//57 39//57 
o mesh98
f 96//58 117//58 104//58 
f 102//58 99//58 98//58 
f 105//58 115//58 109//58 
f 111//58 109//58 115//58 
f 98//58 104//58 102//58 
f 104//58 117//58 115//58 
f 121//58 120//58 117//58 
f 11//58 9//58 15//58 
f 115//58 113//58 111//58 
f 115//58 105//58 104//58 
f 96//58 196//58 121//58 
f 9//58 17//58 15//58 
f 21//58 20//58 17//58 
f 104//58 98//58 96//58 
f 117//58 96//58 121//58 
f 124//58 196//58 193//58 
f 45//58 43//58 49//58 
f 36//58 30//58 51//58 
f 34//58 31//58 30//58 
f 17//58 9//58 21//58 
f 55//58 24//58 21//58 
f 162//58 158//58 189//58 
f 96//58 94//58 196//58 
f 193//58 151//58 124//58 
f 49//58 47//58 45//58 
f 30//58 36//58 34//58 
f 40//58 37//58 36//58 
f 21//58 9//58 55//58 
f 24//58 55//58 28//58 
f 51//58 30//58 28//58 
f 58//58 55//58 9//58 
f 162//58 160//58 158//58 
f 170//58 164//58 162//58 
f 124//58 121//58 196//58 
f 124//58 151//58 128//58 
f 136//58 130//58 128//58 
f 43//58 40//58 49//58 
f 36//58 49//58 40//58 
f 28//58 26//58 24//58 
f 28//58 55//58 51//58 
f 5//58 4//58 9//58 
f 4//58 77//58 58//58 
f 162//58 187//58 170//58 
f 168//58 165//58 164//58 
f 193//58 189//58 158//58 
f 128//58 126//58 124//58 
f 128//58 151//58 136//58 
f 51//58 49//58 36//58 
f 55//58 54//58 51//58 
f 4//58 184//58 199//58 
f 9//58 4//58 58//58 
f 174//58 187//58 177//58 
f 179//58 177//58 187//58 
f 164//58 170//58 168//58 
f 174//58 171//58 170//58 
f 158//58 155//58 193//58 
f 145//58 143//58 149//58 
f 151//58 149//58 136//58 
f 134//58 131//58 130//58 
f 79//58 77//58 83//58 
f 15//58 13//58 11//58 
f 9//58 8//58 5//58 
f 187//58 185//58 179//58 
f 170//58 187//58 174//58 
f 193//58 192//58 189//58 
f 149//58 147//58 145//58 
f 130//58 136//58 134//58 
f 140//58 137//58 136//58 
f 77//58 85//58 83//58 
f 89//58 88//58 85//58 
f 92//58 89//58 199//58 
f 199//58 77//58 4//58 
f 58//58 77//58 62//58 
f 77//58 70//58 64//58 
f 189//58 187//58 162//58 
f 155//58 151//58 193//58 
f 143//58 140//58 149//58 
f 136//58 149//58 140//58 
f 85//58 77//58 89//58 
f 199//58 200//58 92//58 
f 62//58 60//58 58//58 
f 64//58 62//58 77//58 
f 155//58 154//58 151//58 
f 109//58 108//58 105//58 
f 89//58 77//58 199//58 
f 92//58 200//58 196//58 
f 77//58 75//58 70//58 
f 68//58 65//58 64//58 
f 143//58 141//58 140//58 
f 196//58 94//58 92//58 
f 64//58 70//58 68//58 
f 74//58 71//58 70//58 
f 83//58 81//58 79//58 
f 70//58 75//58 74//58 
f 43//58 41//58 40//58 
f 3//58 182//58 184//58 
f 184//58 4//58 3//58 
f 177//58 175//58 174//58 
o mesh99
f 198//59 195//59 196//59 
f 196//59 200//59 198//59 
o mesh100
f 197//60 198//60 200//60 
f 200//60 199//60 197//60 
o mesh101
f 183//59 197//59 199//59 
f 199//59 184//59 183//59 
