# OBJ generated by ONSHAPE BY PTC INC, 1.219 Units = meters
mtllib Assembly 2 - 2xSTANDOFF (1).mtl
g 2xSTANDOFF
v -0.00155039 -0.000341266 0 
v -0.0015875 9.72063e-20 0 
v -0.0015875 9.72063e-20 0.0508 
v -0.00144078 -0.000666574 0 
v -0.00155039 -0.000341266 0.0508 
v -0.0012638 -0.000960714 0 
v -0.00144078 -0.000666574 0.0508 
v -0.00102773 -0.00120993 0 
v -0.0012638 -0.000960714 0.0508 
v -0.000743598 -0.00140258 0 
v -0.00102773 -0.00120993 0.0508 
v -0.000424701 -0.00152964 0 
v -0.000743598 -0.00140258 0.0508 
v -8.59455e-05 -0.00158517 0 
v -0.000424701 -0.00152964 0.0508 
v 0.000256829 -0.00156659 0 
v -8.59455e-05 -0.00158517 0.0508 
v 0.000587594 -0.00147475 0 
v 0.000256829 -0.00156659 0.0508 
v 0.000890884 -0.00131396 0 
v 0.000587594 -0.00147475 0.0508 
v 0.00115252 -0.00109172 0 
v 0.000890884 -0.00131396 0.0508 
v 0.00136026 -0.000818442 0 
v 0.00115252 -0.00109172 0.0508 
v 0.0015044 -0.000506891 0 
v 0.00136026 -0.000818442 0.0508 
v 0.00157819 -0.000171639 0 
v 0.0015044 -0.000506891 0.0508 
v 0.00157819 0.000171639 0 
v 0.0015875 6.80444e-19 0 
v 0.0015875 2.91619e-19 0.0508 
v 0.00157819 -0.000171639 0.0508 
v 0.0015044 0.000506891 0 
v 0.00157819 0.000171639 0.0508 
v 0.00136026 0.000818442 0 
v 0.0015044 0.000506891 0.0508 
v 0.00115252 0.00109172 0 
v 0.00136026 0.000818442 0.0508 
v 0.000890884 0.00131396 0 
v 0.00115252 0.00109172 0.0508 
v 0.000587594 0.00147475 0 
v 0.000890884 0.00131396 0.0508 
v 0.000256829 0.00156659 0 
v 0.000587594 0.00147475 0.0508 
v -8.59455e-05 0.00158517 0 
v 0.000256829 0.00156659 0.0508 
v -0.000424701 0.00152964 0 
v -8.59455e-05 0.00158517 0.0508 
v -0.000743598 0.00140258 0 
v -0.000424701 0.00152964 0.0508 
v -0.00102773 0.00120993 0 
v -0.000743598 0.00140258 0.0508 
v -0.0012638 0.000960714 0 
v -0.00102773 0.00120993 0.0508 
v -0.00144078 0.000666574 0 
v -0.0012638 0.000960714 0.0508 
v -0.00155039 0.000341266 0 
v -0.00144078 0.000666574 0.0508 
v -0.00155039 0.000341266 0.0508 
v -0.00160004 0.00277135 0.0508 
v -0.00320008 6.50521e-19 0.0508 
v -0.00160004 -0.00277135 0.0508 
v 0.00160004 0.00277135 0.0508 
v 0.00160004 -0.00277135 0.0508 
v 0.00320008 6.50521e-19 0.0508 
v 0.00320008 6.50521e-19 0 
v 0.00160004 0.00277135 0 
v 0.00160004 -0.00277135 0 
v -0.00160004 0.00277135 0 
v -0.00160004 -0.00277135 0 
v -0.00320008 6.50521e-19 0 
vn 0.976621 0.21497 0 
vn 1 2.44929e-16 0 
vn 0.907575 0.419889 0 
vn 0.976621 0.21497 0 
vn 0.796093 0.605174 0 
vn 0.907575 0.419889 0 
vn 0.647386 0.762162 0 
vn 0.796093 0.605174 0 
vn 0.468408 0.883512 0 
vn 0.647386 0.762162 0 
vn 0.267528 0.96355 0 
vn 0.468408 0.883512 0 
vn 0.0541389 0.998533 0 
vn 0.267528 0.96355 0 
vn -0.161782 0.986827 0 
vn 0.0541389 0.998533 0 
vn -0.370138 0.928977 0 
vn -0.161782 0.986827 0 
vn -0.561187 0.827689 0 
vn -0.370138 0.928977 0 
vn -0.725995 0.687699 0 
vn -0.561187 0.827689 0 
vn -0.856857 0.515554 0 
vn -0.725995 0.687699 0 
vn -0.947653 0.319302 0 
vn -0.856857 0.515554 0 
vn -0.994138 0.108119 0 
vn -0.947653 0.319302 0 
vn -0.994138 -0.108119 0 
vn -1 -3.67394e-16 0 
vn -0.994138 0.108119 0 
vn -0.947653 -0.319302 0 
vn -0.994138 -0.108119 0 
vn -0.856857 -0.515554 0 
vn -0.947653 -0.319302 0 
vn -0.725995 -0.687699 0 
vn -0.856857 -0.515554 0 
vn -0.561187 -0.827689 0 
vn -0.725995 -0.687699 0 
vn -0.370138 -0.928977 0 
vn -0.561187 -0.827689 0 
vn -0.161782 -0.986827 0 
vn -0.370138 -0.928977 0 
vn 0.0541389 -0.998533 0 
vn -0.161782 -0.986827 0 
vn 0.267528 -0.96355 0 
vn 0.0541389 -0.998533 0 
vn 0.468408 -0.883512 0 
vn 0.267528 -0.96355 0 
vn 0.647386 -0.762162 0 
vn 0.468408 -0.883512 0 
vn 0.796093 -0.605174 0 
vn 0.647386 -0.762162 0 
vn 0.907575 -0.419889 0 
vn 0.796093 -0.605174 0 
vn 0.976621 -0.21497 0 
vn 0.907575 -0.419889 0 
vn 0 0 1 
vn 0 0 -1 
vn 0.866025 0.5 0 
vn 0 1 0 
vn -0.866025 0.5 0 
vn -0.866025 -0.5 0 
vn 0 -1 0 
vn 0.866025 -0.5 0 
usemtl 0.615686_0.811765_0.929412_0.000000_0.000000
o mesh0
f 1//1 2//2 3//2 
f 4//3 1//1 5//4 
f 6//5 4//3 7//6 
f 8//7 6//5 9//8 
f 10//9 8//7 11//10 
f 12//11 10//9 13//12 
f 14//13 12//11 15//14 
f 16//15 14//13 17//16 
f 18//17 16//15 19//18 
f 20//19 18//17 21//20 
f 22//21 20//19 23//22 
f 24//23 22//21 25//24 
f 26//25 24//23 27//26 
f 28//27 26//25 29//28 
f 30//29 31//30 32//30 
f 33//31 32//30 31//30 
f 31//30 28//27 33//31 
f 34//32 30//29 35//33 
f 36//34 34//32 37//35 
f 38//36 36//34 39//37 
f 40//38 38//36 41//39 
f 42//40 40//38 43//41 
f 44//42 42//40 45//43 
f 46//44 44//42 47//45 
f 48//46 46//44 49//47 
f 50//48 48//46 51//49 
f 52//50 50//48 53//51 
f 54//52 52//50 55//53 
f 56//54 54//52 57//55 
f 58//56 56//54 59//57 
f 2//2 58//56 60//56 
f 60//56 3//2 2//2 
f 59//57 60//56 58//56 
f 57//55 59//57 56//54 
f 55//53 57//55 54//52 
f 53//51 55//53 52//50 
f 51//49 53//51 50//48 
f 49//47 51//49 48//46 
f 47//45 49//47 46//44 
f 45//43 47//45 44//42 
f 43//41 45//43 42//40 
f 41//39 43//41 40//38 
f 39//37 41//39 38//36 
f 37//35 39//37 36//34 
f 35//33 37//35 34//32 
f 32//30 35//33 30//29 
f 29//28 33//31 28//27 
f 27//26 29//28 26//25 
f 25//24 27//26 24//23 
f 23//22 25//24 22//21 
f 21//20 23//22 20//19 
f 19//18 21//20 18//17 
f 17//16 19//18 16//15 
f 15//14 17//16 14//13 
f 13//12 15//14 12//11 
f 11//10 13//12 10//9 
f 9//8 11//10 8//7 
f 7//6 9//8 6//5 
f 5//4 7//6 4//3 
f 3//2 5//4 1//1 
o mesh1
f 61//58 62//58 59//58 
f 63//58 9//58 7//58 
f 61//58 55//58 53//58 
f 62//58 60//58 59//58 
f 62//58 7//58 5//58 
f 63//58 11//58 9//58 
f 64//58 45//58 43//58 
f 61//58 57//58 55//58 
f 62//58 3//58 60//58 
f 7//58 62//58 63//58 
f 63//58 15//58 13//58 
f 65//58 19//58 17//58 
f 66//58 29//58 27//58 
f 66//58 37//58 35//58 
f 66//58 64//58 39//58 
f 43//58 41//58 64//58 
f 59//58 57//58 61//58 
f 13//58 11//58 63//58 
f 17//58 63//58 65//58 
f 27//58 65//58 66//58 
f 66//58 32//58 33//58 
f 39//58 37//58 66//58 
f 64//58 47//58 45//58 
f 64//58 61//58 49//58 
f 5//58 3//58 62//58 
f 65//58 21//58 19//58 
f 65//58 25//58 23//58 
f 33//58 29//58 66//58 
f 41//58 39//58 64//58 
f 61//58 51//58 49//58 
f 17//58 15//58 63//58 
f 27//58 25//58 65//58 
f 49//58 47//58 64//58 
f 23//58 21//58 65//58 
f 53//58 51//58 61//58 
f 35//58 32//58 66//58 
o mesh2
f 67//59 28//59 31//59 
f 31//59 30//59 67//59 
f 67//59 34//59 36//59 
f 67//59 26//59 28//59 
f 68//59 38//59 40//59 
f 30//59 34//59 67//59 
f 67//59 69//59 24//59 
f 68//59 44//59 46//59 
f 68//59 36//59 38//59 
f 24//59 26//59 67//59 
f 46//59 70//59 68//59 
f 40//59 42//59 68//59 
f 69//59 22//59 24//59 
f 69//59 18//59 20//59 
f 69//59 71//59 14//59 
f 71//59 72//59 4//59 
f 42//59 44//59 68//59 
f 20//59 22//59 69//59 
f 71//59 12//59 14//59 
f 71//59 8//59 10//59 
f 4//59 6//59 71//59 
f 72//59 56//59 58//59 
f 70//59 54//59 56//59 
f 70//59 50//59 52//59 
f 36//59 68//59 67//59 
f 14//59 16//59 69//59 
f 6//59 8//59 71//59 
f 72//59 2//59 1//59 
f 56//59 72//59 70//59 
f 70//59 48//59 50//59 
f 16//59 18//59 69//59 
f 1//59 4//59 72//59 
f 52//59 54//59 70//59 
f 10//59 12//59 71//59 
f 46//59 48//59 70//59 
f 58//59 2//59 72//59 
o mesh3
f 66//60 67//60 68//60 
f 68//60 64//60 66//60 
o mesh4
f 64//61 68//61 70//61 
f 70//61 61//61 64//61 
o mesh5
f 61//62 70//62 72//62 
f 72//62 62//62 61//62 
o mesh6
f 62//63 72//63 71//63 
f 71//63 63//63 62//63 
o mesh7
f 63//64 71//64 69//64 
f 69//64 65//64 63//64 
o mesh8
f 65//65 69//65 67//65 
f 67//65 66//65 65//65 
