# OBJ generated by ONSHAPE BY PTC INC, 1.219 Units = meters
mtllib Assembly 2 - ToF Left.mtl
g ToF Left
v 0.098775 0.0364313 0.0287792 
v 0.098775 0.0367 0.02875 
v 0.092425 0.0367 0.02875 
v 0.098775 0.0361751 0.0288655 
v 0.092425 0.0364313 0.0287792 
v 0.098775 0.0359435 0.0290049 
v 0.092425 0.0361751 0.0288655 
v 0.098775 0.0357473 0.0291908 
v 0.092425 0.0359435 0.0290049 
v 0.098775 0.0355956 0.0294145 
v 0.092425 0.0357473 0.0291908 
v 0.098775 0.0354956 0.0296656 
v 0.092425 0.0355956 0.0294145 
v 0.098775 0.0354518 0.0299323 
v 0.092425 0.0354956 0.0296656 
v 0.098775 0.0354665 0.0302022 
v 0.092425 0.0354518 0.0299323 
v 0.098775 0.0355388 0.0304627 
v 0.092425 0.0354665 0.0302022 
v 0.098775 0.0356654 0.0307015 
v 0.092425 0.0355388 0.0304627 
v 0.098775 0.0358404 0.0309075 
v 0.092425 0.0356654 0.0307015 
v 0.098775 0.0360556 0.0310711 
v 0.092425 0.0358404 0.0309075 
v 0.098775 0.0363009 0.0311846 
v 0.092425 0.0360556 0.0310711 
v 0.098775 0.0365649 0.0312427 
v 0.092425 0.0363009 0.0311846 
v 0.098775 0.0368351 0.0312427 
v 0.092425 0.0365649 0.0312427 
v 0.098775 0.0370991 0.0311846 
v 0.092425 0.0368351 0.0312427 
v 0.098775 0.0373444 0.0310711 
v 0.092425 0.0370991 0.0311846 
v 0.098775 0.0375596 0.0309075 
v 0.092425 0.0373444 0.0310711 
v 0.098775 0.0377346 0.0307015 
v 0.092425 0.0375596 0.0309075 
v 0.098775 0.0378612 0.0304627 
v 0.092425 0.0377346 0.0307015 
v 0.098775 0.0379335 0.0302022 
v 0.092425 0.0378612 0.0304627 
v 0.098775 0.0379482 0.0299323 
v 0.092425 0.0379335 0.0302022 
v 0.098775 0.0379044 0.0296656 
v 0.092425 0.0379482 0.0299323 
v 0.098775 0.0378044 0.0294145 
v 0.092425 0.0379044 0.0296656 
v 0.098775 0.0376527 0.0291908 
v 0.092425 0.0378044 0.0294145 
v 0.098775 0.0374565 0.0290049 
v 0.092425 0.0376527 0.0291908 
v 0.098775 0.0372249 0.0288655 
v 0.092425 0.0374565 0.0290049 
v 0.098775 0.0369687 0.0287792 
v 0.092425 0.0372249 0.0288655 
v 0.092425 0.0369687 0.0287792 
v 0.092425 0.04135 0.0313 
v 0.092425 0.04135 5.20417e-17 
v 0.092425 0.0296833 -6.93889e-18 
v 0.092425 0.0296833 0.00635 
v 0.092425 0.0168351 0.0312427 
v 0.092425 0.0165649 0.0312427 
v 0.092425 0.019825 0.00635 
v 0.092425 0.0178044 0.0294145 
v 0.092425 0.0174565 0.0290049 
v 0.092425 0.0176527 0.0291908 
v 0.092425 0.0127 0.0313 
v 0.092425 0.0158404 0.0309075 
v 0.092425 0.0156654 0.0307015 
v 0.092425 0.0178612 0.0304627 
v 0.092425 0.0177346 0.0307015 
v 0.092425 0.0179044 0.0296656 
v 0.092425 0.0172249 0.0288655 
v 0.092425 0.0169687 0.0287792 
v 0.092425 0.0180167 0.00635 
v 0.092425 0.0155388 0.0304627 
v 0.092425 0.0154665 0.0302022 
v 0.092425 0.0160556 0.0310711 
v 0.092425 0.0163009 0.0311846 
v 0.092425 0.0179335 0.0302022 
v 0.092425 0.0167 0.02875 
v 0.092425 0.00635 0.03048 
v 0.092425 0.0127 0.03048 
v 0.092425 0.0155956 0.0294145 
v 0.092425 0.0157473 0.0291908 
v 0.092425 0.0154518 0.0299323 
v 0.092425 0.0154956 0.0296656 
v 0.092425 0.0179482 0.0299323 
v 0.092425 0.0161751 0.0288655 
v 0.092425 0.0175596 0.0309075 
v 0.092425 0.0173444 0.0310711 
v 0.092425 0.0164313 0.0287792 
v 0.092425 0.0127 -3.46945e-18 
v 0.092425 0.0127 0.01524 
v 0.092425 0.0170991 0.0311846 
v 0.092425 0.0180167 -6.93889e-18 
v 0.092425 0.0159435 0.0290049 
v 0.092425 0.019825 0.0762 
v 0.092425 0.0178612 0.0431627 
v 0.092425 0.0177346 0.0434015 
v 0.092425 0.0127 0.04572 
v 0.092425 0.0154518 0.0426323 
v 0.092425 0.0154956 0.0423656 
v 0.092425 0.0175596 0.0436075 
v 0.092425 0.0179482 0.0426323 
v 0.092425 0.0155956 0.0421145 
v 0.092425 0.0157473 0.0418908 
v 0.092425 0.0173444 0.0437711 
v 0.092425 0.0179335 0.0429022 
v 0.092425 0.0178044 0.0421145 
v 0.092425 0.0179044 0.0423656 
v 0.092425 0.0174565 0.0417049 
v 0.092425 0.0176527 0.0418908 
v 0.092425 0.0159435 0.0417049 
v 0.092425 0.0161751 0.0415655 
v 0.092425 0.0156654 0.0434015 
v 0.092425 0.0155388 0.0431627 
v 0.092425 0.0160556 0.0437711 
v 0.092425 0.0158404 0.0436075 
v 0.092425 0.0169687 0.0414792 
v 0.092425 0.0172249 0.0415655 
v 0.092425 0.0163009 0.0438846 
v 0.092425 0.0170991 0.0438846 
v 0.092425 0.0164313 0.0414792 
v 0.092425 0.0167 0.04145 
v 0.092425 0.0154665 0.0429022 
v 0.092425 0.0168351 0.0439427 
v 0.092425 0.0165649 0.0439427 
v 0.092425 0.0127 0.06096 
v 0.092425 0.00635 0.06096 
v 0.092425 0.00635 0.04572 
v 0.092425 0.0267 0.03135 
v 0.092425 0.0305108 0.0331131 
v 0.092425 0.0364313 0.0414792 
v 0.092425 0.0367 0.04145 
v 0.092425 0.0311176 0.034008 
v 0.092425 0.0277749 0.0314669 
v 0.092425 0.0287994 0.0318121 
v 0.092425 0.0256251 0.0314669 
v 0.092425 0.0236741 0.0323695 
v 0.092425 0.0246006 0.0318121 
v 0.092425 0.0361751 0.0415655 
v 0.092425 0.0228892 0.0331131 
v 0.092425 0.0297259 0.0323695 
v 0.092425 0.0218823 0.0350124 
v 0.092425 0.0222824 0.034008 
v 0.092425 0.0217073 0.0360793 
v 0.092425 0.02225 0.06985 
v 0.092425 0.0220551 0.0382007 
v 0.092425 0.0217659 0.0371589 
v 0.092425 0.0308384 0.0391559 
v 0.092425 0.0355956 0.0421145 
v 0.092425 0.0357473 0.0418908 
v 0.092425 0.04135 0.0762 
v 0.092425 0.0375596 0.0436075 
v 0.092425 0.0373444 0.0437711 
v 0.092425 0.0315177 0.0350124 
v 0.092425 0.0316927 0.0360793 
v 0.092425 0.0232615 0.03998 
v 0.092425 0.0225616 0.0391559 
v 0.092425 0.0251035 0.0410883 
v 0.092425 0.0241222 0.0406343 
v 0.092425 0.0318 0.06985 
v 0.092425 0.0272406 0.0413207 
v 0.092425 0.0313449 0.0382007 
v 0.092425 0.0358404 0.0436075 
v 0.092425 0.0363009 0.0438846 
v 0.092425 0.0360556 0.0437711 
v 0.092425 0.0368351 0.0439427 
v 0.092425 0.0365649 0.0439427 
v 0.092425 0.0370991 0.0438846 
v 0.092425 0.0374565 0.0417049 
v 0.092425 0.0376527 0.0418908 
v 0.092425 0.0261594 0.0413207 
v 0.092425 0.0354956 0.0423656 
v 0.092425 0.0301385 0.03998 
v 0.092425 0.0354518 0.0426323 
v 0.092425 0.0292778 0.0406343 
v 0.092425 0.0356654 0.0434015 
v 0.092425 0.0377346 0.0434015 
v 0.092425 0.0379335 0.0429022 
v 0.092425 0.0378612 0.0431627 
v 0.092425 0.0379482 0.0426323 
v 0.092425 0.0378044 0.0421145 
v 0.092425 0.0359435 0.0417049 
v 0.092425 0.0316341 0.0371589 
v 0.092425 0.0282965 0.0410883 
v 0.092425 0.0354665 0.0429022 
v 0.092425 0.0379044 0.0423656 
v 0.092425 0.0372249 0.0415655 
v 0.092425 0.0369687 0.0414792 
v 0.092425 0.0355388 0.0431627 
v 0.092425 0.02225 0.0762 
v 0.092425 0.0318 0.0762 
v 0.092425 0.0127 0.0762 
v 0.092425 0.00635 0.01524 
v 0.092425 0.019825 0.0313 
v 0.098775 0.02225 0.06985 
v 0.098775 0.0261594 0.0413207 
v 0.098775 0.0272406 0.0413207 
v 0.098775 0.0246006 0.0318121 
v 0.098775 0.0236741 0.0323695 
v 0.098775 0.0308384 0.0391559 
v 0.098775 0.0313449 0.0382007 
v 0.098775 0.0357473 0.0418908 
v 0.098775 0.0364313 0.0414792 
v 0.098775 0.0361751 0.0415655 
v 0.098775 0.0311176 0.034008 
v 0.098775 0.0305108 0.0331131 
v 0.098775 0.04135 0.0313 
v 0.098775 0.0367 0.04145 
v 0.098775 0.0354518 0.0426323 
v 0.098775 0.0282965 0.0410883 
v 0.098775 0.0292778 0.0406343 
v 0.098775 0.0318 0.06985 
v 0.098775 0.0228892 0.0331131 
v 0.098775 0.0222824 0.034008 
v 0.098775 0.0256251 0.0314669 
v 0.098775 0.0359435 0.0417049 
v 0.098775 0.0277749 0.0314669 
v 0.098775 0.0267 0.03135 
v 0.098775 0.0297259 0.0323695 
v 0.098775 0.0287994 0.0318121 
v 0.098775 0.04135 0.0762 
v 0.098775 0.0375596 0.0436075 
v 0.098775 0.0377346 0.0434015 
v 0.098775 0.0354956 0.0423656 
v 0.098775 0.0251035 0.0410883 
v 0.098775 0.0232615 0.03998 
v 0.098775 0.0241222 0.0406343 
v 0.098775 0.0220551 0.0382007 
v 0.098775 0.0225616 0.0391559 
v 0.098775 0.0217659 0.0371589 
v 0.098775 0.0218823 0.0350124 
v 0.098775 0.0355956 0.0421145 
v 0.098775 0.0301385 0.03998 
v 0.098775 0.0316927 0.0360793 
v 0.098775 0.0373444 0.0437711 
v 0.098775 0.0363009 0.0438846 
v 0.098775 0.0365649 0.0439427 
v 0.098775 0.0358404 0.0436075 
v 0.098775 0.0360556 0.0437711 
v 0.098775 0.0355388 0.0431627 
v 0.098775 0.0356654 0.0434015 
v 0.098775 0.0217073 0.0360793 
v 0.098775 0.0316341 0.0371589 
v 0.098775 0.0315177 0.0350124 
v 0.098775 0.0378044 0.0421145 
v 0.098775 0.0376527 0.0418908 
v 0.098775 0.0379335 0.0429022 
v 0.098775 0.0378612 0.0431627 
v 0.098775 0.0368351 0.0439427 
v 0.098775 0.0370991 0.0438846 
v 0.098775 0.0354665 0.0429022 
v 0.098775 0.0318 0.0762 
v 0.098775 0.0379044 0.0423656 
v 0.098775 0.0379482 0.0426323 
v 0.098775 0.0372249 0.0415655 
v 0.098775 0.0369687 0.0414792 
v 0.098775 0.0374565 0.0417049 
v 0.098775 0.019825 0.0762 
v 0.098775 0.0127 0.04572 
v 0.098775 0.0127 0.0313 
v 0.098775 0.0154956 0.0423656 
v 0.098775 0.0160556 0.0437711 
v 0.098775 0.0127 0.06096 
v 0.098775 0.0155956 0.0421145 
v 0.098775 0.0159435 0.0417049 
v 0.098775 0.0157473 0.0418908 
v 0.098775 0.0156654 0.0434015 
v 0.098775 0.0158404 0.0436075 
v 0.098775 0.0154665 0.0429022 
v 0.098775 0.0155388 0.0431627 
v 0.098775 0.0164313 0.0414792 
v 0.098775 0.0161751 0.0415655 
v 0.098775 0.0154518 0.0426323 
v 0.098775 0.0163009 0.0438846 
v 0.098775 0.0165649 0.0439427 
v 0.098775 0.0167 0.04145 
v 0.098775 0.0178044 0.0421145 
v 0.098775 0.0176527 0.0418908 
v 0.098775 0.0179482 0.0426323 
v 0.098775 0.0179044 0.0423656 
v 0.098775 0.0127 0.0762 
v 0.098775 0.0173444 0.0437711 
v 0.098775 0.0175596 0.0436075 
v 0.098775 0.0168351 0.0439427 
v 0.098775 0.0170991 0.0438846 
v 0.098775 0.0174565 0.0417049 
v 0.098775 0.0172249 0.0415655 
v 0.098775 0.0179335 0.0429022 
v 0.098775 0.0178612 0.0431627 
v 0.098775 0.0177346 0.0434015 
v 0.098775 0.00635 0.04572 
v 0.098775 0.00635 0.06096 
v 0.098775 0.0169687 0.0414792 
v 0.098775 0.0165649 0.0312427 
v 0.098775 0.0168351 0.0312427 
v 0.098775 0.0163009 0.0311846 
v 0.098775 0.0155388 0.0304627 
v 0.098775 0.0156654 0.0307015 
v 0.098775 0.0160556 0.0310711 
v 0.098775 0.0158404 0.0309075 
v 0.098775 0.0170991 0.0311846 
v 0.098775 0.0173444 0.0310711 
v 0.098775 0.019825 0.00635 
v 0.098775 0.0179482 0.0299323 
v 0.098775 0.0175596 0.0309075 
v 0.098775 0.0177346 0.0307015 
v 0.098775 0.0154518 0.0299323 
v 0.098775 0.0154665 0.0302022 
v 0.098775 0.0155956 0.0294145 
v 0.098775 0.0154956 0.0296656 
v 0.098775 0.0159435 0.0290049 
v 0.098775 0.0157473 0.0291908 
v 0.098775 0.0127 0.03048 
v 0.098775 0.00635 0.01524 
v 0.098775 0.0127 0.01524 
v 0.098775 0.0179335 0.0302022 
v 0.098775 0.0178612 0.0304627 
v 0.098775 0.0180167 0.00635 
v 0.098775 0.0178044 0.0294145 
v 0.098775 0.0176527 0.0291908 
v 0.098775 0.0161751 0.0288655 
v 0.098775 0.0167 0.02875 
v 0.098775 0.0180167 0 
v 0.098775 0.0174565 0.0290049 
v 0.098775 0.0179044 0.0296656 
v 0.098775 0.0164313 0.0287792 
v 0.098775 0.0172249 0.0288655 
v 0.098775 0.0169687 0.0287792 
v 0.098775 0.00635 0.03048 
v 0.098775 0.0296833 0.00635 
v 0.098775 0.04135 5.55112e-17 
v 0.098775 0.0296833 0 
v 0.098775 0.0127 0 
v 0.098775 0.02225 0.0762 
v 0.098775 0.019825 0.0313 
vn -5.33596e-16 0.21497 0.976621 
vn -5.4637e-16 2.44929e-16 1 
vn -4.95872e-16 0.419889 0.907575 
vn -5.33596e-16 0.21497 0.976621 
vn -4.34961e-16 0.605174 0.796093 
vn -4.95872e-16 0.419889 0.907575 
vn -3.53712e-16 0.762162 0.647386 
vn -4.34961e-16 0.605174 0.796093 
vn -2.55924e-16 0.883512 0.468408 
vn -3.53712e-16 0.762162 0.647386 
vn -1.46169e-16 0.96355 0.267528 
vn -2.55924e-16 0.883512 0.468408 
vn -2.95799e-17 0.998533 0.0541389 
vn -1.46169e-16 0.96355 0.267528 
vn 8.83928e-17 0.986827 -0.161782 
vn -2.95799e-17 0.998533 0.0541389 
vn 2.02232e-16 0.928977 -0.370138 
vn 8.83928e-17 0.986827 -0.161782 
vn 3.06616e-16 0.827689 -0.561187 
vn 2.02232e-16 0.928977 -0.370138 
vn 3.96662e-16 0.687699 -0.725995 
vn 3.06616e-16 0.827689 -0.561187 
vn 4.68161e-16 0.515554 -0.856857 
vn 3.96662e-16 0.687699 -0.725995 
vn 5.17769e-16 0.319302 -0.947653 
vn 4.68161e-16 0.515554 -0.856857 
vn 5.43167e-16 0.108119 -0.994138 
vn 5.17769e-16 0.319302 -0.947653 
vn 5.43167e-16 -0.108119 -0.994138 
vn 5.43167e-16 0.108119 -0.994138 
vn 5.17769e-16 -0.319302 -0.947653 
vn 5.43167e-16 -0.108119 -0.994138 
vn 4.68161e-16 -0.515554 -0.856857 
vn 5.17769e-16 -0.319302 -0.947653 
vn 3.96662e-16 -0.687699 -0.725995 
vn 4.68161e-16 -0.515554 -0.856857 
vn 3.06616e-16 -0.827689 -0.561187 
vn 3.96662e-16 -0.687699 -0.725995 
vn 2.02232e-16 -0.928977 -0.370138 
vn 3.06616e-16 -0.827689 -0.561187 
vn 8.83928e-17 -0.986827 -0.161782 
vn 2.02232e-16 -0.928977 -0.370138 
vn -2.95799e-17 -0.998533 0.0541389 
vn 8.83928e-17 -0.986827 -0.161782 
vn -1.46169e-16 -0.96355 0.267528 
vn -2.95799e-17 -0.998533 0.0541389 
vn -2.55924e-16 -0.883512 0.468408 
vn -1.46169e-16 -0.96355 0.267528 
vn -3.53712e-16 -0.762162 0.647386 
vn -2.55924e-16 -0.883512 0.468408 
vn -4.34961e-16 -0.605174 0.796093 
vn -3.53712e-16 -0.762162 0.647386 
vn -4.95872e-16 -0.419889 0.907575 
vn -4.34961e-16 -0.605174 0.796093 
vn -5.33596e-16 -0.21497 0.976621 
vn -4.95872e-16 -0.419889 0.907575 
vn -1 0 -5.4637e-16 
vn 1 0 5.4637e-16 
vn -5.4637e-16 0 1 
vn 0 -1 0 
vn 5.4637e-16 0 -1 
vn 0 1 0 
vn -5.4637e-16 0 1 
vn 0 -1 0 
vn 5.4637e-16 0 -1 
vn -5.4637e-16 0 1 
vn 0 -1 0 
vn 5.4637e-16 0 -1 
vn -5.4637e-16 0 1 
vn 0 -1 0 
vn 0 1 0 
vn -5.4637e-16 0 1 
vn -5.33596e-16 0.21497 0.976621 
vn -4.95872e-16 0.419889 0.907575 
vn -4.34961e-16 0.605174 0.796093 
vn -3.53712e-16 0.762162 0.647386 
vn -2.55924e-16 0.883512 0.468408 
vn -1.46169e-16 0.96355 0.267528 
vn -2.95799e-17 0.998533 0.0541389 
vn 8.83928e-17 0.986827 -0.161782 
vn 2.02232e-16 0.928977 -0.370138 
vn 3.06616e-16 0.827689 -0.561187 
vn 3.96662e-16 0.687699 -0.725995 
vn 4.68161e-16 0.515554 -0.856857 
vn 5.17769e-16 0.319302 -0.947653 
vn 5.43167e-16 0.108119 -0.994138 
vn 5.43167e-16 -0.108119 -0.994138 
vn 5.17769e-16 -0.319302 -0.947653 
vn 4.68161e-16 -0.515554 -0.856857 
vn 3.96662e-16 -0.687699 -0.725995 
vn 3.06616e-16 -0.827689 -0.561187 
vn 2.02232e-16 -0.928977 -0.370138 
vn 8.83928e-17 -0.986827 -0.161782 
vn -2.95799e-17 -0.998533 0.0541389 
vn -1.46169e-16 -0.96355 0.267528 
vn -2.55924e-16 -0.883512 0.468408 
vn -3.53712e-16 -0.762162 0.647386 
vn -4.34961e-16 -0.605174 0.796093 
vn -4.95872e-16 -0.419889 0.907575 
vn -5.33596e-16 -0.21497 0.976621 
vn -5.33596e-16 0.21497 0.976621 
vn -5.4637e-16 2.44929e-16 1 
vn -4.95872e-16 0.419889 0.907575 
vn -5.33596e-16 0.21497 0.976621 
vn -4.34961e-16 0.605174 0.796093 
vn -4.95872e-16 0.419889 0.907575 
vn -3.53712e-16 0.762162 0.647386 
vn -4.34961e-16 0.605174 0.796093 
vn -2.55924e-16 0.883512 0.468408 
vn -3.53712e-16 0.762162 0.647386 
vn -1.46169e-16 0.96355 0.267528 
vn -2.55924e-16 0.883512 0.468408 
vn -2.95799e-17 0.998533 0.0541389 
vn -1.46169e-16 0.96355 0.267528 
vn 8.83928e-17 0.986827 -0.161782 
vn -2.95799e-17 0.998533 0.0541389 
vn 2.02232e-16 0.928977 -0.370138 
vn 8.83928e-17 0.986827 -0.161782 
vn 3.06616e-16 0.827689 -0.561187 
vn 2.02232e-16 0.928977 -0.370138 
vn 3.96662e-16 0.687699 -0.725995 
vn 3.06616e-16 0.827689 -0.561187 
vn 4.68161e-16 0.515554 -0.856857 
vn 3.96662e-16 0.687699 -0.725995 
vn 5.17769e-16 0.319302 -0.947653 
vn 4.68161e-16 0.515554 -0.856857 
vn 5.43167e-16 0.108119 -0.994138 
vn 5.17769e-16 0.319302 -0.947653 
vn 5.43167e-16 -0.108119 -0.994138 
vn 5.43167e-16 0.108119 -0.994138 
vn 5.17769e-16 -0.319302 -0.947653 
vn 5.43167e-16 -0.108119 -0.994138 
vn 4.68161e-16 -0.515554 -0.856857 
vn 5.17769e-16 -0.319302 -0.947653 
vn 3.96662e-16 -0.687699 -0.725995 
vn 4.68161e-16 -0.515554 -0.856857 
vn 3.06616e-16 -0.827689 -0.561187 
vn 3.96662e-16 -0.687699 -0.725995 
vn 2.02232e-16 -0.928977 -0.370138 
vn 3.06616e-16 -0.827689 -0.561187 
vn 8.83928e-17 -0.986827 -0.161782 
vn 2.02232e-16 -0.928977 -0.370138 
vn -2.95799e-17 -0.998533 0.0541389 
vn 8.83928e-17 -0.986827 -0.161782 
vn -1.46169e-16 -0.96355 0.267528 
vn -2.95799e-17 -0.998533 0.0541389 
vn -2.55924e-16 -0.883512 0.468408 
vn -1.46169e-16 -0.96355 0.267528 
vn -3.53712e-16 -0.762162 0.647386 
vn -2.55924e-16 -0.883512 0.468408 
vn -4.34961e-16 -0.605174 0.796093 
vn -3.53712e-16 -0.762162 0.647386 
vn -4.95872e-16 -0.419889 0.907575 
vn -4.34961e-16 -0.605174 0.796093 
vn -5.33596e-16 -0.21497 0.976621 
vn -4.95872e-16 -0.419889 0.907575 
vn -5.33596e-16 0.21497 0.976621 
vn -5.4637e-16 2.44929e-16 1 
vn -4.95872e-16 0.419889 0.907575 
vn -5.33596e-16 0.21497 0.976621 
vn -4.34961e-16 0.605174 0.796093 
vn -4.95872e-16 0.419889 0.907575 
vn -3.53712e-16 0.762162 0.647386 
vn -4.34961e-16 0.605174 0.796093 
vn -2.55924e-16 0.883512 0.468408 
vn -3.53712e-16 0.762162 0.647386 
vn -1.46169e-16 0.96355 0.267528 
vn -2.55924e-16 0.883512 0.468408 
vn -2.95799e-17 0.998533 0.0541389 
vn -1.46169e-16 0.96355 0.267528 
vn 8.83928e-17 0.986827 -0.161782 
vn -2.95799e-17 0.998533 0.0541389 
vn 2.02232e-16 0.928977 -0.370138 
vn 8.83928e-17 0.986827 -0.161782 
vn 3.06616e-16 0.827689 -0.561187 
vn 2.02232e-16 0.928977 -0.370138 
vn 3.96662e-16 0.687699 -0.725995 
vn 3.06616e-16 0.827689 -0.561187 
vn 4.68161e-16 0.515554 -0.856857 
vn 3.96662e-16 0.687699 -0.725995 
vn 5.17769e-16 0.319302 -0.947653 
vn 4.68161e-16 0.515554 -0.856857 
vn 5.43167e-16 0.108119 -0.994138 
vn 5.17769e-16 0.319302 -0.947653 
vn 5.43167e-16 -0.108119 -0.994138 
vn 5.43167e-16 0.108119 -0.994138 
vn 5.17769e-16 -0.319302 -0.947653 
vn 5.43167e-16 -0.108119 -0.994138 
vn 4.68161e-16 -0.515554 -0.856857 
vn 5.17769e-16 -0.319302 -0.947653 
vn 3.96662e-16 -0.687699 -0.725995 
vn 4.68161e-16 -0.515554 -0.856857 
vn 3.06616e-16 -0.827689 -0.561187 
vn 3.96662e-16 -0.687699 -0.725995 
vn 2.02232e-16 -0.928977 -0.370138 
vn 3.06616e-16 -0.827689 -0.561187 
vn 8.83928e-17 -0.986827 -0.161782 
vn 2.02232e-16 -0.928977 -0.370138 
vn -2.95799e-17 -0.998533 0.0541389 
vn 8.83928e-17 -0.986827 -0.161782 
vn -1.46169e-16 -0.96355 0.267528 
vn -2.95799e-17 -0.998533 0.0541389 
vn -2.55924e-16 -0.883512 0.468408 
vn -1.46169e-16 -0.96355 0.267528 
vn -3.53712e-16 -0.762162 0.647386 
vn -2.55924e-16 -0.883512 0.468408 
vn -4.34961e-16 -0.605174 0.796093 
vn -3.53712e-16 -0.762162 0.647386 
vn -4.95872e-16 -0.419889 0.907575 
vn -4.34961e-16 -0.605174 0.796093 
vn -5.33596e-16 -0.21497 0.976621 
vn -4.95872e-16 -0.419889 0.907575 
vn -5.33596e-16 0.21497 0.976621 
vn -5.4637e-16 2.44929e-16 1 
vn -4.95872e-16 0.419889 0.907575 
vn -5.33596e-16 0.21497 0.976621 
vn -4.34961e-16 0.605174 0.796093 
vn -4.95872e-16 0.419889 0.907575 
vn -3.53712e-16 0.762162 0.647386 
vn -4.34961e-16 0.605174 0.796093 
vn -2.55924e-16 0.883512 0.468408 
vn -3.53712e-16 0.762162 0.647386 
vn -1.46169e-16 0.96355 0.267528 
vn -2.55924e-16 0.883512 0.468408 
vn -2.95799e-17 0.998533 0.0541389 
vn -1.46169e-16 0.96355 0.267528 
vn 8.83928e-17 0.986827 -0.161782 
vn -2.95799e-17 0.998533 0.0541389 
vn 2.02232e-16 0.928977 -0.370138 
vn 8.83928e-17 0.986827 -0.161782 
vn 3.06616e-16 0.827689 -0.561187 
vn 2.02232e-16 0.928977 -0.370138 
vn 3.96662e-16 0.687699 -0.725995 
vn 3.06616e-16 0.827689 -0.561187 
vn 4.68161e-16 0.515554 -0.856857 
vn 3.96662e-16 0.687699 -0.725995 
vn 5.17769e-16 0.319302 -0.947653 
vn 4.68161e-16 0.515554 -0.856857 
vn 5.43167e-16 0.108119 -0.994138 
vn 5.17769e-16 0.319302 -0.947653 
vn 5.43167e-16 -0.108119 -0.994138 
vn 5.43167e-16 0.108119 -0.994138 
vn 5.17769e-16 -0.319302 -0.947653 
vn 5.43167e-16 -0.108119 -0.994138 
vn 4.68161e-16 -0.515554 -0.856857 
vn 5.17769e-16 -0.319302 -0.947653 
vn 3.96662e-16 -0.687699 -0.725995 
vn 4.68161e-16 -0.515554 -0.856857 
vn 3.06616e-16 -0.827689 -0.561187 
vn 3.96662e-16 -0.687699 -0.725995 
vn 2.02232e-16 -0.928977 -0.370138 
vn 3.06616e-16 -0.827689 -0.561187 
vn 8.83928e-17 -0.986827 -0.161782 
vn 2.02232e-16 -0.928977 -0.370138 
vn -2.95799e-17 -0.998533 0.0541389 
vn 8.83928e-17 -0.986827 -0.161782 
vn -1.46169e-16 -0.96355 0.267528 
vn -2.95799e-17 -0.998533 0.0541389 
vn -2.55924e-16 -0.883512 0.468408 
vn -1.46169e-16 -0.96355 0.267528 
vn -3.53712e-16 -0.762162 0.647386 
vn -2.55924e-16 -0.883512 0.468408 
vn -4.34961e-16 -0.605174 0.796093 
vn -3.53712e-16 -0.762162 0.647386 
vn -4.95872e-16 -0.419889 0.907575 
vn -4.34961e-16 -0.605174 0.796093 
vn -5.33596e-16 -0.21497 0.976621 
vn -4.95872e-16 -0.419889 0.907575 
usemtl 0.972549_0.529412_0.003922_0.000000_0.000000
o mesh0
f 1//1 2//2 3//2 
f 4//3 1//1 5//4 
f 6//5 4//3 7//6 
f 8//7 6//5 9//8 
f 10//9 8//7 11//10 
f 12//11 10//9 13//12 
f 14//13 12//11 15//14 
f 16//15 14//13 17//16 
f 18//17 16//15 19//18 
f 20//19 18//17 21//20 
f 22//21 20//19 23//22 
f 24//23 22//21 25//24 
f 26//25 24//23 27//26 
f 28//27 26//25 29//28 
f 30//29 28//27 31//30 
f 32//31 30//29 33//32 
f 34//33 32//31 35//34 
f 36//35 34//33 37//36 
f 38//37 36//35 39//38 
f 40//39 38//37 41//40 
f 42//41 40//39 43//42 
f 44//43 42//41 45//44 
f 46//45 44//43 47//46 
f 48//47 46//45 49//48 
f 50//49 48//47 51//50 
f 52//51 50//49 53//52 
f 54//53 52//51 55//54 
f 56//55 54//53 57//56 
f 2//2 56//55 58//55 
f 58//55 3//2 2//2 
f 57//56 58//55 56//55 
f 55//54 57//56 54//53 
f 53//52 55//54 52//51 
f 51//50 53//52 50//49 
f 49//48 51//50 48//47 
f 47//46 49//48 46//45 
f 45//44 47//46 44//43 
f 43//42 45//44 42//41 
f 41//40 43//42 40//39 
f 39//38 41//40 38//37 
f 37//36 39//38 36//35 
f 35//34 37//36 34//33 
f 33//32 35//34 32//31 
f 31//30 33//32 30//29 
f 29//28 31//30 28//27 
f 27//26 29//28 26//25 
f 25//24 27//26 24//23 
f 23//22 25//24 22//21 
f 21//20 23//22 20//19 
f 19//18 21//20 18//17 
f 17//16 19//18 16//15 
f 15//14 17//16 14//13 
f 13//12 15//14 12//11 
f 11//10 13//12 10//9 
f 9//8 11//10 8//7 
f 7//6 9//8 6//5 
f 5//4 7//6 4//3 
f 3//2 5//4 1//1 
o mesh1
f 59//57 60//57 51//57 
f 60//57 53//57 51//57 
f 60//57 58//57 57//57 
f 5//57 61//57 62//57 
f 60//57 55//57 53//57 
f 60//57 3//57 58//57 
f 61//57 5//57 3//57 
f 62//57 9//57 7//57 
f 59//57 33//57 31//57 
f 59//57 43//57 41//57 
f 57//57 55//57 60//57 
f 62//57 7//57 5//57 
f 62//57 15//57 13//57 
f 199//57 19//57 62//57 
f 31//57 199//57 59//57 
f 59//57 39//57 37//57 
f 59//57 45//57 43//57 
f 59//57 49//57 47//57 
f 3//57 60//57 61//57 
f 13//57 11//57 62//57 
f 199//57 21//57 19//57 
f 199//57 25//57 23//57 
f 31//57 29//57 199//57 
f 37//57 35//57 59//57 
f 47//57 45//57 59//57 
f 11//57 9//57 62//57 
f 62//57 19//57 17//57 
f 23//57 21//57 199//57 
f 29//57 27//57 199//57 
f 41//57 39//57 59//57 
f 17//57 15//57 62//57 
f 27//57 25//57 199//57 
f 51//57 49//57 59//57 
f 35//57 33//57 59//57 
f 199//57 63//57 64//57 
f 199//57 65//57 66//57 
f 65//57 67//57 68//57 
f 69//57 70//57 71//57 
f 64//57 69//57 199//57 
f 199//57 72//57 73//57 
f 66//57 74//57 199//57 
f 65//57 75//57 67//57 
f 76//57 65//57 77//57 
f 69//57 78//57 79//57 
f 69//57 80//57 70//57 
f 64//57 81//57 69//57 
f 199//57 82//57 72//57 
f 68//57 66//57 65//57 
f 77//57 83//57 76//57 
f 77//57 84//57 85//57 
f 85//57 86//57 87//57 
f 85//57 88//57 89//57 
f 79//57 85//57 69//57 
f 81//57 80//57 69//57 
f 199//57 90//57 82//57 
f 76//57 75//57 65//57 
f 85//57 91//57 77//57 
f 89//57 86//57 85//57 
f 71//57 78//57 69//57 
f 199//57 92//57 93//57 
f 74//57 90//57 199//57 
f 91//57 94//57 77//57 
f 95//57 96//57 77//57 
f 79//57 88//57 85//57 
f 93//57 97//57 199//57 
f 94//57 83//57 77//57 
f 77//57 98//57 95//57 
f 87//57 99//57 85//57 
f 73//57 92//57 199//57 
f 96//57 84//57 77//57 
f 97//57 63//57 199//57 
f 99//57 91//57 85//57 
f 100//57 101//57 102//57 
f 103//57 104//57 105//57 
f 102//57 106//57 100//57 
f 100//57 199//57 107//57 
f 69//57 108//57 109//57 
f 105//57 69//57 103//57 
f 106//57 110//57 100//57 
f 107//57 111//57 100//57 
f 199//57 112//57 113//57 
f 199//57 114//57 115//57 
f 69//57 116//57 117//57 
f 105//57 108//57 69//57 
f 103//57 118//57 119//57 
f 103//57 120//57 121//57 
f 111//57 101//57 100//57 
f 115//57 112//57 199//57 
f 199//57 122//57 123//57 
f 109//57 116//57 69//57 
f 121//57 118//57 103//57 
f 100//57 124//57 120//57 
f 110//57 125//57 100//57 
f 123//57 114//57 199//57 
f 69//57 126//57 127//57 
f 103//57 128//57 104//57 
f 120//57 103//57 100//57 
f 113//57 107//57 199//57 
f 127//57 199//57 69//57 
f 119//57 128//57 103//57 
f 100//57 129//57 130//57 
f 100//57 103//57 131//57 
f 132//57 131//57 103//57 
f 127//57 122//57 199//57 
f 130//57 124//57 100//57 
f 103//57 133//57 132//57 
f 117//57 126//57 69//57 
f 125//57 129//57 100//57 
f 59//57 199//57 134//57 
f 135//57 136//57 137//57 
f 136//57 135//57 138//57 
f 59//57 139//57 140//57 
f 199//57 141//57 134//57 
f 199//57 142//57 143//57 
f 138//57 144//57 136//57 
f 134//57 139//57 59//57 
f 199//57 145//57 142//57 
f 59//57 146//57 135//57 
f 143//57 141//57 199//57 
f 199//57 147//57 148//57 
f 140//57 146//57 59//57 
f 199//57 149//57 147//57 
f 150//57 151//57 152//57 
f 153//57 154//57 155//57 
f 156//57 157//57 158//57 
f 148//57 145//57 199//57 
f 152//57 199//57 150//57 
f 144//57 159//57 160//57 
f 150//57 161//57 162//57 
f 150//57 163//57 164//57 
f 150//57 165//57 166//57 
f 155//57 167//57 153//57 
f 166//57 156//57 168//57 
f 156//57 169//57 170//57 
f 156//57 171//57 172//57 
f 158//57 173//57 156//57 
f 59//57 174//57 175//57 
f 152//57 149//57 199//57 
f 144//57 138//57 159//57 
f 164//57 161//57 150//57 
f 166//57 176//57 150//57 
f 177//57 153//57 178//57 
f 153//57 177//57 154//57 
f 179//57 177//57 180//57 
f 168//57 181//57 166//57 
f 172//57 169//57 156//57 
f 156//57 182//57 157//57 
f 156//57 183//57 184//57 
f 59//57 185//57 183//57 
f 175//57 186//57 59//57 
f 160//57 187//57 144//57 
f 176//57 163//57 150//57 
f 155//57 187//57 167//57 
f 187//57 160//57 188//57 
f 189//57 190//57 179//57 
f 170//57 168//57 156//57 
f 184//57 182//57 156//57 
f 59//57 191//57 185//57 
f 59//57 192//57 174//57 
f 59//57 137//57 193//57 
f 162//57 151//57 150//57 
f 188//57 167//57 187//57 
f 180//57 189//57 179//57 
f 181//57 194//57 166//57 
f 183//57 156//57 59//57 
f 193//57 192//57 59//57 
f 178//57 180//57 177//57 
f 194//57 190//57 166//57 
f 186//57 191//57 59//57 
f 189//57 166//57 190//57 
f 137//57 59//57 135//57 
f 100//57 195//57 150//57 
f 156//57 166//57 165//57 
f 150//57 199//57 100//57 
f 173//57 171//57 156//57 
f 165//57 196//57 156//57 
f 131//57 197//57 100//57 
f 96//57 198//57 84//57 
f 62//57 65//57 199//57 
o mesh2
f 200//58 201//58 202//58 
f 340//58 203//58 204//58 
f 205//58 206//58 207//58 
f 208//58 209//58 210//58 
f 211//58 212//58 213//58 
f 214//58 215//58 216//58 
f 202//58 217//58 200//58 
f 340//58 218//58 219//58 
f 340//58 220//58 203//58 
f 206//58 221//58 207//58 
f 212//58 222//58 223//58 
f 212//58 224//58 225//58 
f 213//58 208//58 211//58 
f 226//58 227//58 228//58 
f 216//58 229//58 214//58 
f 200//58 230//58 201//58 
f 200//58 231//58 232//58 
f 200//58 233//58 234//58 
f 200//58 340//58 235//58 
f 219//58 236//58 340//58 
f 340//58 223//58 220//58 
f 207//58 237//58 205//58 
f 229//58 216//58 238//58 
f 209//58 221//58 239//58 
f 225//58 222//58 212//58 
f 210//58 211//58 208//58 
f 226//58 240//58 227//58 
f 226//58 241//58 242//58 
f 226//58 243//58 244//58 
f 226//58 245//58 246//58 
f 202//58 215//58 217//58 
f 234//58 231//58 200//58 
f 340//58 247//58 235//58 
f 204//58 218//58 340//58 
f 221//58 206//58 248//58 
f 238//58 205//58 229//58 
f 239//58 249//58 209//58 
f 211//58 224//58 212//58 
f 212//58 250//58 251//58 
f 212//58 226//58 252//58 
f 228//58 253//58 226//58 
f 226//58 254//58 255//58 
f 244//58 241//58 226//58 
f 226//58 256//58 245//58 
f 256//58 257//58 217//58 
f 232//58 230//58 200//58 
f 236//58 247//58 340//58 
f 237//58 229//58 205//58 
f 223//58 340//58 212//58 
f 212//58 258//58 250//58 
f 252//58 259//58 212//58 
f 255//58 240//58 226//58 
f 246//58 243//58 226//58 
f 217//58 214//58 256//58 
f 235//58 233//58 200//58 
f 249//58 210//58 209//58 
f 212//58 260//58 261//58 
f 251//58 262//58 212//58 
f 253//58 252//58 226//58 
f 256//58 226//58 257//58 
f 263//58 340//58 200//58 
f 248//58 239//58 221//58 
f 262//58 260//58 212//58 
f 242//58 254//58 226//58 
f 214//58 217//58 215//58 
f 259//58 258//58 212//58 
f 261//58 213//58 212//58 
f 264//58 265//58 266//58 
f 267//58 268//58 264//58 
f 265//58 269//58 266//58 
f 265//58 270//58 271//58 
f 264//58 272//58 273//58 
f 264//58 274//58 275//58 
f 271//58 269//58 265//58 
f 265//58 276//58 277//58 
f 275//58 272//58 264//58 
f 277//58 270//58 265//58 
f 264//58 273//58 267//58 
f 266//58 278//58 264//58 
f 268//58 279//58 280//58 
f 278//58 274//58 264//58 
f 267//58 279//58 268//58 
f 265//58 340//58 281//58 
f 340//58 282//58 283//58 
f 340//58 284//58 285//58 
f 263//58 286//58 268//58 
f 268//58 287//58 288//58 
f 268//58 289//58 290//58 
f 281//58 276//58 265//58 
f 340//58 291//58 292//58 
f 285//58 282//58 340//58 
f 263//58 293//58 284//58 
f 268//58 294//58 263//58 
f 288//58 295//58 268//58 
f 280//58 289//58 268//58 
f 283//58 291//58 340//58 
f 294//58 293//58 263//58 
f 290//58 287//58 268//58 
f 296//58 264//58 268//58 
f 284//58 340//58 263//58 
f 268//58 297//58 296//58 
f 292//58 298//58 340//58 
f 298//58 281//58 340//58 
f 340//58 265//58 299//58 
f 299//58 300//58 340//58 
f 265//58 301//58 299//58 
f 265//58 302//58 303//58 
f 265//58 304//58 301//58 
f 303//58 305//58 265//58 
f 340//58 306//58 307//58 
f 305//58 304//58 265//58 
f 308//58 340//58 309//58 
f 340//58 310//58 311//58 
f 300//58 306//58 340//58 
f 265//58 312//58 313//58 
f 265//58 314//58 315//58 
f 265//58 316//58 317//58 
f 318//58 319//58 320//58 
f 340//58 321//58 309//58 
f 311//58 322//58 340//58 
f 313//58 302//58 265//58 
f 317//58 314//58 265//58 
f 323//58 324//58 325//58 
f 320//58 326//58 318//58 
f 322//58 321//58 340//58 
f 315//58 312//58 265//58 
f 327//58 328//58 323//58 
f 325//58 329//58 323//58 
f 323//58 309//58 330//58 
f 320//58 331//58 326//58 
f 307//58 310//58 340//58 
f 318//58 326//58 316//58 
f 323//58 332//58 333//58 
f 330//58 324//58 323//58 
f 328//58 327//58 320//58 
f 320//58 327//58 331//58 
f 316//58 265//58 318//58 
f 329//58 332//58 323//58 
f 318//58 334//58 319//58 
f 323//58 333//58 327//58 
f 309//58 323//58 308//58 
f 212//58 28//58 30//58 
f 340//58 26//58 28//58 
f 212//58 36//58 38//58 
f 212//58 32//58 34//58 
f 28//58 212//58 340//58 
f 212//58 42//58 44//58 
f 38//58 40//58 212//58 
f 30//58 32//58 212//58 
f 340//58 22//58 24//58 
f 340//58 18//58 20//58 
f 340//58 308//58 10//58 
f 6//58 308//58 335//58 
f 212//58 46//58 48//58 
f 40//58 42//58 212//58 
f 24//58 26//58 340//58 
f 340//58 16//58 18//58 
f 340//58 12//58 14//58 
f 308//58 8//58 10//58 
f 335//58 1//58 4//58 
f 336//58 52//58 54//58 
f 48//58 336//58 212//58 
f 34//58 36//58 212//58 
f 14//58 16//58 340//58 
f 308//58 6//58 8//58 
f 335//58 2//58 1//58 
f 54//58 56//58 336//58 
f 48//58 50//58 336//58 
f 20//58 22//58 340//58 
f 335//58 4//58 6//58 
f 50//58 52//58 336//58 
f 10//58 12//58 340//58 
f 336//58 2//58 335//58 
f 44//58 46//58 212//58 
f 56//58 2//58 336//58 
f 335//58 337//58 336//58 
f 320//58 338//58 328//58 
f 295//58 294//58 268//58 
f 200//58 339//58 263//58 
o mesh3
f 195//59 100//59 263//59 
f 263//59 100//59 197//59 
f 197//59 286//59 263//59 
f 263//59 339//59 195//59 
o mesh4
f 198//60 319//60 334//60 
f 334//60 84//60 198//60 
o mesh5
f 297//60 132//60 133//60 
f 133//60 296//60 297//60 
o mesh6
f 328//61 338//61 95//61 
f 95//61 98//61 328//61 
o mesh7
f 336//61 337//61 61//61 
f 61//61 60//61 336//61 
o mesh8
f 59//62 212//62 336//62 
f 226//62 212//62 59//62 
f 59//62 156//62 226//62 
f 336//62 60//62 59//62 
o mesh9
f 156//63 196//63 257//63 
f 257//63 226//63 156//63 
o mesh10
f 77//62 323//62 328//62 
f 328//62 98//62 77//62 
o mesh11
f 61//64 337//64 335//64 
f 335//64 62//64 61//64 
o mesh12
f 335//65 308//65 65//65 
f 65//65 308//65 323//65 
f 323//65 77//65 65//65 
f 65//65 62//65 335//65 
o mesh13
f 85//66 84//66 334//66 
f 334//66 318//66 85//66 
o mesh14
f 318//67 265//67 69//67 
f 103//67 69//67 265//67 
f 265//67 264//67 103//67 
f 69//67 85//67 318//67 
o mesh15
f 296//68 133//68 103//68 
f 103//68 264//68 296//68 
o mesh16
f 95//67 338//67 320//67 
f 320//67 96//67 95//67 
o mesh17
f 319//68 198//68 96//68 
f 96//68 320//68 319//68 
o mesh18
f 131//69 132//69 297//69 
f 297//69 268//69 131//69 
o mesh19
f 286//70 197//70 131//70 
f 131//70 268//70 286//70 
o mesh20
f 196//70 165//70 217//70 
f 217//70 257//70 196//70 
o mesh21
f 150//71 195//71 339//71 
f 339//71 200//71 150//71 
o mesh22
f 165//72 150//72 200//72 
f 200//72 217//72 165//72 
o mesh23
f 331//73 327//72 83//72 
f 326//74 331//73 94//73 
f 316//75 326//74 91//74 
f 317//76 316//75 99//75 
f 314//77 317//76 87//76 
f 315//78 314//77 86//77 
f 312//79 315//78 89//78 
f 313//80 312//79 88//79 
f 302//81 313//80 79//80 
f 303//82 302//81 78//81 
f 305//83 303//82 71//82 
f 304//84 305//83 70//83 
f 301//85 304//84 80//84 
f 299//86 301//85 81//85 
f 300//87 299//86 64//86 
f 306//88 300//87 63//87 
f 307//89 306//88 97//88 
f 310//90 307//89 93//89 
f 311//91 310//90 92//90 
f 322//92 311//91 73//91 
f 321//93 322//92 72//92 
f 309//94 321//93 82//93 
f 330//95 309//94 90//94 
f 324//96 330//95 74//95 
f 325//97 324//96 66//96 
f 329//98 325//97 68//97 
f 332//99 329//98 67//98 
f 333//100 332//99 75//99 
f 327//72 333//100 76//100 
f 76//100 83//72 327//72 
f 75//99 76//100 333//100 
f 67//98 75//99 332//99 
f 68//97 67//98 329//98 
f 66//96 68//97 325//97 
f 74//95 66//96 324//96 
f 90//94 74//95 330//95 
f 82//93 90//94 309//94 
f 72//92 82//93 321//93 
f 73//91 72//92 322//92 
f 92//90 73//91 311//91 
f 93//89 92//90 310//90 
f 97//88 93//89 307//89 
f 63//87 97//88 306//88 
f 64//86 63//87 300//87 
f 81//85 64//86 299//86 
f 80//84 81//85 301//85 
f 70//83 80//84 304//84 
f 71//82 70//83 305//83 
f 78//81 71//82 303//82 
f 79//80 78//81 302//81 
f 88//79 79//80 313//80 
f 89//78 88//79 312//79 
f 86//77 89//78 315//78 
f 87//76 86//77 314//77 
f 99//75 87//76 317//76 
f 91//74 99//75 316//75 
f 94//73 91//74 326//74 
f 83//72 94//73 331//73 
o mesh24
f 208//101 213//102 137//102 
f 209//103 208//101 136//104 
f 221//105 209//103 144//106 
f 207//107 221//105 187//108 
f 237//109 207//107 155//110 
f 229//111 237//109 154//112 
f 214//113 229//111 177//114 
f 256//115 214//113 179//116 
f 245//117 256//115 190//118 
f 246//119 245//117 194//120 
f 243//121 246//119 181//122 
f 244//123 243//121 168//124 
f 241//125 244//123 170//126 
f 242//127 241//125 169//128 
f 254//129 242//127 172//130 
f 255//131 254//129 171//132 
f 240//133 255//131 173//134 
f 227//135 240//133 158//136 
f 228//137 227//135 157//138 
f 253//139 228//137 182//140 
f 252//141 253//139 184//142 
f 259//143 252//141 183//144 
f 258//145 259//143 185//146 
f 250//147 258//145 191//148 
f 251//149 250//147 186//150 
f 262//151 251//149 175//152 
f 260//153 262//151 174//154 
f 261//155 260//153 192//156 
f 213//102 261//155 193//155 
f 193//155 137//102 213//102 
f 192//156 193//155 261//155 
f 174//154 192//156 260//153 
f 175//152 174//154 262//151 
f 186//150 175//152 251//149 
f 191//148 186//150 250//147 
f 185//146 191//148 258//145 
f 183//144 185//146 259//143 
f 184//142 183//144 252//141 
f 182//140 184//142 253//139 
f 157//138 182//140 228//137 
f 158//136 157//138 227//135 
f 173//134 158//136 240//133 
f 171//132 173//134 255//131 
f 172//130 171//132 254//129 
f 169//128 172//130 242//127 
f 170//126 169//128 241//125 
f 168//124 170//126 244//123 
f 181//122 168//124 243//121 
f 194//120 181//122 246//119 
f 190//118 194//120 245//117 
f 179//116 190//118 256//115 
f 177//114 179//116 214//113 
f 154//112 177//114 229//111 
f 155//110 154//112 237//109 
f 187//108 155//110 207//107 
f 144//106 187//108 221//105 
f 136//104 144//106 209//103 
f 137//102 136//104 208//101 
o mesh25
f 276//157 281//158 127//158 
f 277//159 276//157 126//160 
f 270//161 277//159 117//162 
f 271//163 270//161 116//164 
f 269//165 271//163 109//166 
f 266//167 269//165 108//168 
f 278//169 266//167 105//170 
f 274//171 278//169 104//172 
f 275//173 274//171 128//174 
f 272//175 275//173 119//176 
f 273//177 272//175 118//178 
f 267//179 273//177 121//180 
f 279//181 267//179 120//182 
f 280//183 279//181 124//184 
f 289//185 280//183 130//186 
f 290//187 289//185 129//188 
f 287//189 290//187 125//190 
f 288//191 287//189 110//192 
f 295//193 288//191 106//194 
f 294//195 295//193 102//196 
f 293//197 294//195 101//198 
f 284//199 293//197 111//200 
f 285//201 284//199 107//202 
f 282//203 285//201 113//204 
f 283//205 282//203 112//206 
f 291//207 283//205 115//208 
f 292//209 291//207 114//210 
f 298//211 292//209 123//212 
f 281//158 298//211 122//211 
f 122//211 127//158 281//158 
f 123//212 122//211 298//211 
f 114//210 123//212 292//209 
f 115//208 114//210 291//207 
f 112//206 115//208 283//205 
f 113//204 112//206 282//203 
f 107//202 113//204 285//201 
f 111//200 107//202 284//199 
f 101//198 111//200 293//197 
f 102//196 101//198 294//195 
f 106//194 102//196 295//193 
f 110//192 106//194 288//191 
f 125//190 110//192 287//189 
f 129//188 125//190 290//187 
f 130//186 129//188 289//185 
f 124//184 130//186 280//183 
f 120//182 124//184 279//181 
f 121//180 120//182 267//179 
f 118//178 121//180 273//177 
f 119//176 118//178 272//175 
f 128//174 119//176 275//173 
f 104//172 128//174 274//171 
f 105//170 104//172 278//169 
f 108//168 105//170 266//167 
f 109//166 108//168 269//165 
f 116//164 109//166 271//163 
f 117//162 116//164 270//161 
f 126//160 117//162 277//159 
f 127//158 126//160 276//157 
o mesh26
f 220//213 223//214 134//214 
f 203//215 220//213 141//216 
f 204//217 203//215 143//218 
f 218//219 204//217 142//220 
f 219//221 218//219 145//222 
f 236//223 219//221 148//224 
f 247//225 236//223 147//226 
f 235//227 247//225 149//228 
f 233//229 235//227 152//230 
f 234//231 233//229 151//232 
f 231//233 234//231 162//234 
f 232//235 231//233 161//236 
f 230//237 232//235 164//238 
f 201//239 230//237 163//240 
f 202//241 201//239 176//242 
f 215//243 202//241 166//244 
f 216//245 215//243 189//246 
f 238//247 216//245 180//248 
f 205//249 238//247 178//250 
f 206//251 205//249 153//252 
f 248//253 206//251 167//254 
f 239//255 248//253 188//256 
f 249//257 239//255 160//258 
f 210//259 249//257 159//260 
f 211//261 210//259 138//262 
f 224//263 211//261 135//264 
f 225//265 224//263 146//266 
f 222//267 225//265 140//268 
f 223//214 222//267 139//267 
f 139//267 134//214 223//214 
f 140//268 139//267 222//267 
f 146//266 140//268 225//265 
f 135//264 146//266 224//263 
f 138//262 135//264 211//261 
f 159//260 138//262 210//259 
f 160//258 159//260 249//257 
f 188//256 160//258 239//255 
f 167//254 188//256 248//253 
f 153//252 167//254 206//251 
f 178//250 153//252 205//249 
f 180//248 178//250 238//247 
f 189//246 180//248 216//245 
f 166//244 189//246 215//243 
f 176//242 166//244 202//241 
f 163//240 176//242 201//239 
f 164//238 163//240 230//237 
f 161//236 164//238 232//235 
f 162//234 161//236 231//233 
f 151//232 162//234 234//231 
f 152//230 151//232 233//229 
f 149//228 152//230 235//227 
f 147//226 149//228 247//225 
f 148//224 147//226 236//223 
f 145//222 148//224 219//221 
f 142//220 145//222 218//219 
f 143//218 142//220 204//217 
f 141//216 143//218 203//215 
f 134//214 141//216 220//213 
